<?xml version="1.0" encoding="utf-8"?>
<!-- Generator: Adobe Illustrator 28.0.0, SVG Export Plug-In . SVG Version: 6.00 Build 0)  -->
<svg version="1.1" id="Layer_1" xmlns="http://www.w3.org/2000/svg" xmlns:xlink="http://www.w3.org/1999/xlink" x="0px" y="0px"
	 viewBox="0 0 500 500" style="enable-background:new 0 0 500 500;" xml:space="preserve">
<style type="text/css">
	.st0{fill:#F68620;}
</style>
<g>
	<g>
		<path class="st0" d="M334,272.45c-60.93,0-110.5-49.57-110.5-110.5S273.07,51.45,334,51.45s110.5,49.57,110.5,110.5
			S394.93,272.45,334,272.45z M334,68.45c-51.56,0-93.5,41.94-93.5,93.5s41.94,93.5,93.5,93.5s93.5-41.94,93.5-93.5
			S385.56,68.45,334,68.45z"/>
	</g>
	<g>
		<g>
			<path class="st0" d="M332.2,217.19c-11.74,0-23.52-4.73-31.26-13.49c-3.11-3.52-2.77-8.89,0.75-12c3.52-3.11,8.89-2.77,12,0.75
				c6.93,7.85,20.63,10.12,29.92,4.95c3.93-2.19,6.43-5.37,7.05-8.97c0.59-3.46-0.61-7.11-3.38-10.31
				c-2.06-1.74-11.14-5.62-16.6-7.94c-12.07-5.15-19.08-8.25-22.57-12.2c-6.33-7.17-8.99-15.89-7.5-24.56
				c1.48-8.65,7.15-16.28,15.54-20.95c16.31-9.08,38.68-5.32,50.93,8.55c3.11,3.52,2.77,8.89-0.75,12s-8.89,2.77-12-0.75
				c-6.93-7.85-20.63-10.12-29.92-4.95c-3.93,2.19-6.43,5.37-7.05,8.97c-0.59,3.46,0.61,7.11,3.38,10.31
				c2.06,1.74,11.14,5.62,16.6,7.94c12.08,5.15,19.08,8.25,22.57,12.2c6.33,7.17,8.99,15.89,7.5,24.56
				c-1.48,8.65-7.15,16.28-15.54,20.95C345.86,215.59,339.04,217.19,332.2,217.19z"/>
		</g>
		<g>
			<path class="st0" d="M334,123.95c-4.69,0-8.5-3.81-8.5-8.5v-14.5c0-4.69,3.81-8.5,8.5-8.5s8.5,3.81,8.5,8.5v14.5
				C342.5,120.15,338.69,123.95,334,123.95z"/>
		</g>
		<g>
			<path class="st0" d="M334,231.45c-4.69,0-8.5-3.81-8.5-8.5v-12.74c0-4.69,3.81-8.5,8.5-8.5s8.5,3.81,8.5,8.5v12.74
				C342.5,227.65,338.69,231.45,334,231.45z"/>
		</g>
	</g>
	<g>
		<g>
			<path class="st0" d="M334,323.65c-2.18,0-4.35-0.83-6.01-2.49c-3.32-3.32-3.32-8.7,0-12.02l28.7-28.7c3.32-3.32,8.7-3.32,12.02,0
				c3.32,3.32,3.32,8.7,0,12.02l-28.7,28.7C338.35,322.82,336.18,323.65,334,323.65z"/>
		</g>
		<g>
			<path class="st0" d="M362.7,352.35c-2.18,0-4.35-0.83-6.01-2.49l-28.7-28.7c-3.32-3.32-3.32-8.7,0-12.02
				c3.32-3.32,8.7-3.32,12.02,0l28.7,28.7c3.32,3.32,3.32,8.7,0,12.02C367.05,351.52,364.88,352.35,362.7,352.35z"/>
		</g>
	</g>
	<g>
		<path class="st0" d="M334,323.45c-4.69,0-8.5-3.81-8.5-8.5s3.81-8.5,8.5-8.5c78.02,0,141.5-63.48,141.5-141.5
			S412.02,23.45,334,23.45c-4.69,0-8.5-3.81-8.5-8.5s3.81-8.5,8.5-8.5c87.4,0,158.5,71.1,158.5,158.5S421.4,323.45,334,323.45z"/>
	</g>
	<g>
		<path class="st0" d="M85,489.48H31c-12.96,0-23.5-10.54-23.5-23.5v-122c0-12.96,10.54-23.5,23.5-23.5h54
			c12.96,0,23.5,10.54,23.5,23.5v122C108.5,478.94,97.96,489.48,85,489.48z M31,337.48c-3.58,0-6.5,2.92-6.5,6.5v122
			c0,3.58,2.92,6.5,6.5,6.5h54c3.58,0,6.5-2.92,6.5-6.5v-122c0-3.58-2.92-6.5-6.5-6.5H31z"/>
	</g>
	<g>
		<path class="st0" d="M267.04,422.67c-5.33,0-10.63-1.34-15.4-3.98l-44.36-21.56c-4.22-2.05-5.98-7.14-3.93-11.36
			c2.05-4.22,7.14-5.98,11.36-3.93l44.58,21.67c0.16,0.08,0.31,0.16,0.47,0.25c3.81,2.15,8.34,2.51,12.45,1l1.6-0.6
			c5.8-2.15,9.69-7.73,9.69-13.9c0-5.7-3.34-10.96-8.5-13.39l-82.74-39.02c-14.99-7.07-32.43-7.67-47.85-1.62l-41.31,16.16
			c-4.37,1.71-9.3-0.45-11.01-4.82c-1.71-4.37,0.45-9.3,4.82-11.01l41.31-16.16c19.76-7.74,42.11-6.98,61.31,2.08l82.74,39.02
			c11.08,5.23,18.24,16.52,18.24,28.77c0,13.24-8.34,25.22-20.75,29.83l-1.61,0.6C274.53,422.01,270.78,422.67,267.04,422.67z"/>
	</g>
	<g>
		<path class="st0" d="M224.47,493.55c-8.33,0-16.64-2.23-24.09-6.66l-42.51-25.27c-6.8-4.04-14.84-5.55-22.64-4.25l-32.84,5.47
			c-4.63,0.76-9.01-2.36-9.78-6.99s2.36-9.01,6.99-9.78l32.84-5.47c11.75-1.95,23.86,0.32,34.12,6.41l42.51,25.27
			c8.93,5.31,19.79,5.68,29.06,0.98l183.27-92.94c2.79-1.42,4.69-4.23,4.94-7.35c0.36-4.27-2.36-8.24-6.45-9.47l-1.15-0.35
			c-1.74-0.52-3.61-0.51-5.37,0.05l-119.17,38.13c-4.47,1.43-9.25-1.03-10.69-5.51c-1.43-4.47,1.03-9.25,5.51-10.69l119.18-38.13
			c5.05-1.61,10.39-1.66,15.45-0.14l1.14,0.35c11.72,3.51,19.5,14.93,18.48,27.15c-0.74,8.95-6.17,17.04-14.19,21.1l-183.27,92.94
			C239.06,491.84,231.76,493.55,224.47,493.55z"/>
	</g>
	<g>
		<path class="st0" d="M49.5,463.95c-9.37,0-17-7.63-17-17s7.63-17,17-17s17,7.63,17,17S58.87,463.95,49.5,463.95z M49.5,446.95
			c-0.01,0-0.01,0-0.01,0H49.5z"/>
	</g>
</g>
</svg>
