<?xml version="1.0" encoding="utf-8"?>
<!-- Generator: Adobe Illustrator 28.0.0, SVG Export Plug-In . SVG Version: 6.00 Build 0)  -->
<svg version="1.1" id="Layer_1" xmlns="http://www.w3.org/2000/svg" xmlns:xlink="http://www.w3.org/1999/xlink" x="0px" y="0px"
	 viewBox="0 0 500 500" style="enable-background:new 0 0 500 500;" xml:space="preserve">
<style type="text/css">
	.st0{fill:#F68620;}
</style>
<g id="Circles">
	<path id="Shape_17_" class="st0" d="M261.86,478.03c-0.37-3.13-2.95-5.34-6.08-5.34c-1.1,0-2.21,0.18-3.13,0.74l-0.74,0.55
		c-0.18,0.18-0.55,0.37-0.74,0.55c-0.92,0.92-1.29,2.21-1.47,3.31c-0.18,1.66,0.18,3.31,1.29,4.42c0.37,0.55,0.92,0.92,1.47,1.1
		l0.92,0.37c0.74,0.18,1.47,0.37,2.21,0.37c2.58,0,4.79-1.66,5.71-4.05c0.18-0.92,0.18-1.66,0-2.58"/>
	<path id="Shape_18_" class="st0" d="M235.35,486.5v-1.1c-0.74-2.58-3.31-4.42-6.08-4.23c-2.03,0-4.05,1.1-5.16,2.95v0.37
		c0,0.18,0,0.37,0,0.55c0,0.18,0,0.37,0,0.55c0,0.18,0,0.18,0,0.37c0,0.18,0,0.18,0,0.37v0.37c-0.18,1.47,0.18,2.95,1.1,4.05
		c0.92,1.1,2.03,1.84,3.5,2.03h0.74h0.74c1.66,0,3.31-0.74,4.6-2.03l0.37-0.55C235.53,488.89,235.72,487.6,235.35,486.5"/>
	<path id="Shape_19_" class="st0" d="M324.46,469.38c1.84,0,3.5-0.74,4.79-2.03c1.1-1.29,1.47-2.95,1.29-4.6c0-0.18,0-0.55,0-0.74
		v-0.55c-0.74-2.39-2.95-4.05-5.52-4.05c-2.03,0-3.87,0.92-5.16,2.39c-0.92,1.29-1.29,2.76-1.1,4.23v0.37c0,0.18,0,0.18,0,0.37
		c0,0,0,0,0,0.37c0.74,2.76,3.13,4.6,6.08,4.6"/>
	<path id="Shape_20_" class="st0" d="M259.84,79.6c-1.1,1.29-1.47,2.95-1.47,4.6c0.37,3.13,2.95,5.34,6.08,5.34
		c1.84,0,3.5-0.74,4.79-2.03c1.47-1.84,1.84-4.23,0.92-6.44c-0.92-2.21-3.13-3.5-5.34-3.5C262.97,77.57,261.13,78.31,259.84,79.6"/>
	<path id="Shape_21_" class="st0" d="M261.49,96.17c-1.1,1.29-1.47,2.95-1.29,4.6c0.18,1.47,0.74,2.95,1.84,3.87
		c1.1,0.92,2.58,1.47,4.05,1.47c1.84,0,3.5-0.74,4.79-2.03c1.47-1.84,1.84-4.23,0.92-6.44c-0.92-2.21-3.13-3.5-5.34-3.5
		C264.62,94.14,262.78,94.88,261.49,96.17"/>
	<path id="Shape_22_" class="st0" d="M262.97,111.27c-1.1,1.29-1.66,2.95-1.47,4.6c0.37,3.13,2.95,5.34,6.08,5.34
		c1.84,0,3.5-0.74,4.79-2.03c1.1-1.29,1.47-2.95,1.47-4.6c-0.37-3.13-2.95-5.34-6.08-5.34
		C265.91,109.24,264.26,109.98,262.97,111.27"/>
	<path id="Shape_23_" class="st0" d="M255.97,40.38c-1.1,1.29-1.47,2.95-1.29,4.6c0.37,3.13,2.95,5.34,6.08,5.34
		c1.84,0,3.5-0.74,4.79-2.03c1.47-1.84,1.84-4.23,0.92-6.44c-0.92-2.21-3.13-3.5-5.34-3.5C259.1,38.36,257.44,39.09,255.97,40.38"/>
	<path id="Shape_24_" class="st0" d="M258,61c-1.47,1.84-1.84,4.23-0.92,6.44c0.92,2.21,3.13,3.5,5.34,3.5
		c1.84,0,3.5-0.74,4.79-2.03c1.47-1.84,1.84-4.23,0.92-6.44c-0.92-2.21-3.13-3.5-5.34-3.5C260.94,58.98,259.28,59.71,258,61"/>
	<path id="Shape_25_" class="st0" d="M258.36,27.49c1.84,0,3.5-0.74,4.79-2.03c1.1-1.29,1.66-2.95,1.47-4.6
		c-0.37-3.13-2.95-5.34-6.08-5.34c-1.84,0-3.5,0.74-4.79,2.03c-1.1,1.29-1.47,2.95-1.47,4.6C252.66,25.28,255.23,27.49,258.36,27.49
		"/>
	<path id="Shape_26_" class="st0" d="M269.04,122.68c-1.84,0-3.5,0.74-4.79,2.03c-1.47,1.84-1.84,4.23-0.92,6.44
		c0.92,2.21,3.13,3.5,5.34,3.5c1.84,0,3.5-0.74,4.79-2.03c1.47-1.84,1.84-4.23,0.92-6.44C273.46,123.97,271.44,122.68,269.04,122.68
		"/>
	<path id="Shape_27_" class="st0" d="M249.16,88.62c-2.03,0-3.87,0.74-5.16,2.21c-1.1,1.47-1.47,3.13-1.1,4.97
		c0.55,2.95,3.13,4.97,6.08,4.79c2.03,0,3.87-0.74,5.16-2.21c1.1-1.47,1.47-3.13,1.1-4.97C254.87,90.46,252.1,88.44,249.16,88.62"/>
	<path id="Shape_28_" class="st0" d="M247.5,106.66c-1.1,1.29-1.47,3.13-1.1,4.97c0.55,2.95,3.13,4.97,6.08,4.79
		c2.03,0,3.87-0.92,5.16-2.39c1.1-1.29,1.47-3.13,1.1-4.79c-0.55-2.95-3.13-4.97-6.08-4.79
		C250.63,104.45,248.61,105.19,247.5,106.66"/>
	<path id="Shape_29_" class="st0" d="M254.87,130.23c2.03,0,3.87-0.92,5.16-2.39c1.1-1.47,1.47-3.13,1.1-4.97
		c-0.37-2.76-2.95-4.79-5.71-4.79c-2.03,0-3.87,0.74-5.16,2.21c-1.29,1.84-1.66,4.23-0.55,6.26
		C250.45,128.76,252.47,130.05,254.87,130.23"/>
	<path id="Shape_30_" class="st0" d="M236.64,54.74c-1.1,1.29-1.47,3.13-1.1,4.97c0.55,2.95,3.13,4.97,6.08,4.79
		c2.03,0,3.87-0.74,5.16-2.21c1.29-1.84,1.66-4.23,0.55-6.26c-0.92-2.03-3.13-3.31-5.34-3.31c-2.03,0-3.87,0.74-5.16,2.21"/>
	<path id="Shape_31_" class="st0" d="M240.69,73.89c-1.1,1.29-1.47,3.13-1.1,4.79c0.55,2.95,3.13,4.97,6.08,4.79
		c2.03,0,3.87-0.74,5.16-2.21c1.1-1.29,1.47-3.13,1.1-4.97c-0.55-2.95-3.13-4.97-6.08-4.79C243.82,71.5,241.98,72.23,240.69,73.89"
		/>
	<path id="Shape_32_" class="st0" d="M232.4,33.2c-1.29,1.84-1.47,4.23-0.55,6.26c0.92,2.03,2.95,3.31,5.34,3.31
		c2.03,0,3.87-0.74,5.16-2.21c1.1-1.29,1.47-3.13,1.1-4.97c-0.55-2.95-3.13-4.97-6.08-4.79c-2.03,0-3.87,0.74-5.16,2.21"/>
	<path id="Shape_33_" class="st0" d="M230.75,84.39c-2.03,0-4.05,0.92-5.34,2.58c-1.1,1.47-1.47,3.5-0.74,5.16
		c0.74,2.58,2.95,4.23,5.52,4.23c2.03,0,4.05-0.92,5.16-2.39c1.1-1.47,1.29-3.5,0.74-5.16c-0.74-2.58-2.95-4.23-5.52-4.23"/>
	<path id="Shape_34_" class="st0" d="M230.38,102.98c-1.1,1.47-1.29,3.5-0.74,5.16c0.74,2.58,2.95,4.23,5.52,4.23
		c2.03,0,4.05-0.92,5.34-2.58c1.1-1.47,1.29-3.5,0.74-5.16c-0.74-2.58-2.95-4.23-5.52-4.23
		C233.51,100.22,231.67,101.32,230.38,102.98"/>
	<path id="Shape_35_" class="st0" d="M239.77,126.73c2.03,0,4.05-0.92,5.34-2.58c1.1-1.47,1.29-3.5,0.74-5.34
		c-0.74-2.39-2.95-4.23-5.52-4.05c-2.03,0-4.05,0.92-5.34,2.58c-1.1,1.47-1.29,3.5-0.74,5.34
		C234.8,125.08,237.19,126.73,239.77,126.73z"/>
	<path id="Shape_36_" class="st0" d="M213.44,49.4c-1.1,1.47-1.29,3.5-0.74,5.34c0.74,2.39,2.95,4.23,5.52,4.05
		c2.03,0,4.05-0.92,5.34-2.58c1.1-1.47,1.29-3.5,0.74-5.16c-0.74-2.58-2.95-4.23-5.52-4.23C216.75,46.83,214.73,47.75,213.44,49.4"
		/>
	<path id="Shape_37_" class="st0" d="M219.7,69.29c-1.29,1.84-1.29,4.23-0.37,6.08c0.92,2.03,2.95,3.13,5.16,3.31
		c2.03,0,4.05-0.92,5.34-2.58c1.1-1.84,1.29-4.05,0.37-6.08c-0.92-2.03-2.95-3.13-5.16-3.31C223.01,66.53,220.99,67.63,219.7,69.29"
		/>
	<path id="Shape_38_" class="st0" d="M211.23,37.07c2.03,0,4.05-0.92,5.34-2.58c1.1-1.47,1.29-3.5,0.74-5.16
		c-0.74-2.58-2.95-4.23-5.52-4.23c-2.03,0-4.05,0.92-5.34,2.58c-1.1,1.47-1.29,3.5-0.74,5.16
		C206.44,35.23,208.65,37.07,211.23,37.07"/>
	<path id="Shape_39_" class="st0" d="M243.82,139.62c2.03,0,4.05-0.92,5.34-2.58c1.1-1.84,1.29-4.05,0.37-6.08
		c-0.92-2.03-2.95-3.13-5.16-3.31c-2.03,0-4.05,0.92-5.34,2.58c-1.1,1.47-1.29,3.5-0.74,5.34
		C239.03,137.96,241.24,139.62,243.82,139.62"/>
	<path id="Shape_40_" class="st0" d="M217.67,98.38c-2.21,0-4.23,1.1-5.52,2.95c-1.1,1.84-1.1,4.05-0.18,5.89
		c0.92,1.84,2.95,3.13,4.97,3.13c2.21,0,4.23-1.1,5.52-2.95c1.1-1.66,1.1-3.68,0.37-5.52C222.28,99.85,220.07,98.38,217.67,98.38"/>
	<path id="Shape_41_" class="st0" d="M218.41,116.24c-1.1,1.66-1.29,3.68-0.37,5.52c0.92,2.03,2.95,3.5,5.34,3.5
		c2.21,0,4.23-1.1,5.52-2.95c1.1-1.66,1.29-3.68,0.37-5.52c-0.92-2.21-2.95-3.5-5.34-3.68C221.72,113.29,219.7,114.4,218.41,116.24"
		/>
	<path id="Shape_42_" class="st0" d="M234.8,135.2c1.1-1.84,1.1-4.05,0.18-5.89c-0.92-1.84-2.95-3.13-4.97-3.13
		c-2.21,0-4.23,1.1-5.52,2.95c-0.92,1.66-0.92,3.87,0,5.52c0.92,2.21,2.95,3.5,5.16,3.5c2.21,0,4.23-1.1,5.52-2.95"/>
	<path id="Shape_43_" class="st0" d="M197.42,67.45c-0.92,1.66-0.92,3.87,0,5.52c0.92,2.21,2.95,3.5,5.16,3.5
		c2.21,0,4.23-1.1,5.52-2.95c1.1-1.66,1.29-3.68,0.37-5.52c-0.92-2.21-2.95-3.68-5.34-3.68c-2.21,0-4.23,1.1-5.52,2.95"/>
	<path id="Shape_44_" class="st0" d="M210.86,82.36c-2.21,0-4.42,1.1-5.52,2.95c-1.1,1.66-1.1,3.68-0.37,5.52
		c0.74,2.21,2.95,3.68,5.16,3.68c2.21,0,4.23-1.1,5.52-2.95c1.1-1.66,1.29-3.68,0.37-5.52C215.28,83.65,213.25,82.36,210.86,82.36"
		/>
	<path id="Shape_45_" class="st0" d="M188.77,47.38c-1.1,1.84-1.1,4.05,0,5.89c0.92,1.84,2.95,3.13,4.97,3.13
		c2.21,0,4.23-1.1,5.52-2.95c1.1-1.66,1.1-3.68,0.37-5.52c-0.74-2.21-2.95-3.68-5.16-3.5C192.08,44.25,190.06,45.54,188.77,47.38"/>
	<path id="Shape_46_" class="st0" d="M183.98,34.49c2.21,0,4.23-1.1,5.52-2.95c1.1-1.66,1.29-3.68,0.37-5.52
		c-0.92-2.21-2.95-3.5-5.34-3.5c-2.21,0-4.23,1.1-5.52,2.95c-1.1,1.66-1.29,3.68-0.37,5.52C179.56,33.02,181.77,34.49,183.98,34.49"
		/>
	<path id="Shape_47_" class="st0" d="M232.03,19.58c2.21,0,4.23-1.1,5.52-2.95c1.1-1.84,1.1-4.05,0.18-5.89
		c-1.1-1.84-2.95-3.13-4.97-3.13c-2.21,0-4.23,1.1-5.52,2.95c-1.1,1.84-1.1,4.05-0.18,5.89C227.98,18.29,230.01,19.58,232.03,19.58"
		/>
	<path id="Shape_48_" class="st0" d="M198.52,98.01c-2.39,0-4.42,1.29-5.71,3.31c-0.92,1.84-0.92,4.05,0.18,5.71
		c1.1,1.84,2.95,2.95,4.97,2.95c2.39,0,4.42-1.29,5.71-3.31c1.1-1.84,1.1-4.23,0-6.08c-0.92-1.84-2.95-3.13-4.97-3.13"/>
	<path id="Shape_49_" class="st0" d="M201.1,116.05c-1.1,1.84-1.1,4.23,0,6.08c0.92,1.84,2.95,3.13,4.97,2.95
		c2.39,0,4.6-1.29,5.71-3.31c1.1-1.84,1.1-4.23,0-6.08c-0.92-1.84-2.95-2.95-4.97-2.95C204.6,112.74,202.39,114.03,201.1,116.05"/>
	<path id="Shape_50_" class="st0" d="M219.33,134.65c0.92-1.84,0.92-4.05-0.18-5.71c-1.1-1.66-2.95-2.95-4.97-2.95
		c-2.39,0-4.42,1.29-5.71,3.31c-1.29,1.84-1.29,4.23,0,6.08c0.92,1.84,2.95,2.95,4.97,2.95c2.39,0,4.6-1.29,5.71-3.31"/>
	<path id="Shape_51_" class="st0" d="M173.48,72.97c0.92,1.84,2.95,2.95,4.97,2.95c2.39,0,4.42-1.29,5.71-3.31
		c0.92-1.84,0.92-4.05-0.18-5.71c-1.1-1.84-2.95-2.95-4.97-2.95c-2.39,0-4.42,1.29-5.71,3.31c-1.1,1.84-1.1,4.23,0,6.08"/>
	<path id="Shape_52_" class="st0" d="M189.32,81.81c-2.39,0-4.42,1.29-5.71,3.31c-1.1,1.84-1.1,4.23,0,6.08
		c0.92,1.84,2.95,2.95,4.97,2.95c2.39,0,4.42-1.29,5.71-3.31c0.92-1.84,0.92-4.05,0-5.89s-2.95-2.95-4.97-2.95"/>
	<path id="Shape_53_" class="st0" d="M167.22,56.03c2.39,0,4.42-1.29,5.71-3.31c1.1-1.84,1.1-4.23,0-6.08
		c-0.92-1.84-2.95-2.95-4.97-2.95c-2.39,0-4.42,1.29-5.71,3.31c-1.1,1.84-1.1,4.23,0,6.08C163.17,54.93,165.2,56.03,167.22,56.03"/>
	<path id="Shape_54_" class="st0" d="M220.25,149.75c2.39,0,4.6-1.29,5.71-3.31c0.92-1.84,0.92-4.05-0.18-5.71
		c-1.1-1.84-2.95-2.95-4.97-2.95c-2.39,0-4.42,1.29-5.71,3.31c-0.92,1.84-0.92,4.05,0,5.89
		C216.02,148.83,218.23,149.56,220.25,149.75"/>
	<path id="Shape_55_" class="st0" d="M194.11,123.23c0.92-2.03,0.74-4.23-0.55-6.08c-1.1-1.66-2.76-2.58-4.6-2.58
		c-2.58,0-4.79,1.29-6.08,3.68c-1.1,2.03-0.74,4.23,0.55,6.08c1.1,1.47,2.76,2.58,4.6,2.58
		C190.42,126.73,192.82,125.44,194.11,123.23"/>
	<path id="Shape_56_" class="st0" d="M197.42,139.99c2.58,0,4.79-1.29,6.08-3.68c1.1-2.03,0.74-4.23-0.55-6.08
		c-1.1-1.47-2.76-2.58-4.6-2.58c-2.58,0-4.79,1.29-6.08,3.68c-1.1,2.03-0.74,4.23,0.55,6.08
		C193.92,138.88,195.58,139.99,197.42,139.99"/>
	<path id="Shape_57_" class="st0" d="M211.6,147.72c1.1-2.03,0.92-4.23-0.55-6.08c-0.92-1.66-2.76-2.58-4.6-2.58
		c-2.58,0-4.79,1.29-6.08,3.68c-1.1,2.03-0.74,4.23,0.55,6.08c1.1,1.66,2.76,2.58,4.6,2.58C208.1,151.4,210.31,149.93,211.6,147.72"
		/>
	<path id="Shape_58_" class="st0" d="M166.86,96.72c2.58,0,4.79-1.29,6.08-3.68c0.92-2.03,0.74-4.23-0.55-6.08
		c-1.1-1.47-2.76-2.39-4.79-2.58c-2.58,0-4.79,1.29-6.08,3.68c-1.1,2.03-0.74,4.23,0.55,6.08
		C163.17,95.62,165.02,96.72,166.86,96.72"/>
	<path id="Shape_59_" class="st0" d="M178.82,100.22c-2.58,0-4.79,1.29-6.08,3.68c-0.92,1.84-0.74,4.05,0.37,5.71
		c1.1,1.66,2.95,2.76,4.97,2.95c2.58,0,4.79-1.29,6.08-3.68c1.1-2.03,0.74-4.23-0.55-6.08
		C182.51,101.32,180.67,100.22,178.82,100.22"/>
	<path id="Shape_60_" class="st0" d="M154.15,78.68c2.58,0,4.79-1.29,6.08-3.5c1.1-2.03,0.74-4.23-0.55-6.08
		c-1.1-1.47-2.76-2.39-4.79-2.58c-2.58,0-4.79,1.29-6.08,3.68c-1.1,2.03-0.92,4.23,0.55,6.08
		C150.47,77.76,152.13,78.68,154.15,78.68"/>
	<path id="Shape_61_" class="st0" d="M140.34,59.71c2.58,0,4.79-1.29,6.08-3.5c0.92-1.84,0.74-4.05-0.37-5.71
		c-1.1-1.66-2.95-2.76-4.97-2.95c-2.58,0-4.79,1.29-6.08,3.68c-1.1,2.03-0.92,4.23,0.55,6.08C136.66,58.79,138.5,59.71,140.34,59.71
		"/>
	<path id="Shape_62_" class="st0" d="M164.09,122.13c-0.92,2.03-0.37,4.42,1.1,6.08c1.1,1.29,2.58,2.03,4.23,2.03
		c2.58,0,4.97-1.47,6.08-3.87c0.92-2.03,0.37-4.42-1.1-6.08c-1.1-1.29-2.58-2.03-4.23-2.03
		C167.59,118.26,165.2,119.74,164.09,122.13"/>
	<path id="Shape_63_" class="st0" d="M186.56,139.07c0.92-2.03,0.37-4.42-1.1-6.08c-1.1-1.29-2.58-2.03-4.23-2.03
		c-2.58,0-4.97,1.47-6.08,3.87c-0.92,2.03-0.37,4.42,1.1,6.08c1.1,1.29,2.58,2.03,4.23,2.03
		C183.06,142.94,185.45,141.46,186.56,139.07"/>
	<path id="Shape_64_" class="st0" d="M196.5,150.3c0.92-2.03,0.55-4.42-1.1-6.08c-1.1-1.29-2.58-2.03-4.42-2.03
		c-2.58,0-4.97,1.47-6.08,3.87c-0.74,2.03-0.37,4.42,1.1,6.08c1.1,1.29,2.76,2.03,4.42,2.03C193,154.17,195.39,152.69,196.5,150.3"
		/>
	<path id="Shape_65_" class="st0" d="M144.03,88.8c-2.58,0-4.97,1.47-6.08,3.87c-0.92,2.03-0.55,4.42,1.1,6.08
		c1.1,1.29,2.58,2.03,4.42,2.03c2.58,0,4.97-1.47,6.08-3.87c0.92-2.03,0.37-4.42-1.1-6.08C147.34,89.54,145.68,88.8,144.03,88.8"/>
	<path id="Shape_66_" class="st0" d="M157.65,104.27c-2.58,0-4.97,1.47-6.08,3.87c-0.92,2.03-0.55,4.42,1.1,6.08
		c1.1,1.29,2.76,2.03,4.42,2.03c2.58,0,4.97-1.47,6.08-3.87c0.92-2.03,0.55-4.42-1.1-6.08
		C160.96,105.01,159.31,104.27,157.65,104.27"/>
	<path id="Shape_67_" class="st0" d="M128.38,83.83c2.58,0,4.97-1.66,6.08-3.87c0.74-1.84,0.55-3.87-0.55-5.52
		c-1.1-1.66-2.95-2.76-4.79-2.76c-2.58,0-4.97,1.47-6.08,3.87c-0.74,1.84-0.55,3.87,0.55,5.52S126.35,83.83,128.38,83.83"/>
	<path id="Shape_68_" class="st0" d="M199.63,164.48c2.58,0,4.97-1.47,6.08-3.87c0.92-2.03,0.55-4.42-1.1-6.08
		c-1.1-1.29-2.58-2.03-4.42-2.03c-2.58,0-4.97,1.47-6.08,3.87c-0.92,2.03-0.55,4.42,1.1,6.08
		C196.32,163.56,197.97,164.29,199.63,164.48"/>
	<path id="Shape_69_" class="st0" d="M158.02,140.54c-0.92,2.21-0.37,4.79,1.66,6.44c1.1,1.1,2.58,1.66,4.05,1.66
		c2.76,0,5.16-1.66,6.08-4.23c0.92-2.21,0.18-4.79-1.66-6.44c-1.1-1.1-2.58-1.66-4.05-1.66
		C161.33,136.31,158.94,137.96,158.02,140.54"/>
	<path id="Shape_70_" class="st0" d="M175.69,147.35c-2.76,0-5.16,1.66-6.08,4.23c-0.92,2.21-0.37,4.79,1.66,6.44
		c1.1,1.1,2.58,1.66,4.05,1.66c2.76,0,5.16-1.66,6.08-4.23c0.55-1.84,0.37-3.87-0.74-5.34
		C179.56,148.64,177.54,147.35,175.69,147.35"/>
	<path id="Shape_71_" class="st0" d="M191.71,164.85c0.92-2.21,0.37-4.79-1.66-6.44c-1.1-1.1-2.39-1.66-3.87-1.66
		c-2.76,0-5.16,1.66-6.08,4.23c-0.92,2.21-0.18,4.79,1.66,6.44c1.1,1.1,2.58,1.66,4.05,1.66
		C188.4,169.08,190.79,167.42,191.71,164.85"/>
	<path id="Shape_72_" class="st0" d="M130.77,115.69c-0.55,1.84-0.37,3.87,0.74,5.34c1.1,1.66,2.95,2.58,4.79,2.58
		c2.76,0,5.16-1.66,6.08-4.23c0.92-2.21,0.18-4.79-1.66-6.44c-1.1-1.1-2.39-1.66-3.87-1.66
		C134.08,111.45,131.69,113.11,130.77,115.69"/>
	<path id="Shape_73_" class="st0" d="M144.95,128.57c-0.92,2.21-0.37,4.79,1.66,6.44c1.1,1.1,2.58,1.66,4.05,1.66
		c2.76,0,5.16-1.66,6.08-4.23c0.92-2.21,0.37-4.79-1.66-6.44c-1.1-1.1-2.58-1.66-4.05-1.66
		C148.26,124.52,145.87,126.18,144.95,128.57"/>
	<path id="Shape_74_" class="st0" d="M120.09,108.69c2.76,0,5.16-1.66,6.08-4.23c0.92-2.21,0.18-4.79-1.66-6.44
		c-1.1-1.1-2.39-1.66-3.87-1.66c-2.76,0-5.16,1.66-6.08,4.23c-0.92,2.21-0.37,4.79,1.66,6.44
		C117.14,108.14,118.62,108.69,120.09,108.69"/>
	<path id="Shape_75_" class="st0" d="M102.78,92.67c2.76,0,5.16-1.66,6.08-4.23c0.92-2.21,0.18-4.79-1.66-6.44
		c-1.1-1.1-2.58-1.66-4.05-1.66c-2.76,0-5.16,1.66-6.08,4.23c-0.92,2.21-0.37,4.79,1.66,6.44C99.84,91.93,101.31,92.49,102.78,92.67
		"/>
	<path id="Shape_76_" class="st0" d="M142.37,154.9c1.1,0.74,2.21,1.29,3.5,1.29c2.76,0,5.16-1.84,6.08-4.6
		c0.74-2.39-0.18-5.16-2.21-6.63c-1.1-0.74-2.21-1.1-3.5-1.29c-2.76,0-5.16,1.84-6.08,4.6C139.42,150.85,140.34,153.61,142.37,154.9
		"/>
	<path id="Shape_77_" class="st0" d="M165.2,161.53c0.92-2.39,0-5.16-2.21-6.44c-0.92-0.74-2.21-1.29-3.5-1.29
		c-2.76,0-5.16,1.84-6.08,4.6c-0.92,2.39,0,5.16,2.03,6.44c1.1,0.74,2.21,1.29,3.5,1.29C162.07,166.13,164.46,164.29,165.2,161.53"
		/>
	<path id="Shape_78_" class="st0" d="M175.14,164.11c-0.92-0.74-2.21-1.1-3.5-1.29c-2.76,0.18-5.16,1.84-6.08,4.6
		c-0.74,2.39,0,5.16,2.21,6.44c1.1,0.74,2.21,1.29,3.5,1.29c2.76,0,5.16-1.84,6.08-4.6C178.09,168.16,177.17,165.4,175.14,164.11"/>
	<path id="Shape_79_" class="st0" d="M110.88,131.7c0.92,0.74,2.21,1.1,3.5,1.29c2.76,0,5.16-1.84,6.08-4.6
		c0.92-2.39,0-5.16-2.21-6.44c-0.92-0.74-2.21-1.1-3.5-1.29c-2.76,0-5.16,1.84-6.08,4.6C107.75,127.47,108.68,130.23,110.88,131.7"
		/>
	<path id="Shape_80_" class="st0" d="M125.25,137.41c-0.74,2.39,0,5.16,2.21,6.44c1.1,0.74,2.21,1.29,3.5,1.29
		c2.76,0,5.16-1.84,6.08-4.6c0.74-2.39-0.18-5.16-2.21-6.63c-0.92-0.74-2.21-1.1-3.5-1.29
		C128.56,132.99,126.17,134.83,125.25,137.41"/>
	<path id="Shape_81_" class="st0" d="M92.29,118.08c1.1,0.74,2.21,1.29,3.5,1.29c2.76,0,5.16-1.84,6.08-4.6
		c0.92-2.39,0-5.16-2.03-6.44c-1.1-0.74-2.21-1.1-3.5-1.29c-2.76,0-5.16,1.84-6.08,4.6C89.34,114.03,90.26,116.61,92.29,118.08"/>
	<path id="Shape_82_" class="st0" d="M178.82,181.97c1.1,0.74,2.21,1.1,3.5,1.29c2.76,0,5.16-1.84,6.08-4.6
		c0.92-2.39,0-5.16-2.21-6.44c-0.92-0.74-2.21-1.29-3.5-1.29c-2.76,0.18-5.16,2.03-6.08,4.6
		C175.88,177.92,176.8,180.5,178.82,181.97"/>
	<path id="Shape_83_" class="st0" d="M140.71,174.42c0.92,0.55,2.03,0.92,3.13,0.92c2.95-0.18,5.34-2.03,6.08-4.79
		c0.74-2.58-0.37-5.34-2.76-6.63c-0.92-0.55-2.03-0.92-3.13-0.92c-2.95,0-5.34,2.03-6.08,4.79
		C137.21,170.37,138.32,173.13,140.71,174.42"/>
	<path id="Shape_84_" class="st0" d="M160.78,172.39c-0.92-0.55-2.03-0.92-3.13-0.92c-2.95,0-5.34,2.03-6.08,4.79
		c-0.74,2.58,0.37,5.34,2.76,6.63c0.92,0.55,2.03,0.92,3.13,0.92c2.95,0,5.52-2.03,6.08-4.79
		C164.28,176.44,162.99,173.68,160.78,172.39"/>
	<path id="Shape_85_" class="st0" d="M172.93,179.21c-0.92-0.55-2.03-0.92-3.13-0.92c-2.95,0-5.34,2.03-6.08,4.79
		c-0.74,2.58,0.37,5.34,2.76,6.63c0.92,0.55,2.03,0.92,3.13,0.92c2.95,0,5.34-2.03,6.08-4.79
		C176.43,183.26,175.33,180.5,172.93,179.21"/>
	<path id="Shape_86_" class="st0" d="M115.12,145.14c-0.92-0.55-2.03-0.92-3.13-0.92c-2.95,0-5.52,2.03-6.08,4.79
		c-0.74,2.58,0.37,5.34,2.76,6.63c0.92,0.55,2.03,0.92,3.13,0.92c2.95,0,5.52-2.03,6.08-4.79
		C118.62,149.2,117.51,146.43,115.12,145.14"/>
	<path id="Shape_87_" class="st0" d="M123.04,158.77c-0.74,2.58,0.37,5.34,2.76,6.63c0.92,0.55,2.03,0.92,3.13,0.92
		c2.95,0,5.52-2.03,6.08-4.79c0.92-2.58-0.37-5.34-2.76-6.63c-0.92-0.55-2.03-0.74-3.13-0.92
		C126.17,153.98,123.59,156.01,123.04,158.77"/>
	<path id="Shape_88_" class="st0" d="M90.08,144.41c0.92,0.55,2.03,0.92,3.13,0.92c2.95-0.18,5.34-2.03,6.08-4.79
		c0.74-2.58-0.37-5.34-2.76-6.63c-0.92-0.55-2.03-0.92-3.13-0.92c-2.95,0-5.34,2.03-6.08,4.79
		C86.58,140.36,87.69,143.12,90.08,144.41"/>
	<path id="Shape_89_" class="st0" d="M70.38,133.18c0.92,0.55,2.03,0.92,3.13,0.92c2.95,0,5.34-2.03,6.08-4.79
		c0.74-2.58-0.37-5.34-2.76-6.63c-0.92-0.55-2.03-0.92-3.13-0.92c-2.95,0-5.34,2.03-6.08,4.79
		C66.88,129.13,67.99,131.89,70.38,133.18"/>
	<path id="Shape_90_" class="st0" d="M125.61,185.65c0.74,0.37,1.66,0.55,2.58,0.55c2.95,0,5.52-2.21,6.08-5.16
		c0.74-2.76-0.74-5.52-3.31-6.63c-0.74-0.37-1.66-0.55-2.58-0.55c-2.95,0-5.52,2.21-6.08,5.16
		C121.56,181.78,123.04,184.55,125.61,185.65"/>
	<path id="Shape_91_" class="st0" d="M140.9,192.65c0.74,0.37,1.66,0.55,2.58,0.55c2.95,0,5.52-2.21,6.08-5.16
		c0.74-2.76-0.74-5.52-3.31-6.63c-0.74-0.37-1.66-0.55-2.58-0.55c-2.95,0-5.52,2.21-6.08,5.16
		C137.03,188.6,138.32,191.36,140.9,192.65"/>
	<path id="Shape_92_" class="st0" d="M156.91,199.46c2.95,0,5.52-2.21,6.08-5.16c0.74-2.76-0.74-5.52-3.31-6.63
		c-0.74-0.37-1.66-0.55-2.58-0.55c-2.95,0-5.52,2.21-6.08,5.16c-0.74,2.76,0.74,5.52,3.31,6.63
		C155.26,199.28,156.18,199.46,156.91,199.46"/>
	<path id="Shape_93_" class="st0" d="M89.9,169.26c0.74,0.37,1.66,0.55,2.58,0.55c2.95,0,5.52-2.21,6.08-5.16
		c0.55-2.76-0.92-5.52-3.31-6.63c-0.74-0.37-1.66-0.55-2.58-0.55c-2.95,0-5.52,2.21-6.08,5.16C85.84,165.4,87.32,168.34,89.9,169.26
		"/>
	<path id="Shape_94_" class="st0" d="M108.68,177.92c0.74,0.37,1.66,0.55,2.58,0.55c2.95,0,5.52-2.21,6.08-5.16
		c0.74-2.76-0.74-5.52-3.31-6.63c-0.74-0.37-1.66-0.55-2.58-0.55c-2.95,0-5.52,2.21-6.08,5.16
		C104.81,174.05,106.1,176.81,108.68,177.92"/>
	<path id="Shape_95_" class="st0" d="M69.09,159.87c0.74,0.37,1.66,0.55,2.58,0.55c2.95,0,5.52-2.21,6.08-5.16
		c0.74-2.76-0.74-5.52-3.31-6.63c-0.74-0.37-1.66-0.55-2.58-0.55c-2.95,0-5.52,2.21-6.08,5.16
		C65.22,156.01,66.51,158.59,69.09,159.87"/>
	<path id="Shape_96_" class="st0" d="M166.86,204.43c0.74,0.37,1.66,0.55,2.58,0.55c2.95,0,5.52-2.21,6.08-5.16
		c0.74-2.76-0.74-5.52-3.31-6.63c-0.74-0.37-1.66-0.55-2.58-0.55c-2.95,0-5.52,2.21-6.08,5.16
		C162.99,200.56,164.28,203.33,166.86,204.43"/>
	<path id="Shape_97_" class="st0" d="M131.87,193.38c-0.74-0.18-1.29-0.37-2.03-0.37c-3.13,0-5.71,2.21-6.08,5.34
		c-0.37,2.95,1.29,5.71,4.05,6.63c0.74,0.18,1.29,0.37,2.03,0.37c3.13,0,5.71-2.21,6.08-5.34
		C136.29,197.07,134.64,194.3,131.87,193.38"/>
	<path id="Shape_98_" class="st0" d="M145.31,210.51c2.95-0.18,5.34-2.39,5.71-5.34c0.37-2.95-1.29-5.71-4.05-6.63
		c-0.74-0.18-1.29-0.37-2.03-0.37c-3.13,0-5.71,2.21-6.08,5.34c-0.37,2.95,1.29,5.71,4.05,6.63c0.74,0.18,1.47,0.37,2.03,0.37"/>
	<path id="Shape_99_" class="st0" d="M160.6,202.96c-0.74-0.18-1.29-0.37-2.03-0.37c-3.13,0-5.71,2.21-6.08,5.34
		c-0.37,1.47,0,2.95,0.92,4.23c0.92,1.29,2.21,2.21,3.68,2.39c1.66,0.55,3.5,0.37,5.16-0.74c1.47-0.92,2.58-2.58,2.76-4.42
		c0.37-2.95-1.29-5.71-4.05-6.63"/>
	<path id="Shape_100_" class="st0" d="M95.23,193.57c2.95-0.18,5.34-2.39,5.71-5.34c0.37-2.95-1.29-5.71-4.05-6.63
		c-1.66-0.55-3.5-0.37-5.16,0.74c-1.66,1.1-2.58,2.58-2.76,4.42c-0.37,2.95,1.29,5.71,4.05,6.63
		C93.76,193.38,94.5,193.57,95.23,193.57"/>
	<path id="Shape_101_" class="st0" d="M115.3,187.68c-1.66-0.55-3.5-0.37-5.16,0.55c-1.47,0.92-2.58,2.58-2.76,4.23
		c-0.37,2.95,1.29,5.71,4.05,6.63c0.74,0.18,1.29,0.37,2.03,0.37c3.13,0,5.71-2.21,6.08-5.34c0.55-2.95-1.1-5.71-4.05-6.63"/>
	<path id="Shape_102_" class="st0" d="M76.09,174.6c-0.74-0.18-1.29-0.37-2.03-0.37c-3.13,0-5.71,2.21-6.08,5.34
		c-0.37,2.95,1.29,5.71,4.05,6.63c1.66,0.55,3.5,0.37,5.16-0.74c1.47-0.92,2.58-2.58,2.76-4.42c0.37-2.95-1.29-5.71-4.05-6.63"/>
	<path id="Shape_103_" class="st0" d="M49.57,178.47c0.74,0.18,1.29,0.37,2.03,0.37c3.13,0,5.71-2.21,6.08-5.34
		c0.37-2.95-1.29-5.71-4.05-6.63c-0.74-0.18-1.29-0.37-2.03-0.37c-3.13,0-5.71,2.21-6.08,5.34
		C45.15,174.79,46.81,177.55,49.57,178.47"/>
	<path id="Shape_104_" class="st0" d="M118.07,207.93h-1.47c-3.13,0-5.89,2.39-6.08,5.71c-0.55,3.13,1.66,5.89,4.6,6.44h1.47
		c3.13-0.18,5.52-2.58,5.71-5.71c0.37-2.95-1.66-5.71-4.6-6.44"/>
	<path id="Shape_105_" class="st0" d="M132.79,211.43c-3.13,0-5.89,2.39-6.08,5.71c-0.37,2.95,1.66,5.71,4.6,6.44
		c0.55,0,0.92,0,1.47,0c3.13,0,5.89-2.39,6.08-5.71c0.37-2.95-1.66-5.89-4.6-6.44H132.79"/>
	<path id="Shape_106_" class="st0" d="M153.78,221.19c0.18-1.66-0.37-3.31-1.47-4.6c-1.1-1.29-2.76-2.03-4.42-2.03
		c-3.13,0-5.89,2.39-6.08,5.71c-0.37,2.95,1.66,5.71,4.6,6.44c0.55,0,0.92,0,1.47,0C151.02,226.71,153.6,224.32,153.78,221.19"/>
	<path id="Shape_107_" class="st0" d="M78.66,199.46c-3.13,0-5.71,2.39-6.08,5.52c-0.37,2.95,1.66,5.89,4.6,6.44
		c0.55,0,0.92,0,1.47,0c3.13,0,5.71-2.39,6.08-5.52c0.37-2.95-1.66-5.89-4.6-6.44H78.66"/>
	<path id="Shape_108_" class="st0" d="M97.44,216.03c1.66,0.37,3.5,0,4.79-1.1c1.29-1.1,2.21-2.58,2.39-4.23
		c0.37-2.95-1.66-5.89-4.6-6.44h-1.47c-3.13,0-5.89,2.39-6.08,5.71c-0.37,2.95,1.66,5.71,4.6,6.44"/>
	<path id="Shape_109_" class="st0" d="M55.83,194.67c-3.13,0-5.89,2.39-6.08,5.71c-0.55,3.13,1.66,5.89,4.6,6.44h1.47
		c3.13,0,5.89-2.39,6.08-5.71c0.37-2.95-1.66-5.71-4.6-6.44H55.83"/>
	<path id="Shape_110_" class="st0" d="M161.33,229.65c3.13,0,5.89-2.39,6.08-5.71c0.37-2.95-1.66-5.71-4.6-6.44h-1.47
		c-3.13,0-5.89,2.39-6.08,5.71c-0.37,2.95,1.66,5.71,4.6,6.44C160.41,229.65,160.78,229.65,161.33,229.65"/>
	<path id="Shape_111_" class="st0" d="M116.59,231.86c-0.18,3.13,2.21,5.89,5.16,6.08h0.74c3.31,0,6.08-2.76,6.08-6.08
		c0.18-3.13-2.21-5.89-5.34-6.26c-1.66-0.18-3.31,0.37-4.6,1.47c-1.29,1.1-2.03,2.76-2.03,4.42"/>
	<path id="Shape_112_" class="st0" d="M144.39,234.44c0.18-1.47-0.18-3.13-1.29-4.23s-2.39-2.03-4.05-2.03
		c-1.66-0.18-3.31,0.37-4.6,1.47c-1.29,1.1-2.03,2.76-2.03,4.42c-0.18,3.13,2.21,5.89,5.34,6.26h1.1c3.31,0,6.08-2.76,6.08-6.08"/>
	<path id="Shape_113_" class="st0" d="M153.23,229.47c-1.66-0.18-3.31,0.37-4.6,1.47c-1.29,1.1-2.03,2.76-2.03,4.42
		c0,3.13,2.21,5.71,5.16,6.08h0.74c3.31,0,6.08-2.76,6.08-6.08c0.18-3.13-2.03-5.89-5.16-6.26"/>
	<path id="Shape_114_" class="st0" d="M79.95,228c-0.18,3.13,2.03,5.89,5.16,6.26h0.74c3.31,0,6.08-2.76,6.08-6.08
		c0.18-2.21-0.92-4.23-2.76-5.34s-4.05-1.29-6.08-0.18c-1.84,0.92-3.13,2.95-3.31,5.16"/>
	<path id="Shape_115_" class="st0" d="M99.29,229.84c-0.18,3.13,2.21,5.89,5.34,6.26h0.74c3.31,0,6.08-2.76,6.08-6.08
		c0.18-3.13-2.21-5.89-5.34-6.26h-0.74C101.86,223.95,99.29,226.53,99.29,229.84"/>
	<path id="Shape_116_" class="st0" d="M58.23,225.42c-0.18,3.13,2.03,5.89,5.16,6.26h0.74c3.31,0,6.08-2.76,6.08-6.08
		c0.18-1.47-0.18-3.13-1.29-4.23c-0.92-1.29-2.39-2.03-4.05-2.03c-1.66-0.18-3.31,0.37-4.6,1.47c-1.29,1.1-2.03,2.76-2.03,4.42"/>
	<path id="Shape_117_" class="st0" d="M40.37,229.1h0.74c3.31,0,6.08-2.76,6.08-6.08c0.18-3.13-2.21-5.89-5.34-6.26
		c-1.66-0.18-3.31,0.37-4.6,1.47c-1.29,1.1-2.03,2.76-2.03,4.42C35.21,225.97,37.42,228.73,40.37,229.1"/>
	<path id="Shape_118_" class="st0" d="M112.91,254.7c3.31,0,6.08-2.76,6.08-6.08s-2.76-6.08-6.08-6.08c-3.31,0-6.08,2.76-6.08,6.08
		C106.83,252.12,109.6,254.7,112.91,254.7z"/>
	<path id="Shape_119_" class="st0" d="M129.48,242.54c-3.31,0-6.08,2.76-6.08,6.08s2.76,6.08,6.08,6.08c3.31,0,6.08-2.76,6.08-6.08
		S132.79,242.54,129.48,242.54z"/>
	<path id="Shape_120_" class="st0" d="M150.47,248.8c0-3.31-2.76-6.08-6.08-6.08s-6.08,2.76-6.08,6.08c0,3.31,2.76,6.08,6.08,6.08
		S150.47,252.12,150.47,248.8z"/>
	<path id="Shape_121_" class="st0" d="M73.51,242.36c-3.31,0-6.08,2.76-6.08,6.08s2.76,6.08,6.08,6.08c3.31,0,6.08-2.76,6.08-6.08
		S77.01,242.36,73.51,242.36z"/>
	<path id="Shape_122_" class="st0" d="M88.24,248.44c0,3.31,2.76,6.08,6.08,6.08c3.31,0,6.08-2.76,6.08-6.08s-2.76-6.08-6.08-6.08
		C91,242.54,88.24,245.12,88.24,248.44z"/>
	<path id="Shape_123_" class="st0" d="M50.68,242.18c-3.31,0-6.08,2.76-6.08,6.08s2.76,6.08,6.08,6.08s6.08-2.76,6.08-6.08
		S53.99,242.18,50.68,242.18z"/>
	<path id="Shape_124_" class="st0" d="M164.09,248.8c0-3.31-2.76-6.08-6.08-6.08s-6.08,2.76-6.08,6.08c0,3.31,2.76,6.08,6.08,6.08
		C161.33,254.88,164.09,252.12,164.09,248.8"/>
	<path id="Shape_125_" class="st0" d="M122.12,271.45h0.74c3.31-0.37,5.71-3.31,5.34-6.63c-0.37-3.31-3.31-5.71-6.63-5.52
		c-3.13,0.37-5.34,2.95-5.34,6.08c0,3.31,2.76,6.08,6.08,6.08"/>
	<path id="Shape_126_" class="st0" d="M144.21,263.53c0-1.66-0.74-3.31-2.03-4.42s-2.95-1.66-4.6-1.47
		c-3.13,0.37-5.34,2.95-5.34,6.08c0,3.31,2.76,6.08,6.08,6.08h0.55C142,269.42,144.39,266.66,144.21,263.53"/>
	<path id="Shape_127_" class="st0" d="M151.76,256.17c-3.31,0.18-5.89,2.95-5.71,6.26c0.18,3.31,2.95,5.89,6.26,5.71h0.74
		c3.31-0.37,5.71-3.31,5.34-6.63C158.02,258.38,155.07,255.98,151.76,256.17"/>
	<path id="Shape_128_" class="st0" d="M79.58,269.06c0,3.31,2.76,6.08,6.08,6.08h0.74c3.13-0.37,5.52-3.13,5.34-6.26
		c0-1.66-0.74-3.31-2.03-4.42c-1.29-1.1-2.95-1.66-4.6-1.47c-3.13,0.37-5.34,2.95-5.34,6.08"/>
	<path id="Shape_129_" class="st0" d="M98.92,267.22c0,3.31,2.76,6.08,6.08,6.08h0.74c3.13-0.37,5.34-2.95,5.34-6.08
		c0-1.66-0.74-3.31-2.03-4.42c-1.29-1.1-2.95-1.66-4.6-1.47c-3.13,0.37-5.52,3.13-5.34,6.26"/>
	<path id="Shape_130_" class="st0" d="M69.64,270.71c0-3.31-2.76-6.08-6.08-6.08h-0.74c-3.31,0.18-5.89,2.95-5.71,6.26
		c0.18,3.31,2.95,5.89,6.26,5.71h0.74C67.06,276.42,69.46,273.84,69.64,270.71"/>
	<path id="Shape_131_" class="st0" d="M39.26,267.4c-3.13,0.37-5.34,2.95-5.34,6.08c0,3.31,2.76,6.08,6.08,6.08h0.74
		c3.13-0.37,5.34-2.95,5.34-6.08c0-1.66-0.74-3.31-1.84-4.42c-1.29-1.1-2.95-1.66-4.6-1.66"/>
	<path id="Shape_132_" class="st0" d="M122.12,283.05c-0.18-3.13-2.95-5.71-6.08-5.71h-1.29c-2.95,0.74-4.97,3.5-4.79,6.44
		c0.18,3.13,2.76,5.71,6.08,5.71c0.55,0,0.92,0,1.47,0C120.27,288.94,122.3,286,122.12,283.05"/>
	<path id="Shape_133_" class="st0" d="M138.5,279.55c-0.18-3.13-2.95-5.71-6.08-5.71h-1.29c-2.95,0.74-4.97,3.5-4.79,6.44
		c0.18,3.13,2.95,5.71,6.08,5.71h1.47C136.85,285.44,138.87,282.68,138.5,279.55"/>
	<path id="Shape_134_" class="st0" d="M147.34,270.9h-1.29c-2.95,0.74-4.97,3.5-4.79,6.44c0.18,3.13,2.95,5.71,6.08,5.71
		c0.55,0,0.92,0,1.47,0c2.95-0.74,4.97-3.5,4.79-6.44C153.23,273.29,150.65,270.71,147.34,270.9"/>
	<path id="Shape_135_" class="st0" d="M77.93,285.26h-1.47c-2.95,0.74-4.97,3.5-4.79,6.44c0.18,3.13,2.95,5.71,6.08,5.71h1.47
		c2.95-0.74,4.97-3.5,4.79-6.44C83.64,287.65,81.06,285.26,77.93,285.26"/>
	<path id="Shape_136_" class="st0" d="M103.89,286.73c-0.18-3.13-2.95-5.52-6.08-5.52c-0.55,0-0.92,0-1.47,0
		c-2.95,0.74-4.97,3.5-4.79,6.44c0.18,3.13,2.95,5.71,6.08,5.71c0.55,0,0.92,0,1.47,0C102.23,292.62,104.26,289.86,103.89,286.73"/>
	<path id="Shape_137_" class="st0" d="M55.47,290.05h-1.47c-3.13,0.55-5.16,3.31-4.6,6.44c0.18,3.13,2.95,5.71,6.08,5.71
		c0.37,0,0.92,0,1.47,0c3.13-0.55,5.16-3.31,4.79-6.44C61.17,292.44,58.6,290.05,55.47,290.05"/>
	<path id="Shape_138_" class="st0" d="M166.49,273.84c-0.18-3.13-2.76-5.71-6.08-5.71h-1.47c-2.95,0.74-4.97,3.5-4.79,6.44
		c0.18,3.13,2.76,5.71,6.08,5.71c0.55,0,0.92,0,1.47,0C164.65,279.55,166.67,276.79,166.49,273.84"/>
	<path id="Shape_139_" class="st0" d="M128.74,303.85c0.74,0,1.29,0,2.03,0c2.76-0.92,4.42-3.68,4.05-6.63
		c-0.37-3.13-2.95-5.34-6.08-5.34c-0.74,0-1.29,0-2.03,0.37c-2.76,0.92-4.42,3.68-4.05,6.63c0.37,3.13,2.95,5.34,6.08,5.34"/>
	<path id="Shape_140_" class="st0" d="M138.32,293.73c0.37,3.13,2.95,5.34,6.08,5.34c0.74,0,1.29-0.18,2.03-0.37
		c2.76-0.92,4.42-3.68,4.05-6.63c-0.37-3.13-2.95-5.34-6.08-5.34c-1.84,0-3.5,0.74-4.6,2.03
		C138.5,290.23,138.13,292.07,138.32,293.73"/>
	<path id="Shape_141_" class="st0" d="M163.54,287.84c-0.37-3.13-2.95-5.34-6.08-5.34c-0.74-0.18-1.29-0.18-2.03,0
		c-2.76,0.92-4.42,3.68-4.05,6.63c0.37,3.13,2.95,5.34,6.08,5.34c0.74,0,1.29-0.18,2.03-0.37c2.76-0.92,4.42-3.68,4.05-6.63"/>
	<path id="Shape_142_" class="st0" d="M93.58,315.09c0.74,0,1.29-0.18,2.03-0.37c2.76-0.92,4.42-3.68,4.05-6.63
		c-0.37-3.13-2.95-5.34-6.08-5.34c-0.74,0-1.29,0.18-2.03,0.37c-2.76,0.92-4.42,3.68-4.05,6.63
		C87.87,312.88,90.45,315.27,93.58,315.09"/>
	<path id="Shape_143_" class="st0" d="M118.07,302.2c-0.37-3.13-2.95-5.34-6.08-5.34c-0.74,0-1.29,0.18-2.03,0.37
		c-2.76,0.92-4.42,3.68-4.05,6.63c0.37,3.13,2.95,5.34,6.08,5.34c0.74,0,1.29-0.18,2.03-0.37
		C116.78,307.91,118.43,305.14,118.07,302.2"/>
	<path id="Shape_144_" class="st0" d="M72.96,309.56c-1.84,0-3.5,0.74-4.6,2.03s-1.66,3.13-1.47,4.79c0.37,3.13,2.95,5.34,6.08,5.34
		c0.74,0,1.29-0.18,1.84-0.37c2.95-0.74,4.6-3.68,4.05-6.44C78.48,311.77,75.9,309.56,72.96,309.56"/>
	<path id="Shape_145_" class="st0" d="M50.68,316.74c-0.74,0-1.29,0.18-2.03,0.37c-2.76,0.92-4.42,3.68-4.05,6.63
		c0.37,2.95,2.76,5.16,5.71,5.34c0.74,0,1.29-0.18,2.03-0.37c2.76-0.92,4.42-3.68,4.05-6.63c-0.37-3.13-2.95-5.52-6.08-5.52"/>
	<path id="Shape_146_" class="st0" d="M126.53,322.82c0.92,0,1.66-0.18,2.58-0.55c2.58-1.1,4.05-3.87,3.5-6.63
		c-0.55-2.95-3.13-5.16-6.08-5.16c-0.92,0-1.66,0.18-2.58,0.55c-2.58,1.1-4.05,3.87-3.5,6.63C120.83,320.79,123.4,323,126.53,322.82
		"/>
	<path id="Shape_147_" class="st0" d="M141.82,316.19c0.92,0,1.66-0.18,2.39-0.55c2.58-1.1,4.05-3.87,3.5-6.63
		c-0.37-2.95-2.95-5.16-6.08-5.16c-0.92,0-1.66,0.18-2.58,0.55c-2.58,1.1-4.05,3.87-3.5,6.63
		C136.29,313.98,138.87,316.19,141.82,316.19"/>
	<path id="Shape_148_" class="st0" d="M155.63,310.11c0.92,0,1.66-0.18,2.58-0.55c2.58-1.1,3.87-3.87,3.5-6.63
		c-0.37-2.95-2.95-5.16-6.08-5.16c-0.92,0-1.66,0.18-2.58,0.55c-2.58,1.1-4.05,3.87-3.31,6.63
		C150.1,307.91,152.68,310.11,155.63,310.11"/>
	<path id="Shape_149_" class="st0" d="M90.63,338.65c0.92,0,1.66-0.18,2.58-0.55c2.58-1.1,4.05-3.87,3.31-6.63
		c-0.37-2.95-2.95-5.16-6.08-5.16c-0.92,0-1.66,0.18-2.58,0.55c-2.58,1.1-4.05,3.87-3.5,6.63
		C85.11,336.63,87.69,338.84,90.63,338.65"/>
	<path id="Shape_150_" class="st0" d="M109.41,330.37c0.92,0,1.66-0.18,2.58-0.55c2.58-1.1,4.05-3.87,3.5-6.63
		c-0.55-2.95-3.13-5.16-6.08-5.16c-0.92,0-1.66,0.18-2.58,0.55c-2.58,1.1-4.05,3.87-3.5,6.63
		C103.89,328.34,106.47,330.37,109.41,330.37"/>
	<path id="Shape_151_" class="st0" d="M69.64,348.04c0.92,0,1.66-0.18,2.58-0.55c2.58-1.1,4.05-3.87,3.5-6.63
		c-0.37-2.95-2.95-5.16-6.08-5.16c-0.92,0-1.66,0.18-2.58,0.55c-2.58,1.1-4.05,3.87-3.5,6.63
		C63.93,345.83,66.51,348.04,69.64,348.04"/>
	<path id="Shape_152_" class="st0" d="M173.85,297.41c-0.37-2.95-2.95-5.16-6.08-5.16c-1.84,0-3.5,0.74-4.79,2.21
		c-1.1,1.47-1.66,3.31-1.29,4.97c0.37,2.95,2.95,5.16,6.08,5.16c0.92,0,1.66-0.18,2.58-0.55
		C173.12,303.12,174.41,300.17,173.85,297.41"/>
	<path id="Shape_153_" class="st0" d="M142,334.23c1.1,0,2.03-0.37,2.95-0.92c2.39-1.29,3.5-4.05,2.76-6.63
		c-0.55-2.95-3.13-4.97-6.08-4.79c-1.1,0-2.03,0.37-2.95,0.92c-2.39,1.1-3.68,4.05-2.76,6.63
		C136.48,332.21,139.05,334.23,142,334.23"/>
	<path id="Shape_154_" class="st0" d="M155.99,314.17c-1.1,0-2.03,0.37-2.95,0.92c-2.39,1.29-3.5,4.05-2.76,6.63
		c0.55,2.95,3.13,4.97,6.08,4.79c1.1,0,2.21-0.37,3.13-0.92c2.39-1.29,3.5-4.05,2.76-6.63
		C161.52,316.19,158.94,314.17,155.99,314.17"/>
	<path id="Shape_155_" class="st0" d="M168.33,306.98c-1.1,0-2.03,0.37-2.95,0.92c-2.39,1.29-3.68,4.05-2.76,6.63
		c0.74,2.76,3.13,4.79,6.08,4.79c1.1,0,2.03-0.37,2.95-0.92c2.39-1.29,3.68-4.05,2.76-6.63
		C173.67,309.19,171.09,307.17,168.33,306.98"/>
	<path id="Shape_156_" class="st0" d="M109.96,352.65c1.1,0,2.03-0.37,2.95-0.92c2.39-1.29,3.68-4.05,2.76-6.63
		c-0.74-2.76-3.13-4.79-6.08-4.79c-1.1,0-2.03,0.37-2.95,0.92c-2.39,1.29-3.68,4.05-2.76,6.63
		C104.62,350.44,107.02,352.46,109.96,352.65"/>
	<path id="Shape_157_" class="st0" d="M126.9,342.89c1.1,0,2.03-0.37,2.95-0.92c2.39-1.29,3.5-4.05,2.95-6.63
		c-0.74-2.76-3.13-4.79-6.08-4.79c-1.1,0-2.03,0.37-2.95,0.92c-2.39,1.29-3.68,4.05-2.76,6.63
		C121.75,340.86,124.14,342.89,126.9,342.89"/>
	<path id="Shape_158_" class="st0" d="M93.76,362.59c2.39-1.29,3.68-4.05,2.76-6.63c-0.74-2.76-3.13-4.79-6.08-4.97
		c-1.1,0-2.03,0.37-2.95,0.92c-2.39,1.29-3.68,4.05-2.76,6.63c0.74,2.76,3.13,4.79,6.08,4.79
		C91.92,363.32,92.84,363.14,93.76,362.59"/>
	<path id="Shape_159_" class="st0" d="M70.01,363.14c-1.1,0-2.03,0.37-2.95,0.92c-2.39,1.29-3.5,4.05-2.76,6.63
		c0.74,2.76,3.13,4.79,6.08,4.79c1.1,0,2.03-0.37,2.95-0.92c2.39-1.29,3.68-4.05,2.76-6.63C75.35,365.17,72.96,363.14,70.01,363.14"
		/>
	<path id="Shape_160_" class="st0" d="M143.84,353.57c1.29,0,2.58-0.37,3.5-1.29c2.21-1.47,3.13-4.05,2.21-6.44
		c-0.74-2.76-3.31-4.6-6.08-4.6c-1.29,0-2.58,0.37-3.5,1.29c-2.21,1.47-3.13,4.05-2.21,6.44
		C138.69,351.73,141.08,353.57,143.84,353.57"/>
	<path id="Shape_161_" class="st0" d="M153.78,332.58c-2.03,1.47-2.95,4.05-2.21,6.44c0.74,2.76,3.31,4.6,6.08,4.6
		c1.29,0,2.39-0.37,3.5-1.1c2.21-1.47,3.13-4.05,2.21-6.63c-0.74-2.76-3.31-4.6-6.08-4.6C155.99,331.47,154.7,331.84,153.78,332.58"
		/>
	<path id="Shape_162_" class="st0" d="M169.62,322.63c-1.84,0-3.68,0.92-4.79,2.39c-1.1,1.47-1.47,3.5-0.92,5.34
		c0.74,2.76,3.31,4.6,6.08,4.6c1.29,0,2.58-0.37,3.5-1.29c2.03-1.47,2.95-4.05,2.21-6.63C174.77,324.48,172.38,322.63,169.62,322.63
		"/>
	<path id="Shape_163_" class="st0" d="M115.49,375.29c2.03-1.47,2.95-4.05,2.21-6.63c-0.92-2.58-3.31-4.42-6.08-4.6
		c-1.84,0-3.68,0.92-4.79,2.39c-1.1,1.47-1.47,3.5-0.92,5.34c0.74,2.76,3.31,4.6,6.08,4.6C113.28,376.4,114.57,376.03,115.49,375.29
		"/>
	<path id="Shape_164_" class="st0" d="M128.74,364.43c1.29,0,2.58-0.37,3.5-1.29c2.21-1.47,3.13-4.05,2.21-6.44
		c-0.74-2.76-3.31-4.6-6.08-4.6c-1.29,0-2.39,0.37-3.5,1.29c-2.21,1.47-3.13,4.05-2.21,6.44
		C123.59,362.4,125.98,364.25,128.74,364.43"/>
	<path id="Shape_165_" class="st0" d="M99.1,382.1c-0.74-2.76-3.31-4.6-6.08-4.6c-1.29,0-2.58,0.37-3.5,1.29
		c-2.21,1.47-3.13,4.05-2.21,6.44c0.74,2.58,3.31,4.42,6.08,4.6c1.29,0,2.39-0.37,3.5-1.29C98.92,387.26,99.84,384.5,99.1,382.1"/>
	<path id="Shape_166_" class="st0" d="M180.48,314.72c-1.29,0-2.58,0.37-3.5,1.29c-2.21,1.47-3.13,4.05-2.21,6.44
		c0.74,2.58,3.31,4.42,6.08,4.6c1.29,0,2.39-0.37,3.5-1.29c2.21-1.29,3.13-4.05,2.21-6.44
		C185.64,316.56,183.24,314.72,180.48,314.72"/>
	<path id="Shape_167_" class="st0" d="M165.2,359.64c1.84-1.47,2.58-4.05,1.66-6.44c-0.92-2.58-3.31-4.23-6.08-4.23
		c-1.47,0-2.76,0.55-3.87,1.66c-1.84,1.47-2.58,4.05-1.66,6.44c0.92,2.58,3.31,4.23,6.08,4.23
		C162.81,361.12,164.09,360.56,165.2,359.64"/>
	<path id="Shape_168_" class="st0" d="M173.12,338.47c-2.03,0-3.68,0.92-4.79,2.58c-1.1,1.66-1.47,3.68-0.74,5.52
		c0.92,2.58,3.31,4.23,6.08,4.23c1.47,0,2.76-0.55,3.87-1.66c2.03-1.47,2.58-4.23,1.66-6.44
		C178.27,340.31,175.88,338.47,173.12,338.47"/>
	<path id="Shape_169_" class="st0" d="M183.61,329.08c-1.47,0-2.76,0.55-3.87,1.66c-1.84,1.47-2.58,4.05-1.66,6.44
		c0.92,2.58,3.31,4.23,6.08,4.23c1.47,0,2.76-0.55,3.87-1.66c1.84-1.47,2.58-4.05,1.66-6.44
		C188.77,330.74,186.37,329.08,183.61,329.08"/>
	<path id="Shape_170_" class="st0" d="M133.9,385.97c1.47,0,2.76-0.55,3.87-1.66c1.84-1.47,2.58-4.05,1.66-6.44
		c-0.92-2.58-3.31-4.23-6.08-4.23c-1.47,0-2.76,0.55-3.87,1.66c-2.03,1.47-2.58,4.23-1.66,6.44
		C128.74,384.31,131.14,385.97,133.9,385.97"/>
	<path id="Shape_171_" class="st0" d="M148.26,372.9c1.47,0,2.76-0.55,3.87-1.66c1.84-1.66,2.58-4.23,1.66-6.44
		c-0.92-2.58-3.31-4.23-6.08-4.23c-1.47,0-2.76,0.55-3.87,1.66c-1.84,1.47-2.58,4.05-1.66,6.44
		C143.11,371.24,145.5,372.9,148.26,372.9z"/>
	<path id="Shape_172_" class="st0" d="M122.85,392.6c-0.92-2.58-3.31-4.23-6.08-4.42c-1.47,0-2.76,0.55-3.87,1.66
		c-1.84,1.47-2.58,4.05-1.66,6.44c0.92,2.58,3.31,4.23,6.08,4.23c1.47,0,2.76-0.55,3.87-1.66
		C123.04,397.39,123.77,394.81,122.85,392.6"/>
	<path id="Shape_173_" class="st0" d="M100.39,403.65c-1.47,0-2.76,0.55-3.87,1.66c-1.84,1.47-2.58,4.05-1.66,6.44
		c0.92,2.58,3.31,4.23,6.08,4.23c1.47,0,2.76-0.55,3.87-1.66c1.84-1.47,2.58-4.05,1.66-6.44
		C105.36,405.3,102.97,403.65,100.39,403.65"/>
	<path id="Shape_174_" class="st0" d="M167.04,379.53c1.66,0,3.13-0.74,4.23-2.03c1.47-1.66,2.03-4.05,1.1-6.08
		c-1.1-2.39-3.5-3.87-6.08-3.87c-1.66,0-3.13,0.74-4.23,2.03c-1.47,1.66-2.03,4.05-1.1,6.08
		C162.07,378.05,164.46,379.53,167.04,379.53"/>
	<path id="Shape_175_" class="st0" d="M177.9,355.04c-1.66,0-3.13,0.74-4.23,2.03c-1.47,1.66-2.03,4.05-1.1,6.08
		c1.1,2.39,3.5,3.87,6.08,3.87c1.66,0,3.13-0.74,4.23-2.03c1.47-1.66,1.84-4.05,1.1-6.08C182.87,356.51,180.48,355.04,177.9,355.04"
		/>
	<path id="Shape_176_" class="st0" d="M183.61,345.83c-1.47,1.66-2.03,4.05-1.1,6.08c1.1,2.39,3.5,3.87,6.08,3.87
		c1.66,0,3.13-0.74,4.23-2.03c1.47-1.66,2.03-4.05,1.1-6.08c-1.1-2.39-3.5-3.87-6.08-3.87
		C186.37,343.81,184.72,344.54,183.61,345.83"/>
	<path id="Shape_177_" class="st0" d="M140.71,408.8c1.66,0,3.13-0.74,4.23-2.03c1.66-1.66,2.03-4.05,1.1-6.08
		c-1.1-2.39-3.5-4.05-6.08-4.05c-2.03,0-3.87,1.1-4.79,2.76c-1.1,1.66-1.29,3.68-0.55,5.52C135.74,407.33,137.95,408.8,140.71,408.8
		"/>
	<path id="Shape_178_" class="st0" d="M154.52,393.34c1.66,0,3.13-0.74,4.23-2.03c1.47-1.66,2.03-4.05,1.1-6.08
		c-1.1-2.39-3.5-3.87-6.08-3.87c-1.66,0-3.13,0.74-4.23,2.03c-1.47,1.66-1.84,4.05-1.1,6.08
		C149.55,391.86,151.94,393.34,154.52,393.34"/>
	<path id="Shape_179_" class="st0" d="M130.59,417.46c-1.1-2.39-3.5-4.05-6.08-4.05c-1.66,0-3.13,0.74-4.23,2.03
		c-1.66,1.66-2.03,4.05-1.1,6.08c1.1,2.39,3.5,4.05,6.08,4.05c1.66,0,3.13-0.74,4.23-2.03
		C130.95,421.87,131.51,419.48,130.59,417.46"/>
	<path id="Shape_180_" class="st0" d="M197.05,333.87c-1.66,0-3.13,0.74-4.23,2.03c-1.47,1.66-2.03,4.05-1.1,6.08
		c1.1,2.39,3.5,3.87,6.08,3.87c2.03,0,3.87-1.1,4.79-2.76c1.1-1.66,1.29-3.68,0.55-5.52c-1.1-2.39-3.5-3.87-6.08-3.87"/>
	<path id="Shape_181_" class="st0" d="M180.48,374c-1.29,1.84-1.47,4.05-0.55,6.08c1.1,2.21,3.5,3.68,6.08,3.68
		c2.03-0.18,3.87-1.1,4.79-2.95c1.1-1.66,1.1-3.87,0.37-5.71c-1.1-2.21-3.5-3.68-6.08-3.68C183.24,371.61,181.59,372.53,180.48,374"
		/>
	<path id="Shape_182_" class="st0" d="M194.84,358.72c-1.84,0-3.68,0.92-4.6,2.39c-1.29,1.84-1.47,4.05-0.55,6.08
		c1.1,2.21,3.5,3.68,6.08,3.68c2.03-0.18,3.87-1.1,4.79-2.95c1.1-1.66,1.1-3.87,0.37-5.71
		C199.63,360.01,197.42,358.54,194.84,358.72"/>
	<path id="Shape_183_" class="st0" d="M203.13,347.12c-1.84,0-3.68,0.92-4.6,2.39c-1.29,1.84-1.47,4.05-0.55,6.08
		c1.1,2.21,3.5,3.68,6.08,3.68c1.84,0,3.5-0.92,4.6-2.39c1.29-1.66,1.47-4.05,0.74-6.08C208.1,348.6,205.71,347.31,203.13,347.12"/>
	<path id="Shape_184_" class="st0" d="M163.91,413.4c1.84,0,3.68-0.92,4.6-2.39c1.29-1.66,1.66-4.05,0.55-6.08
		c-1.1-2.21-3.5-3.68-6.08-3.68c-1.84,0-3.68,0.92-4.6,2.39c-1.29,1.66-1.66,4.05-0.55,6.08
		C159.12,412.12,161.33,413.4,163.91,413.4"/>
	<path id="Shape_185_" class="st0" d="M175.33,397.75c1.84,0,3.5-0.92,4.6-2.39c1.29-1.66,1.47-4.05,0.74-6.08
		c-1.1-2.21-3.5-3.68-6.08-3.68c-1.84,0-3.5,0.92-4.6,2.39c-1.29,1.66-1.66,4.05-0.74,6.08
		C170.54,396.47,172.75,397.75,175.33,397.75"/>
	<path id="Shape_186_" class="st0" d="M150.29,418.93c-1.84,0-3.68,0.92-4.6,2.39c-1.29,1.66-1.66,4.05-0.55,6.08
		c1.1,2.21,3.5,3.68,6.08,3.68c1.84,0,3.68-0.92,4.6-2.39c1.29-1.66,1.66-4.05,0.55-6.08C155.26,420.4,152.86,418.93,150.29,418.93"
		/>
	<path id="Shape_187_" class="st0" d="M136.11,438.08c-1.84,0-3.68,0.92-4.6,2.39c-1.29,1.84-1.47,4.05-0.55,6.08
		c1.1,2.21,3.5,3.68,6.08,3.68c2.03-0.18,3.87-1.1,4.79-2.95c1.1-1.66,1.1-3.87,0.37-5.71
		C141.08,439.55,138.69,438.08,136.11,438.08"/>
	<path id="Shape_188_" class="st0" d="M201.29,398.12c1.1-1.84,1.1-4.05,0-5.71c-1.29-2.03-3.31-3.31-5.71-3.31
		c-2.03,0-4.05,1.1-4.97,2.95c-1.1,1.84-1.1,4.23,0,6.08c1.1,2.03,3.31,3.31,5.71,3.31c2.03,0,4.05-1.1,4.97-2.95"/>
	<path id="Shape_189_" class="st0" d="M199.26,383.21c1.1,2.03,3.31,3.31,5.71,3.31c2.03,0,4.05-1.1,4.97-3.13
		c1.1-1.84,1.1-4.23,0-6.08c-1.29-2.03-3.31-3.13-5.71-3.31c-2.03,0-4.05,1.1-4.97,2.95C197.97,379.16,197.97,381.37,199.26,383.21"
		/>
	<path id="Shape_190_" class="st0" d="M206.63,364.43c-1.1,1.84-1.1,4.23,0,6.08c1.29,2.03,3.5,3.31,6.08,3.31
		c2.03-0.18,3.87-1.29,4.97-2.95c1.1-1.84,1.1-4.05,0.18-5.71c-1.29-2.03-3.31-3.31-5.71-3.31c-2.03,0-4.05,1.1-4.97,2.95"/>
	<path id="Shape_191_" class="st0" d="M181.77,432c1.1-1.84,1.1-4.23,0-6.08c-1.29-2.03-3.31-3.31-5.71-3.31
		c-2.03,0-4.05,1.1-4.97,2.95c-1.1,1.84-1.1,4.23,0,6.08c1.29,2.03,3.31,3.13,5.71,3.31C179.01,434.95,180.85,433.84,181.77,432"/>
	<path id="Shape_192_" class="st0" d="M187.11,417.27c2.03,0,4.05-1.1,4.97-2.95c1.1-1.84,1.1-4.23,0-6.08
		c-1.1-2.03-3.31-3.31-5.71-3.31c-2.03,0-3.87,1.29-4.97,2.95c-1.1,1.84-1.1,4.05-0.18,5.89c1.29,2.03,3.31,3.31,5.71,3.31"/>
	<path id="Shape_193_" class="st0" d="M164.83,443.05c-2.03,0.18-3.87,1.29-4.97,2.95c-1.1,1.84-1.1,4.05-0.18,5.71
		c1.29,2.03,3.5,3.31,6.08,3.31c2.03,0,4.05-1.1,4.97-2.95c1.1-1.84,1.1-4.23,0-6.08c-1.29-2.03-3.31-3.31-5.71-3.31"/>
	<path id="Shape_194_" class="st0" d="M218.23,349.7c-2.03,0.18-3.87,1.29-4.97,2.95c-1.1,1.84-1.1,4.05-0.18,5.71
		c1.29,2.03,3.31,3.31,5.71,3.31c2.03,0,3.87-1.29,4.97-2.95c1.1-1.84,1.1-4.05,0.18-5.89C222.83,350.99,220.62,349.7,218.23,349.7"
		/>
	<path id="Shape_195_" class="st0" d="M220.8,397.57c0.92-1.84,0.74-3.87-0.37-5.52c-1.29-1.84-3.31-2.95-5.52-2.95
		c-2.39,0-4.42,1.47-5.16,3.5c-0.92,1.66-0.92,3.87,0,5.52c1.29,1.84,3.31,2.95,5.52,2.95c2.39,0,4.42-1.47,5.16-3.5"/>
	<path id="Shape_196_" class="st0" d="M227.43,382.84c0.92-1.84,0.74-3.87-0.37-5.52c-1.29-1.84-3.31-2.95-5.52-2.95
		c-2.39,0-4.42,1.47-5.16,3.5c-0.92,1.84-0.74,3.87,0.37,5.52c1.29,1.84,3.31,2.95,5.52,2.95
		C224.49,386.52,226.51,385.05,227.43,382.84"/>
	<path id="Shape_197_" class="st0" d="M227.25,361.3c-2.03,0.18-4.05,1.29-4.97,3.13c-0.92,1.84-0.92,4.05,0,5.89
		c1.29,1.84,3.31,2.95,5.52,2.95c2.39,0,4.42-1.47,5.34-3.5c0.92-1.84,0.74-3.87-0.37-5.52C231.48,362.4,229.46,361.3,227.25,361.3"
		/>
	<path id="Shape_198_" class="st0" d="M205.89,431.26c0.92-1.84,0.74-3.87-0.37-5.52c-1.29-1.84-3.31-2.95-5.52-2.95
		c-2.39,0-4.42,1.47-5.34,3.5c-0.92,1.84-0.74,3.87,0.37,5.52c1.29,1.84,3.31,2.95,5.52,2.95
		C202.94,434.95,204.97,433.47,205.89,431.26"/>
	<path id="Shape_199_" class="st0" d="M208.28,417.09c2.39,0,4.42-1.47,5.16-3.5c0.92-1.84,0.74-3.87-0.37-5.52
		c-1.29-1.84-3.31-2.95-5.52-2.95c-2.03,0.18-4.05,1.29-4.97,3.13c-0.92,1.84-0.92,4.05,0.18,5.89
		C204.05,415.98,206.07,417.09,208.28,417.09"/>
	<path id="Shape_200_" class="st0" d="M190.98,442.86c-2.39,0-4.42,1.47-5.16,3.5c-0.92,1.84-0.74,3.87,0.37,5.52
		c1.29,1.84,3.31,2.95,5.52,2.95c2.39,0,4.42-1.47,5.16-3.5c0.92-1.84,0.74-3.87-0.37-5.52
		C195.39,443.97,193.19,442.86,190.98,442.86"/>
	<path id="Shape_201_" class="st0" d="M181.03,464.96c-2.21,0-4.42,1.29-5.16,3.5c-0.74,1.84-0.74,3.87,0.37,5.52
		c1.29,1.84,3.31,2.95,5.52,2.95c2.39,0,4.42-1.47,5.16-3.5c0.92-1.84,0.74-3.87-0.37-5.52
		C185.45,466.06,183.43,464.96,181.03,464.96"/>
	<path id="Shape_202_" class="st0" d="M228.17,415.43c2.58,0,4.79-1.66,5.52-4.05c0.55-1.84,0.37-3.68-0.74-5.34
		c-1.29-1.66-3.31-2.58-5.34-2.58c-2.58,0-4.79,1.66-5.52,4.23c-0.55,1.66-0.37,3.68,0.74,5.16
		C224.12,414.33,225.96,415.43,228.17,415.43"/>
	<path id="Shape_203_" class="st0" d="M238.85,395.18c0.55-1.66,0.37-3.68-0.74-5.16c-1.29-1.66-3.31-2.58-5.34-2.58
		c-2.58,0-4.79,1.66-5.52,4.23c-0.55,1.66-0.37,3.68,0.74,5.16c1.29,1.66,3.31,2.58,5.34,2.58
		C235.9,399.41,238.11,397.75,238.85,395.18"/>
	<path id="Shape_204_" class="st0" d="M231.85,377.13c-0.55,1.66-0.37,3.68,0.74,5.16c1.29,1.66,3.31,2.76,5.34,2.58
		c2.58,0,4.79-1.66,5.52-4.05c0.55-1.84,0.37-3.68-0.74-5.34c-1.29-1.66-3.31-2.58-5.34-2.58
		C234.8,373.08,232.59,374.74,231.85,377.13"/>
	<path id="Shape_205_" class="st0" d="M215.46,440.84c-2.58,0-4.79,1.66-5.52,4.05c-0.55,1.84-0.37,3.68,0.74,5.34
		c1.29,1.66,3.31,2.58,5.34,2.58c2.58,0,4.79-1.66,5.52-4.05c0.55-1.84,0.37-3.68-0.74-5.34
		C219.7,441.76,217.67,440.65,215.46,440.84"/>
	<path id="Shape_206_" class="st0" d="M227.98,428.87c0.55-1.84,0.37-3.68-0.74-5.34c-1.29-1.66-3.31-2.58-5.34-2.58
		c-2.21,0-4.05,1.29-5.16,3.31c-0.92,1.84-0.92,4.23,0.37,6.08c1.29,1.66,3.31,2.58,5.34,2.58
		C225.04,433.11,227.25,431.45,227.98,428.87"/>
	<path id="Shape_207_" class="st0" d="M208.47,462.56c-2.21,0-4.05,1.29-5.16,3.31c-0.92,1.84-0.92,4.23,0.37,6.08
		c1.29,1.66,3.31,2.76,5.34,2.58c2.58,0,4.79-1.66,5.52-4.05c0.55-1.84,0.37-3.68-0.74-5.34
		C212.52,463.48,210.68,462.56,208.47,462.56"/>
	<path id="Shape_208_" class="st0" d="M241.42,360.19c-2.58,0-4.79,1.66-5.52,4.05c-0.55,1.84-0.37,3.68,0.74,5.34
		c1.29,1.66,3.31,2.58,5.34,2.58c2.58,0,4.79-1.66,5.52-4.05c0.55-1.84,0.37-3.68-0.74-5.34
		C245.48,361.12,243.45,360.19,241.42,360.19"/>
	<path id="Shape_209_" class="st0" d="M240.69,404.2c-0.37,1.66,0,3.5,1.1,4.97c1.29,1.47,3.13,2.39,5.16,2.39
		c2.76,0,5.34-2.03,5.71-4.79c0.37-1.66,0-3.5-1.1-4.97c-1.29-1.47-3.13-2.39-5.16-2.21C243.45,399.23,241.06,401.25,240.69,404.2"
		/>
	<path id="Shape_210_" class="st0" d="M255.97,390.94c0.37-1.66,0-3.5-1.1-4.97c-1.29-1.47-3.13-2.39-5.16-2.21
		c-2.21,0-4.23,1.29-5.34,3.31c-1.1,2.03-0.74,4.42,0.55,6.26c1.29,1.47,3.13,2.39,5.16,2.21c2.95,0.18,5.52-1.84,6.08-4.79"/>
	<path id="Shape_211_" class="st0" d="M258.92,376.95c0.37-1.66,0-3.5-1.1-4.97c-1.29-1.47-3.13-2.39-5.16-2.39
		c-2.95-0.18-5.52,1.84-6.08,4.79c-0.37,1.66,0,3.5,1.1,4.97c1.29,1.47,3.13,2.39,5.16,2.39
		C255.79,381.92,258.36,379.9,258.92,376.95"/>
	<path id="Shape_212_" class="st0" d="M238.66,435.5c-2.95,0-5.34,2.03-6.08,4.79c-0.37,1.66,0,3.5,1.1,4.97
		c1.29,1.47,3.13,2.39,5.16,2.21c2.21,0,4.23-1.29,5.34-3.31c0.92-2.03,0.74-4.42-0.55-6.26c-1.29-1.47-3.13-2.39-5.16-2.39"/>
	<path id="Shape_213_" class="st0" d="M242.71,416.53c-2.95,0-5.34,1.84-6.08,4.79c-0.37,1.66,0,3.5,1.1,4.97
		c1.29,1.47,3.13,2.39,5.16,2.39c2.95,0.18,5.52-1.84,6.08-4.79c0.37-1.66,0-3.5-1.1-4.97
		C246.58,417.27,244.74,416.53,242.71,416.53"/>
	<path id="Shape_214_" class="st0" d="M234.24,457.04c-2.95-0.18-5.52,1.84-6.08,4.79c-0.37,1.66,0,3.5,1.1,4.97
		c1.29,1.47,3.13,2.39,5.16,2.39c2.95,0.18,5.52-1.84,6.08-4.79c0.37-1.66,0-3.5-1.1-4.97
		C237.93,457.96,236.09,457.04,234.24,457.04"/>
	<path id="Shape_215_" class="st0" d="M262.05,410.83c-3.13,0-5.71,2.21-6.08,5.34c-0.18,1.66,0.37,3.31,1.47,4.6
		c1.29,1.29,2.95,2.03,4.79,2.03c2.39,0,4.42-1.47,5.34-3.5c0.92-2.21,0.74-4.6-0.92-6.44C265.36,411.56,263.7,410.83,262.05,410.83
		"/>
	<path id="Shape_216_" class="st0" d="M263.7,394.07c-3.13,0-5.71,2.21-6.08,5.34c-0.18,1.66,0.37,3.31,1.47,4.6
		c1.29,1.29,2.95,2.03,4.79,2.03c3.13,0,5.71-2.21,6.08-5.34c0.18-1.66-0.37-3.31-1.29-4.6C267.2,394.81,265.54,394.07,263.7,394.07
		"/>
	<path id="Shape_217_" class="st0" d="M265.54,379.16c-3.13,0-5.71,2.21-6.08,5.34c-0.18,1.66,0.18,3.31,1.29,4.6
		c1.29,1.29,2.95,2.03,4.79,2.03c3.13,0,5.71-2.21,6.08-5.34c0.18-1.66-0.37-3.31-1.47-4.6S267.39,379.16,265.54,379.16"/>
	<path id="Shape_218_" class="st0" d="M258,450.23c-3.13,0-5.71,2.21-6.08,5.34c-0.18,1.66,0.37,3.31,1.47,4.6
		c1.29,1.29,2.95,2.03,4.79,2.03c3.13,0,5.71-2.21,6.08-5.34c0.18-1.66-0.37-3.31-1.47-4.6C261.49,450.96,259.65,450.23,258,450.23"
		/>
	<path id="Shape_219_" class="st0" d="M260.02,429.24c-3.13,0-5.71,2.21-6.08,5.34c-0.18,1.66,0.37,3.31,1.47,4.6
		c1.29,1.29,2.95,2.03,4.79,2.03c3.13,0,5.71-2.21,6.08-5.34c0.18-1.66-0.37-3.31-1.47-4.6
		C263.52,429.98,261.86,429.24,260.02,429.24"/>
	<path id="Shape_220_" class="st0" d="M266.46,365.72c-3.13,0-5.71,2.21-6.08,5.34c-0.18,1.66,0.37,3.31,1.47,4.6
		c1.29,1.29,2.95,2.03,4.79,2.03c3.13,0,5.71-2.21,6.08-5.34c0.18-1.66-0.37-3.31-1.47-4.6
		C270.15,366.45,268.31,365.72,266.46,365.72"/>
	<path id="Shape_221_" class="st0" d="M279.54,402.91c-3.31,0-6.08,2.76-6.08,6.08s2.76,6.08,6.08,6.08c1.66,0,3.31-0.55,4.6-1.84
		c1.66-1.84,2.03-4.42,1.1-6.63C284.14,404.38,281.93,403.09,279.54,402.91"/>
	<path id="Shape_222_" class="st0" d="M279.54,386.89c-1.66,0-3.31,0.55-4.42,1.84c-1.66,1.84-2.03,4.42-1.1,6.63
		s3.13,3.68,5.52,3.68c1.66,0,3.31-0.55,4.6-1.84c1.1-1.1,1.66-2.58,1.66-4.23C285.8,389.47,283.04,386.71,279.54,386.89"/>
	<path id="Shape_223_" class="st0" d="M279.54,384.68c1.66,0,3.31-0.55,4.42-1.84c1.66-1.84,2.03-4.42,1.1-6.63
		c-0.92-2.21-3.13-3.68-5.52-3.68c-1.47,0-2.95,0.55-4.23,1.47c-1.29,1.1-2.03,2.76-1.84,4.42
		C273.46,382.1,276.04,384.68,279.54,384.68"/>
	<path id="Shape_224_" class="st0" d="M279.54,439.92c-1.66,0-3.31,0.55-4.42,1.84c-1.1,1.1-1.66,2.58-1.66,4.23
		c0,3.31,2.76,6.08,6.08,6.08c1.66,0,3.31-0.55,4.42-1.84c1.1-1.1,1.66-2.58,1.66-4.23C285.61,442.68,282.85,439.92,279.54,439.92"
		/>
	<path id="Shape_225_" class="st0" d="M279.35,432.37c1.66,0,3.31-0.55,4.42-1.84c1.1-1.1,1.66-2.58,1.66-4.23
		c0-3.31-2.76-6.08-6.08-6.08c-1.66,0-3.31,0.55-4.42,1.84c-1.1,1.1-1.66,2.58-1.66,4.23C273.46,429.79,276.04,432.37,279.35,432.37
		"/>
	<path id="Shape_226_" class="st0" d="M275.67,472.69c0.18,0.18,0.37,0.37,0.74,0.37l0.55,0.37c2.58,0.92,5.34,0.37,7.18-1.66
		c1.1-1.29,1.47-2.95,1.47-4.6c-0.37-3.13-2.95-5.34-6.08-5.34c-1.66,0-3.31,0.55-4.6,1.84c-2.03,2.39-2.03,6.08,0,8.47
		L275.67,472.69"/>
	<path id="Shape_227_" class="st0" d="M279.54,485.39c-1.66,0-3.31,0.55-4.42,1.84c-1.1,1.1-1.66,2.58-1.66,4.23
		c0,3.31,2.76,6.08,6.08,6.08c1.66,0,3.31-0.55,4.6-1.84c1.66-1.84,2.03-4.42,1.1-6.44C284.14,486.87,281.93,485.39,279.54,485.39"
		/>
	<path id="Shape_228_" class="st0" d="M301.63,420.77c1.1-1.29,1.47-2.95,1.29-4.6c-0.37-3.13-2.95-5.34-6.08-5.34
		c-1.84,0-3.5,0.74-4.79,2.03c-1.47,1.84-1.84,4.23-0.74,6.44c1.1,2.21,3.13,3.5,5.52,3.5
		C298.69,422.79,300.34,422.06,301.63,420.77"/>
	<path id="Shape_229_" class="st0" d="M299.79,404.2c1.1-1.29,1.66-2.95,1.47-4.6c-0.37-3.13-2.95-5.34-6.08-5.34
		c-1.84,0-3.5,0.74-4.79,2.03c-1.1,1.29-1.66,2.95-1.47,4.6c0.37,3.13,2.95,5.34,6.08,5.34C296.84,406.22,298.5,405.49,299.79,404.2
		"/>
	<path id="Shape_230_" class="st0" d="M298.13,389.1c1.1-1.29,1.66-2.95,1.47-4.6c-0.37-3.13-2.95-5.34-6.08-5.34
		c-1.84,0-3.5,0.74-4.79,2.03c-1.47,1.84-1.84,4.23-0.74,6.44c0.92,2.03,3.13,3.5,5.34,3.5
		C295.19,391.13,296.84,390.39,298.13,389.1"/>
	<path id="Shape_231_" class="st0" d="M305.68,459.8c1.47-1.84,1.84-4.23,0.92-6.44s-3.13-3.5-5.34-3.5c-1.84,0-3.5,0.74-4.79,2.03
		c-1.47,1.84-1.84,4.23-0.92,6.44c0.92,2.21,3.13,3.5,5.34,3.5C302.74,462.01,304.58,461.09,305.68,459.8"/>
	<path id="Shape_232_" class="st0" d="M298.69,441.39c1.84,0,3.5-0.74,4.79-2.03c1.1-1.29,1.47-2.95,1.47-4.6
		c-0.37-3.13-2.95-5.34-6.08-5.34c-1.84,0-3.5,0.74-4.79,2.03c-1.47,1.84-1.84,4.23-0.74,6.44
		C294.45,440.1,296.29,441.21,298.69,441.39L298.69,441.39z"/>
	<path id="Shape_233_" class="st0" d="M309.55,478.03c-0.37-2.95-2.95-5.34-6.08-5.34c-1.84,0-3.5,0.74-4.79,2.03
		c-0.37,0.37-0.55,0.74-0.74,1.1c-0.55,1.1-0.92,2.39-0.74,3.68c0.37,3.13,2.95,5.34,6.08,5.34c1.84,0,3.5-0.74,4.79-2.03
		C309.18,481.53,309.73,479.87,309.55,478.03"/>
	<path id="Shape_234_" class="st0" d="M296.66,375.66c1.1-1.29,1.47-2.95,1.47-4.6c-0.37-3.13-2.95-5.34-6.08-5.34
		c-1.84,0-3.5,0.74-4.79,2.03c-1.1,1.29-1.47,2.95-1.29,4.6c0.37,3.13,2.95,5.34,6.08,5.34
		C293.71,377.69,295.56,376.95,296.66,375.66"/>
	<path id="Shape_235_" class="st0" d="M312.13,411.56c2.03,0,3.87-0.92,5.16-2.39c1.1-1.47,1.47-3.13,1.1-4.97
		c-0.55-2.95-3.13-4.97-6.08-4.79c-2.03,0-3.87,0.74-5.16,2.39c-1.1,1.29-1.47,3.13-1.1,4.97
		C306.79,409.72,309.36,411.75,312.13,411.56"/>
	<path id="Shape_236_" class="st0" d="M309,395.91c2.03,0,3.87-0.92,5.16-2.39c1.29-1.84,1.47-4.23,0.55-6.26
		c-0.92-2.03-2.95-3.31-5.34-3.31c-2.03,0-3.87,0.74-5.16,2.21c-1.1,1.47-1.47,3.31-1.1,4.97
		C303.66,393.89,306.05,395.91,309,395.91"/>
	<path id="Shape_237_" class="st0" d="M306.42,369.95c-2.03,0-3.87,0.92-5.16,2.39c-1.1,1.29-1.47,3.13-1.1,4.97
		c0.55,2.95,3.13,4.97,6.08,4.79c2.03,0,3.87-0.92,5.16-2.39c1.1-1.29,1.47-3.13,1.1-4.97
		C311.76,371.79,309.18,369.77,306.42,369.95"/>
	<path id="Shape_238_" class="st0" d="M319.86,447.65c2.03,0,3.87-0.74,5.16-2.39c1.1-1.29,1.47-3.13,1.1-4.97
		c-0.55-2.76-3.13-4.79-6.08-4.79c-2.03,0-3.87,0.92-5.16,2.39c-1.1,1.47-1.47,3.13-1.1,4.97
		C314.34,445.81,316.91,448.02,319.86,447.65z"/>
	<path id="Shape_239_" class="st0" d="M320.78,426.48c1.1-1.47,1.47-3.13,1.1-4.97c-0.55-2.95-3.13-4.97-6.08-4.6
		c-2.03,0-3.87,0.74-5.16,2.21c-1.1,1.47-1.47,3.13-1.1,4.97c0.55,2.95,3.13,4.97,6.08,4.6
		C317.65,428.69,319.49,427.95,320.78,426.48"/>
	<path id="Shape_240_" class="st0" d="M329.99,480.61c-2.03,0-3.87,0.92-5.16,2.39c-1.29,1.84-1.47,4.23-0.55,6.26
		c0.92,2.03,2.95,3.31,5.34,3.31c2.03,0,3.87-0.92,5.16-2.39c1.1-1.29,1.47-3.13,1.1-4.97
		C335.14,482.63,332.75,480.61,329.99,480.61"/>
	<path id="Shape_241_" class="st0" d="M330.91,415.61c2.21,0,4.23-0.92,5.34-2.58c0.92-1.47,1.29-3.5,0.74-5.16
		c-0.74-2.39-2.95-4.23-5.52-4.05c-2.03,0-4.05,0.92-5.34,2.58c-1.1,1.47-1.29,3.5-0.74,5.34
		C326.12,413.96,328.33,415.61,330.91,415.61"/>
	<path id="Shape_242_" class="st0" d="M325.75,399.78c2.03,0,4.05-0.92,5.34-2.58c1.1-1.47,1.29-3.5,0.74-5.34
		c-0.74-2.39-2.95-4.23-5.52-4.05c-2.03,0-4.05,0.92-5.34,2.58c-1.1,1.47-1.29,3.5-0.74,5.34
		C320.96,398.12,323.36,399.78,325.75,399.78"/>
	<path id="Shape_243_" class="st0" d="M326.49,382.66c0.92-1.47,1.29-3.5,0.74-5.16c-0.74-2.39-2.95-4.23-5.52-4.05
		c-2.03,0-4.05,0.92-5.34,2.58c-1.1,1.47-1.29,3.5-0.74,5.34c0.74,2.39,2.95,4.05,5.52,4.05
		C323.17,385.42,325.2,384.5,326.49,382.66"/>
	<path id="Shape_244_" class="st0" d="M348.4,450.23c1.1-1.47,1.29-3.5,0.74-5.34c-0.74-2.39-2.95-4.23-5.52-4.05
		c-2.03,0-4.05,0.92-5.34,2.58c-1.29,1.84-1.29,4.23-0.37,6.08s2.95,3.13,5.16,3.31C345.27,452.81,347.29,451.89,348.4,450.23"/>
	<path id="Shape_245_" class="st0" d="M342.14,430.71c1.1-1.84,1.29-4.23,0.18-6.08c-0.92-1.84-2.95-3.13-5.16-3.31
		c-2.03,0-4.05,0.92-5.34,2.58c-1.1,1.47-1.29,3.5-0.74,5.34c0.74,2.39,2.95,4.05,5.52,4.05
		C338.82,433.29,340.85,432.37,342.14,430.71"/>
	<path id="Shape_246_" class="st0" d="M350.79,462.93c-1.84,0-3.5,0.74-4.79,2.03c-0.18,0.18-0.37,0.18-0.55,0.37
		c-1.1,1.29-1.66,2.95-1.47,4.6c0.37,3.13,2.95,5.34,6.08,5.34c1.84,0,3.5-0.74,4.79-2.03c0.37-0.37,0.55-0.55,0.74-0.92
		c1.1-1.84,1.29-4.05,0.37-6.08C355.03,464.22,353,463.12,350.79,462.93"/>
	<path id="Shape_247_" class="st0" d="M316.91,372.53c2.03,0,4.05-0.92,5.34-2.58c1.1-1.47,1.29-3.5,0.74-5.34
		c-0.74-2.39-2.95-4.05-5.52-4.05c-2.03,0-4.05,0.92-5.34,2.58c-1.1,1.47-1.29,3.5-0.74,5.34
		C311.94,370.87,314.34,372.53,316.91,372.53"/>
	<path id="Shape_248_" class="st0" d="M343.98,401.44c2.21,0,4.42-1.1,5.52-2.95c0.92-1.66,1.1-3.68,0.37-5.52
		c-0.92-2.21-2.95-3.5-5.16-3.5s-4.42,1.1-5.52,2.95c-0.92,1.66-1.1,3.68-0.37,5.52C339.56,400.15,341.58,401.44,343.98,401.44"/>
	<path id="Shape_249_" class="st0" d="M342.87,383.76c1.1-1.84,1.1-4.05,0.18-5.89c-1.1-1.84-2.95-3.13-4.97-3.13
		c-2.21,0-4.23,1.1-5.52,2.95c-1.1,1.84-1.1,4.05,0,5.89c0.92,1.84,2.95,3.13,4.97,3.13S341.58,385.6,342.87,383.76"/>
	<path id="Shape_250_" class="st0" d="M326.49,364.8c-0.92,1.66-1.1,3.68-0.37,5.52c0.92,2.21,2.95,3.5,5.16,3.5s4.42-1.1,5.52-2.95
		c0.92-1.66,0.92-3.87,0-5.52c-0.92-2.03-2.95-3.5-5.16-3.5s-4.42,1.1-5.52,2.95"/>
	<path id="Shape_251_" class="st0" d="M364.23,432c1.1-1.66,1.29-3.87,0.37-5.52c-0.92-2.21-2.95-3.5-5.16-3.5s-4.23,1.1-5.52,2.95
		c-1.1,1.66-1.29,3.68-0.37,5.52c0.74,2.21,2.95,3.68,5.16,3.5C360.92,434.95,362.94,433.84,364.23,432"/>
	<path id="Shape_252_" class="st0" d="M350.79,417.46c2.21,0,4.23-1.1,5.52-2.95c1.1-1.84,1.1-4.05,0-5.89
		c-0.92-1.84-2.95-3.13-4.97-3.13c-2.21,0-4.23,1.1-5.52,2.95c-1.1,1.84-1.1,4.05-0.18,5.89
		C346.74,416.17,348.58,417.46,350.79,417.46"/>
	<path id="Shape_253_" class="st0" d="M373.25,452.44c0.92-1.66,1.1-3.68,0.37-5.52c-0.92-2.21-2.95-3.5-5.16-3.5
		s-4.23,1.1-5.52,2.95c-1.1,1.84-1.1,4.05,0,5.89c0.92,1.84,2.95,3.13,4.97,3.13C369.75,455.38,371.96,454.28,373.25,452.44"/>
	<path id="Shape_254_" class="st0" d="M377.67,463.85c-2.21,0-4.23,1.1-5.52,2.95c-1.1,1.84-1.1,4.05,0,5.89
		c0.92,1.84,2.95,3.13,4.97,3.13c2.21,0,4.23-1.1,5.52-2.95c1.1-1.66,1.29-3.68,0.37-5.52
		C382.09,465.33,380.07,463.85,377.67,463.85"/>
	<path id="Shape_255_" class="st0" d="M362.76,401.81c2.39,0,4.42-1.29,5.71-3.31c0.92-1.84,0.92-4.05-0.18-5.71
		c-1.1-1.84-2.95-2.95-4.97-2.95c-2.39,0-4.79,1.1-6.08,3.31c-1.1,1.84-1.1,4.23,0,6.08c0.92,1.84,2.95,2.95,4.97,2.95"/>
	<path id="Shape_256_" class="st0" d="M355.03,375.11c-2.39,0-4.6,1.29-5.71,3.31c-1.1,1.84-1.1,4.23,0,6.08
		c0.92,1.84,2.95,2.95,4.97,2.95c2.39,0,4.6-1.29,5.71-3.31c1.29-1.84,1.29-4.23,0-6.08C358.89,376.21,357.05,375.11,355.03,375.11"
		/>
	<path id="Shape_257_" class="st0" d="M341.77,365.35c-1.1,1.84-1.1,4.23,0,6.08c0.92,1.84,2.95,2.95,4.97,2.95
		c2.39,0,4.6-1.29,5.71-3.31c0.92-1.84,0.92-4.05-0.18-5.71c-1.1-1.84-2.95-2.95-4.97-2.95
		C345.08,362.22,342.87,363.51,341.77,365.35"/>
	<path id="Shape_258_" class="st0" d="M387.98,426.48c-0.92-1.84-2.95-2.95-4.97-2.95c-2.39,0-4.42,1.29-5.71,3.31
		c-1.1,1.84-1.1,4.23,0,6.08c0.92,1.84,2.95,2.95,4.97,2.95c2.39,0,4.42-1.29,5.71-3.31C389.09,430.71,389.09,428.32,387.98,426.48"
		/>
	<path id="Shape_259_" class="st0" d="M371.96,417.82c2.39,0,4.6-1.29,5.71-3.31c1.1-1.84,1.1-4.23,0-6.08
		c-0.92-1.84-2.95-2.95-4.97-2.95c-2.39,0-4.6,1.29-5.71,3.31c-0.92,1.84-0.92,4.05,0.18,5.71c1.1,1.84,2.95,2.95,4.97,2.95"/>
	<path id="Shape_260_" class="st0" d="M394.61,443.42c-2.39,0-4.6,1.29-5.71,3.31c-1.1,1.84-1.1,4.23,0,6.08
		c0.92,1.84,2.95,2.95,4.97,2.95c2.39,0,4.42-1.29,5.71-3.31c1.29-1.84,1.29-4.23,0-6.08C398.48,444.52,396.64,443.42,394.61,443.42
		"/>
	<path id="Shape_261_" class="st0" d="M340.66,350.25c-2.39,0-4.6,1.29-5.71,3.31c-0.92,1.84-0.92,4.05,0.18,5.89
		c1.1,1.84,2.95,2.95,4.97,2.95c2.39,0,4.6-1.29,5.71-3.31c0.92-1.84,0.92-4.05-0.18-5.89
		C344.53,351.54,342.69,350.25,340.66,350.25"/>
	<path id="Shape_262_" class="st0" d="M372.33,385.05c2.58,0,4.79-1.29,6.08-3.68c0.74-1.84,0.74-3.87-0.37-5.71
		c-1.1-1.66-2.95-2.76-4.97-2.95c-2.58,0-4.79,1.29-6.08,3.68c-0.92,2.03-0.74,4.23,0.55,6.08
		C368.83,384.13,370.49,385.05,372.33,385.05"/>
	<path id="Shape_263_" class="st0" d="M362.94,371.98c2.58,0,4.97-1.47,6.08-3.68c0.74-1.84,0.74-3.87-0.37-5.71
		c-1.1-1.66-2.76-2.76-4.79-2.95c-2.58,0-4.79,1.29-6.08,3.68c-0.92,2.03-0.74,4.23,0.55,6.08
		C359.44,371.06,361.1,371.98,362.94,371.98z"/>
	<path id="Shape_264_" class="st0" d="M349.32,352.09c-0.92,2.03-0.74,4.23,0.55,6.08c1.1,1.47,2.76,2.39,4.6,2.39
		c2.58,0,4.79-1.29,6.08-3.68c0.74-1.84,0.74-3.87-0.37-5.71c-1.1-1.66-2.95-2.76-4.97-2.95
		C352.82,348.41,350.42,349.88,349.32,352.09"/>
	<path id="Shape_265_" class="st0" d="M394.61,402.73c-2.58,0-4.79,1.29-6.08,3.68c-0.92,2.03-0.74,4.23,0.55,6.08
		c1.1,1.47,2.76,2.39,4.6,2.39c2.58,0,4.79-1.29,6.08-3.68c0.92-2.03,0.74-4.23-0.55-6.08
		C398.29,403.83,396.64,402.91,394.61,402.73"/>
	<path id="Shape_266_" class="st0" d="M382.46,399.41c2.58,0,4.79-1.47,6.08-3.68c0.92-2.03,0.74-4.23-0.55-6.08
		c-1.1-1.47-2.76-2.39-4.6-2.39c-2.58,0-4.79,1.29-6.08,3.68c-0.92,2.03-0.74,4.23,0.55,6.08
		C378.96,398.31,380.62,399.23,382.46,399.41"/>
	<path id="Shape_267_" class="st0" d="M407.5,420.59c-2.58,0-4.79,1.29-6.08,3.68c-1.1,2.03-0.74,4.23,0.55,6.08
		c1.1,1.47,2.76,2.39,4.6,2.58c2.58,0,4.79-1.47,6.08-3.68c0.92-2.03,0.74-4.23-0.55-6.08C411,421.69,409.34,420.77,407.5,420.59"/>
	<path id="Shape_268_" class="st0" d="M421.68,439.92c-2.58,0-4.79,1.47-6.08,3.68c-0.92,2.03-0.74,4.23,0.55,6.08
		c1.1,1.47,2.76,2.39,4.6,2.39c2.58,0,4.79-1.29,6.08-3.68c0.92-1.84,0.74-4.05-0.37-5.71C425.54,441.02,423.7,439.92,421.68,439.92
		"/>
	<path id="Shape_269_" class="st0" d="M396.64,377.69c0.74-1.84,0.55-3.87-0.55-5.52s-2.95-2.76-4.79-2.76
		c-2.58,0-4.97,1.66-6.08,4.05c-0.92,2.03-0.55,4.42,1.1,6.08c1.1,1.29,2.58,2.03,4.23,2.03
		C393.14,381.37,395.53,379.9,396.64,377.69"/>
	<path id="Shape_270_" class="st0" d="M385.59,365.17c0.92-2.03,0.37-4.42-1.1-6.08c-1.1-1.29-2.76-2.03-4.42-2.03
		c-2.58,0-4.97,1.47-6.08,3.87c-0.92,2.03-0.37,4.42,1.1,6.08c1.1,1.29,2.76,2.03,4.42,2.03
		C382.09,369.03,384.48,367.56,385.59,365.17"/>
	<path id="Shape_271_" class="st0" d="M364.23,349.52c-0.92,2.03-0.37,4.42,1.1,6.08c1.1,1.29,2.58,2.03,4.23,2.03
		c2.58,0,4.97-1.66,6.08-4.05c0.92-2.03,0.37-4.42-1.1-6.08c-1.1-1.29-2.58-2.03-4.23-2.03
		C367.73,345.65,365.34,347.12,364.23,349.52"/>
	<path id="Shape_272_" class="st0" d="M417.07,410.83c2.58,0,4.97-1.47,6.08-3.87c0.92-2.03,0.37-4.42-1.1-6.08
		c-1.1-1.29-2.76-2.03-4.42-2.03c-2.58,0-4.97,1.47-6.08,3.87c-0.92,2.03-0.37,4.42,1.1,6.08
		C413.76,410.09,415.42,410.83,417.07,410.83"/>
	<path id="Shape_273_" class="st0" d="M403.26,395.36c2.58,0,4.97-1.47,6.08-3.87c0.92-2.03,0.37-4.42-1.1-6.08
		c-1.1-1.29-2.58-2.03-4.23-2.03c-2.58,0-4.97,1.47-6.08,3.87c-0.74,1.84-0.55,3.87,0.55,5.52
		C399.4,394.44,401.24,395.55,403.26,395.36"/>
	<path id="Shape_274_" class="st0" d="M432.91,415.8c-2.58,0-4.97,1.66-6.08,3.87c-0.74,1.84-0.55,3.87,0.55,5.52
		c1.1,1.66,2.95,2.58,4.79,2.76c2.58,0,4.97-1.47,6.08-3.87c0.74-1.84,0.55-3.87-0.55-5.52C436.59,416.9,434.93,415.8,432.91,415.8"
		/>
	<path id="Shape_275_" class="st0" d="M361.1,335.52c-2.58,0-4.97,1.66-6.08,3.87c-0.92,2.03-0.37,4.42,1.1,6.08
		c1.1,1.29,2.58,2.03,4.23,2.03c2.58,0,4.97-1.47,6.08-3.87c0.74-1.84,0.55-3.87-0.55-5.52c-1.1-1.66-2.95-2.58-4.79-2.76"/>
	<path id="Shape_276_" class="st0" d="M402.71,359.27c0.92-2.21,0.18-4.79-1.66-6.44c-1.1-1.1-2.39-1.66-3.87-1.66
		c-2.76,0-5.16,1.84-6.08,4.23c-0.92,2.21-0.18,4.79,1.66,6.44c1.1,0.92,2.39,1.47,3.87,1.66
		C399.4,363.32,401.79,361.67,402.71,359.27"/>
	<path id="Shape_277_" class="st0" d="M390.93,348.23c0.92-2.21,0.18-4.79-1.66-6.44c-1.1-0.92-2.39-1.66-3.87-1.66
		c-2.76,0-5.16,1.66-6.08,4.23c-0.92,2.21-0.18,4.79,1.66,6.44c1.1,0.92,2.39,1.66,3.87,1.66
		C387.61,352.46,390.01,350.8,390.93,348.23"/>
	<path id="Shape_278_" class="st0" d="M368.83,334.97c-0.92,2.21-0.18,4.79,1.66,6.44c1.1,1.1,2.39,1.66,3.87,1.66
		c2.76,0,5.16-1.66,6.08-4.23c0.92-2.21,0.18-4.97-1.66-6.44c-1.1-0.92-2.39-1.47-3.87-1.66
		C372.33,330.92,369.94,332.58,368.83,334.97"/>
	<path id="Shape_279_" class="st0" d="M424.25,388.18c2.76,0,5.16-1.84,6.08-4.23c0.74-2.21,0-4.79-1.84-6.26
		c-1.1-0.92-2.39-1.66-3.87-1.66c-2.76,0-5.16,1.66-6.08,4.23c-0.92,2.21-0.18,4.79,1.66,6.44
		C421.12,387.81,422.6,388.36,424.25,388.18z"/>
	<path id="Shape_280_" class="st0" d="M409.71,375.29c2.76,0,5.16-1.84,6.08-4.23c0.92-2.21,0.18-4.79-1.66-6.44
		c-1.1-0.92-2.39-1.66-3.87-1.66c-2.76,0-5.16,1.66-6.08,4.23c-0.92,2.21-0.18,4.79,1.66,6.44
		C406.95,374.74,408.24,375.29,409.71,375.29z"/>
	<path id="Shape_281_" class="st0" d="M440.82,390.76c-2.76,0-5.16,1.66-6.08,4.23c-0.92,2.21-0.18,4.97,1.66,6.44
		c1.1,0.92,2.39,1.47,3.87,1.66c2.76,0,5.16-1.66,6.08-4.23c0.92-2.21,0.18-4.97-1.66-6.44
		C443.59,391.31,442.3,390.76,440.82,390.76"/>
	<path id="Shape_282_" class="st0" d="M458.87,407.14c-2.76,0-5.16,1.66-6.08,4.23c-0.92,2.21-0.18,4.79,1.66,6.26
		c1.1,0.92,2.39,1.66,3.87,1.66c2.76,0,5.16-1.66,6.08-4.23c0.92-2.21,0.18-4.79-1.66-6.44
		C461.63,407.7,460.34,407.14,458.87,407.14"/>
	<path id="Shape_283_" class="st0" d="M379.33,126.36c1.29-1.84,1.47-4.05,0.55-6.08c-1.1-2.21-3.5-3.68-6.08-3.68
		c-2.03,0-3.87,1.1-4.97,2.95c-1.1,1.66-1.1,3.87-0.37,5.71c1.1,2.21,3.5,3.68,6.08,3.68C376.57,128.94,378.41,128.02,379.33,126.36
		"/>
	<path id="Shape_284_" class="st0" d="M365.15,141.83c2.03,0,3.87-1.1,4.97-2.95c1.1-1.84,1.1-3.87,0.37-5.71
		c-1.1-2.21-3.5-3.68-6.08-3.68c-1.84,0-3.5,0.92-4.6,2.39c-1.29,1.66-1.66,4.05-0.55,6.08
		C360.36,140.36,362.57,141.65,365.15,141.83"/>
	<path id="Shape_285_" class="st0" d="M356.87,153.25c2.03,0,3.87-1.1,4.97-2.95c1.1-1.66,1.1-3.87,0.37-5.71
		c-1.1-2.21-3.5-3.68-6.08-3.68c-2.03,0-3.87,1.1-4.97,2.95c-1.1,1.84-1.1,3.87-0.37,5.71C351.9,151.96,354.29,153.25,356.87,153.25
		"/>
	<path id="Shape_286_" class="st0" d="M396.08,86.96c-2.03,0-3.87,1.1-4.97,2.95c-1.1,1.84-1.1,3.87-0.37,5.71
		c1.1,2.21,3.5,3.68,6.08,3.68c1.84,0,3.68-0.92,4.6-2.39c1.29-1.84,1.47-4.05,0.55-6.08C400.87,88.44,398.48,86.96,396.08,86.96"/>
	<path id="Shape_287_" class="st0" d="M384.67,102.61c-1.84,0-3.68,0.92-4.6,2.39c-1.29,1.84-1.47,4.05-0.55,6.08
		c1.1,2.21,3.5,3.68,6.08,3.68c2.03-0.18,3.87-1.1,4.79-2.95c1.1-1.66,1.1-3.87,0.37-5.71C389.46,103.9,387.06,102.61,384.67,102.61
		"/>
	<path id="Shape_288_" class="st0" d="M409.71,81.44c1.84,0,3.5-0.92,4.6-2.39c1.29-1.66,1.47-4.05,0.74-6.08
		c-1.1-2.21-3.5-3.68-6.08-3.68c-1.84,0-3.5,0.92-4.6,2.39c-1.29,1.66-1.66,4.05-0.74,6.08C404.74,79.97,407.13,81.44,409.71,81.44"
		/>
	<path id="Shape_289_" class="st0" d="M423.52,62.48c1.84,0,3.68-0.92,4.6-2.58c1.29-1.66,1.66-4.05,0.55-6.08
		c-1.1-2.21-3.5-3.68-6.08-3.68c-2.03,0-3.87,1.1-4.97,2.95c-1.1,1.66-1.1,3.87-0.37,5.71C418.55,61.19,420.94,62.48,423.52,62.48"
		/>
	<path id="Shape_290_" class="st0" d="M359.81,102.98c-1.1,1.84-1.1,4.23,0,6.08c1.29,2.03,3.31,3.31,5.71,3.31
		c2.03,0,4.05-1.1,4.97-2.95c1.1-1.84,1.1-4.23,0-6.08c-1.29-2.03-3.31-3.31-5.71-3.31C362.76,100.04,360.92,101.14,359.81,102.98"
		/>
	<path id="Shape_291_" class="st0" d="M362.02,123.6c1.29-1.84,1.29-4.23,0-6.08c-1.29-2.03-3.31-3.31-5.71-3.31
		c-2.03,0-4.05,1.1-4.97,2.95c-1.1,1.84-1.1,4.23,0,6.08c1.29,2.03,3.31,3.31,5.71,3.31C359.08,126.55,361.1,125.44,362.02,123.6"/>
	<path id="Shape_292_" class="st0" d="M354.47,136.68c1.1-1.84,1.1-4.23,0-6.08c-1.1-2.03-3.31-3.31-5.71-3.31
		c-2.03,0.18-3.87,1.29-4.79,3.13c-0.92,1.84-0.92,3.87,0,5.71c1.29,2.03,3.31,3.31,5.71,3.31
		C351.71,139.62,353.55,138.33,354.47,136.68"/>
	<path id="Shape_293_" class="st0" d="M379.7,69.1c-1.1,1.84-1.1,4.23,0,6.08c1.29,2.03,3.31,3.31,5.71,3.31
		c2.03,0,4.05-1.1,4.97-2.95c1.1-1.84,1.1-4.23,0-6.08c-1.29-2.03-3.31-3.31-5.71-3.31C382.46,66.16,380.62,67.26,379.7,69.1"/>
	<path id="Shape_294_" class="st0" d="M373.99,84.02c-2.03,0-4.05,1.1-4.97,2.95c-1.1,1.84-1.1,4.23,0,6.08
		c1.29,2.03,3.31,3.31,5.71,3.31c2.03,0,3.87-1.29,4.97-2.95c1.1-1.84,1.1-4.05,0.18-5.89C378.78,85.31,376.38,84.02,373.99,84.02"
		/>
	<path id="Shape_295_" class="st0" d="M396.82,58.43c2.03,0,4.05-1.1,4.97-2.95c1.29-1.84,1.29-4.23,0-6.08
		c-1.29-2.03-3.31-3.31-5.71-3.31c-2.03,0-4.05,1.1-4.97,2.95c-1.1,1.84-1.1,4.23,0,6.08C392.4,56.95,394.43,58.24,396.82,58.43"/>
	<path id="Shape_296_" class="st0" d="M342.69,151.4c2.03,0,4.05-1.1,4.97-2.95c1.1-1.84,1.1-4.23,0-6.08
		c-1.29-2.03-3.31-3.31-5.71-3.31c-2.03,0-4.05,1.1-4.97,2.95c-1.1,1.84-1.1,4.23,0,6.08c1.29,2.03,3.5,3.31,6.08,3.31"/>
	<path id="Shape_297_" class="st0" d="M340.48,103.35c-0.74,1.84-0.74,3.87,0.37,5.52c1.29,1.84,3.31,2.95,5.52,2.95
		c2.21,0,4.42-1.29,5.16-3.5c0.92-1.66,0.92-3.87,0-5.52c-1.29-1.84-3.31-2.95-5.52-2.95s-4.23,1.47-5.16,3.5"/>
	<path id="Shape_298_" class="st0" d="M333.67,118.08c-0.92,1.84-0.74,3.87,0.37,5.52c1.29,1.84,3.31,2.95,5.52,2.95
		c2.39,0,4.42-1.29,5.34-3.5c0.74-1.84,0.74-3.87-0.37-5.52c-1.29-1.84-3.31-2.95-5.52-2.95
		C336.61,114.58,334.59,115.87,333.67,118.08"/>
	<path id="Shape_299_" class="st0" d="M333.85,139.62c2.39,0,4.42-1.47,5.16-3.5c0.92-1.84,0.74-3.87-0.37-5.52
		c-1.29-1.84-3.31-2.95-5.52-2.95s-4.42,1.29-5.16,3.5c-0.92,1.84-0.74,3.87,0.37,5.52C329.43,138.52,331.64,139.62,333.85,139.62"
		/>
	<path id="Shape_300_" class="st0" d="M355.95,69.84c-0.74,1.84-0.74,3.87,0.37,5.52c1.29,1.84,3.31,2.95,5.52,2.95
		s4.05-1.29,4.97-3.13c1.1-1.84,0.92-4.05-0.18-5.89c-1.29-1.84-3.31-2.95-5.52-2.95C358.89,66.34,356.87,67.63,355.95,69.84"/>
	<path id="Shape_301_" class="st0" d="M353,84.02c-2.03,0.18-4.05,1.29-4.97,3.13s-0.92,4.05,0,5.89c1.29,1.84,3.31,2.95,5.52,2.95
		c2.21-0.18,4.23-1.47,5.16-3.5c0.74-1.84,0.74-3.87-0.37-5.52C357.42,85.12,355.21,84.02,353,84.02"/>
	<path id="Shape_302_" class="st0" d="M370.68,58.24c2.21,0,4.42-1.29,5.16-3.5c0.92-1.84,0.74-3.87-0.37-5.52
		c-1.29-1.84-3.31-2.95-5.52-2.95c-2.03,0.18-4.05,1.29-4.97,3.13s-0.92,4.05,0,5.89C366.44,57.14,368.47,58.24,370.68,58.24"/>
	<path id="Shape_303_" class="st0" d="M380.43,36.52c2.21,0,4.42-1.29,5.16-3.5c0.92-1.84,0.74-3.87-0.37-5.52
		c-1.29-1.84-3.31-2.95-5.52-2.95s-4.42,1.29-5.16,3.5c-0.92,1.84-0.74,3.87,0.37,5.52C376.2,35.23,378.22,36.33,380.43,36.52"/>
	<path id="Shape_304_" class="st0" d="M333.12,85.49c-2.58,0-4.79,1.66-5.52,4.05c-0.55,1.84-0.37,3.68,0.74,5.34
		c1.29,1.66,3.31,2.58,5.34,2.58c2.21,0,4.23-1.29,5.16-3.31s0.92-4.23-0.37-6.08C337.17,86.41,335.14,85.49,333.12,85.49"/>
	<path id="Shape_305_" class="st0" d="M322.25,105.56c-0.55,1.84-0.37,3.68,0.74,5.34c1.29,1.66,3.31,2.58,5.34,2.58
		c2.58,0,4.79-1.66,5.52-4.05c0.74-1.84,0.37-3.68-0.74-5.34c-1.29-1.66-3.31-2.58-5.34-2.58
		C325.2,101.32,322.99,102.98,322.25,105.56"/>
	<path id="Shape_306_" class="st0" d="M329.06,123.6c0.55-1.84,0.37-3.68-0.74-5.34c-1.29-1.66-3.31-2.58-5.34-2.58
		c-2.58,0-4.79,1.66-5.52,4.05c-0.55,1.84-0.37,3.68,0.74,5.34c1.29,1.66,3.31,2.76,5.34,2.58
		C326.12,127.84,328.51,126,329.06,123.6"/>
	<path id="Shape_307_" class="st0" d="M345.82,60.08c2.58,0,4.79-1.66,5.52-4.05c0.74-1.84,0.37-3.68-0.74-5.34
		c-1.29-1.66-3.31-2.76-5.34-2.58c-2.21,0-4.05,1.29-5.16,3.31c-1.1,2.03-0.92,4.23,0.37,6.08
		C341.77,59.16,343.79,60.27,345.82,60.08"/>
	<path id="Shape_308_" class="st0" d="M333.3,71.87c-0.74,1.84-0.37,3.68,0.74,5.34c1.29,1.66,3.31,2.76,5.34,2.76
		c2.21,0,4.23-1.29,5.16-3.31s0.92-4.23-0.37-6.08c-1.29-1.66-3.31-2.76-5.34-2.58C336.25,67.82,334.04,69.47,333.3,71.87"/>
	<path id="Shape_309_" class="st0" d="M353,38.36c2.58,0,4.79-1.66,5.52-4.05c0.55-1.66,0.37-3.68-0.74-5.16
		c-1.29-1.66-3.31-2.76-5.34-2.76c-2.21,0-4.23,1.29-5.16,3.31s-0.92,4.23,0.37,6.08C348.95,37.44,350.97,38.36,353,38.36"/>
	<path id="Shape_310_" class="st0" d="M319.31,140.54c2.21,0,4.05-1.29,5.16-3.31c0.92-1.84,0.92-4.23-0.37-6.08
		c-1.29-1.66-3.31-2.76-5.34-2.58c-2.58,0-4.79,1.66-5.52,4.05c-0.74,1.84-0.37,3.68,0.74,5.34
		C315.26,139.62,317.28,140.54,319.31,140.54"/>
	<path id="Shape_311_" class="st0" d="M314.7,101.32c2.76,0.18,5.34-1.84,5.71-4.6c0.55-1.66,0.18-3.5-1.1-4.97
		c-1.29-1.47-3.13-2.39-5.16-2.39c-2.95-0.18-5.52,1.84-6.08,4.6c-0.37,1.66,0,3.5,1.1,4.97
		C310.65,100.59,312.68,101.32,314.7,101.32z"/>
	<path id="Shape_312_" class="st0" d="M305.13,109.79c-0.55,1.66-0.18,3.5,1.1,4.97c1.29,1.47,3.13,2.39,5.16,2.39
		c2.76,0.18,5.34-1.84,5.71-4.6c0.55-1.66,0-3.5-1.1-4.97c-1.29-1.47-3.13-2.39-5.16-2.39C308.08,105.01,305.5,107.03,305.13,109.79
		"/>
	<path id="Shape_313_" class="st0" d="M302.18,123.6c-0.37,1.66,0,3.5,1.1,4.97c1.29,1.47,3.13,2.39,5.16,2.39
		c2.95,0,5.34-1.84,6.08-4.6c0.37-1.66,0-3.5-1.1-4.97c-1.29-1.47-3.13-2.39-5.16-2.39C305.31,119,302.74,120.84,302.18,123.6"/>
	<path id="Shape_314_" class="st0" d="M322.62,65.24c2.76,0,5.34-2.03,5.71-4.79c0.37-1.66,0-3.5-1.1-4.97
		c-1.29-1.47-3.13-2.39-5.16-2.39c-2.21,0-4.23,1.29-5.34,3.31c-0.92,2.03-0.74,4.42,0.55,6.26
		C318.75,64.32,320.78,65.24,322.62,65.24"/>
	<path id="Shape_315_" class="st0" d="M318.57,84.2c2.21,0,4.23-1.29,5.34-3.31c1.1-2.03,0.74-4.42-0.55-6.26
		c-1.29-1.47-3.13-2.39-5.16-2.39c-2.95,0-5.34,1.84-6.08,4.6c-0.37,1.66,0,3.5,1.1,4.97c1.29,1.47,3.13,2.39,5.16,2.39"/>
	<path id="Shape_316_" class="st0" d="M327.41,43.7c2.95,0.18,5.52-1.84,6.08-4.79c0.37-1.66,0-3.5-1.1-4.97
		c-1.29-1.47-3.13-2.39-5.16-2.39c-2.76-0.18-5.34,1.84-5.71,4.6c-0.37,1.66,0,3.5,1.1,4.97c1.29,1.47,3.13,2.39,5.16,2.39"/>
	<path id="Shape_317_" class="st0" d="M331.83,21.42c2.95,0.18,5.52-1.84,6.08-4.79c0.55-1.66,0.18-3.5-1.1-4.97
		c-1.29-1.47-3.13-2.39-4.97-2.39c-2.76,0-5.16,1.84-5.71,4.6c-0.37,1.66,0,3.5,1.1,4.97c1.29,1.47,3.13,2.39,5.16,2.39"/>
	<path id="Shape_318_" class="st0" d="M299.42,89.91c2.39,0,4.42-1.47,5.34-3.5c0.92-2.03,0.74-4.6-0.74-6.44
		c-1.29-1.29-2.95-2.03-4.79-2.03c-2.39,0-4.42,1.47-5.34,3.5c-0.92,2.03-0.74,4.6,0.74,6.44
		C295.74,89.17,297.58,89.91,299.42,89.91"/>
	<path id="Shape_319_" class="st0" d="M297.58,106.48c3.13,0,5.71-2.21,6.08-5.34c0.18-1.66-0.18-3.31-1.29-4.6
		c-1.29-1.29-2.95-2.03-4.79-2.03c-3.13,0-5.71,2.21-6.08,5.34c-0.18,1.66,0.37,3.31,1.47,4.6
		C294.08,105.74,295.74,106.48,297.58,106.48"/>
	<path id="Shape_320_" class="st0" d="M295.74,121.39c3.13,0,5.71-2.21,6.08-5.34c0.18-1.66-0.18-3.31-1.29-4.6
		c-1.29-1.29-3.13-2.03-4.97-2.03c-2.39,0-4.42,1.47-5.34,3.5c-0.92,2.03-0.74,4.6,0.74,6.44
		C292.24,120.66,293.9,121.39,295.74,121.39"/>
	<path id="Shape_321_" class="st0" d="M303.66,50.88c3.13,0,5.71-2.21,6.08-5.34c0.18-1.66-0.18-3.31-1.29-4.6
		c-1.29-1.29-2.95-2.03-4.79-2.03c-2.39,0-4.42,1.47-5.34,3.5s-0.74,4.6,0.92,6.44C300.34,50.14,302,50.88,303.66,50.88"/>
	<path id="Shape_322_" class="st0" d="M301.63,71.31c3.13,0,5.71-2.21,6.08-5.34c0.18-1.66-0.37-3.31-1.47-4.6
		c-1.29-1.29-2.95-2.03-4.79-2.03c-3.13,0-5.71,2.21-6.08,5.34c-0.18,1.66,0.18,3.31,1.29,4.6
		C298.13,70.58,299.79,71.31,301.63,71.31"/>
	<path id="Shape_323_" class="st0" d="M306.23,27.86c2.39,0,4.42-1.47,5.34-3.5c0.92-2.03,0.74-4.6-0.74-6.44
		c-1.29-1.29-2.95-2.03-4.79-2.03c-3.13,0-5.71,2.21-6.08,5.34c-0.18,1.66,0.37,3.31,1.47,4.6
		C302.74,27.31,304.39,28.05,306.23,27.86"/>
	<path id="Shape_324_" class="st0" d="M289.66,132.99c1.29,1.29,2.95,2.03,4.79,2.03c3.13,0,5.71-2.21,6.08-5.34
		c0.18-1.66-0.18-3.31-1.29-4.6c-1.29-1.29-2.95-2.03-4.79-2.03c-2.39,0-4.42,1.47-5.34,3.5
		C288.01,128.57,288.19,131.15,289.66,132.99"/>
	<path id="Shape_325_" class="st0" d="M281.75,97.46c2.39,0,4.6-1.47,5.52-3.68c0.92-2.21,0.55-4.79-1.1-6.63
		c-1.29-1.1-2.76-1.84-4.6-1.84c-2.39,0-4.6,1.47-5.52,3.68c-0.92,2.21-0.55,4.79,1.1,6.63C278.43,96.91,280.09,97.46,281.75,97.46"
		/>
	<path id="Shape_326_" class="st0" d="M281.56,113.66c2.39,0,4.6-1.47,5.52-3.68s0.55-4.79-1.1-6.63c-1.1-1.1-2.76-1.84-4.42-1.84
		c-2.39,0-4.6,1.29-5.52,3.5s-0.55,4.79,1.1,6.63C278.25,112.92,279.91,113.66,281.56,113.66"/>
	<path id="Shape_327_" class="st0" d="M281.56,127.84c2.39,0,4.6-1.47,5.52-3.68s0.55-4.79-1.1-6.63c-1.1-1.1-2.76-1.84-4.42-1.84
		c-3.31,0-6.08,2.76-6.08,6.08c0,1.47,0.55,2.95,1.66,4.23S279.91,128.02,281.56,127.84"/>
	<path id="Shape_328_" class="st0" d="M281.93,60.45c2.39,0,4.6-1.29,5.52-3.5c0.92-2.21,0.55-4.79-1.1-6.63
		c-1.29-1.1-2.76-1.84-4.6-1.84c-2.39,0-4.6,1.47-5.52,3.68c-0.92,2.21-0.55,4.79,1.1,6.63C278.62,59.9,280.27,60.63,281.93,60.45"
		/>
	<path id="Shape_329_" class="st0" d="M281.93,79.97c2.39,0,4.6-1.47,5.52-3.68s0.55-4.79-1.1-6.63c-1.29-1.1-2.76-1.84-4.42-1.84
		c-2.39,0-4.6,1.47-5.52,3.68c-0.92,2.21-0.55,4.79,1.1,6.63C278.8,79.41,280.27,79.97,281.93,79.97"/>
	<path id="Shape_330_" class="st0" d="M282.3,38.54c2.39,0,4.6-1.47,5.52-3.68c0.92-2.21,0.55-4.79-1.1-6.63
		c-1.1-1.1-2.76-1.84-4.42-1.84c-2.39,0-4.6,1.29-5.52,3.5s-0.55,4.79,1.1,6.44C278.98,37.99,280.46,38.54,282.3,38.54"/>
	<path id="Shape_331_" class="st0" d="M282.3,14.61c2.39,0,4.6-1.47,5.52-3.68s0.55-4.79-1.1-6.63c-1.29-1.1-2.76-1.84-4.6-1.84
		c-2.39,0-4.6,1.47-5.52,3.68s-0.55,4.79,1.1,6.63C278.98,14.05,280.64,14.61,282.3,14.61"/>
	<path id="Shape_332_" class="st0" d="M393.32,132.62c2.03,0,3.87-1.1,4.79-2.76c1.1-1.66,1.29-3.68,0.55-5.52
		c-1.1-2.39-3.5-3.87-6.08-3.87c-2.03,0-3.68,1.1-4.79,2.76c-1.1,1.66-1.29,3.68-0.55,5.52
		C388.53,131.15,390.74,132.62,393.32,132.62"/>
	<path id="Shape_333_" class="st0" d="M382.09,145.14c2.03,0,3.87-1.1,4.79-2.76c1.1-1.66,1.29-3.68,0.55-5.52
		c-1.1-2.39-3.5-3.87-6.08-4.05c-1.66,0-3.13,0.74-4.23,2.03c-1.47,1.66-2.03,4.05-1.1,6.08c1.1,2.39,3.5,4.05,6.08,4.05"/>
	<path id="Shape_334_" class="st0" d="M376.2,154.35c1.47-1.66,1.84-4.05,1.1-6.08c-1.1-2.39-3.5-3.87-6.08-4.05
		c-1.66,0-3.13,0.74-4.23,2.03c-1.47,1.66-2.03,4.05-1.1,6.08c1.1,2.39,3.5,4.05,6.08,4.05
		C373.62,156.38,375.09,155.64,376.2,154.35"/>
	<path id="Shape_335_" class="st0" d="M419.83,103.72c1.66,0,3.13-0.74,4.23-2.03c1.47-1.66,2.03-4.05,1.1-6.08
		c-1.1-2.39-3.5-3.87-6.08-3.87c-2.03,0-3.87,1.1-4.79,2.76c-1.1,1.66-1.29,3.68-0.55,5.52c1.1,2.39,3.5,3.87,6.08,3.87"/>
	<path id="Shape_336_" class="st0" d="M405.47,106.66c-2.03,0-3.87,1.1-4.79,2.76c-1.1,1.66-1.29,3.68-0.55,5.52
		c1.1,2.39,3.5,3.87,6.08,4.05c1.66,0,3.31-0.74,4.42-2.03c1.47-1.66,2.03-4.05,1.1-6.08C410.44,108.51,408.05,106.85,405.47,106.66
		"/>
	<path id="Shape_337_" class="st0" d="M429.41,82.73c1.1,2.39,3.5,4.05,6.08,4.05c1.66,0,3.13-0.74,4.23-2.03
		c1.47-1.66,2.03-4.05,1.1-6.08c-1.1-2.39-3.5-4.05-6.08-4.05c-1.66,0-3.13,0.74-4.23,2.03C429.04,78.31,428.49,80.7,429.41,82.73"
		/>
	<path id="Shape_338_" class="st0" d="M362.76,166.32c1.66,0,3.13-0.74,4.23-2.03c1.47-1.66,2.03-4.05,1.1-6.08
		c-1.1-2.39-3.5-3.87-6.08-3.87c-2.03,0-3.87,1.1-4.79,2.76c-1.1,1.66-1.29,3.68-0.55,5.52c1.1,2.39,3.5,3.87,6.08,3.87"/>
	<path id="Shape_339_" class="st0" d="M399.21,151.04c1.47,0,2.76-0.55,3.87-1.66c1.84-1.47,2.58-4.05,1.66-6.44
		c-0.92-2.58-3.31-4.23-6.08-4.23c-1.47,0-2.76,0.55-3.87,1.66c-2.03,1.47-2.58,4.23-1.66,6.44
		C394.06,149.2,396.45,150.85,399.21,151.04"/>
	<path id="Shape_340_" class="st0" d="M392.77,153.8c-0.92-2.58-3.31-4.23-6.08-4.23c-1.47,0-2.76,0.55-3.87,1.66
		c-1.84,1.66-2.58,4.23-1.66,6.44c0.92,2.58,3.31,4.23,6.08,4.23c1.47,0,2.95-0.55,3.87-1.66
		C393.14,158.59,393.69,156.01,392.77,153.8"/>
	<path id="Shape_341_" class="st0" d="M376.57,171.11c1.47,0,2.76-0.55,3.87-1.66c1.84-1.47,2.58-4.05,1.66-6.44
		c-0.92-2.58-3.31-4.23-6.08-4.23c-1.47,0-2.76,0.55-3.87,1.66c-1.84,1.47-2.58,4.05-1.66,6.44
		C371.41,169.45,373.81,171.11,376.57,171.11"/>
	<path id="Shape_342_" class="st0" d="M432.17,118.45c-0.92-2.58-3.31-4.23-6.08-4.23c-1.47,0-2.76,0.55-3.87,1.66
		c-2.03,1.47-2.58,4.23-1.66,6.44c0.92,2.58,3.31,4.23,6.08,4.23c1.47,0,2.76-0.55,3.87-1.66
		C432.54,123.23,433.09,120.66,432.17,118.45"/>
	<path id="Shape_343_" class="st0" d="M407.87,128.57c-1.84,1.66-2.58,4.23-1.66,6.44c0.92,2.58,3.31,4.23,6.08,4.23
		c1.47,0,2.76-0.55,3.87-1.66c1.84-1.47,2.58-4.05,1.66-6.44c-0.92-2.58-3.31-4.23-6.08-4.23
		C410.26,126.92,408.97,127.47,407.87,128.57"/>
	<path id="Shape_344_" class="st0" d="M442.67,99.48c-1.47,0-2.76,0.55-3.87,1.66c-1.84,1.47-2.58,4.05-1.66,6.44
		c0.92,2.58,3.31,4.23,6.08,4.23c1.84,0,3.68-1.1,4.79-2.58c1.1-1.66,1.29-3.68,0.74-5.34C447.82,101.14,445.43,99.48,442.67,99.48"
		/>
	<path id="Shape_345_" class="st0" d="M460.16,96.72c1.47,0,2.76-0.55,3.87-1.66c1.84-1.47,2.58-4.05,1.66-6.44
		c-0.92-2.58-3.31-4.23-6.08-4.23c-1.47,0-2.76,0.55-3.87,1.66c-1.84,1.47-2.58,4.05-1.66,6.44C455,95.06,457.39,96.72,460.16,96.72
		"/>
	<path id="Shape_346_" class="st0" d="M273.28,365.72c0,3.31,2.76,6.08,6.08,6.08c1.66,0,3.31-0.55,4.6-1.84
		c1.1-1.1,1.66-2.58,1.66-4.23c0.18-2.76-1.84-5.34-4.79-5.71c1.1-0.18,2.21-0.74,2.95-1.66c1.1-1.1,1.66-2.58,1.66-4.23
		c0-0.55,0-0.92,0-1.47c0.74,0.74,1.66,1.29,2.76,1.47c-0.74,0.37-1.47,0.74-2.03,1.47c-1.47,1.84-1.84,4.23-0.92,6.44
		s3.13,3.5,5.34,3.5c1.84,0,3.5-0.74,4.79-2.03c1.1-1.29,1.47-2.95,1.47-4.6c-0.18-2.58-2.03-4.6-4.6-5.16
		c0.74-0.37,1.47-0.92,2.03-1.47l0.55-0.55c0,0.55,0,1.1,0,1.66c0.55,2.76,2.95,4.79,5.71,4.79c-0.92,0.37-1.66,0.92-2.21,1.66
		c-1.1,1.29-1.47,3.13-1.1,4.97c0.55,2.76,3.13,4.79,6.08,4.79c2.03,0,3.87-0.92,5.16-2.39c1.1-1.47,1.47-3.13,1.1-4.97
		c-0.55-2.76-2.95-4.79-5.71-4.79c0.92-0.37,1.66-0.92,2.21-1.66c1.1-1.29,1.47-3.13,1.1-4.97c-0.18-0.55-0.37-1.1-0.55-1.47
		c0.92,0.74,2.03,1.1,3.31,1.1c-0.55,0.37-0.92,0.74-1.29,1.29c-1.29,1.84-1.29,4.23-0.37,6.08c0.92,1.84,2.95,3.13,5.16,3.31
		c2.03,0,4.05-0.92,5.34-2.58c1.1-1.47,1.29-3.5,0.74-5.34c-0.74-2.39-2.95-4.23-5.52-4.05c0.55-0.37,0.92-0.74,1.29-1.29
		c0.18-0.37,0.55-0.74,0.74-1.29c0,0.55,0.18,1.1,0.37,1.47c0.92,2.21,2.95,3.5,5.34,3.5h1.47c-0.74,0.37-1.29,0.92-1.66,1.66
		c-1.1,1.84-1.1,4.05,0,5.89c0.92,1.84,2.95,3.13,4.97,3.13c2.21,0,4.23-1.1,5.52-2.95c1.1-1.84,1.1-4.05,0-5.89
		c-1.1-1.84-2.95-3.13-4.97-3.13h-1.47c0.55-0.55,1.1-1.1,1.66-1.66c1.1-1.66,1.29-3.87,0.37-5.52c-0.18-0.37-0.37-0.92-0.74-1.29
		c0.55,0.18,1.29,0.37,1.84,0.37c0.37,0,0.92,0,1.29,0l-0.92,1.1c-1.1,1.84-1.1,4.23,0,6.08c0.92,1.84,2.95,2.95,4.97,2.95
		c2.39,0,4.79-1.29,6.08-3.31c1.1-1.84,1.1-4.23,0-6.08c-0.92-1.84-2.95-2.95-4.97-2.95c-0.37,0-0.92,0-1.29,0
		c0.37-0.37,0.55-0.74,0.74-1.1c0.37-0.55,0.55-1.29,0.74-1.84c0.18,0.55,0.37,0.92,0.74,1.47c1.47,2.39,4.79,3.31,7.18,1.84
		c-0.37,0.37-0.74,0.92-0.92,1.47c-0.92,2.03-0.74,4.23,0.55,6.08c1.1,1.47,2.76,2.39,4.6,2.39c2.58,0,4.79-1.29,6.08-3.68
		c0.92-1.84,0.74-4.05-0.37-5.71c-1.1-1.66-2.95-2.76-4.97-2.95c-0.92,0-1.84,0.18-2.58,0.74c0.37-0.37,0.74-0.92,0.92-1.47
		c1.1-2.03,0.74-4.23-0.55-6.08c-0.18-0.37-0.55-0.55-0.74-0.92h0.37c0.92,0,1.66-0.18,2.39-0.55l-0.37,0.55
		c-0.92,2.03-0.37,4.42,1.1,6.08c1.1,1.29,2.76,2.03,4.42,2.03c2.58,0,4.97-1.47,6.08-3.87c0.92-2.03,0.37-4.42-1.1-6.08
		c-1.1-1.29-2.58-2.03-4.23-2.03c-0.92,0-1.66,0.18-2.39,0.55c0.18-0.18,0.18-0.37,0.37-0.55c0.37-0.74,0.55-1.66,0.37-2.58
		c1.1,1.66,2.95,2.76,5.16,2.95c1.29,0,2.39-0.37,3.5-1.1c0,0-0.37,0.55-0.37,0.92c-0.92,2.21-0.18,4.79,1.66,6.44
		c1.1,0.92,2.39,1.47,3.87,1.66c2.76,0,5.16-1.66,6.08-4.23c0.92-2.21,0.18-4.79-1.66-6.44c-1.1-1.1-2.39-1.66-3.87-1.66
		c-1.29,0-2.39,0.37-3.5,1.1l0.37-0.74c0.92-2.21,0.18-4.97-1.66-6.44c-1.1-0.92-2.39-1.66-3.87-1.66c-0.55,0-0.92,0-1.47,0
		c0.37-1.47,0.18-3.13-0.55-4.6c-0.37-0.92-0.92-1.66-1.66-2.21c-2.39-2.39-6.08-2.58-8.84-0.55l-1.1,0.92
		c-0.37,0.37-0.74,0.74-0.92,1.29c-27.25,27.8-69.6,33.69-103.29,14.55s-50.26-58.73-40.32-96.29s43.82-63.7,82.67-63.7h4.42h1.29
		h3.13h1.47l2.95,0.37l1.84,0.37l2.39,0.55l1.66,0.37l2.58,0.55l1.47,0.37l2.76,0.92l1.66,0.55l2.39,0.92l1.84,0.74l2.21,0.92
		l2.03,0.92l2.03,0.92l2.03,1.1l1.84,1.1l2.03,1.29l1.66,1.1l2.39,1.66l1.29,0.92l2.21,1.66l1.29,0.92l2.03,1.66l1.47,1.1l1.84,1.84
		l1.29,1.29l1.66,1.84c0.55,0.37,0.92,0.92,1.47,1.47c0,0.37,0.55,0.74,0.74,0.92c0.18,0.37,0.37,0.55,0.55,0.92
		c0.37,0.37,0.92,0.74,1.47,1.1h0.37c1.1,0.74,2.39,1.1,3.87,1.29c1.66,0,3.5-0.74,4.79-1.84c0.74-0.74,1.29-1.47,1.66-2.21
		c0.74-1.47,0.92-2.95,0.55-4.42H360c1.47,0,2.76-0.55,3.87-1.66c2.03-1.47,2.58-4.23,1.66-6.44l-0.37-0.74
		c0.92,0.74,2.21,1.1,3.5,1.1c1.47,0,2.76-0.55,3.87-1.66c1.84-1.47,2.58-4.05,1.66-6.44c-0.92-2.58-3.31-4.23-6.08-4.23
		c-1.47,0-2.76,0.55-3.87,1.66c-1.84,1.66-2.58,4.23-1.66,6.44l0.37,0.74c-1.1-0.74-2.21-1.1-3.5-1.1c-1.47,0-2.76,0.55-3.87,1.66
		c-0.37,0.37-0.92,0.74-1.1,1.29c0.18-0.92,0-1.84-0.37-2.58c0-0.18-0.18-0.37-0.37-0.55c0.74,0.37,1.66,0.55,2.39,0.55
		c1.66,0,3.31-0.74,4.23-2.03c1.66-1.66,2.03-4.05,1.1-6.08c-1.1-2.39-3.5-4.05-6.08-4.05c-1.66,0-3.13,0.74-4.23,2.03
		c-1.47,1.66-2.03,4.05-1.1,6.08l0.37,0.55c-0.74-0.37-1.66-0.55-2.39-0.55l0.74-0.74c1.29-1.84,1.47-4.05,0.55-6.08
		c-0.37-0.55-0.55-0.92-1.1-1.47c0.74,0.37,1.66,0.55,2.58,0.55c1.84,0,3.5-0.92,4.6-2.39c1.29-1.66,1.66-4.05,0.55-6.08
		c-1.1-2.21-3.5-3.68-6.08-3.68c-2.03,0-3.87,1.1-4.97,2.95c-1.1,1.66-1.1,3.87-0.37,5.71c0.18,0.55,0.55,1.1,1.1,1.47
		c-0.74-0.37-1.66-0.55-2.58-0.55c-1.84,0-3.5,0.92-4.6,2.39c0.18,0.55-0.18,1.1-0.55,1.1c-0.55,0.18-1.1,0-1.29-0.55
		c-0.18-0.55,0-1.1,0.55-1.29c-0.18-0.37-0.55-0.74-0.92-1.1c0.55,0,0.92,0,1.47,0c2.03-0.18,3.87-1.29,4.97-2.95
		c1.1-1.84,1.1-4.05,0.18-5.71c-1.29-2.03-3.31-3.31-5.71-3.31c-2.03,0-4.05,1.1-4.97,2.95c-1.1,1.84-1.1,4.23,0,6.08
		c0.18,0.37,0.55,0.74,0.74,1.1c-1.1-0.37-2.21-0.37-3.31,0c0.37-0.37,0.55-0.92,0.92-1.47c0.92-1.84,0.74-3.87-0.37-5.52
		c-0.37-0.74-0.92-1.29-1.66-1.66c0.37,0,0.92,0,1.47,0c2.21,0,4.42-1.29,5.16-3.5c0.92-1.84,0.74-3.87-0.37-5.52
		c-1.29-1.84-3.31-2.95-5.52-2.95c-2.39,0-4.42,1.47-5.16,3.5c-0.92,1.84-0.74,3.87,0.37,5.52c0.37,0.74,1.1,1.29,1.66,1.66h-1.47
		c-2.39,0-4.42,1.47-5.16,3.5c-0.18,0.37-0.37,0.92-0.55,1.47c-0.18-0.55-0.37-0.92-0.74-1.29c-0.37-0.55-0.74-0.92-1.29-1.29
		c2.58,0,4.79-1.66,5.52-4.05c0.74-1.84,0.37-3.68-0.74-5.34c-1.29-1.66-3.31-2.58-5.34-2.58c-2.58,0-4.79,1.66-5.52,4.05
		c-0.55,1.84-0.37,3.68,0.74,5.34c0.37,0.55,0.74,0.92,1.29,1.29c-1.1,0-2.21,0.37-3.13,0.92c0.18-0.55,0.37-0.92,0.55-1.47
		c0.37-1.66,0-3.5-1.1-4.97c-0.55-0.74-1.29-1.29-2.21-1.66c2.76,0,5.16-2.03,5.71-4.79c0.55-1.66,0.18-3.5-1.1-4.97
		c-1.29-1.47-3.13-2.39-5.16-2.39c-2.76-0.18-5.34,1.84-5.71,4.6c-0.55,1.66,0,3.5,1.1,4.97c1.47,0.37,2.58,1.66,2.76,3.13
		c0.18,1.47-0.55,3.13-2.03,3.68c-1.47,0.74-3.13,0.55-4.23-0.55c0,0.37,0,0.92,0,1.29l-0.55-0.55c-0.55-0.55-1.29-1.1-2.03-1.47
		c2.58-0.55,4.42-2.58,4.6-5.16c0.18-1.66-0.18-3.31-1.29-4.6c-1.29-1.29-2.95-2.03-4.79-2.03c-3.13,0-5.71,2.21-6.08,5.34
		c-0.18,1.66,0.18,3.31,1.29,4.6c0.55,0.55,1.29,1.1,2.03,1.47c-1.1,0.18-2.03,0.74-2.95,1.47c0-0.55,0-1.1,0-1.66
		c0-1.66-0.55-3.13-1.66-4.23c-0.92-0.74-1.84-1.29-2.95-1.66c2.76-0.55,4.79-2.95,4.6-5.71c0-1.66-0.55-3.13-1.66-4.23
		c-1.1-1.1-2.76-1.84-4.42-1.84c-3.31,0-6.08,2.76-6.08,6.08c0,1.47,0.55,2.95,1.66,4.23c0.92,0.74,1.84,1.29,2.95,1.66
		c-2.76,0.55-4.79,2.95-4.6,5.71c0,0.37,0,0.92,0,1.29c-0.74-0.74-1.66-1.29-2.76-1.47c0.74-0.37,1.47-0.74,2.03-1.47
		c1.47-1.84,1.84-4.23,0.92-6.44s-3.13-3.5-5.34-3.5c-1.84,0-3.5,0.74-4.79,2.03c-1.1,1.29-1.66,2.95-1.47,4.6
		c0.18,2.58,2.03,4.6,4.42,5.16c-0.74,0.37-1.47,0.92-2.03,1.47l-0.37,0.55c0-0.55,0-1.1,0-1.66c-0.37-2.76-2.95-4.79-5.71-4.79
		c0.92-0.37,1.66-0.92,2.21-1.66c1.1-1.47,1.47-3.13,1.1-4.97c-0.55-2.76-3.13-4.79-6.08-4.79c-2.03,0-3.87,0.92-5.16,2.39
		c-1.29,1.84-1.47,4.23-0.55,6.26c0.92,2.03,2.95,3.31,5.16,3.31c-0.92,0.37-1.66,0.92-2.21,1.66c-1.1,1.47-1.47,3.13-1.1,4.97
		c0.18,0.37,0.18,0.92,0.37,1.29c-0.92-0.55-2.03-0.92-2.95-0.92c0.55-0.37,1.1-0.74,1.47-1.29c1.1-1.84,1.29-4.05,0.37-6.08
		c-0.92-1.84-2.95-3.13-5.16-3.31c-2.03,0-4.05,0.92-5.34,2.58c-1.1,1.47-1.47,3.5-0.74,5.16c0.74,2.39,2.95,4.23,5.52,4.23
		c-0.55,0.37-1.1,0.74-1.47,1.29c-0.18,0.37-0.55,0.74-0.55,1.1c-0.18-0.55-0.18-1.1-0.55-1.47c-0.92-2.21-2.95-3.68-5.34-3.68
		h-1.47c0.74-0.37,1.29-0.92,1.66-1.66c1.1-1.66,1.1-3.68,0.37-5.52c-0.92-2.03-2.95-3.5-5.34-3.5c-2.21,0-4.23,1.1-5.52,2.95
		c-1.1,1.66-1.29,3.68-0.37,5.52c0.92,2.21,2.95,3.5,5.34,3.68c0.55,0,0.92,0,1.47,0c-0.74,0.37-1.29,0.92-1.66,1.66
		c-1.1,1.66-1.29,3.68-0.37,5.52c0.18,0.55,0.37,0.92,0.74,1.47c-0.74-0.37-1.29-0.55-2.03-0.55h-1.29l0.92-1.1
		c0.92-1.84,0.92-4.05-0.18-5.71c-1.1-1.66-2.95-2.95-4.97-2.95c-2.39,0-4.42,1.29-5.71,3.31c-1.1,1.84-1.1,4.23,0,6.08
		c0.92,1.84,2.95,3.13,4.97,2.95h1.29c-0.37,0.37-0.55,0.74-0.92,1.1c-0.37,0.55-0.55,1.29-0.74,1.84
		c-0.92-2.39-2.95-3.87-5.52-4.05c-0.92,0-1.66,0.18-2.58,0.55c0.37-0.37,0.74-0.92,1.1-1.47c1.1-2.03,0.74-4.23-0.55-6.08
		c-1.1-1.47-2.76-2.39-4.79-2.58c-2.58,0-4.79,1.29-6.08,3.68c-1.1,2.03-0.74,4.23,0.55,6.08c1.1,1.47,2.76,2.39,4.79,2.39
		c0.92,0,1.66-0.18,2.58-0.55c-0.37,0.37-0.74,0.92-1.1,1.47c-0.92,2.39-0.37,5.16,1.47,7h-0.74c-0.74,0-1.66,0.18-2.39,0.55
		c0.18-0.18,0.18-0.37,0.37-0.55c0.92-2.03,0.55-4.42-1.1-6.08c-1.1-1.29-2.76-2.03-4.42-2.03c-2.58,0-4.97,1.47-6.08,3.87
		c-0.92,2.03-0.55,4.42,1.1,6.08c1.1,1.29,2.58,2.03,4.42,2.03c0.74,0,1.66-0.18,2.39-0.55c-0.18,0.18-0.18,0.37-0.37,0.55
		c-0.37,0.74-0.55,1.66-0.55,2.58c-0.18-0.55-0.55-0.92-1.1-1.29c-1.1-1.1-2.58-1.66-4.05-1.66c-1.29,0-2.39,0.37-3.5,1.1
		c0.18-0.18,0.37-0.55,0.37-0.92c0.92-2.21,0.18-4.79-1.66-6.44c-1.1-0.92-2.39-1.66-3.87-1.66c-2.76,0-5.16,1.66-6.08,4.23
		c-0.92,2.21-0.37,4.79,1.66,6.44c1.1,1.1,2.39,1.66,3.87,1.66c1.29,0,2.39-0.37,3.5-1.1c0,0-0.37,0.55-0.37,0.92
		c-0.92,2.21-0.18,4.79,1.66,6.44l1.29,0.92c-1.1,0-2.21,0.37-3.13,1.1c0.74-2.39,0-5.16-2.21-6.44c-1.1-0.74-2.21-1.29-3.5-1.29
		c-2.76,0-5.16,1.84-6.08,4.6c-0.74,2.39,0.18,5.16,2.21,6.63c0.92,0.74,2.21,1.1,3.5,1.29c1.1,0,2.39-0.37,3.31-1.1
		c-0.37,1.1-0.37,2.21,0,3.13c-0.37-0.37-0.74-0.74-1.29-1.1c-0.92-0.55-2.03-0.92-3.13-0.92c-1.66,0-3.13,0.74-4.23,2.03
		c0-0.18,0-0.18,0-0.37c0.92-2.58-0.37-5.34-2.76-6.63c-0.92-0.55-2.03-0.92-3.13-0.92c-2.95,0-5.34,2.03-6.08,4.79
		c-0.74,2.58,0.37,5.34,2.76,6.63c0.92,0.55,2.03,0.92,3.13,0.92c1.66,0,3.13-0.74,4.23-2.03c0,0,0,0,0,0.37
		c-0.74,2.58,0.37,5.34,2.76,6.63c0.37,0.18,0.92,0.37,1.29,0.55c-1.1,0.37-2.03,0.92-2.76,1.66c0.37-2.58-1.1-5.16-3.5-6.08
		c-0.74-0.37-1.66-0.55-2.58-0.55c-2.95,0-5.52,2.21-6.08,5.16c-0.55,2.76,0.92,5.52,3.31,6.63c0.74,0.37,1.66,0.55,2.58,0.55
		c1.66,0,3.13-0.74,4.23-1.84c-0.18,1.1,0,2.21,0.55,3.13c-0.37-0.18-0.92-0.55-1.47-0.74c-0.74-0.18-1.29-0.37-2.03-0.37
		c-2.03,0-3.87,1.29-4.97,2.95c0.37-2.76-1.29-5.34-4.05-6.08c-1.66-0.55-3.5-0.37-5.16,0.74c-1.47,0.92-2.58,2.58-2.76,4.42
		c-0.37,2.95,1.29,5.71,4.05,6.63c0.74,0.18,1.29,0.37,2.03,0.37c2.03-0.18,3.87-1.29,4.97-2.95c-0.37,2.76,1.29,5.34,4.05,6.08
		c0.74,0.18,1.29,0.37,2.03,0.37h0.37c-0.92,2.03-3.13,2.95-5.16,2.39c-2.03-0.55-3.31-2.58-2.95-4.79h-1.47
		c-3.13,0-5.89,2.39-6.08,5.71c-0.37,2.95,1.66,5.89,4.79,6.44c0.55,0,0.92,0,1.47,0c2.03,0,3.87-1.1,4.97-2.95
		c0.18,1.1,0.55,2.21,1.1,2.95c-0.55-0.18-1.1-0.37-1.66-0.37c-1.1,2.39-3.5,3.87-6.08,3.68c-2.58-0.18-4.79-2.21-5.34-4.79
		c-1.66-0.18-3.31,0.37-4.6,1.47s-2.03,2.76-2.03,4.42c-0.18,3.13,2.21,5.89,5.34,6.26h0.74c0.55-2.76,3.13-4.6,5.89-4.23
		c2.76,0.37,4.79,2.58,4.97,5.34h1.47c-0.74,0.74-1.47,1.66-1.66,2.58c-0.74-2.39-3.13-4.05-5.52-3.87c-3.31,0-6.08,2.76-6.08,6.08
		s2.76,6.08,6.08,6.08c-0.18-1.29,0.18-2.58,1.29-3.5s2.39-1.1,3.68-0.74c1.29,0.37,2.21,1.47,2.39,2.76h-1.66
		c-2.76,0.18-5.16,2.39-5.16,5.34c-0.74-2.39-2.95-4.05-5.52-4.05h-0.74c-3.31,0.18-5.89,2.95-5.71,6.26
		c0.18,3.31,2.95,5.89,6.26,5.71h0.74c0.18-2.76,2.21-4.97,4.97-5.16c2.76-0.37,5.16,1.47,5.89,4.05h0.74h1.47
		c-0.74,0.92-1.1,2.03-1.29,3.13c-0.92-1.84-2.76-2.95-4.97-2.95h-1.47c-2.95,0.74-4.97,3.5-4.79,6.44
		c0.18,3.13,2.95,5.71,6.08,5.71h1.47c2.58-0.37,4.42-2.58,4.6-5.16c0.55,0.92,1.29,1.66,2.21,2.21c-0.55,0-1.1,0-1.66,0
		c-2.58,0.92-4.23,3.31-4.05,6.08c-0.92-1.84-2.76-2.95-4.97-2.95c-0.74,0-1.29,0.18-2.03,0.37c-2.76,0.92-4.42,3.68-4.05,6.63
		s2.76,5.16,5.71,5.34c0.74,0,1.29-0.18,2.03-0.37c2.58-0.74,4.42-3.31,4.05-6.08c1.29,2.58,4.23,3.68,6.81,2.58
		c0.37-0.18,0.92-0.37,1.29-0.55c-0.37,0.92-0.55,2.03-0.55,3.13c-1.1-1.29-2.58-1.84-4.23-1.84c-0.92,0-1.66,0.18-2.58,0.55
		c-2.58,1.1-4.05,3.87-3.5,6.63c0.37,2.95,2.95,5.16,6.08,5.16c1.66,0,3.31-0.74,4.42-1.84c1.1-1.29,1.66-2.95,1.66-4.6
		c0.74,0.74,1.66,1.29,2.58,1.66c-0.55,0.18-0.92,0.37-1.47,0.55c-2.39,1.29-3.68,4.05-2.76,6.63c0,0,0,0,0,0.37
		c-1.1-1.29-2.58-2.03-4.23-2.03c-1.1,0-2.03,0.37-2.95,0.92c-2.39,1.29-3.5,4.05-2.76,6.63c0.74,2.76,3.13,4.79,6.08,4.79
		c1.1,0,2.21-0.37,3.13-0.92c2.39-1.29,3.5-4.05,2.76-6.63c0-0.18,0-0.18,0-0.37c1.1,1.29,2.58,2.03,4.23,2.03
		c1.1,0,2.03-0.37,2.95-0.92c0.37-0.18,0.92-0.55,1.29-0.92c-0.37,1.1-0.37,2.21,0,3.31c-0.92-0.74-2.21-1.1-3.31-1.1
		c-1.29,0-2.58,0.37-3.5,1.29c-2.21,1.47-3.13,4.05-2.21,6.44c0.74,2.76,3.31,4.6,6.08,4.6c1.29,0,2.58-0.37,3.5-1.29
		c-1.1-0.92-1.47-2.39-1.29-3.68s1.29-2.39,2.76-2.76c1.29-0.37,2.76,0,3.68,1.1c-0.55,0.18-0.92,0.55-1.29,0.92
		c-1.84,1.47-2.58,4.23-1.66,6.44c0.18,0.37,0.18,0.55,0.37,0.92c-0.92-0.74-2.21-1.1-3.5-1.1c-1.47,0-2.76,0.55-3.87,1.66
		c-1.84,1.47-2.58,4.05-1.66,6.44c0.92,2.58,3.31,4.23,6.08,4.23c1.84,0,3.68-1.1,4.79-2.58c1.1-1.66,1.29-3.68,0.74-5.34
		c0-0.37-0.37-0.55-0.37-0.92c0.92,0.74,2.21,1.1,3.5,1.1c1.47,0,2.76-0.55,3.87-1.66c0.37-0.37,0.74-0.74,0.92-1.1
		c0,0.92,0,1.84,0.37,2.58c0.18,0.18,0.18,0.37,0.37,0.55c-0.74-0.37-1.66-0.55-2.39-0.55c-2.03,0-3.68,1.1-4.79,2.76
		c-1.1,1.66-1.29,3.68-0.55,5.52c1.1,2.39,3.5,4.05,6.08,4.05c1.66,0,3.13-0.74,4.23-2.03c1.47-1.66,2.03-4.05,1.1-6.08l-0.37-0.55
		c0.74,0.37,1.66,0.55,2.39,0.55h0.74c-0.37,0.37-0.74,0.74-1.1,1.29c-1.29,1.66-1.66,4.05-0.55,6.08c0.18,0.55,0.55,1.1,0.92,1.47
		c-0.74-0.37-1.66-0.55-2.58-0.55c-2.03,0-3.87,1.1-4.97,2.95c-1.1,1.66-1.1,3.87-0.37,5.71c1.1,2.21,3.5,3.68,6.08,3.68
		c1.84,0,3.68-0.92,4.6-2.39c1.29-1.66,1.66-4.05,0.55-6.08c-0.18-0.55-0.55-0.92-0.92-1.47c0.74,0.37,1.66,0.55,2.58,0.74
		c1.84,0,3.68-0.92,4.6-2.58c1.29-1.66,1.66-4.05,0.74-6.08c0.55,0,0.92,0,1.47,0c0.55,0,1.1,0,1.66,0
		c-0.55,0.37-0.92,0.92-1.29,1.66c-1.1,1.84-1.1,4.23,0,6.08c0.18,0.37,0.55,0.74,0.92,1.1c-0.37,0-0.92,0-1.29,0
		c-2.03,0.18-3.87,1.29-4.97,2.95c-1.1,1.84-1.1,4.05-0.18,5.71c1.29,2.03,3.31,3.31,5.71,3.31c2.03,0,4.05-1.29,4.97-3.13
		c1.1-1.84,1.1-4.05,0-5.71c-0.37-0.18-0.74-0.37-1.1-0.55h1.29c0.74,0,1.29-0.18,2.03-0.37c-0.37,0.37-0.74,0.92-0.92,1.47
		c-0.92,1.84-0.74,3.87,0.37,5.52c0.37,0.74,1.1,1.29,1.66,1.66c-0.37,0-0.92,0-1.47,0c-2.39,0-4.42,1.47-5.16,3.5
		c-0.74,1.84-0.74,3.87,0.37,5.52c1.29,1.84,3.31,2.95,5.52,2.95s4.42-1.29,5.16-3.5c0.74-1.84,0.74-3.87-0.37-5.52
		c-0.55-0.74-1.1-1.29-1.66-1.66c0.55,0,0.92,0,1.47,0c2.39,0,4.42-1.47,5.16-3.5c0-0.55,0-0.92,0.37-1.29
		c0.18,0.37,0.37,0.74,0.74,1.1c0.37,0.55,0.74,0.92,1.29,1.29c-2.58,0-4.79,1.66-5.52,4.05c-0.74,1.84-0.37,3.68,0.74,5.34
		c1.29,1.66,3.31,2.76,5.34,2.58c2.58,0,4.79-1.66,5.52-4.05c0.55-1.84,0.37-3.68-0.74-5.34c-0.37-0.55-0.74-0.92-1.29-1.29
		c1.1,0,2.21-0.37,3.13-0.92c-0.18,0.55-0.37,0.92-0.55,1.47c-0.37,1.66,0,3.5,1.1,4.97c0.55,0.74,1.29,1.29,2.21,1.84
		c-2.76,0-5.16,2.03-5.52,4.79c-0.37,1.66,0,3.5,1.1,4.97c1.29,1.47,3.13,2.39,5.16,2.21c2.21,0,4.23-1.29,5.34-3.31
		c1.1-2.03,0.74-4.42-0.55-6.26c-0.55-0.74-1.29-1.29-2.21-1.66c2.76-0.18,4.97-2.03,5.52-4.79c0-0.55,0-0.92,0-1.47l0.55,0.74
		c1.29,0.37,2.39,1.47,2.76,2.76s-0.18,2.76-1.47,3.68c-1.1,0.74-2.58,0.92-3.87,0.18c-0.18,1.66,0.37,3.31,1.47,4.6
		c1.29,1.29,2.95,2.03,4.79,2.03c3.13,0,5.71-2.21,6.08-5.34c0.18-1.66-0.18-3.31-1.29-4.6c-0.55-0.55-1.29-1.1-2.03-1.47
		c1.1-0.18,2.03-0.74,2.95-1.47c-0.18,0.55-0.18,1.1,0,1.66c-0.18,2.95,1.84,5.52,4.79,6.08c-0.92,0.18-2.03,0.74-2.76,1.29
		c-1.29,1.1-2.03,2.76-1.84,4.42L273.28,365.72z M298.13,152.51v0.37c0.37,0.37,0.74,0.74,1.1,0.92c-0.55,0.18-1.1,0.37-1.47,0.55
		c0-0.37,0-0.74,0-1.1v-0.74H298.13z M342.14,173.68c-0.18,0.37-0.55,0.74-0.74,1.1c-0.18-0.37-0.18-0.92-0.37-1.29
		c0.55,0,0.92,0,1.47,0h-0.37L342.14,173.68L342.14,173.68z M325.2,162.45c-0.18,0.37-0.37,0.74-0.55,1.1l-0.55-0.92
		c-0.18-0.18-0.37-0.55-0.55-0.74c0.74,0,1.47-0.18,2.03-0.37C325.38,161.72,325.2,162.08,325.2,162.45L325.2,162.45z M305.68,154.9
		c0,0.37,0,0.74,0,1.1v-0.37c-0.37-0.37-0.55-0.74-1.1-0.92c0.74-0.18,1.29-0.37,2.03-0.92c-0.18,0.37-0.37,0.74-0.55,1.1H305.68z
		 M278.98,151.59c-0.55,0.18-0.92,0.55-1.47,0.74c0-0.37,0-0.74,0-1.1c0-0.18,0-0.55,0-0.74
		C277.88,151.04,278.43,151.4,278.98,151.59L278.98,151.59z M258.73,153.98c-0.37,0.37-0.92,0.74-1.29,1.1c0-0.37,0-0.74,0-1.1
		s0-0.55-0.37-0.74C257.63,153.61,258.18,153.8,258.73,153.98L258.73,153.98z M238.66,161.35c-0.18,0.18-0.18,0.37-0.37,0.74
		l-0.55-1.1c-0.18-0.37-0.37-0.55-0.74-0.92c0.74,0.37,1.47,0.55,2.21,0.55C239.22,160.79,239.03,161.16,238.66,161.35z
		 M194.66,201.85c0,0.55,0,1.1,0,1.66l-0.92-0.55H193c0.55-0.18,1.29-0.55,1.66-0.92V201.85z M188.58,214.19l1.1,0.37
		c-0.55,0.37-1.1,0.74-1.47,1.1c0-0.74-0.18-1.47-0.55-2.03L188.58,214.19z M184.35,234.63c-0.55,0.37-0.92,0.92-1.29,1.47
		c-0.18-0.74-0.55-1.29-0.92-1.84h0.92h1.29V234.63z M183.8,262.98h-1.1l-0.92,0.37c0.37-0.55,0.74-1.29,1.1-1.84
		C183.06,261.88,183.24,262.43,183.8,262.98L183.8,262.98z M187.29,281.58c0.37,0.37,0.74,0.74,1.29,1.1l-1.1,0.37l-0.74,0.37
		C187.11,282.87,187.29,282.13,187.29,281.58z M192.45,294.1l1.1-0.55c-0.18,0.55-0.18,1.29,0,1.84c-0.55-0.37-1.29-0.74-1.84-0.92
		L192.45,294.1L192.45,294.1z M204.6,310.67c0,0.55,0,1.29,0,1.84c-0.74-0.37-1.29-0.55-2.03-0.55l0.92-0.55
		c0.37-0.18,0.74-0.55,0.92-0.92h0.18V310.67z M352.26,180.86h-0.55c0.18-0.18,0.37-0.55,0.55-0.74
		C352.45,180.5,352.45,180.68,352.26,180.86L352.26,180.86z M337.17,168.9c-0.55,0-0.92,0-1.47,0c0.18-0.18,0.55-0.55,0.74-0.92
		c0.18-0.18,0.18-0.55,0.37-0.74C336.8,167.79,336.98,168.34,337.17,168.9L337.17,168.9z M319.12,158.4
		c0.18,0.18,0.37,0.55,0.55,0.74c-0.55-0.18-1.1-0.18-1.66,0c0.18-0.37,0.37-0.74,0.55-1.1c0-0.37,0-0.74,0-0.92
		c0.18,0.37,0.37,0.74,0.55,1.1L319.12,158.4z M286.53,150.85c0,0.37,0,0.74,0,1.1c-0.37-0.37-0.92-0.74-1.47-1.1
		c0.74-0.37,1.29-0.74,1.66-1.1c0,0.37,0,0.74,0,1.1H286.53z M266.28,151.77c0,0.37,0,0.74,0,1.1c-0.55-0.37-1.1-0.55-1.66-0.74
		c0.55-0.37,0.92-0.74,1.29-1.1v-0.37c0,0.37,0,0.74,0,1.1H266.28z M245.84,157.11c0.18,0.37,0.18,0.74,0.55,1.1
		c-0.55-0.18-1.29-0.37-1.84-0.37c0.18-0.18,0.55-0.55,0.74-0.74c0.18-0.37,0.37-0.74,0.55-1.1
		C245.84,156.38,245.84,156.74,245.84,157.11L245.84,157.11z M227.25,166.32l0.74,1.1h-0.92h-1.1l0.37-0.37
		c0.37-0.55,0.55-1.1,0.55-1.66C226.88,165.58,227.06,165.95,227.25,166.32L227.25,166.32z M220.44,170.55h1.1l-0.37,0.37
		c-0.18,0.37-0.37,0.74-0.37,1.1c-0.18-0.37-0.37-0.55-0.55-0.92l-0.74-0.55L220.44,170.55L220.44,170.55z M211.05,179.21l0.92,0.74
		c-0.55,0-1.29,0.18-1.84,0.37c0.18-0.74,0.18-1.47,0-2.21l0.74,0.92h0.18V179.21z M206.26,184.36c-0.18,0.55-0.37,1.1-0.37,1.84
		c-0.18-0.37-0.55-0.55-0.92-0.74l-0.74-0.55C204.97,184.73,205.52,184.55,206.26,184.36z M197.79,195.04
		c0.37,0.18,0.74,0.37,1.1,0.55c-0.55,0.18-1.1,0.37-1.66,0.74c0-0.74,0-1.29,0-2.03C197.24,194.67,197.6,194.86,197.79,195.04
		L197.79,195.04z M182.14,240.7c0.18,0.55,0.37,1.1,0.74,1.47h-1.1h-0.74C181.22,241.81,181.77,241.25,182.14,240.7z M181.59,254.33
		h1.1c-0.37,0.55-0.74,1.1-0.92,1.66c-0.37-0.55-0.74-1.29-1.47-1.66H181.59L181.59,254.33z M184.72,274.76l1.1-0.37
		c-0.18,0.55-0.37,1.1-0.55,1.84c-0.37-0.55-0.92-0.92-1.66-1.29L184.72,274.76L184.72,274.76z M195.58,300.17
		c0.37,0.37,0.92,0.74,1.47,0.92l-1.1,0.55c-0.18,0.18-0.55,0.37-0.74,0.55C195.58,301.46,195.58,300.91,195.58,300.17
		L195.58,300.17z M207.36,316.74c0.55,0.18,1.1,0.37,1.66,0.55l-0.74,0.74c-0.18,0.18-0.37,0.55-0.55,0.74
		c0.18-0.74,0.18-1.29,0-2.03L207.36,316.74L207.36,316.74z M217.49,326.13l0.74-0.92c0.18,0.55,0.37,1.1,0.55,1.66
		c-0.37,0-0.92,0-1.47,0h-0.74C216.94,326.5,217.12,326.32,217.49,326.13L217.49,326.13z M235.53,337.73l0.55-1.1
		c0.18,0.37,0.18,0.55,0.37,0.92c0.18,0.18,0.37,0.55,0.55,0.74c-0.74,0-1.47,0.18-2.03,0.37L235.53,337.73L235.53,337.73z
		 M254.87,345.1c0-0.37,0-0.74,0-1.1v0.37c0.37,0.37,0.74,0.74,1.1,1.1c-0.74,0.18-1.29,0.37-1.84,0.74l0.37-0.92h0.37V345.1z
		 M302,345.65c0.37-0.37,0.92-0.74,1.29-1.1c0,0.37,0,0.74,0,1.1c0.18,0.37,0.37,0.55,0.55,0.92c-0.55-0.37-1.29-0.74-2.03-0.92H302
		z M321.15,338.84c0.18-0.18,0.55-0.55,0.74-0.74v-0.55c0.18,0.37,0.18,0.74,0.37,1.1l0.55,0.74c-0.55-0.18-1.29-0.37-1.84-0.37
		h0.18V338.84z M339.74,328.16h-1.29c0.18-0.18,0.18-0.18,0.37-0.37c0.18-0.37,0.18-0.55,0.37-0.92l0.55,0.74l0.55,0.37
		L339.74,328.16L339.74,328.16z M281.01,348.23c0.55-0.18,0.92-0.55,1.47-0.92c0,0.37,0,0.74,0,1.1c0,0.18,0,0.55,0,0.74
		C281.93,348.78,281.56,348.41,281.01,348.23L281.01,348.23z M294.45,347.12c0-0.37,0-0.74,0-1.29c0.55,0.37,1.1,0.55,1.66,0.74
		c-0.55,0.37-0.92,0.74-1.29,1.1l-0.37,0.37v-1.1l0,0V347.12z M314.7,341.78c-0.18-0.37-0.37-0.74-0.55-1.1
		c0.55,0.18,1.29,0.37,2.03,0.37c-0.18,0.18-0.55,0.55-0.74,0.74c-0.18,0.37-0.37,0.74-0.55,1.1c0-0.37,0-0.74,0-1.1H314.7z
		 M332.93,332.39c-0.18-0.37-0.37-0.74-0.74-1.1h0.74c0.37,0,0.74,0,1.29,0c0,0,0,0-0.37,0.37c-0.18,0.55-0.37,1.1-0.55,1.66
		C333.3,333.13,333.12,332.76,332.93,332.39L332.93,332.39z M348.77,319.69h0.74c0,0.37,0,0.74,0,1.1l-0.55-0.92L348.77,319.69z
		 M241.61,341.41l-0.55-0.74c0.55,0,1.1,0,1.66,0c-0.18,0.37-0.37,0.55-0.55,0.92c0,0.37,0,0.55,0,0.92L241.61,341.41L241.61,341.41
		z M261.86,347.67c-0.37-0.37-0.74-0.74-1.1-1.1c0.55-0.18,1.1-0.37,1.66-0.55c0,0.37,0,0.74,0,1.1v0.92l-0.37-0.55h-0.18V347.67z
		 M274.57,348.6c0-0.37,0-0.74,0-1.1c0.37,0.37,0.92,0.74,1.47,1.1c-0.74,0.18-1.29,0.55-1.66,1.1c0-0.37,0-0.74,0-1.1H274.57z
		 M186,220.82c0,0.74,0.37,1.47,0.74,2.21c-0.55-0.18-0.92-0.37-1.47-0.55h-1.47h-0.55C184.35,222.11,185.27,221.55,186,220.82
		L186,220.82z M228.35,329.45h-0.37H228.35z"/>
</g>
</svg>
