<?xml version="1.0" encoding="utf-8"?>
<!-- Generator: Adobe Illustrator 27.3.1, SVG Export Plug-In . SVG Version: 6.00 Build 0)  -->
<svg version="1.1" id="Capa_1" xmlns="http://www.w3.org/2000/svg" xmlns:xlink="http://www.w3.org/1999/xlink" x="0px" y="0px"
	 viewBox="0 0 512 512" style="enable-background:new 0 0 512 512;" xml:space="preserve">
<style type="text/css">
	.st0{fill:#F68620;}
</style>
<path class="st0" d="M86.6,357.2h-40c-0.8,0-1.5,0.7-1.5,1.6v105c0,0.8,0.8,1.5,1.5,1.5h40c0.8,0,1.6-0.8,1.6-1.5v-105
	C88.2,358,87.4,357.2,86.6,357.2z M368.7,114.6v42.9c0,24.3-19,44.6-43.2,46.2h-2c-24.2-1.6-43.2-21.9-43.2-46.2v-42.9
	c-13.9,12.1-22,29.5-22,48c0,26.4,16.7,50.4,41.7,59.7c5.9,2.2,9.8,7.8,9.8,14.1v73.4h29.6v-73.4c0-6.2,3.9-11.9,9.8-14.1
	c24.9-9.2,41.6-33.2,41.6-59.7C390.7,144.1,382.6,126.7,368.7,114.6L368.7,114.6z"/>
<path class="st0" d="M441.9,140.9c-3-13.4-8.3-26.1-15.7-37.8c-3.8-6-2.9-13.6,2.1-18.6l7.4-7.4l-20.9-20.9l-7.4,7.4
	c-5,5-12.7,5.8-18.6,2.1C377.1,58.3,364.4,53,351,50c-6.9-1.6-11.7-7.6-11.7-14.6V25h-29.6v10.4c0,7.1-4.8,13.1-11.7,14.6
	c-13.4,3-26.1,8.3-37.8,15.7c-6,3.8-13.6,2.9-18.6-2.1l-7.4-7.4l-20.9,20.9l7.4,7.4c5,5,5.8,12.7,2.1,18.6
	c-7.4,11.7-12.6,24.4-15.6,37.7c-1.5,6.9-7.6,11.7-14.6,11.7h-10.4v29.6h10.4c7.1,0,13.1,4.8,14.6,11.7c3,13.4,8.3,26.1,15.6,37.7
	c3.8,6,2.9,13.6-2.1,18.6l-7.4,7.4l20.9,20.9l7.3-7.4c2.8-2.8,6.6-4.4,10.6-4.4c2.8,0,5.6,0.8,8,2.3c6.2,3.9,12.7,7.2,19.5,9.9
	v-32.9c-31.4-15.9-51.4-48.3-51.4-83.5c0-30.9,15.3-59.8,41-77.3c11.7-8,21.9-9.6,30.3-4.8c12.4,7.2,11.3,23,10.8,29v48
	c0,8.1,6.2,15.1,14.2,16.1c8-1,14.2-8,14.2-16.1v-48c-0.4-6-1.6-21.9,10.8-29c8.4-4.8,18.6-3.2,30.3,4.8c25.7,17.6,41,46.5,41,77.3
	c0,35.2-20.1,67.6-51.4,83.5V279c6.8-2.7,13.3-6,19.4-9.9c6-3.8,13.6-2.9,18.6,2.1l7.4,7.4l20.9-20.9l-7.3-7.3
	c-5-5-5.8-12.7-2.1-18.6c7.3-11.6,12.6-24.3,15.7-37.8c1.6-6.9,7.6-11.7,14.6-11.7H467v-29.6h-10.4
	C449.5,152.6,443.4,147.8,441.9,140.9z"/>
<path class="st0" d="M469.5,132.6h-9l-1-3.6c-3-10.4-7.1-20.4-12.4-29.8l-1.8-3.3l6.4-6.4c3.3-3.3,5.1-7.6,5.1-12.3
	c0-4.7-1.8-9-5.1-12.3l-24.6-24.5c-3.3-3.3-7.7-5.1-12.3-5.1s-9,1.8-12.3,5.1l-6.4,6.4l-3.3-1.8c-9.4-5.3-19.5-9.4-29.8-12.4l-3.6-1
	v-9c0-4.6-1.8-9-5.1-12.3C351,7,346.6,5.2,342,5.2h-34.8c-9.6,0-17.4,7.8-17.4,17.4v9l-3.6,1c-10.4,3-20.4,7.1-29.8,12.4l-3.3,1.8
	l-6.3-6.3c-3.3-3.3-7.7-5.1-12.3-5.1c-4.7,0-9,1.8-12.3,5.1l-24.6,24.6c-3.3,3.3-5.1,7.6-5.1,12.3c0,4.7,1.8,9,5.1,12.3l6.4,6.4
	l-1.8,3.3c-5.3,9.4-9.4,19.5-12.4,29.8l-1,3.6h-9c-9.6,0-17.4,7.8-17.4,17.4V185c0,9.6,7.8,17.4,17.4,17.4h9l1,3.6
	c2.9,10.3,7.1,20.4,12.4,29.8l1.8,3.3l-6.4,6.4c-3.3,3.3-5.1,7.6-5.1,12.3c0,4.7,1.8,9,5.1,12.3l24.6,24.6c3.3,3.3,7.7,5.1,12.3,5.1
	c4.7,0,9-1.8,12.3-5.1l6.4-6.4l3.3,1.8c9.4,5.3,19.5,9.4,29.8,12.4l3.6,1v9c0,9.6,7.8,17.4,17.4,17.4h34.8c9.6,0,17.4-7.8,17.4-17.4
	v-9l3.6-1c10.4-2.9,20.4-7.1,29.8-12.4l3.3-1.8l6.3,6.3c3.3,3.3,7.7,5.1,12.3,5.1c4.7,0,9-1.8,12.3-5.1l24.6-24.6
	c3.3-3.3,5.1-7.6,5.1-12.3c0-4.7-1.8-9-5.1-12.3l-6.4-6.4l1.8-3.3c5.2-9.4,9.4-19.4,12.4-29.8l1-3.6h9c9.6,0,17.4-7.8,17.4-17.4V150
	c0-4.6-1.8-9-5.1-12.3C478.5,134.4,474.1,132.6,469.5,132.6L469.5,132.6z M352.6,231.7c-2,0.7-3.3,2.6-3.3,4.7v76
	c0,4.1-3.3,7.4-7.4,7.4h-34.8c-4.1,0-7.4-3.3-7.4-7.4v-76c0-2.1-1.3-4-3.3-4.7c-28.8-10.7-48.2-38.4-48.2-69
	c0-24.3,12.1-47,32.3-60.8c0.9-0.6,1.7-1.1,2.5-1.6l7.8-4.6l-0.3,9c0,1.5-0.1,2.8-0.2,3.4c-0.1,1-0.1,1.6-0.1,2.2v47.2
	c0,19,14.9,34.9,33.9,36.2h0.7c19-1.3,33.8-17.2,33.8-36.2v-47.2c0-0.6,0-1.3-0.1-2.2c-0.1-0.7-0.2-2-0.2-3.4l-0.2-9l7.8,4.6
	c0.8,0.5,1.6,1,2.5,1.6c20.2,13.8,32.3,36.6,32.3,60.8C400.7,193.2,381.4,221,352.6,231.7L352.6,231.7z M476.9,184.8
	c0,4-3.4,7.4-7.4,7.4h-13c-2.4,0-4.4,1.6-4.9,3.9c-3.3,14.6-9,28.3-17,40.9c-1.3,2-1,4.5,0.7,6.2l9.2,9.2c1.4,1.4,2.2,3.2,2.2,5.2
	c0,2-0.8,3.9-2.2,5.2l-24.6,24.6c-1.4,1.4-3.2,2.1-5.2,2.1s-3.8-0.8-5.2-2.2l-9.2-9.2c-1.7-1.7-4.2-1.9-6.2-0.7
	c-8.8,5.6-18.3,10.1-28.2,13.4l-6.6,2.2v-53.3l2.9-1.3c29.5-13.7,48.5-43.5,48.5-75.8c0-27.6-13.7-53.4-36.6-69.1
	c-3.1-2.1-12.5-8.5-19.6-4.4c-6.2,3.6-6.4,11.9-5.9,19.6v0.4c0,0.4,0,0.7,0.1,0.9v47.4c0,13.6-10.2,24.8-23.7,26.2h-1
	c-13.5-1.3-23.7-12.6-23.7-26.2v-47.3c0-0.3,0-0.7,0.1-1.1v-0.3c0.6-7.7,0.3-16.1-5.8-19.6c-7.2-4.1-16.6,2.3-19.7,4.4
	c-22.9,15.7-36.6,41.5-36.6,69.1c0,32.4,19.1,62.1,48.6,75.9l2.9,1.3v53.3l-6.6-2.2c-9.9-3.3-19.4-7.8-28.2-13.4
	c-0.8-0.5-1.7-0.8-2.7-0.8c-1.3,0-2.6,0.5-3.5,1.5l-9.2,9.2c-1.4,1.4-3.2,2.2-5.2,2.2s-3.8-0.8-5.2-2.2l-24.6-24.6
	c-1.4-1.4-2.2-3.2-2.2-5.2s0.8-3.9,2.2-5.2l9.2-9.2c1.7-1.7,1.9-4.2,0.7-6.2c-8-12.7-13.7-26.4-17-40.9c-0.5-2.3-2.5-3.9-4.9-3.9
	h-13c-4,0-7.4-3.4-7.4-7.4V150c0-4.1,3.3-7.4,7.4-7.4h13c2.4,0,4.4-1.6,4.9-3.9c3.3-14.5,9-28.2,17-40.9c1.3-2,1-4.5-0.7-6.2
	l-9.2-9.2c-1.4-1.4-2.1-3.2-2.1-5.2s0.8-3.9,2.2-5.2l24.6-24.6c1.4-1.4,3.2-2.1,5.2-2.1s3.8,0.8,5.2,2.2l9.2,9.2
	c1.7,1.7,4.2,1.9,6.2,0.7c12.6-8,26.4-13.7,40.9-17c2.3-0.5,3.9-2.5,3.9-4.9v-13c0-4.1,3.3-7.4,7.4-7.4h34.8c4.1,0,7.4,3.3,7.4,7.4
	v13c0,2.4,1.6,4.4,3.9,4.9c14.5,3.3,28.3,9,40.9,17c2,1.3,4.5,1,6.2-0.7l9.2-9.2c1.4-1.4,3.2-2.1,5.2-2.1s3.8,0.8,5.2,2.2l24.6,24.6
	c1.4,1.4,2.2,3.2,2.2,5.2s-0.8,3.9-2.2,5.2l-9.2,9.2c-1.7,1.7-1.9,4.2-0.7,6.2c8,12.6,13.7,26.3,17,40.9c0.5,2.3,2.5,3.9,4.9,3.9h13
	c4.1,0,7.4,3.3,7.4,7.4L476.9,184.8L476.9,184.8z M386.3,443.8c-1.9,2-1.9,5.1,0,7.1c0.9,0.9,2.2,1.5,3.5,1.5s2.6-0.5,3.5-1.5
	l0.1-0.1c1.9-1.9,1.9-5-0.1-7C391.4,441.9,388.3,441.9,386.3,443.8z"/>
<path class="st0" d="M431.4,347.9l-82.7,42.5l-2.6-2.7c-6.1-6.3-14.3-9.8-23-9.8h-54.4c-3.4,0-4.7-0.3-5.4-0.5l-0.4-0.1l-0.4-0.2
	c-1-0.5-1.9-1.3-4-3.4l-0.5-0.5c-42.2-39.8-76.5-37.6-118.2-21.1c-7.3,2.9-8,3-15.5,3.3h-16.1l-1.1-3.4
	c-2.9-8.8-11.2-14.8-20.5-14.8h-40c-11.9,0-21.5,9.7-21.5,21.6v105c0,11.9,9.7,21.5,21.5,21.5h40c9.3,0,17.5-5.9,20.5-14.8l1.1-3.4
	h26.1c2.5,0,3,0.1,5.7,0.8c0.9,0.2,1.9,0.5,3.1,0.9l103.5,27.7c4.6,1.2,8.7,2.4,12.7,3.6h0.2c13.3,3.8,23.7,6.9,34.6,6.9
	c13.2,0,26.2-4.7,42.1-15.3l0.1-0.1l19.8-14.1c1.1-0.8,1.8-1.9,2-3.2c0.2-1.3-0.1-2.6-0.9-3.7s-1.9-1.8-3.2-2
	c-1.3-0.2-2.6,0.1-3.7,0.9l-19.8,14.1c-28.1,18.7-41.6,14.8-68.3,7.1c-4.2-1.2-8.4-2.4-13.1-3.7l-103.5-27.7c-1.2-0.3-2.2-0.6-3-0.8
	c-3.5-1-4.4-1.2-8.4-1.2H108v-91.6h16.6c8-0.3,9.8-0.5,18.7-4c38-15,69.3-17,107.7,19.1l0.5,0.5c5.5,5.1,7.8,6.9,17.1,6.9H323
	c8,0,15.3,4.3,19.2,11.3l0.1,0.2c1.7,3.2,2.7,6.8,2.7,10.5c0,12.1-9.9,22-22,22h-88c-2.8,0-5,2.2-5,5s2.2,5,5,5h88.2
	c17.6,0,32-14.3,32-32c0-2.3-0.3-4.7-0.8-7l-0.8-3.8l82.5-42.3c9.5-4.9,22.7-4.2,29.3,6.6c5.9,9.5,2.8,22.1-7.1,29.1l-34.7,24.7
	c-1.1,0.8-1.8,1.9-2,3.2c-0.2,1.3,0.1,2.6,0.9,3.7c0.9,1.3,2.5,2.1,4.1,2.1c1,0,2-0.3,2.9-0.9l34.7-24.7
	c14.3-10.2,18.5-28.5,9.8-42.5C465.2,344.3,447,339.9,431.4,347.9L431.4,347.9z M98.2,463.8c0,6.2-5.3,11.5-11.6,11.5h-40
	c-6.2,0-11.5-5.3-11.5-11.5v-105c0-6.4,5.2-11.6,11.5-11.6h40c6.3,0,11.6,5.3,11.6,11.6V463.8z"/>
</svg>
