<?xml version="1.0" encoding="utf-8"?>
<!-- Generator: Adobe Illustrator 27.3.1, SVG Export Plug-In . SVG Version: 6.00 Build 0)  -->
<svg version="1.1" id="Layer_1" xmlns="http://www.w3.org/2000/svg" xmlns:xlink="http://www.w3.org/1999/xlink" x="0px" y="0px"
	 viewBox="0 0 500 500" style="enable-background:new 0 0 500 500;" xml:space="preserve">
<style type="text/css">
	.st0{fill:none;}
	.st1{fill:#F68620;}
	.st2{fill:#FF0000;}
</style>
<path class="st0" d="M229.3,250.1h39.5v19.6h-39.5L229.3,250.1z M179.1,250.3h29.3v19.4h-29.3V250.3z M89.7,95.1
	c-3.1,2.4-6.7,3.6-10.2,3.6c-4,0-8-1.5-11.3-4.5c-0.7-0.7-1.4-1.3-2.1-2l2.1,2.1c3.2,2.9,7.2,4.5,11.3,4.5
	C83.2,98.7,86.8,97.5,89.7,95.1c3.4-2.6,5.9-5.8,7.5-9.5C95.6,89.3,93.1,92.4,89.7,95.1z M65.9,91.9l-0.3-0.3
	C65.8,91.7,65.8,91.8,65.9,91.9z M310.6,159.3c-7,0.7-13.6,1.1-19.5,1.4c-17.5,0.8-30.1,13.6-30,30.4s13.1,29.7,30.3,30.1
	c3.9,0.1,7.8,0.1,11.8,0.1c-4,0-7.8,0-11.7-0.1c-17.1-0.3-30.2-13.3-30.3-30.1c-0.1-16.8,12.5-29.6,30-30.3
	c5.1-0.2,10.3-0.7,15.3-1.1L310.6,159.3l4.3-0.2c1.5-0.1,3.1-0.3,4.6-0.4l-2.4,0.1C314.9,158.9,312.7,159.1,310.6,159.3L310.6,159.3
	z M290,250.2h29.3v19.6H290V250.2z M56,119c12-0.1,24.2-0.1,37.4,0c7.7,0.1,12.6,2.3,15.8,7.5c-3.3-5.3-8.3-7.6-16-7.7
	c-13.2-0.1-25.5-0.1-37.5,0c-15.3,0.1-23,7.9-23,23.1v117.8H33V142.1C33,126.9,40.7,119.1,56,119z M126.4,471.7
	c-5.8-0.3-10.3-4.7-10.3-10.2v-4.9c0-1.7-0.1-3.4-0.1-5.2c-0.1-7-0.2-14.2,0.1-21.3c0.7-20.7-2-41.2-8.3-62.5
	c-3-10.1-5.6-20.6-8.1-30.7l-0.3-1.4c-0.6-2.4-1.2-4.8-1.8-7.1l-1.8-7.2c-2.2-8.6-4.7-10.6-13.6-10.6H82c8.9,0,11.3,1.9,13.6,10.7
	l1.8,7.2l1.8,7.2c3.1,12.7,5.8,22.9,8.5,32.1c6.3,21.1,9,41.5,8.3,62.5c-0.2,6.4-0.2,13.3-0.1,21.3c0.1,3.4,0.1,6.7,0.1,10.1
	c0,5.4,4.6,10,10.3,10.2c3,0.1,5.7-0.9,7.7-2.8c0.2-0.2,0.3-0.3,0.4-0.5L134,469C132,470.8,129.3,471.8,126.4,471.7L126.4,471.7z
	 M218.8,191.4v0.6V191.4z M133.9,175.5c20.1,1.5,42.2,3.2,73.7,5.4c5.4,0.4,11.2,3.3,11.2,10.1v-0.1c0-5.8-4.3-9.6-11.3-10.1
	c-28.1-2-51.5-3.7-73.7-5.4c-4.2-0.3-6.8-1-8.6-2.9C127,174.4,129.6,175.2,133.9,175.5z M57.2,45.9l0.1-0.6
	C57.3,45.5,57.3,45.7,57.2,45.9z M37.8,471.7c-6.1-1.2-9.4-6.7-8.3-13.6c0.8-5.2,1.7-10.4,2.6-15.3l0.2-1c2-11.8,4.1-24,5.2-36.1
	c0.8-9.3,0.2-19.1-0.4-27.7l-0.6-10.6c-0.6-14.7-1.3-31-2.3-51.5c-0.2-4.9-0.4-9.8-0.7-14.7c-0.2-4.9-0.4-9.7-0.6-14.6v-6h-0.2v6.2
	c0.2,5,0.4,9.9,0.7,14.7c0.2,4.9,0.5,9.8,0.7,14.7c0.7,14.3,1.5,33,2.3,51.5c0.1,2.4,0.2,4.9,0.4,7.3c0.1,1.1,0.1,2.3,0.2,3.4
	c0.6,8.6,1.2,18.4,0.4,27.7C36.1,418,34,430.2,31.9,442l-0.2,1c-1,5.3-1.9,10.4-2.6,15.2c-1.1,7,2.2,12.5,8.2,13.6
	c0.8,0.1,1.6,0.2,2.2,0.2c1.3,0,2.6-0.3,3.8-0.8c-1.1,0.4-2.3,0.6-3.6,0.6C39.2,471.9,38.5,471.8,37.8,471.7L37.8,471.7z"/>
<path class="st0" d="M110.9,220.7l0.3,0.1c0.7,0.3,1.6,1,2.3,1.7C112.8,221.7,111.6,220.9,110.9,220.7l-0.1-0.1
	c-13.1-4.7-21.6-12.7-25.1-23.9c-4.7-14.5-8.6-29.4-12.6-44.7c3.7,14.5,7.7,29.9,12.5,44.9C89.2,208.2,97.7,216.2,110.9,220.7z
	 M209.8,160.7c-7.6-0.3-14.9-0.9-21-1.4c-2.4-0.2-4.9-0.4-7.4-0.6l-2.3-0.2v0.2c3.4,0.2,6.5,0.4,9.7,0.7c2,0.1,4.1,0.3,6.2,0.4
	c5,0.4,9.8,0.7,14.7,0.9c16.6,0.8,29.2,13.6,29.3,30c0,3.6-0.5,7-1.6,10.2c1.1-3.2,1.7-6.7,1.7-10.3
	C239,174.3,226.4,161.4,209.8,160.7L209.8,160.7z M179.1,109.2h29.4v19.5h-29.4V109.2z M229.2,109.2h39.7v19.5h-39.7L229.2,109.2z
	 M179,28.5h29.5V48H179V28.5z M229.2,69.1h39.6v19.3h-39.6L229.2,69.1z M179,69h29.4v19.3H179V69z M295,33.5h19.5V43H295V33.5z
	 M179.2,222.1h-0.1v7.4h140.6v-0.1H179.2V222.1L179.2,222.1z M229.3,28.6H269v19.3h-39.7L229.3,28.6z M289.9,69.1h29.6v19.3h-29.6
	V69.1z M373.6,471.8C373.5,471.8,373.5,471.8,373.6,471.8c5.8-0.2,10.3-4.6,10.3-10.1C383.9,467.1,379.3,471.7,373.6,471.8z
	 M289.9,109.2h29.6v19.4h-29.6V109.2z"/>
<path class="st1" d="M484.3,446.7l-0.2-1.4c-0.9-5.4-1.8-10.8-2.5-16.2c-0.3-2.1-0.6-4.2-0.9-6.5l-0.6-3.6
	c-1.6-9.3-2.9-18.4-2.4-27.5c3.1-49,6.1-101,4.9-151.4v-1.6c0-1.2,0-2.4-0.2-3.3v-0.1c-0.3-2.4-2.1-4.1-4.4-4.2
	c-2.6-0.2-4.6,1.3-5.2,3.7c-0.3,1.4-0.4,3.2-0.4,5.6v24.6h-91.5V252c0-9.6,0-18.6,0.2-27.9c0.2-4.3,4.6-7.2,6.7-7.9
	c11.5-4.1,19-11.1,22.2-20.7c5.9-18.5,11-38.5,14.7-53.1c0.4-1.6,0-3.1-1.2-4.2c-1.4-1.3-3.3-1.8-5.2-1.2c-1.8,0.5-3.1,1.7-4.2,5.7
	c-4.5,16.8-8.5,31.4-12.2,44.8c-3.5,12.9-12.7,19.9-25.8,19.9h-0.6c-19-0.3-38.3-0.6-56.6-0.9c-8.9-0.1-17.6-0.3-25.9-0.4
	c-4.8-0.1-8.9-1.5-11.8-4.1c-3.1-2.8-4.8-6.7-4.8-11.1c0.1-8.4,6.4-14.3,16-15l32.5-2.4c9.6-0.7,19.5-1.4,29.4-2.1l11.9-0.9
	c4.4-0.3,6.3-1.9,7.5-6.3c2.1-7.5,4.5-15.4,7-23.6l0.6-1.8c0.8-2.6,1.6-5,2.3-7.6c3.4-11.3,11.2-17.1,23.1-17.2
	c14.5-0.1,27.6-0.1,40,0c14.7,0.1,25.2,10.5,25.6,25.2c0.1,1.6,0,3.2,0,4.8v4.5c0,2.3,0,4.4,0.1,6.6c0.1,3.2,2.2,5.3,5.2,5.3h0.1
	c3-0.1,4.9-2.2,4.9-5.4c0.1-6.2,0-11.3-0.1-16.3c-0.4-16.2-10.3-29.1-26-33.7c-0.6-0.2-1-0.3-1.4-0.5c-0.4-0.1-0.8-0.3-1.2-0.4
	c-0.3-0.1-0.5-0.2-0.8-0.3c-0.1,0-0.2-0.1-0.3-0.1l-0.2-0.1l-5.6-2l3-5.2c4.9-8.7,6.8-17.7,6-27.3v-0.6c-0.1-1.4-0.3-3.8,1.2-5.8
	c2.4-3.1,2.2-7.1,1.9-11.8c-0.1-0.6-0.1-1.2-0.1-1.8c0-0.5,0-1-0.1-1.5v-0.1c-0.6-17.9-12.8-31.7-30.6-34.2
	c-3.9-0.6-8.1-0.5-12.2-0.4h-3c-12,0.1-19.1,5.5-22.5,16.9c-0.8,2.7-1.3,5.5-1.8,8.8l-0.1,0.8c-1.6,10.5-4.3,13.1-14.8,13.8
	c-2.1,0.1-5.7,1-5.8,5.1c-0.1,4.4,4,5.1,5.7,5.2c1.3,0.1,2.7,0.1,4.2,0h7.7l-0.2,5.2c-0.6,11.8,2.1,21.8,8.1,30.6l3.2,4.6l-5,2.6
	c-11.3,5.8-18,14.5-20.5,26.6c-1.4,6.7-3.2,13.4-4.9,19.9l-0.2,0.7c-0.6,2.4-3,6.4-6.7,6.8c-4.7,0.5-9.3,0.8-14,1.1l-10.2,0.7v-141
	c0-7.5-0.9-8.5-8.4-8.5h-154c-8.3,0-9.2,0.9-9.2,9.2v140.2l-9.9-0.7c-0.9-0.1-1.8-0.1-2.7-0.2c-3.3-0.2-6.4-0.4-9.6-0.8
	c-3.1-0.3-5.9-3.2-6.8-5.9c-0.2-0.7-0.4-1.4-0.6-2c-0.2-0.6-0.3-1.2-0.5-1.8l-0.2-0.8c-1.5-4.9-2.9-10-3.8-15.3
	c-1.5-9.3-5.3-16.5-11.7-22c-1.8-1.6-3.9-3-5.9-4.4c-1-0.6-1.8-1.2-2.6-1.8l-0.3-0.2l-3.2-2.2l1.8-4.6c0.6-1.4,1.2-2.9,1.9-4.3
	l0.2-0.6c1.5-3.4,2.9-6.7,3.7-9.9c0.8-2.7,1.1-5.7,1.5-8.7c0.1-0.8,0.2-1.6,0.3-2.5c0.2-1.8,0.4-3.6,0.6-5.6l0.6-4.5h8.1
	c1.2,0,2.2,0,3.2-0.1c1.7-0.2,3-0.8,3.7-1.8c0.8-1.1,1.1-2.5,1-4.1c-0.4-2.5-2.4-4.1-5.5-4.3c-10.8-0.7-13.4-3.2-15-14
	c-0.6-4.4-1.5-8-2.6-11.2c-3.3-9.4-10.2-14.6-20.2-14.9c-1.9-0.1-3.8-0.1-5.6-0.1h-5.7c-12.7,0.3-23.8,6.3-30.5,16.4
	c-6.9,10.2-8,22.8-3.3,34.5c0.9,2.3,0.7,4.6,0.6,5.7C43.6,77.8,45.2,86,49,93.8c0.3,0.6,0.6,1.3,0.8,1.8l0.3,0.8
	c0.1,0.3,0.1,0.4,0.3,0.7l0.1,0.1l2.2,5.3l-5.6,1.4C28,108.8,17.2,123.4,17.6,144c0.6,35.3,0.6,74.4,0.1,126.7
	c-0.4,33.5,1.8,67.5,3.7,97.5l0.3,5.2c0.7,10.2,1.4,21.8,0.3,33c-1.2,11.2-3.1,22.5-4.9,33.4l-0.2,1.4c-1.1,6.1-1.9,11.3-2.6,15.9
	c-2.2,14.1,7.4,27.5,21.4,29.8c6.8,1.1,13.6-0.5,19.2-4.6s9.3-10,10.3-16.8c0.9-5.6,1.7-11.6,2.3-16.6c0.7-5.8,1.6-12.1,2.6-19.2
	l0.2-1.4c3-21.4,6.1-43.5,4.9-65.5c-0.2-3.5-0.2-7.4-0.1-11.6v-2.5c0-0.9,0.1-1.7,0.1-2.6v-3.8l8.6-2.7l2.2,5.1
	c0.2,0.5,0.5,1.2,0.7,1.9v0.1c0.3,1.4,0.7,2.9,1.1,4.3c0.4,1.5,0.8,2.9,1.1,4.4c2.3,8.5,4.3,16.7,6.1,24.3c0.4,1.9,0.9,3.8,1.4,5.6
	c1.8,7,3.5,13.8,3.8,20.6c0.8,15.5,0.8,31.4,0.8,46.7v9c0,14.2,11.3,25.4,25.6,25.5h0.3c14.2,0,25-10.6,25.3-24.5
	c0-1.8,0.1-3.7,0.2-5.5c0.1-3,0.2-6.5,0.2-9.9c0-2.8-0.1-5.7-0.1-8.6s-0.1-5.8-0.1-8.6v-0.1c-0.1-14.2-0.2-28.8-1.6-43
	c-1.3-13-4-26.1-6.6-38.7l-0.9-4.5c-0.9-4.5-1.9-9.2-2.7-13.9c-1-5.4-2-10.8-3-16.1c-4.7-24.3-9.6-49.5-7.9-75.6
	c0.2-2.9,0.2-6.1,0.1-10.1v-2.5c0-0.9-0.1-1.8-0.1-2.7v-5.1h33.7v60.6c0,5.8,1.4,7.2,7.2,7.2h157.5c5.5,0,6.9-1.4,7-6.9v-60.7h35.2
	v5c0,2.3,0,4.7-0.1,6.9v0.1c-0.1,4.6-0.2,8.9,0.1,13.1c1,15.1-0.2,31.1-3.9,50.3c-1,5.2-2.1,10.3-3.1,15.5c-0.5,2.5-1,5.1-1.5,7.6
	c-4.4,21.7-9.4,46.2-12.1,70.5c-1.9,18.1-1.8,36.4-1.5,56.8c0.1,7.6,0.2,16.2,0.1,24.6c0,0.2,0.4,1.1,0.6,1.7
	c0.1,0.1,0.1,0.3,0.2,0.4l0.2,0.4c4.5,11.7,17.1,18.6,29.4,15.9c12.9-2.8,20.8-13.5,20.6-27.9c0-3.4-0.1-6.8-0.2-10.2v-0.8
	c-0.4-24.2-0.8-49.1,7.3-73.4c1-3,1.8-6.2,2.5-9.3l0.2-0.6c0.4-1.7,0.8-3.5,1.3-5.2l0.1-0.2c0.9-3.3,1.8-6.6,2.6-9.9l4.4-16.4
	l6,10.6c1.5,2.7,1.5,5.1,1.5,6.7c0,2.4,0,4.8-0.1,7.1v6.8c-0.2,9.8-0.3,20.2,0.6,30.2c1.7,18,4.5,36.5,6.9,52.6
	c0.8,5.2,1.5,10.4,2.2,15.5l0.3,2c1,7.4,4.7,13.8,10.3,18c5.3,4.1,12.1,5.8,19.2,4.7c6.7-1,12.6-4.5,16.7-9.9
	c4.3-5.8,6.1-13.1,5-20.5C485.3,453.2,484.8,449.9,484.3,446.7L484.3,446.7z M413.3,23.1c28.5-0.9,34,13.5,34.8,22.2
	c0.1,1,0,1.8-0.1,2.5c0,0.2-0.1,0.4-0.1,0.5l-0.4,4.7h-48.7l-0.4-4.8c0-0.2-0.1-0.4-0.1-0.7c-0.1-0.8-0.1-1.5-0.1-2.2
	C398.4,34.1,400.3,23.6,413.3,23.1L413.3,23.1z M396.4,67.9l0.8-4h46.4l1,3.6c3.1,10.7-1.5,24.5-10.5,31.5
	c-4.2,3.2-8.8,4.8-13.5,4.8c-3.9,0-8-1.2-11.8-3.6C399,93.9,393.8,80.4,396.4,67.9z M285,23.5h39.5V53H285V23.5z M284.9,64.1h39.6
	v29.3h-39.6V64.1z M284.9,104.2h39.6v29.4h-39.6C284.9,133.6,284.9,104.2,284.9,104.2z M224.3,23.6H274v29.3h-49.7L224.3,23.6
	L224.3,23.6z M224.2,64.1h49.6v29.3h-49.6V64.1z M224.2,104.2h49.7v29.5h-49.7L224.2,104.2L224.2,104.2z M174,26h2.4v-2.5h37.1V53
	H174V26z M174,64h39.4v29.3h-36.9v-2.4H174V64z M213.5,104.2v29.5h-39.4v-29.5H213.5z M104.5,71.5c0.5,11.8-3.4,21.1-11.6,27.6
	c-3.9,3-8.5,4.6-13.2,4.6c-5.3,0-10.5-2-14.7-5.7c-8.2-7.4-11.5-17.2-10-30l0.6-4.4h12.2c10,0,19.5,0,29.2,0.1
	C100.8,63.9,104.3,68.2,104.5,71.5z M52.4,52.7l-0.2-4.6c-0.4-13.3,9.8-24,23.7-24.9c2.1-0.2,4.1-0.1,6-0.1h3.9
	c9,0.1,13.3,3.7,15.1,12.4c0.5,2.2,0.7,4.4,0.8,6.6c0.1,1.2,0.1,2.5,0.1,3.8v6.8C101.8,52.7,52.4,52.7,52.4,52.7z M134.4,352.5
	c1.2,6.4,2.3,12.8,3.5,19.2c1.1,6.2,2.3,12.5,3.4,18.7c0.5,2.4,0.5,4.9,0.5,7.3v64.5c0,3.9-1.5,7.6-4.3,10.4
	c-3,2.9-6.9,4.4-11.3,4.2c-8.4-0.4-15.1-7.2-15.1-15.2c0-3.4,0-6.7-0.1-10c-0.1-8-0.1-15.1,0.1-21.5c0.7-20.4-1.9-40.3-8.1-60.9
	c-2.7-9.3-5.4-19.6-8.5-32.3c-0.6-2.4-1.2-4.8-1.8-7.1l-1.8-7.2c-1.7-6.5-2.2-6.9-8.8-6.9h-9.5c-6.5,0-7.7,1.2-7.8,7.6
	c0,3.5,0,7.2-0.1,10.8c-0.1,7.8-0.2,16.6,0.2,24.9c1.1,25.2-2.2,50.2-5.7,73.6c-0.6,4.4-1.4,9.5-2,14.3c-0.5,3.3-0.9,6.8-1.4,10.2
	l-0.7,5.2c-0.8,5.3-3.2,9.4-6.8,12c-2.6,1.8-5.4,2.8-8.5,2.8c-0.9,0-2-0.1-2.9-0.2h-0.2c-8.8-1.7-13.8-9.6-12.3-19.3
	c0.7-4.8,1.6-9.9,2.6-15.3l0.2-1c2-11.7,4.1-23.8,5.2-35.7c0.8-8.9,0.2-18.5-0.4-26.9c-0.1-1.1-0.1-2.3-0.2-3.4
	c-0.2-2.4-0.3-4.9-0.4-7.4c-0.8-18.4-1.6-37.2-2.3-51.5c-0.2-4.9-0.4-9.8-0.7-14.7c-0.2-4.9-0.5-9.8-0.7-14.7c-0.1-0.9,0-1.8,0-2.7
	v-8.8h27.6c18.3,0,37.3,0,55.9-0.1c6.1,0,9.5,2.8,10.5,8.7C126.2,307.8,130.6,331.9,134.4,352.5L134.4,352.5z M125.2,207.4
	c-14,0.2-23.4-6.9-27.1-20.5l-2.1-7.8c-0.7-2.6-1.4-5.1-2.1-7.7c-2.8-10.6-5.7-21.2-8-29.3c-0.7-2.5-2.4-6.4-6.8-5.3
	c-1.3,0.3-2.4,1.1-3.1,2.2c-0.6,1-0.7,2.3-0.4,3.7l1.8,6.7c4,15.7,8,31,12.9,45.9c3,9.6,10.5,16.6,22,20.7c2.2,0.7,6.7,3.5,6.7,7.9
	c0.2,9.2,0.2,18.3,0.2,27.9v13H27.8V141.9c0-18,9.9-28,28-28.1c12-0.1,24.3-0.1,37.5,0c12.4,0.1,19.9,5.6,23.4,17.4l1,3.4
	c1.5,4.9,3,9.9,4.4,14.8c1.5,4.9,3,9.9,4.5,14.8c1.6,5.4,2.1,5.8,7.6,6.2c22.2,1.7,45.5,3.4,73.7,5.4c9.5,0.7,15.9,6.8,15.9,15.1
	c0.1,3.9-1.3,7.5-4,10.2c-3,3.1-7.5,4.9-12.7,4.9C180.3,206.5,152.5,207,125.2,207.4L125.2,207.4z M213.4,274.7h-39.3v-29.4h39.3
	V274.7z M273.8,274.7h-49.5v-29.6h49.5V274.7z M324.3,274.8H285v-29.6h39.3V274.8z M324.7,234.5H174.1v-17.2l4.9-0.2h0.4
	c0.3,0,0.5-0.1,0.8-0.1c0.6,0,1.1-0.1,1.7-0.1c0.5,0,1,0,1.5-0.1h0.1c1.5,0,3-0.1,4.5-0.1s3,0,4.4-0.1h0.9
	c5.5-0.1,11.1-0.2,16.6-0.4c13.8-0.5,24.2-11.5,24.1-25.4c-0.1-13.6-10.6-24.4-24.5-25c-5-0.2-9.8-0.6-14.9-1
	c-2-0.2-4.1-0.3-6.2-0.5c-3.2-0.3-6.3-0.5-9.7-0.7l-4.6-0.4v-18.8h150.3v18.8l-4.6,0.4c-1.6,0.1-3.1,0.2-4.6,0.4l-4.2,0.3l-4.2,0.3
	c-5,0.4-10.3,0.8-15.5,1.1c-14.7,0.6-25.3,11.3-25.2,25.3c0.1,14,11,24.8,25.3,25.1c6.3,0.1,12.5,0.1,19.2,0.1h14.1V234.5
	L324.7,234.5z M463,476.6c-0.9,0.1-1.8,0.2-2.8,0.2c-3.2,0-6.1-0.9-8.7-2.8c-3.7-2.7-6-7-6.7-12.2c-0.4-2.6-0.8-5.3-1.1-8
	c-0.4-2.7-0.7-5.3-1.1-8l-0.4-2.5c-2.4-16.7-4.8-33.9-6.8-50.9c-0.7-6.3-0.6-12.7-0.5-18.8v-1.8c0.1-2.8,0.1-5.6,0.1-8.4V322
	c0-4.9-1.4-6.3-6.4-6.4c-4.1-0.1-8.8-0.1-13.3,0c-3.3,0.1-4.6,1-5.4,4.1l-3,11.6c-1,4-2.1,8-3.1,12.1c-4.6,17.7-9.4,36.1-13.7,54.1
	c-0.9,3.9-0.9,8.1-0.8,12.8v4.6c-0.1,9.8-0.2,20.9-0.2,31.4v15.5c0,8.2-6.6,14.9-15.1,15.1h-0.5c-4.1,0-7.9-1.5-10.7-4.2
	c-2.8-2.7-4.4-6.4-4.4-10.4c0-5.8-0.1-11.6-0.2-17.3c-0.2-15.7-0.4-31.9,0.4-48c0.5-10,2.6-19.8,4.3-28.5c0.3-1.5,0.6-3.1,0.9-4.7
	c0.4-2.1,0.9-4.3,1.3-6.4c3.7-20.6,7.6-41.9,11.2-61.8l2.1-11.5c0.1-0.6,0.2-1.2,0.4-1.7l0.3-1.5c0.1-0.3,0.1-0.6,0.2-0.9
	c0.1-0.2,0.1-0.4,0.2-0.7v-0.2l1-3.8h91.7v5c0,3.4,0,6.9,0.1,10.2c0.1,7.4,0.2,15-0.2,22.6c-1.2,22.7-2.6,48.5-4.8,74
	c-1,11.1,0.9,22.4,2.6,32.4c0.5,3.1,1,6.4,1.5,9.5l0.1,1c0.9,6,1.8,11.6,2.7,16.7c0.3,1.7,0.6,3.5,0.9,5.2s0.5,3.4,0.8,5v0.1
	C477.1,467,471.7,475.2,463,476.6L463,476.6z"/>
<path class="st2" d="M218.8,191.1v0.3V191.1z M57.3,45.2C57.3,45.3,57.3,45.2,57.3,45.2z M97.2,85.6c0.1-0.1,0.1-0.3,0.2-0.4
	C97.4,85.3,97.3,85.5,97.2,85.6z M66.1,92.1c0-0.1-0.1-0.1-0.2-0.2C66,92,66.1,92,66.1,92.1z M406.6,91.6l-0.2-0.2L406.6,91.6z"/>
<path d="M477.3,190.6c-1.3,0-2.6,0.6-3.6,1.6c-0.9,1-1.5,2.3-1.5,3.6c0,1.5,0.9,2.7,1.6,3.4c1,0.9,2.4,1.5,3.8,1.5
	c2.7-0.1,4.8-2.3,4.8-5c0-1.5-0.5-2.8-1.5-3.7C480,191.1,478.7,190.6,477.3,190.6L477.3,190.6z"/>
</svg>
