<?xml version="1.0" encoding="utf-8"?>
<!-- Generator: Adobe Illustrator 28.0.0, SVG Export Plug-In . SVG Version: 6.00 Build 0)  -->
<svg version="1.1" id="Layer_1" xmlns="http://www.w3.org/2000/svg" xmlns:xlink="http://www.w3.org/1999/xlink" x="0px" y="0px"
	 viewBox="0 0 500 500" style="enable-background:new 0 0 500 500;" xml:space="preserve">
<style type="text/css">
	.st0{fill:#FFFFFF;}
</style>
<g>
	<g>
		<path class="st0" d="M299.6,88.18c0,27.39-22.2,49.59-49.6,49.59c-27.4,0-49.6-22.2-49.6-49.59c0-27.4,22.2-49.6,49.6-49.6
			C277.4,38.58,299.6,60.78,299.6,88.18z"/>
		<g>
			<polygon class="st0" points="284.58,4.11 259.81,30.68 283.48,40.41 			"/>
			<polygon class="st0" points="215,4.28 216.28,40.58 239.9,30.73 			"/>
			<polygon class="st0" points="165.93,53.6 192.51,78.35 202.24,54.7 			"/>
			<polygon class="st0" points="166.1,123.17 202.41,121.89 192.56,98.27 			"/>
			<polygon class="st0" points="215.42,172.24 240.19,145.66 216.52,135.93 			"/>
			<polygon class="st0" points="284.99,172.06 283.71,135.77 260.1,145.62 			"/>
			<polygon class="st0" points="334.06,122.75 307.49,97.98 297.76,121.65 			"/>
			<polygon class="st0" points="333.89,53.18 297.59,54.46 307.44,78.07 			"/>
		</g>
	</g>
	<g>
		<rect x="212.77" y="452.05" class="st0" width="74.33" height="22.98"/>
		<rect x="179.85" y="472.92" class="st0" width="140.16" height="22.97"/>
		<path class="st0" d="M409.93,457.97H89.94c-4.88,0-9.28-2.05-12.08-5.63c-2.87-3.67-3.81-8.63-2.57-13.59l38.27-153.25
			c2.33-9.32,9.9-16.36,17.61-16.36h239.99c7.74,0,15.25,7.06,17.46,16.43l36.14,153.25c1.17,4.95,0.17,9.88-2.72,13.53
			C419.22,455.93,414.8,457.97,409.93,457.97z M131.17,281.01c-1.51,0-4.96,2.8-6.1,7.37L86.8,441.63
			c-0.35,1.42-0.21,2.63,0.41,3.41c0.69,0.89,1.87,1.08,2.73,1.08h319.99c0.88,0,2.08-0.19,2.81-1.12c0.64-0.81,0.81-2.03,0.48-3.45
			L377.08,288.3c-1.07-4.52-4.44-7.29-5.92-7.29H131.17z"/>
		<g>
			<g>
				<g>
					<polygon class="st0" points="158.55,319.22 122.35,319.22 129.86,286.62 164.01,286.62 					"/>
					<path class="st0" d="M159.8,320.71h-39.32l8.2-35.58h37.08L159.8,320.71z M124.21,317.74h33.08l4.96-29.64h-31.22
						L124.21,317.74z"/>
				</g>
				<g>
					<polygon class="st0" points="202.71,319.22 166.52,319.22 171.52,286.62 205.67,286.62 					"/>
					<path class="st0" d="M204.07,320.71h-39.28l5.46-35.58h37.04L204.07,320.71z M168.24,317.74h33.12l2.69-29.64h-31.25
						L168.24,317.74z"/>
				</g>
				<g>
					<polygon class="st0" points="246.88,319.22 210.67,319.22 213.18,286.62 247.33,286.62 					"/>
					<path class="st0" d="M248.34,320.71h-39.26l2.73-35.58h37.02L248.34,320.71z M212.28,317.74h33.14l0.41-29.64h-31.27
						L212.28,317.74z"/>
				</g>
				<g>
					<polygon class="st0" points="291.04,319.22 254.84,319.22 254.84,286.62 288.98,286.62 					"/>
					<path class="st0" d="M292.62,320.71h-39.26v-35.58h37.02L292.62,320.71z M256.32,317.74h33.14l-1.86-29.64h-31.28V317.74z"/>
				</g>
				<g>
					<polygon class="st0" points="335.2,319.22 299,319.22 296.5,286.62 330.64,286.62 					"/>
					<path class="st0" d="M336.9,320.71h-39.27l-2.73-35.58h37.04L336.9,320.71z M300.37,317.74h33.12l-4.14-29.64H298.1
						L300.37,317.74z"/>
				</g>
				<g>
					<polygon class="st0" points="379.36,319.22 343.17,319.22 338.16,286.62 372.3,286.62 					"/>
					<path class="st0" d="M381.2,320.71h-39.3l-5.46-35.58h37.07L381.2,320.71z M344.44,317.74h33.09l-6.42-29.64h-31.23
						L344.44,317.74z"/>
				</g>
			</g>
			<g>
				<g>
					<polygon class="st0" points="151.78,359.66 113.04,359.66 120.55,327.05 157.24,327.05 					"/>
					<path class="st0" d="M153.04,361.14h-41.86l8.19-35.58H159L153.04,361.14z M114.9,358.17h35.63l4.96-29.64h-33.77L114.9,358.17
						z"/>
				</g>
				<g>
					<polygon class="st0" points="199.05,359.66 160.3,359.66 165.31,327.05 202,327.05 					"/>
					<path class="st0" d="M200.4,361.14h-41.82l5.46-35.58h39.58L200.4,361.14z M162.03,358.17h35.67l2.68-29.64h-33.79
						L162.03,358.17z"/>
				</g>
				<g>
					<polygon class="st0" points="246.31,359.66 207.57,359.66 210.08,327.05 246.77,327.05 					"/>
					<path class="st0" d="M247.78,361.14h-41.81l2.73-35.58h39.57L247.78,361.14z M209.17,358.17h35.68l0.41-29.64h-33.82
						L209.17,358.17z"/>
				</g>
				<g>
					<polygon class="st0" points="293.58,359.66 254.84,359.66 254.84,327.05 291.53,327.05 					"/>
					<path class="st0" d="M295.16,361.14h-41.81v-35.58h39.57L295.16,361.14z M256.32,358.17h35.69l-1.87-29.64h-33.82V358.17z"/>
				</g>
				<g>
					<polygon class="st0" points="340.85,359.66 302.1,359.66 299.6,327.05 336.29,327.05 					"/>
					<path class="st0" d="M342.56,361.14h-41.82l-2.73-35.58h39.58L342.56,361.14z M303.48,358.17h35.67L335,328.53h-33.8
						L303.48,358.17z"/>
				</g>
				<g>
					<polygon class="st0" points="388.12,359.66 349.37,359.66 344.37,327.05 381.06,327.05 					"/>
					<path class="st0" d="M389.95,361.14H348.1l-5.46-35.58h39.62L389.95,361.14z M350.64,358.17h35.64l-6.42-29.64h-33.78
						L350.64,358.17z"/>
				</g>
			</g>
			<g>
				<g>
					<polygon class="st0" points="145.01,400.08 103.72,400.08 111.23,367.48 150.47,367.48 					"/>
					<path class="st0" d="M146.26,401.57h-44.4l8.19-35.57h42.17L146.26,401.57z M105.58,398.6h38.17l4.96-29.64h-36.31
						L105.58,398.6z"/>
				</g>
				<g>
					<polygon class="st0" points="195.38,400.08 154.09,400.08 159.1,367.48 198.34,367.48 					"/>
					<path class="st0" d="M196.74,401.57h-44.37l5.46-35.57h42.13L196.74,401.57z M155.82,398.6h38.21l2.68-29.64h-36.34
						L155.82,398.6z"/>
				</g>
				<g>
					<polygon class="st0" points="245.75,400.08 204.47,400.08 206.97,367.48 246.2,367.48 					"/>
					<path class="st0" d="M247.22,401.57h-44.35L205.6,366h42.11L247.22,401.57z M206.07,398.6h38.22l0.41-29.64h-36.37
						L206.07,398.6z"/>
				</g>
				<g>
					<polygon class="st0" points="296.12,400.08 254.84,400.08 254.84,367.48 294.08,367.48 					"/>
					<path class="st0" d="M297.7,401.57h-44.35V366h42.11L297.7,401.57z M256.32,398.6h38.23l-1.86-29.64h-36.37V398.6z"/>
				</g>
				<g>
					<polygon class="st0" points="346.5,400.08 305.21,400.08 302.71,367.48 341.94,367.48 					"/>
					<path class="st0" d="M348.21,401.57h-44.37L301.11,366h42.12L348.21,401.57z M306.58,398.6h38.22l-4.14-29.64h-36.34
						L306.58,398.6z"/>
				</g>
				<g>
					<polygon class="st0" points="396.87,400.08 355.58,400.08 350.58,367.48 389.81,367.48 					"/>
					<path class="st0" d="M398.71,401.57h-44.4L348.85,366h42.16L398.71,401.57z M356.86,398.6h38.18l-6.42-29.64H352.3
						L356.86,398.6z"/>
				</g>
			</g>
			<g>
				<g>
					<polygon class="st0" points="138.24,440.51 94.4,440.51 101.92,407.91 143.7,407.91 					"/>
					<path class="st0" d="M139.49,441.99H92.54l8.2-35.57h44.71L139.49,441.99z M96.27,439.03h40.72l4.96-29.64H103.1L96.27,439.03z
						"/>
				</g>
				<g>
					<polygon class="st0" points="191.72,440.51 147.89,440.51 152.89,407.91 194.67,407.91 					"/>
					<path class="st0" d="M193.07,441.99h-46.91l5.46-35.57h44.68L193.07,441.99z M149.61,439.03h40.76l2.68-29.64h-38.89
						L149.61,439.03z"/>
				</g>
				<g>
					<polygon class="st0" points="245.19,440.51 201.36,440.51 203.87,407.91 245.64,407.91 					"/>
					<path class="st0" d="M246.66,441.99h-46.9l2.73-35.57h44.65L246.66,441.99z M202.96,439.03h40.77l0.41-29.64h-38.91
						L202.96,439.03z"/>
				</g>
				<g>
					<polygon class="st0" points="298.67,440.51 254.84,440.51 254.84,407.91 296.62,407.91 					"/>
					<path class="st0" d="M300.25,441.99h-46.9v-35.57h44.65L300.25,441.99z M256.32,439.03h40.78l-1.87-29.64h-38.91V439.03z"/>
				</g>
				<g>
					<polygon class="st0" points="352.15,440.51 308.32,440.51 305.81,407.91 347.6,407.91 					"/>
					<path class="st0" d="M353.85,441.99h-46.91l-2.73-35.57h44.67L353.85,441.99z M309.69,439.03h40.76l-4.14-29.64h-38.89
						L309.69,439.03z"/>
				</g>
				<g>
					<polygon class="st0" points="405.63,440.51 361.79,440.51 356.78,407.91 398.57,407.91 					"/>
					<path class="st0" d="M407.46,441.99h-46.94l-5.46-35.57h44.71L407.46,441.99z M363.07,439.03h40.72l-6.42-29.64h-38.86
						L363.07,439.03z"/>
				</g>
			</g>
		</g>
	</g>
	<polygon class="st0" points="202.47,172.24 170.5,204 180.29,207.24 162.94,236.86 198.14,203.79 187.72,198.52 	"/>
	<polygon class="st0" points="297.53,172.24 329.5,204 319.71,207.24 337.06,236.86 301.86,203.79 312.28,198.52 	"/>
	<polygon class="st0" points="250.63,166.68 261.82,210.33 251.75,208.11 251.47,242.43 238.19,195.99 249.83,196.8 	"/>
</g>
</svg>
