<?xml version="1.0" encoding="utf-8"?>
<!-- Generator: Adobe Illustrator 28.0.0, SVG Export Plug-In . SVG Version: 6.00 Build 0)  -->
<svg version="1.1" id="Layer_1" xmlns="http://www.w3.org/2000/svg" xmlns:xlink="http://www.w3.org/1999/xlink" x="0px" y="0px"
	 viewBox="0 0 491.14 329.08" style="enable-background:new 0 0 491.14 329.08;" xml:space="preserve">
<style type="text/css">
	.st0{fill:#FFFFFF;}
</style>
<g>
	<g>
		<path class="st0" d="M391.58,224.76H99.56c-18.29,0-33.16-14.88-33.16-33.16v-43.4h13.26v43.4c0,10.97,8.93,19.9,19.9,19.9h292.03
			c10.97,0,19.9-8.93,19.9-19.9v-43.4h13.27v43.4C424.75,209.88,409.87,224.76,391.58,224.76z"/>
		<path class="st0" d="M223.31,307.46H106.44v-13.26h116.87c15.63,0,15.63-2.09,15.63-18.29V148.2h13.26v127.7
			C252.2,294.96,250.19,307.46,223.31,307.46z"/>
	</g>
	<g>
		<g>
			<g>
				<g>
					<path class="st0" d="M151.73,162.48c-0.85,5.84-6.33,10.61-12.15,10.61H11.93c-5.82,0-8.87-4.77-6.76-10.61l11.15-30.87
						c2.11-5.83,8.24-10.61,13.63-10.61h118.09c5.39,0,9.1,4.78,8.24,10.61L151.73,162.48z"/>
				</g>
				<path class="st0" d="M143.82,174.26H7.11c-4.69,0-7.82-1.9-6.97-4.23l16.75-45.96c0.85-2.33,5.06-4.22,9.38-4.22h126.05
					c4.32,0,7.57,1.9,7.23,4.22l-6.61,45.96C152.6,172.36,148.51,174.26,143.82,174.26z M25.45,122.15c-1.97,0-3.88,0.86-4.26,1.92
					L4.75,170.03c-0.38,1.07,1.04,1.92,3.16,1.92h136.26c2.13,0,3.98-0.86,4.14-1.92l6.92-45.96c0.16-1.06-1.32-1.92-3.29-1.92
					H25.45z"/>
			</g>
			<g>
				<g>
					<polygon class="st0" points="39.25,134 21.04,134 24.42,124.39 42.37,124.39 					"/>
					<polygon class="st0" points="61.47,134 43.26,134 46.32,124.39 64.27,124.39 					"/>
					<polygon class="st0" points="83.69,134 65.48,134 68.21,124.39 86.16,124.39 					"/>
					<polygon class="st0" points="105.91,134 87.69,134 90.1,124.39 108.05,124.39 					"/>
					<polygon class="st0" points="128.13,134 109.91,134 112,124.39 129.95,124.39 					"/>
					<polygon class="st0" points="150.35,134 132.13,134 133.9,124.39 151.84,124.39 					"/>
				</g>
				<g>
					<polygon class="st0" points="35.38,145.89 16.84,145.89 20.23,136.3 38.51,136.3 					"/>
					<polygon class="st0" points="58,145.89 39.46,145.89 42.52,136.3 60.8,136.3 					"/>
					<polygon class="st0" points="80.63,145.89 62.08,145.89 64.82,136.3 83.1,136.3 					"/>
					<polygon class="st0" points="103.25,145.89 84.71,145.89 87.12,136.3 105.39,136.3 					"/>
					<polygon class="st0" points="125.87,145.89 107.33,145.89 109.42,136.3 127.69,136.3 					"/>
					<polygon class="st0" points="148.49,145.89 129.95,145.89 131.71,136.3 149.99,136.3 					"/>
				</g>
				<g>
					<polygon class="st0" points="31.52,157.8 12.64,157.8 16.03,148.2 34.64,148.2 					"/>
					<polygon class="st0" points="54.54,157.8 35.67,157.8 38.73,148.2 57.34,148.2 					"/>
					<polygon class="st0" points="77.57,157.8 58.69,157.8 61.43,148.2 80.03,148.2 					"/>
					<polygon class="st0" points="100.59,157.8 81.72,157.8 84.13,148.2 102.74,148.2 					"/>
					<polygon class="st0" points="123.62,157.8 104.75,157.8 106.83,148.2 125.43,148.2 					"/>
					<polygon class="st0" points="146.64,157.8 127.77,157.8 129.53,148.2 148.14,148.2 					"/>
				</g>
				<g>
					<polygon class="st0" points="27.65,169.71 8.45,169.71 11.83,160.1 30.77,160.1 					"/>
					<polygon class="st0" points="51.08,169.71 31.88,169.71 34.94,160.1 53.87,160.1 					"/>
					<polygon class="st0" points="74.5,169.71 55.3,169.71 58.04,160.1 76.97,160.1 					"/>
					<polygon class="st0" points="97.93,169.71 78.73,169.71 81.14,160.1 100.07,160.1 					"/>
					<polygon class="st0" points="121.36,169.71 102.16,169.71 104.24,160.1 123.18,160.1 					"/>
					<polygon class="st0" points="144.79,169.71 125.58,169.71 127.35,160.1 146.28,160.1 					"/>
				</g>
			</g>
		</g>
		<g>
			<g>
				<g>
					<path class="st0" d="M318.94,162.48c0.57,5.84-3.74,10.61-9.57,10.61H181.72c-5.83,0-10.03-4.77-9.35-10.61l3.62-30.87
						c0.68-5.83,5.65-10.61,11.05-10.61h118.09c5.39,0,10.26,4.78,10.83,10.61L318.94,162.48z"/>
				</g>
				<path class="st0" d="M313.9,174.26H177.17c-4.68,0-8.27-1.9-8-4.23l5.53-45.96c0.29-2.33,4.03-4.22,8.35-4.22h126.05
					c4.32,0,8.03,1.9,8.26,4.22l4.6,45.96C322.2,172.36,318.58,174.26,313.9,174.26z M182.82,122.15c-1.98,0-3.67,0.86-3.8,1.92
					l-5.23,45.96c-0.12,1.07,1.51,1.92,3.63,1.92h136.27c2.12,0,3.77-0.86,3.67-1.92l-4.3-45.96c-0.1-1.06-1.79-1.92-3.76-1.92
					H182.82z"/>
			</g>
			<g>
				<g>
					<polygon class="st0" points="199.5,134 181.29,134 182.33,124.39 200.28,124.39 					"/>
					<polygon class="st0" points="221.72,134 203.5,134 204.22,124.39 222.17,124.39 					"/>
					<polygon class="st0" points="243.94,134 225.73,134 226.12,124.39 244.07,124.39 					"/>
					<polygon class="st0" points="266.16,134 247.95,134 248.01,124.39 265.96,124.39 					"/>
					<polygon class="st0" points="288.37,134 270.16,134 269.91,124.39 287.86,124.39 					"/>
					<polygon class="st0" points="310.59,134 292.38,134 291.8,124.39 309.75,124.39 					"/>
				</g>
				<g>
					<polygon class="st0" points="198.54,145.89 179.99,145.89 181.04,136.3 199.31,136.3 					"/>
					<polygon class="st0" points="221.16,145.89 202.62,145.89 203.33,136.3 221.61,136.3 					"/>
					<polygon class="st0" points="243.78,145.89 225.24,145.89 225.63,136.3 243.91,136.3 					"/>
					<polygon class="st0" points="266.41,145.89 247.86,145.89 247.93,136.3 266.2,136.3 					"/>
					<polygon class="st0" points="289.03,145.89 270.48,145.89 270.23,136.3 288.5,136.3 					"/>
					<polygon class="st0" points="311.64,145.89 293.1,145.89 292.52,136.3 310.8,136.3 					"/>
				</g>
				<g>
					<polygon class="st0" points="197.58,157.8 178.7,157.8 179.75,148.2 198.35,148.2 					"/>
					<polygon class="st0" points="220.6,157.8 201.73,157.8 202.44,148.2 221.05,148.2 					"/>
					<polygon class="st0" points="243.62,157.8 224.75,157.8 225.15,148.2 243.75,148.2 					"/>
					<polygon class="st0" points="266.65,157.8 247.78,157.8 247.84,148.2 266.45,148.2 					"/>
					<polygon class="st0" points="289.68,157.8 270.8,157.8 270.55,148.2 289.15,148.2 					"/>
					<polygon class="st0" points="312.7,157.8 293.82,157.8 293.25,148.2 311.85,148.2 					"/>
				</g>
				<g>
					<polygon class="st0" points="196.61,169.71 177.41,169.71 178.45,160.1 197.39,160.1 					"/>
					<polygon class="st0" points="220.04,169.71 200.84,169.71 201.55,160.1 220.49,160.1 					"/>
					<polygon class="st0" points="243.47,169.71 224.26,169.71 224.66,160.1 243.6,160.1 					"/>
					<polygon class="st0" points="266.9,169.71 247.69,169.71 247.76,160.1 266.7,160.1 					"/>
					<polygon class="st0" points="290.33,169.71 271.12,169.71 270.86,160.1 289.8,160.1 					"/>
					<polygon class="st0" points="313.75,169.71 294.55,169.71 293.97,160.1 312.91,160.1 					"/>
				</g>
			</g>
		</g>
		<g>
			<g>
				<g>
					<path class="st0" d="M486.14,162.48c1.99,5.84-1.15,10.61-6.98,10.61H351.51c-5.83,0-11.2-4.77-11.94-10.61l-3.92-30.87
						c-0.74-5.83,3.07-10.61,8.46-10.61H462.2c5.39,0,11.43,4.78,13.42,10.61L486.14,162.48z"/>
				</g>
				<path class="st0" d="M483.97,174.26H347.25c-4.69,0-8.74-1.9-9.03-4.23l-5.68-45.96c-0.3-2.33,2.99-4.22,7.32-4.22h126.05
					c4.32,0,8.49,1.9,9.29,4.22l15.82,45.96C491.82,172.36,488.66,174.26,483.97,174.26z M340.18,122.15
					c-1.98,0-3.47,0.86-3.33,1.92l5.99,45.96c0.14,1.07,1.98,1.92,4.1,1.92H483.2c2.13,0,3.57-0.86,3.21-1.92l-15.52-45.96
					c-0.36-1.06-2.25-1.92-4.22-1.92H340.18z"/>
			</g>
			<g>
				<g>
					<polygon class="st0" points="359.75,134 341.54,134 340.24,124.39 358.19,124.39 					"/>
					<polygon class="st0" points="381.97,134 363.76,134 362.13,124.39 380.08,124.39 					"/>
					<polygon class="st0" points="404.19,134 385.98,134 384.03,124.39 401.97,124.39 					"/>
					<polygon class="st0" points="426.41,134 408.19,134 405.92,124.39 423.87,124.39 					"/>
					<polygon class="st0" points="448.63,134 430.41,134 427.81,124.39 445.76,124.39 					"/>
					<polygon class="st0" points="470.85,134 452.63,134 449.71,124.39 467.65,124.39 					"/>
				</g>
				<g>
					<polygon class="st0" points="361.69,145.89 343.15,145.89 341.85,136.3 360.12,136.3 					"/>
					<polygon class="st0" points="384.32,145.89 365.77,145.89 364.15,136.3 382.42,136.3 					"/>
					<polygon class="st0" points="406.94,145.89 388.39,145.89 386.44,136.3 404.72,136.3 					"/>
					<polygon class="st0" points="429.56,145.89 411.02,145.89 408.74,136.3 427.02,136.3 					"/>
					<polygon class="st0" points="452.18,145.89 433.64,145.89 431.04,136.3 449.31,136.3 					"/>
					<polygon class="st0" points="474.8,145.89 456.26,145.89 453.33,136.3 471.61,136.3 					"/>
				</g>
				<g>
					<polygon class="st0" points="363.64,157.8 344.76,157.8 343.46,148.2 362.07,148.2 					"/>
					<polygon class="st0" points="386.66,157.8 367.79,157.8 366.16,148.2 384.77,148.2 					"/>
					<polygon class="st0" points="409.68,157.8 390.81,157.8 388.86,148.2 407.47,148.2 					"/>
					<polygon class="st0" points="432.71,157.8 413.83,157.8 411.56,148.2 430.17,148.2 					"/>
					<polygon class="st0" points="455.74,157.8 436.86,157.8 434.26,148.2 452.87,148.2 					"/>
					<polygon class="st0" points="478.75,157.8 459.88,157.8 456.96,148.2 475.57,148.2 					"/>
				</g>
				<g>
					<polygon class="st0" points="365.58,169.71 346.38,169.71 345.07,160.1 364.01,160.1 					"/>
					<polygon class="st0" points="389,169.71 369.8,169.71 368.18,160.1 387.12,160.1 					"/>
					<polygon class="st0" points="412.43,169.71 393.23,169.71 391.28,160.1 410.22,160.1 					"/>
					<polygon class="st0" points="435.86,169.71 416.66,169.71 414.38,160.1 433.32,160.1 					"/>
					<polygon class="st0" points="459.29,169.71 440.08,169.71 437.49,160.1 456.42,160.1 					"/>
					<polygon class="st0" points="482.71,169.71 463.51,169.71 460.59,160.1 479.52,160.1 					"/>
				</g>
			</g>
		</g>
		<g>
			<g>
				<g>
					<path class="st0" d="M160.55,102.57c-0.85,5.83-5.91,10.6-11.24,10.6H32.65c-5.32,0-7.96-4.77-5.85-10.6l11.15-30.89
						c2.11-5.83,7.83-10.61,12.72-10.61h107.1c4.89,0,8.18,4.78,7.32,10.61L160.55,102.57z"/>
				</g>
				<path class="st0" d="M153.17,114.33H28.21c-4.29,0-7.08-1.89-6.24-4.22l16.75-45.96c0.85-2.34,4.73-4.22,8.65-4.22h114.29
					c3.92,0,6.84,1.89,6.51,4.22l-6.61,45.96C161.21,112.45,157.46,114.33,153.17,114.33z M46.56,62.23c-1.79,0-3.55,0.86-3.93,1.92
					l-16.44,45.96c-0.38,1.06,0.89,1.92,2.83,1.92h124.51c1.94,0,3.65-0.86,3.8-1.92l6.92-45.96c0.16-1.07-1.17-1.92-2.95-1.92
					H46.56z"/>
			</g>
			<g>
				<g>
					<polygon class="st0" points="58.71,74.07 42.17,74.07 45.55,64.47 61.83,64.47 					"/>
					<polygon class="st0" points="78.91,74.07 62.36,74.07 65.41,64.47 81.7,64.47 					"/>
					<polygon class="st0" points="99.1,74.07 82.55,74.07 85.28,64.47 101.57,64.47 					"/>
					<polygon class="st0" points="119.29,74.07 102.74,74.07 105.15,64.47 121.43,64.47 					"/>
					<polygon class="st0" points="139.48,74.07 122.93,74.07 125.02,64.47 141.3,64.47 					"/>
					<polygon class="st0" points="159.68,74.07 143.13,74.07 144.89,64.47 161.17,64.47 					"/>
				</g>
				<g>
					<polygon class="st0" points="54.85,85.98 37.97,85.98 41.35,76.37 57.97,76.37 					"/>
					<polygon class="st0" points="75.44,85.98 58.56,85.98 61.62,76.37 78.24,76.37 					"/>
					<polygon class="st0" points="96.04,85.98 79.16,85.98 81.89,76.37 98.51,76.37 					"/>
					<polygon class="st0" points="116.63,85.98 99.75,85.98 102.16,76.37 118.78,76.37 					"/>
					<polygon class="st0" points="137.22,85.98 120.35,85.98 122.43,76.37 139.04,76.37 					"/>
					<polygon class="st0" points="157.82,85.98 140.95,85.98 142.7,76.37 159.32,76.37 					"/>
				</g>
				<g>
					<polygon class="st0" points="50.98,97.88 33.77,97.88 37.15,88.28 54.1,88.28 					"/>
					<polygon class="st0" points="71.98,97.88 54.77,97.88 57.82,88.28 74.77,88.28 					"/>
					<polygon class="st0" points="92.98,97.88 75.77,97.88 78.5,88.28 95.44,88.28 					"/>
					<polygon class="st0" points="113.97,97.88 96.76,97.88 99.18,88.28 116.12,88.28 					"/>
					<polygon class="st0" points="134.97,97.88 117.76,97.88 119.85,88.28 136.79,88.28 					"/>
					<polygon class="st0" points="155.97,97.88 138.76,97.88 140.52,88.28 157.46,88.28 					"/>
				</g>
				<g>
					<polygon class="st0" points="47.11,109.79 29.57,109.79 32.96,100.19 50.23,100.19 					"/>
					<polygon class="st0" points="68.51,109.79 50.98,109.79 54.03,100.19 71.31,100.19 					"/>
					<polygon class="st0" points="89.91,109.79 72.38,109.79 75.11,100.19 92.38,100.19 					"/>
					<polygon class="st0" points="111.31,109.79 93.78,109.79 96.18,100.19 113.46,100.19 					"/>
					<polygon class="st0" points="132.71,109.79 115.18,109.79 117.26,100.19 134.53,100.19 					"/>
					<polygon class="st0" points="154.12,109.79 136.58,109.79 138.34,100.19 155.61,100.19 					"/>
				</g>
			</g>
		</g>
		<g>
			<g>
				<g>
					<path class="st0" d="M313.14,102.57c0.56,5.83-3.33,10.6-8.66,10.6H187.83c-5.33,0-9.13-4.77-8.44-10.6L183,71.69
						c0.68-5.83,5.24-10.61,10.13-10.61h107.1c4.89,0,9.35,4.78,9.91,10.61L313.14,102.57z"/>
				</g>
				<path class="st0" d="M308.62,114.33H183.66c-4.29,0-7.55-1.89-7.27-4.22l5.53-45.96c0.28-2.34,3.7-4.22,7.62-4.22h114.29
					c3.92,0,7.3,1.89,7.53,4.22l4.6,45.96C316.2,112.45,312.91,114.33,308.62,114.33z M189.3,62.23c-1.79,0-3.34,0.86-3.46,1.92
					l-5.23,45.96c-0.13,1.06,1.36,1.92,3.3,1.92h124.52c1.94,0,3.44-0.86,3.34-1.92l-4.3-45.96c-0.1-1.07-1.63-1.92-3.42-1.92H189.3
					z"/>
			</g>
			<g>
				<g>
					<polygon class="st0" points="204.35,74.07 187.8,74.07 188.84,64.47 205.12,64.47 					"/>
					<polygon class="st0" points="224.54,74.07 207.99,74.07 208.7,64.47 224.99,64.47 					"/>
					<polygon class="st0" points="244.73,74.07 228.18,74.07 228.57,64.47 244.85,64.47 					"/>
					<polygon class="st0" points="264.92,74.07 248.37,74.07 248.44,64.47 264.72,64.47 					"/>
					<polygon class="st0" points="285.11,74.07 268.56,74.07 268.3,64.47 284.59,64.47 					"/>
					<polygon class="st0" points="305.3,74.07 288.75,74.07 288.17,64.47 304.45,64.47 					"/>
				</g>
				<g>
					<polygon class="st0" points="203.38,85.98 186.5,85.98 187.54,76.37 204.16,76.37 					"/>
					<polygon class="st0" points="223.98,85.98 207.1,85.98 207.81,76.37 224.43,76.37 					"/>
					<polygon class="st0" points="244.57,85.98 227.69,85.98 228.08,76.37 244.7,76.37 					"/>
					<polygon class="st0" points="265.17,85.98 248.29,85.98 248.35,76.37 264.97,76.37 					"/>
					<polygon class="st0" points="285.76,85.98 268.88,85.98 268.62,76.37 285.24,76.37 					"/>
					<polygon class="st0" points="306.36,85.98 289.48,85.98 288.89,76.37 305.51,76.37 					"/>
				</g>
				<g>
					<polygon class="st0" points="202.42,97.88 185.21,97.88 186.25,88.28 203.2,88.28 					"/>
					<polygon class="st0" points="223.42,97.88 206.21,97.88 206.92,88.28 223.87,88.28 					"/>
					<polygon class="st0" points="244.42,97.88 227.2,97.88 227.59,88.28 244.54,88.28 					"/>
					<polygon class="st0" points="265.41,97.88 248.2,97.88 248.27,88.28 265.21,88.28 					"/>
					<polygon class="st0" points="286.41,97.88 269.2,97.88 268.94,88.28 285.89,88.28 					"/>
					<polygon class="st0" points="307.41,97.88 290.2,97.88 289.61,88.28 306.56,88.28 					"/>
				</g>
				<g>
					<polygon class="st0" points="201.46,109.79 183.92,109.79 184.96,100.19 202.23,100.19 					"/>
					<polygon class="st0" points="222.86,109.79 205.32,109.79 206.04,100.19 223.31,100.19 					"/>
					<polygon class="st0" points="244.26,109.79 226.72,109.79 227.11,100.19 244.38,100.19 					"/>
					<polygon class="st0" points="265.66,109.79 248.12,109.79 248.18,100.19 265.46,100.19 					"/>
					<polygon class="st0" points="287.06,109.79 269.52,109.79 269.26,100.19 286.54,100.19 					"/>
					<polygon class="st0" points="308.46,109.79 290.92,109.79 290.33,100.19 307.61,100.19 					"/>
				</g>
			</g>
		</g>
		<g>
			<g>
				<g>
					<path class="st0" d="M465.72,102.57c1.99,5.83-0.74,10.6-6.07,10.6H343c-5.32,0-10.29-4.77-11.03-10.6l-3.92-30.89
						c-0.74-5.83,2.65-10.61,7.54-10.61h107.1c4.89,0,10.51,4.78,12.51,10.61L465.72,102.57z"/>
				</g>
				<path class="st0" d="M464.08,114.33H339.11c-4.29,0-8.01-1.89-8.29-4.22l-5.68-45.96c-0.29-2.34,2.67-4.22,6.59-4.22h114.29
					c3.92,0,7.76,1.89,8.56,4.22l15.82,45.96C471.2,112.45,468.36,114.33,464.08,114.33z M332.03,62.23c-1.79,0-3.13,0.86-2.99,1.92
					l5.99,45.96c0.14,1.06,1.83,1.92,3.77,1.92h124.51c1.94,0,3.23-0.86,2.87-1.92l-15.51-45.96c-0.36-1.07-2.1-1.92-3.89-1.92
					H332.03z"/>
			</g>
			<g>
				<g>
					<polygon class="st0" points="349.97,74.07 333.42,74.07 332.12,64.47 348.41,64.47 					"/>
					<polygon class="st0" points="370.17,74.07 353.62,74.07 351.99,64.47 368.27,64.47 					"/>
					<polygon class="st0" points="390.36,74.07 373.8,74.07 371.86,64.47 388.14,64.47 					"/>
					<polygon class="st0" points="410.55,74.07 394,74.07 391.72,64.47 408,64.47 					"/>
					<polygon class="st0" points="430.74,74.07 414.19,74.07 411.59,64.47 427.87,64.47 					"/>
					<polygon class="st0" points="450.93,74.07 434.38,74.07 431.46,64.47 447.74,64.47 					"/>
				</g>
				<g>
					<polygon class="st0" points="351.92,85.98 335.04,85.98 333.73,76.37 350.35,76.37 					"/>
					<polygon class="st0" points="372.51,85.98 355.63,85.98 354.01,76.37 370.62,76.37 					"/>
					<polygon class="st0" points="393.11,85.98 376.22,85.98 374.27,76.37 390.89,76.37 					"/>
					<polygon class="st0" points="413.7,85.98 396.82,85.98 394.54,76.37 411.16,76.37 					"/>
					<polygon class="st0" points="434.3,85.98 417.41,85.98 414.81,76.37 431.43,76.37 					"/>
					<polygon class="st0" points="454.89,85.98 438.01,85.98 435.08,76.37 451.7,76.37 					"/>
				</g>
				<g>
					<polygon class="st0" points="353.86,97.88 336.64,97.88 335.35,88.28 352.29,88.28 					"/>
					<polygon class="st0" points="374.86,97.88 357.64,97.88 356.02,88.28 372.97,88.28 					"/>
					<polygon class="st0" points="395.85,97.88 378.64,97.88 376.69,88.28 393.64,88.28 					"/>
					<polygon class="st0" points="416.85,97.88 399.64,97.88 397.37,88.28 414.31,88.28 					"/>
					<polygon class="st0" points="437.85,97.88 420.64,97.88 418.04,88.28 434.98,88.28 					"/>
					<polygon class="st0" points="458.84,97.88 441.63,97.88 438.71,88.28 455.66,88.28 					"/>
				</g>
				<g>
					<polygon class="st0" points="355.8,109.79 338.26,109.79 336.96,100.19 354.23,100.19 					"/>
					<polygon class="st0" points="377.2,109.79 359.66,109.79 358.04,100.19 375.31,100.19 					"/>
					<polygon class="st0" points="398.6,109.79 381.06,109.79 379.11,100.19 396.39,100.19 					"/>
					<polygon class="st0" points="420,109.79 402.46,109.79 400.18,100.19 417.46,100.19 					"/>
					<polygon class="st0" points="441.4,109.79 423.86,109.79 421.26,100.19 438.54,100.19 					"/>
					<polygon class="st0" points="462.8,109.79 445.26,109.79 442.34,100.19 459.61,100.19 					"/>
				</g>
			</g>
		</g>
		<g>
			<g>
				<g>
					<path class="st0" d="M169.37,42.65c-0.86,5.83-5.5,10.61-10.33,10.61H53.38c-4.83,0-7.05-4.78-4.94-10.61l11.15-30.88
						c2.1-5.83,7.42-10.61,11.81-10.61h96.11c4.38,0,7.28,4.78,6.42,10.61L169.37,42.65z"/>
				</g>
				<path class="st0" d="M162.52,54.42H49.32c-3.88,0-6.36-1.9-5.51-4.22L60.56,4.22C61.4,1.9,64.96,0,68.47,0h102.54
					c3.52,0,6.1,1.9,5.77,4.22l-6.61,45.97C169.84,52.52,166.4,54.42,162.52,54.42z M67.66,2.31c-1.61,0-3.22,0.86-3.6,1.92
					L47.62,50.19c-0.38,1.06,0.74,1.92,2.5,1.92h112.76c1.75,0,3.32-0.87,3.47-1.92l6.92-45.97c0.16-1.06-1.02-1.92-2.63-1.92H67.66
					z"/>
			</g>
			<g>
				<g>
					<polygon class="st0" points="78.18,14.16 63.29,14.16 66.68,4.55 81.3,4.55 					"/>
					<polygon class="st0" points="96.35,14.16 81.46,14.16 84.52,4.55 99.14,4.55 					"/>
					<polygon class="st0" points="114.51,14.16 99.62,14.16 102.36,4.55 116.98,4.55 					"/>
					<polygon class="st0" points="132.67,14.16 117.78,14.16 120.19,4.55 134.82,4.55 					"/>
					<polygon class="st0" points="150.84,14.16 135.95,14.16 138.04,4.55 152.66,4.55 					"/>
					<polygon class="st0" points="169,14.16 154.12,14.16 155.88,4.55 170.5,4.55 					"/>
				</g>
				<g>
					<polygon class="st0" points="74.32,26.06 59.1,26.06 62.48,16.46 77.43,16.46 					"/>
					<polygon class="st0" points="92.88,26.06 77.66,26.06 80.72,16.46 95.68,16.46 					"/>
					<polygon class="st0" points="111.45,26.06 96.23,26.06 98.96,16.46 113.92,16.46 					"/>
					<polygon class="st0" points="130.02,26.06 114.79,26.06 117.21,16.46 132.16,16.46 					"/>
					<polygon class="st0" points="148.58,26.06 133.37,26.06 135.45,16.46 150.4,16.46 					"/>
					<polygon class="st0" points="167.15,26.06 151.93,26.06 153.69,16.46 168.64,16.46 					"/>
				</g>
				<g>
					<polygon class="st0" points="70.45,37.96 54.89,37.96 58.28,28.36 73.57,28.36 					"/>
					<polygon class="st0" points="89.41,37.96 73.86,37.96 76.92,28.36 92.21,28.36 					"/>
					<polygon class="st0" points="108.39,37.96 92.84,37.96 95.57,28.36 110.86,28.36 					"/>
					<polygon class="st0" points="127.35,37.96 111.81,37.96 114.22,28.36 129.5,28.36 					"/>
					<polygon class="st0" points="146.33,37.96 130.78,37.96 132.87,28.36 148.15,28.36 					"/>
					<polygon class="st0" points="165.3,37.96 149.75,37.96 151.51,28.36 166.79,28.36 					"/>
				</g>
				<g>
					<polygon class="st0" points="66.58,49.87 50.7,49.87 54.08,40.26 69.69,40.26 					"/>
					<polygon class="st0" points="85.95,49.87 70.08,49.87 73.14,40.26 88.75,40.26 					"/>
					<polygon class="st0" points="105.33,49.87 89.44,49.87 92.18,40.26 107.79,40.26 					"/>
					<polygon class="st0" points="124.7,49.87 108.82,49.87 111.22,40.26 126.84,40.26 					"/>
					<polygon class="st0" points="144.07,49.87 128.19,49.87 130.28,40.26 145.89,40.26 					"/>
					<polygon class="st0" points="163.45,49.87 147.57,49.87 149.33,40.26 164.94,40.26 					"/>
				</g>
			</g>
		</g>
		<g>
			<g>
				<g>
					<path class="st0" d="M307.33,42.65c0.57,5.83-2.92,10.61-7.74,10.61H193.92c-4.82,0-8.21-4.78-7.53-10.61l3.61-30.88
						c0.69-5.83,4.83-10.61,9.22-10.61h96.11c4.38,0,8.44,4.78,9.01,10.61L307.33,42.65z"/>
				</g>
				<path class="st0" d="M303.35,54.42H190.14c-3.88,0-6.81-1.9-6.53-4.22l5.53-45.97C189.42,1.9,192.51,0,196.03,0h102.54
					c3.52,0,6.57,1.9,6.8,4.22l4.6,45.97C310.2,52.52,307.23,54.42,303.35,54.42z M195.78,2.31c-1.61,0-3.01,0.86-3.13,1.92
					l-5.23,45.97c-0.12,1.06,1.21,1.92,2.98,1.92h112.75c1.76,0,3.11-0.87,3.01-1.92l-4.3-45.97c-0.1-1.06-1.48-1.92-3.09-1.92
					H195.78z"/>
			</g>
			<g>
				<g>
					<polygon class="st0" points="209.19,14.16 194.3,14.16 195.34,4.55 209.96,4.55 					"/>
					<polygon class="st0" points="227.36,14.16 212.46,14.16 213.18,4.55 227.8,4.55 					"/>
					<polygon class="st0" points="245.52,14.16 230.63,14.16 231.02,4.55 245.65,4.55 					"/>
					<polygon class="st0" points="263.68,14.16 248.79,14.16 248.86,4.55 263.48,4.55 					"/>
					<polygon class="st0" points="281.85,14.16 266.96,14.16 266.7,4.55 281.32,4.55 					"/>
					<polygon class="st0" points="300.01,14.16 285.12,14.16 284.54,4.55 299.16,4.55 					"/>
				</g>
				<g>
					<polygon class="st0" points="208.22,26.06 193.01,26.06 194.05,16.46 209,16.46 					"/>
					<polygon class="st0" points="226.8,26.06 211.57,26.06 212.29,16.46 227.24,16.46 					"/>
					<polygon class="st0" points="245.36,26.06 230.14,26.06 230.53,16.46 245.49,16.46 					"/>
					<polygon class="st0" points="263.93,26.06 248.71,26.06 248.78,16.46 263.73,16.46 					"/>
					<polygon class="st0" points="282.5,26.06 267.27,26.06 267.02,16.46 281.97,16.46 					"/>
					<polygon class="st0" points="301.06,26.06 285.84,26.06 285.26,16.46 300.22,16.46 					"/>
				</g>
				<g>
					<polygon class="st0" points="207.27,37.96 191.71,37.96 192.76,28.36 208.04,28.36 					"/>
					<polygon class="st0" points="226.23,37.96 210.69,37.96 211.41,28.36 226.68,28.36 					"/>
					<polygon class="st0" points="245.2,37.96 229.65,37.96 230.05,28.36 245.33,28.36 					"/>
					<polygon class="st0" points="264.17,37.96 248.63,37.96 248.69,28.36 263.98,28.36 					"/>
					<polygon class="st0" points="283.14,37.96 267.59,37.96 267.34,28.36 282.62,28.36 					"/>
					<polygon class="st0" points="302.11,37.96 286.56,37.96 285.99,28.36 301.27,28.36 					"/>
				</g>
				<g>
					<polygon class="st0" points="206.3,49.87 190.42,49.87 191.46,40.26 207.08,40.26 					"/>
					<polygon class="st0" points="225.67,49.87 209.79,49.87 210.51,40.26 226.13,40.26 					"/>
					<polygon class="st0" points="245.05,49.87 229.17,49.87 229.56,40.26 245.17,40.26 					"/>
					<polygon class="st0" points="264.42,49.87 248.54,49.87 248.61,40.26 264.22,40.26 					"/>
					<polygon class="st0" points="283.79,49.87 267.91,49.87 267.65,40.26 283.27,40.26 					"/>
					<polygon class="st0" points="303.17,49.87 287.29,49.87 286.71,40.26 302.32,40.26 					"/>
				</g>
			</g>
		</g>
		<g>
			<g>
				<g>
					<path class="st0" d="M445.3,42.65c1.99,5.83-0.33,10.61-5.15,10.61H334.48c-4.82,0-9.37-4.78-10.12-10.61l-3.92-30.88
						c-0.74-5.83,2.24-10.61,6.63-10.61h96.11c4.39,0,9.61,4.78,11.6,10.61L445.3,42.65z"/>
				</g>
				<path class="st0" d="M444.18,54.42H330.97c-3.88,0-7.28-1.9-7.56-4.22l-5.68-45.97C317.44,1.9,320.07,0,323.59,0h102.53
					c3.52,0,7.03,1.9,7.83,4.22l15.83,45.97C450.57,52.52,448.07,54.42,444.18,54.42z M323.9,2.31c-1.61,0-2.8,0.86-2.67,1.92
					l5.99,45.97c0.14,1.06,1.68,1.92,3.44,1.92h112.76c1.76,0,2.9-0.87,2.54-1.92L430.44,4.22c-0.35-1.06-1.95-1.92-3.56-1.92H323.9
					z"/>
			</g>
			<g>
				<g>
					<polygon class="st0" points="340.19,14.16 325.31,14.16 324.01,4.55 338.63,4.55 					"/>
					<polygon class="st0" points="358.36,14.16 343.47,14.16 341.85,4.55 356.47,4.55 					"/>
					<polygon class="st0" points="376.52,14.16 361.64,14.16 359.68,4.55 374.31,4.55 					"/>
					<polygon class="st0" points="394.69,14.16 379.8,14.16 377.53,4.55 392.15,4.55 					"/>
					<polygon class="st0" points="412.86,14.16 397.96,14.16 395.37,4.55 409.99,4.55 					"/>
					<polygon class="st0" points="431.02,14.16 416.13,14.16 413.2,4.55 427.83,4.55 					"/>
				</g>
				<g>
					<polygon class="st0" points="342.14,26.06 326.92,26.06 325.62,16.46 340.57,16.46 					"/>
					<polygon class="st0" points="360.71,26.06 345.48,26.06 343.86,16.46 358.81,16.46 					"/>
					<polygon class="st0" points="379.28,26.06 364.05,26.06 362.1,16.46 377.06,16.46 					"/>
					<polygon class="st0" points="397.84,26.06 382.62,26.06 380.35,16.46 395.3,16.46 					"/>
					<polygon class="st0" points="416.41,26.06 401.19,26.06 398.59,16.46 413.54,16.46 					"/>
					<polygon class="st0" points="434.98,26.06 419.75,26.06 416.83,16.46 431.79,16.46 					"/>
				</g>
				<g>
					<polygon class="st0" points="344.08,37.96 328.53,37.96 327.23,28.36 342.52,28.36 					"/>
					<polygon class="st0" points="363.05,37.96 347.5,37.96 345.88,28.36 361.16,28.36 					"/>
					<polygon class="st0" points="382.02,37.96 366.47,37.96 364.52,28.36 379.8,28.36 					"/>
					<polygon class="st0" points="400.99,37.96 385.44,37.96 383.17,28.36 398.45,28.36 					"/>
					<polygon class="st0" points="419.96,37.96 404.41,37.96 401.82,28.36 417.1,28.36 					"/>
					<polygon class="st0" points="438.93,37.96 423.38,37.96 420.46,28.36 435.74,28.36 					"/>
				</g>
				<g>
					<polygon class="st0" points="346.02,49.87 330.14,49.87 328.84,40.26 344.45,40.26 					"/>
					<polygon class="st0" points="365.39,49.87 349.51,49.87 347.89,40.26 363.5,40.26 					"/>
					<polygon class="st0" points="384.77,49.87 368.89,49.87 366.94,40.26 382.55,40.26 					"/>
					<polygon class="st0" points="404.14,49.87 388.26,49.87 385.99,40.26 401.6,40.26 					"/>
					<polygon class="st0" points="423.52,49.87 407.64,49.87 405.03,40.26 420.65,40.26 					"/>
					<polygon class="st0" points="442.89,49.87 427.01,49.87 424.09,40.26 439.7,40.26 					"/>
				</g>
			</g>
		</g>
	</g>
	<g>
		<path class="st0" d="M85.22,329.08c11.67,0,21.23-9.55,21.23-21.23V294c0-11.67-9.55-21.23-21.23-21.23H54.38v56.31H85.22z"/>
		<g>
			<rect x="30.83" y="282.4" class="st0" width="34.15" height="9.19"/>
			<rect x="30.83" y="310.28" class="st0" width="34.15" height="9.18"/>
		</g>
	</g>
</g>
</svg>
