<?xml version="1.0" encoding="utf-8"?>
<!-- Generator: Adobe Illustrator 28.0.0, SVG Export Plug-In . SVG Version: 6.00 Build 0)  -->
<svg version="1.1" id="Layer_1" xmlns="http://www.w3.org/2000/svg" xmlns:xlink="http://www.w3.org/1999/xlink" x="0px" y="0px"
	 viewBox="0 0 500 500" style="enable-background:new 0 0 500 500;" xml:space="preserve">
<style type="text/css">
	.st0{fill:#86C440;}
	.st1{fill:#F6921E;}
	.st2{fill:#497235;}
	.st3{fill:#2E67B1;}
</style>
<g id="XMLID_3058_">
	<path id="XMLID_1578_" class="st0" d="M359.1,164.82c33.23,1.05,32.69,16.83,31.79,21.5c-0.5,0-1.06-0.02-1.68-0.06
		c-0.61-0.04-1.27-0.1-1.97-0.2c-0.7-0.09-1.43-0.22-2.18-0.38c-0.75-0.17-1.53-0.36-2.3-0.6c-0.78-0.23-1.55-0.52-2.32-0.83
		c-0.38-0.16-0.76-0.33-1.14-0.5c-0.37-0.19-0.75-0.36-1.1-0.56c-0.72-0.39-1.42-0.8-2.07-1.24c-0.65-0.43-1.26-0.9-1.82-1.35
		c-0.27-0.24-0.55-0.46-0.8-0.69c-0.25-0.23-0.49-0.46-0.72-0.68c-0.23-0.22-0.43-0.45-0.64-0.65c-0.2-0.21-0.4-0.41-0.56-0.61
		c-0.33-0.4-0.64-0.73-0.87-1.03c-0.46-0.6-0.72-0.94-0.72-0.94s0.21,0.37,0.59,1.03c0.18,0.33,0.45,0.7,0.73,1.15
		c0.14,0.23,0.31,0.45,0.48,0.69c0.18,0.24,0.35,0.5,0.56,0.75c0.21,0.25,0.42,0.52,0.64,0.79c0.23,0.27,0.48,0.53,0.73,0.81
		c0.51,0.55,1.07,1.11,1.69,1.65c0.61,0.55,1.28,1.08,1.98,1.59c0.35,0.26,0.72,0.49,1.08,0.74c0.37,0.24,0.75,0.47,1.13,0.69
		c0.77,0.44,1.56,0.86,2.36,1.22c0.79,0.37,1.6,0.69,2.39,0.98c0.79,0.28,1.56,0.53,2.31,0.73c0.38,0.1,0.75,0.2,1.1,0.28
		C382.19,191.37,369.26,192.76,359.1,164.82z"/>
	<path id="XMLID_1577_" class="st0" d="M436.37,140.94c-2.03,48.24-24.93,47.22-31.7,45.84c0.01-0.72,0.05-1.54,0.11-2.43
		c0.07-0.88,0.17-1.84,0.32-2.85c0.14-1.01,0.35-2.07,0.58-3.16c0.26-1.09,0.54-2.21,0.91-3.33c0.35-1.13,0.78-2.25,1.24-3.36
		c0.24-0.55,0.49-1.1,0.75-1.64c0.28-0.53,0.53-1.08,0.82-1.59c0.57-1.04,1.19-2.05,1.84-2.98c0.64-0.94,1.32-1.82,1.99-2.62
		c0.35-0.39,0.67-0.79,1.01-1.16c0.34-0.36,0.68-0.7,1-1.04c0.32-0.34,0.65-0.62,0.96-0.92c0.31-0.29,0.59-0.57,0.89-0.81
		c0.58-0.48,1.07-0.92,1.51-1.24c0.87-0.65,1.37-1.02,1.37-1.02s-0.54,0.3-1.5,0.83c-0.48,0.26-1.03,0.64-1.68,1.04
		c-0.33,0.2-0.65,0.44-1,0.69c-0.35,0.25-0.73,0.5-1.1,0.8c-0.37,0.29-0.76,0.6-1.16,0.92c-0.39,0.33-0.78,0.68-1.19,1.04
		c-0.8,0.73-1.63,1.54-2.42,2.43c-0.81,0.88-1.59,1.84-2.34,2.86c-0.39,0.5-0.73,1.04-1.1,1.56c-0.35,0.54-0.69,1.08-1.03,1.63
		c-0.65,1.11-1.27,2.25-1.8,3.4c-0.55,1.15-1.02,2.31-1.46,3.45c-0.41,1.14-0.79,2.26-1.09,3.34c-0.16,0.55-0.3,1.08-0.43,1.6
		C397.47,174.07,395.64,155.27,436.37,140.94z"/>
	<path id="XMLID_1631_" class="st0" d="M142.02,164.82c-33.23,1.05-32.69,16.83-31.79,21.5c0.5,0,1.06-0.02,1.68-0.06
		c0.61-0.04,1.27-0.1,1.97-0.2c0.7-0.09,1.43-0.22,2.18-0.38c0.75-0.17,1.53-0.36,2.3-0.6c0.78-0.23,1.55-0.52,2.32-0.83
		c0.38-0.16,0.76-0.33,1.14-0.5c0.37-0.19,0.75-0.36,1.1-0.56c0.72-0.39,1.42-0.8,2.07-1.24c0.65-0.43,1.26-0.9,1.82-1.35
		c0.27-0.24,0.55-0.46,0.8-0.69c0.25-0.23,0.49-0.46,0.72-0.68c0.23-0.22,0.43-0.45,0.64-0.65c0.2-0.21,0.4-0.41,0.56-0.61
		c0.33-0.4,0.64-0.73,0.87-1.03c0.46-0.6,0.72-0.94,0.72-0.94s-0.21,0.37-0.59,1.03c-0.18,0.33-0.45,0.7-0.73,1.15
		c-0.14,0.23-0.31,0.45-0.48,0.69c-0.18,0.24-0.35,0.5-0.56,0.75c-0.21,0.25-0.42,0.52-0.64,0.79c-0.23,0.27-0.48,0.53-0.73,0.81
		c-0.51,0.55-1.07,1.11-1.69,1.65c-0.61,0.55-1.28,1.08-1.98,1.59c-0.35,0.26-0.72,0.49-1.08,0.74c-0.37,0.24-0.75,0.47-1.13,0.69
		c-0.77,0.44-1.56,0.86-2.36,1.22c-0.79,0.37-1.6,0.69-2.39,0.98c-0.79,0.28-1.56,0.53-2.31,0.73c-0.38,0.1-0.75,0.2-1.1,0.28
		C118.93,191.37,131.86,192.76,142.02,164.82z"/>
	<path id="XMLID_1606_" class="st0" d="M64.75,140.94c2.03,48.24,24.93,47.22,31.7,45.84c-0.01-0.72-0.05-1.54-0.11-2.43
		c-0.07-0.88-0.17-1.84-0.32-2.85c-0.14-1.01-0.35-2.07-0.58-3.16c-0.26-1.09-0.54-2.21-0.91-3.33c-0.35-1.13-0.78-2.25-1.24-3.36
		c-0.24-0.55-0.49-1.1-0.75-1.64c-0.28-0.53-0.53-1.08-0.82-1.59c-0.57-1.04-1.19-2.05-1.84-2.98c-0.64-0.94-1.32-1.82-1.99-2.62
		c-0.35-0.39-0.67-0.79-1.01-1.16c-0.34-0.36-0.68-0.7-1-1.04c-0.32-0.34-0.65-0.62-0.96-0.92c-0.31-0.29-0.59-0.57-0.89-0.81
		c-0.58-0.48-1.07-0.92-1.51-1.24c-0.87-0.65-1.37-1.02-1.37-1.02s0.54,0.3,1.5,0.83c0.48,0.26,1.03,0.64,1.68,1.04
		c0.33,0.2,0.65,0.44,1,0.69c0.35,0.25,0.73,0.5,1.1,0.8c0.37,0.29,0.76,0.6,1.16,0.92c0.39,0.33,0.78,0.68,1.19,1.04
		c0.8,0.73,1.63,1.54,2.42,2.43c0.81,0.88,1.59,1.84,2.34,2.86c0.39,0.5,0.73,1.04,1.1,1.56c0.35,0.54,0.69,1.08,1.03,1.63
		c0.65,1.11,1.27,2.25,1.8,3.4c0.55,1.15,1.02,2.31,1.46,3.45c0.41,1.14,0.79,2.26,1.09,3.34c0.16,0.55,0.3,1.08,0.43,1.6
		C103.65,174.07,105.48,155.27,64.75,140.94z"/>
	<path id="XMLID_1633_" class="st0" d="M296.17,332.61c-41.79,7.83-38.02,27.66-35.97,33.39c0.63-0.1,1.33-0.23,2.1-0.41
		c0.76-0.17,1.59-0.38,2.45-0.63c0.87-0.25,1.76-0.56,2.68-0.9c0.92-0.36,1.86-0.75,2.79-1.21c0.94-0.44,1.86-0.96,2.77-1.5
		c0.45-0.28,0.9-0.56,1.34-0.86c0.43-0.31,0.87-0.6,1.28-0.92c0.83-0.63,1.63-1.29,2.37-1.97c0.74-0.68,1.42-1.38,2.04-2.07
		c0.3-0.35,0.61-0.69,0.88-1.02c0.27-0.34,0.53-0.68,0.78-1c0.25-0.32,0.46-0.65,0.68-0.95c0.21-0.31,0.42-0.59,0.59-0.88
		c0.34-0.57,0.67-1.05,0.89-1.47c0.46-0.84,0.72-1.32,0.72-1.32s-0.2,0.51-0.54,1.41c-0.17,0.45-0.43,0.98-0.69,1.59
		c-0.13,0.31-0.3,0.62-0.47,0.96c-0.18,0.33-0.34,0.7-0.56,1.05c-0.21,0.36-0.43,0.73-0.66,1.12c-0.23,0.38-0.5,0.77-0.76,1.17
		c-0.54,0.79-1.14,1.61-1.82,2.42c-0.67,0.81-1.41,1.62-2.2,2.4c-0.39,0.4-0.81,0.76-1.22,1.15c-0.42,0.37-0.86,0.74-1.29,1.1
		c-0.89,0.7-1.8,1.39-2.74,2c-0.93,0.63-1.89,1.18-2.82,1.7c-0.94,0.5-1.87,0.98-2.77,1.37c-0.46,0.21-0.9,0.4-1.34,0.58
		C272.19,370.68,288.8,369.92,296.17,332.61z"/>
	<path id="XMLID_1632_" class="st0" d="M179.03,312.66c13.38,67.56,45.44,61.12,54.69,57.72c-0.17-1.01-0.4-2.16-0.69-3.4
		c-0.29-1.23-0.64-2.56-1.07-3.95c-0.41-1.4-0.94-2.84-1.51-4.33c-0.6-1.48-1.24-3-2-4.5c-0.73-1.51-1.59-3-2.48-4.46
		c-0.46-0.72-0.93-1.44-1.41-2.15c-0.51-0.69-0.98-1.4-1.51-2.06c-1.04-1.34-2.12-2.63-3.24-3.8c-1.11-1.19-2.26-2.27-3.38-3.27
		c-0.57-0.48-1.12-0.97-1.67-1.41c-0.56-0.43-1.11-0.85-1.63-1.25c-0.52-0.4-1.06-0.74-1.55-1.08c-0.5-0.33-0.96-0.68-1.43-0.94
		c-0.92-0.55-1.71-1.07-2.4-1.42c-1.37-0.73-2.15-1.15-2.15-1.15s0.83,0.31,2.29,0.85c0.74,0.26,1.59,0.67,2.59,1.1
		c0.51,0.21,1.02,0.48,1.57,0.75c0.54,0.28,1.14,0.55,1.72,0.88c0.59,0.33,1.2,0.68,1.83,1.04c0.63,0.37,1.25,0.8,1.91,1.21
		c1.29,0.86,2.63,1.82,3.95,2.9c1.33,1.07,2.64,2.25,3.92,3.52c0.65,0.62,1.25,1.3,1.89,1.96c0.61,0.68,1.21,1.38,1.8,2.08
		c1.15,1.43,2.28,2.89,3.29,4.4c1.03,1.5,1.95,3.04,2.81,4.55c0.83,1.52,1.61,3.01,2.27,4.47c0.34,0.74,0.66,1.46,0.95,2.16
		C241.1,350.87,239.58,323.97,179.03,312.66z"/>
	<g id="XMLID_1034_">
		<g id="XMLID_1038_">
			<path id="XMLID_1049_" class="st1" d="M303.52,106.06l19.21-8.11l-20.56-0.78C302.86,100.06,303.31,103.03,303.52,106.06z"/>
			<path id="XMLID_1048_" class="st1" d="M293.47,141.58l20.77,6.4l-15.98-14.47C296.88,136.35,295.28,139.05,293.47,141.58z"/>
			<path id="XMLID_1047_" class="st1" d="M236.27,162.95c-3.05-0.73-5.99-1.71-8.81-2.92l-2.64,21.14L236.27,162.95z"/>
			<path id="XMLID_1046_" class="st1" d="M263.68,162.46l11.89,18.39l-2.99-21.73C269.73,160.48,266.76,161.6,263.68,162.46z"/>
			<path id="XMLID_1045_" class="st1" d="M252.14,55.29c0.44,0.03,0.88,0.06,1.32,0.09l-4.18-18.27l-3.92,18.2
				C247.59,55.17,249.86,55.15,252.14,55.29z"/>
			<path id="XMLID_1044_" class="st1" d="M288.11,71.67l8.97-17.51l-15.34,11.91C284.01,67.78,286.14,69.65,288.11,71.67z"/>
			<path id="XMLID_1043_" class="st1" d="M195.71,97.91l-19.09,0.96l17.9,7.29C194.71,103.34,195.11,100.59,195.71,97.91z"/>
			<path id="XMLID_1042_" class="st1" d="M200.56,135.03l-14.81,13.76l19.51-6.28C203.5,140.15,201.92,137.65,200.56,135.03z"/>
			<path id="XMLID_1041_" class="st1" d="M216.48,65.94l-14.77-11.18l8.68,16.44C212.29,69.3,214.33,67.55,216.48,65.94z"/>
		</g>
		<path id="XMLID_1037_" class="st1" d="M288.58,111.29c0.02-0.37,0.04-0.75,0.05-1.12c0.64-21.45-15.93-39.64-37.49-40.87
			c-21.93-1.26-40.73,15.51-41.99,37.44c-1.07,18.64,10.88,35.01,27.94,40.28c3.02,0.93,6.2,1.52,9.5,1.71
			C268.52,149.98,287.32,133.22,288.58,111.29z"/>
	</g>
	<g id="XMLID_923_">
		<path id="XMLID_946_" class="st2" d="M268.99,460.13l0.06-9.49l-5.56-0.03l-0.06,9.49c-0.01,1.53,1.23,2.79,2.76,2.8
			C267.73,462.9,268.98,461.66,268.99,460.13z M234.83,459.93l0.06-9.49l-5.56-0.03l-0.06,9.49c-0.01,1.53,1.23,2.79,2.76,2.8
			C233.57,462.7,234.82,461.46,234.83,459.93z"/>
		<g id="XMLID_924_">
			<path id="XMLID_943_" class="st2" d="M277.63,416.75c0.01-1.33-0.4-2.62-1.17-3.7l-16.82-23.75c-0.83-1.17-1.47-2.46-1.91-3.81
				l-4.61-0.03l0-0.69l4.4,0.03c-0.34-1.25-0.52-2.54-0.52-3.85l0.01-1.6l-3.86-0.02l0-0.69l3.86,0.02l0.04-6.26l-14.83-0.09
				l-0.01,2.44l3.9,0.02l0,0.69l-3.89-0.02l-0.03,5.42c0,0.07-0.01,0.13-0.01,0.2l3.79,0.02l0,0.69l-3.81-0.02
				c-0.18,2.67-1.11,5.25-2.69,7.43l-17.09,23.55c-0.78,1.07-1.2,2.36-1.21,3.69l-0.09,14.72c-0.01,1.02,0.81,1.85,1.83,1.85
				l5.66,0.03l-0.1,17.26l7.31,0.04l0.1-17.26l26.85,0.16l-0.1,17.26l7.31,0.04l0.1-17.26l5.66,0.03c1.02,0.01,1.85-0.81,1.85-1.83
				L277.63,416.75z M253.95,414.78l-3.55-0.02l2.31,9.35l-7.84-12.69l4.26,0.02l-2.54-9.83L253.95,414.78z"/>
		</g>
	</g>
	<g id="XMLID_836_">
		<path id="XMLID_837_" class="st3" d="M418.77,231.26h-77.45l12.37,37.62h100.47L418.77,231.26z M156,268.87h90.68v-37.62h-78.31
			L156,268.87z M412.96,225.08l-27.86-29.61h-55.55l9.74,29.61H412.96z M254.44,231.26v37.62h90.68l-12.37-37.62H254.44z
			 M171.57,195.47h-55.55l-27.86,29.61h73.67L171.57,195.47z M82.35,231.26l-35.38,37.62h100.47l12.37-37.62H82.35z M170.4,225.08
			h76.28v-29.61h-66.54L170.4,225.08z M320.99,195.47h-66.54v29.61h76.28L320.99,195.47z"/>
	</g>
	<polygon id="XMLID_835_" class="st2" points="407.55,195.47 391.54,195.47 396.43,200.49 466.72,274.83 255.77,274.83 
		244.23,274.83 33.28,274.83 103.56,200.5 108.52,195.47 92.45,195.47 6.5,286.36 244.23,286.36 244.23,368.67 255.77,368.67 
		255.77,286.36 493.5,286.36 	"/>
</g>
</svg>
