<svg version="1.2" xmlns="http://www.w3.org/2000/svg" viewBox="0 0 242 487" width="242" height="487">
	<title>testimonial-left-shape-svg</title>
	<style>
		.s0 { fill: #ee913e } 
	</style>
	<g id="Layer" style="opacity: .2">
		<path id="Layer" class="s0" d="m366.6 246c0 68.5-55.5 124-124 124-68.4 0-124-55.5-124-124 0-68.5 55.5-124 124-124 68.5 0 124 55.5 124 124z"/>
		<path id="Layer" class="s0" d="m242.6 91.3c23.7 0 42.9-0.5 42.9-25.7 0-25.2-42.9-65.6-42.9-65.6 0 0-42.8 40.4-42.8 65.6 0 25.2 19.2 25.7 42.8 25.7zm-151.3 153.1c0-23.7-0.5-42.8-25.8-42.8-25.2 0-65.5 42.8-65.5 42.8 0 0 40.4 42.8 65.6 42.8 25.2 0 25.7-19.1 25.7-42.8zm153.1 151.3c-23.7 0-42.8 0.5-42.8 25.7 0 25.2 42.8 65.6 42.8 65.6 0 0 42.8-40.4 42.8-65.6 0-25.2-19.1-25.7-42.8-25.7zm177.1-195.9c-25.2 0-25.7 19.1-25.7 42.8 0 23.7 0.5 42.8 25.7 42.8 25.2 0 65.5-42.8 65.5-42.8 0 0-40.3-42.8-65.5-42.8zm-286.2-63.3c16.7-16.8 29.9-30.7 12.1-48.5-17.8-17.8-76.7-16.1-76.7-16.1 0 0-1.7 58.9 16.1 76.7 17.8 17.8 31.7 4.6 48.5-12.1zm263.7 10.9c17.8-17.9 16.1-76.7 16.1-76.7 0 0-58.8-1.7-76.7 16.1-17.8 17.8-4.6 31.7 12.2 48.4 16.7 16.8 30.6 30 48.4 12.2zm-310.9 192.3c-17.9 17.8-16.1 76.6-16.1 76.6 0 0 58.8 1.8 76.6-16.1 17.8-17.8 4.6-31.7-12.1-48.4-16.7-16.7-30.6-30-48.5-12.1zm263.8 10.9c-16.7 16.7-30 30.6-12.1 48.4 17.8 17.8 76.6 16.1 76.6 16.1 0 0 1.8-58.8-16.1-76.6-17.8-17.9-31.7-4.7-48.4 12.1z"/>
	</g>
</svg>