<?xml version="1.0" encoding="utf-8"?>
<!-- Generator: Adobe Illustrator 27.5.0, SVG Export Plug-In . SVG Version: 6.00 Build 0)  -->
<svg version="1.1" id="Layer_1" xmlns="http://www.w3.org/2000/svg" xmlns:xlink="http://www.w3.org/1999/xlink" x="0px" y="0px"
	 viewBox="0 0 500 500" style="enable-background:new 0 0 500 500;" xml:space="preserve">
<style type="text/css">
	.st0{fill:#F68620;}
	.st1{fill:#FF0000;}
</style>
<g>
	<path class="st0" d="M485.7,473c-2.8,0.1-5.7,0-8.5,0c-4.1-0.1-8.3-0.1-12.4,0.2c-2.2,0.1-4.9,0.1-6.8-1.8c-2-1.8-2.2-4.7-2.2-7.3
		c0.1-28.2,0.1-56.9,0.1-84.6v-57.4c0-3.9-0.9-6.8-3-9.6c-24.8-32.9-47.1-62.6-68.1-90.8c-2.6-3.4-5.4-4.8-9.8-4.8
		c-23.3,0.2-47.1,0.1-70,0.1h-12c-0.5,0-1,0-1.5,0.1c-1.5,0.1-3,0.3-4.3-0.5l-2.9-1.6l30.9-30.9l0.6,5.1c0.5,3.8,0.9,6.8,1.6,7.4
		c0.8,0.7,4,0.5,8.3,0.3h0.3c1.9-0.1,1.9-0.2,1.8-1.6v-12.5c0-5.2,0-10.7-0.1-16c-0.1-3.5-2-5.5-5.3-5.6c-7.3-0.1-14.8-0.1-22-0.1
		h-6.9c-0.2,0-0.8,0-1.2,0.1c0,1.1-0.2,2.2-0.3,3.3c-0.3,3.1-0.6,6,0.5,8.2c0.2,0.4,1.1,0.4,3.1,0.2c1.4-0.1,2.9-0.3,4.4,0
		c0.8,0.2,1.3,0.6,1.6,0.9l0.1,0.1l1.3,0.9l-0.3,1.5c-0.3,2-1.7,3.1-2.5,3.9c-0.2,0.2-0.4,0.3-0.6,0.5l-9.1,9.1
		c-6.3,6.3-12.8,12.8-19.1,19.3c-1.4,1.5-3.2,3-5.5,3s-4.1-1.5-5.5-3c-18.9-19.1-39.7-40-63.6-63.6c-3.2-3.2-3.8-6.3-2-10.2
		c4.4-9.5,6-20,4.7-31.4c-3.8-33.3-33.2-57.4-66.8-54.8c-31.1,2.4-56.5,29.2-56.5,59.8c0,4.1-1.6,6.6-5.4,8.3
		c-8.5,3.8-15.1,9.6-19.6,17.1c-1.8,3-4.4,4.7-6.9,6c-12.3,6.4-18.7,20.2-15.5,33.4c3.3,13.7,15,23,29.1,23c19.4,0.1,39,0,58.1,0
		h5.4c13.8,0,24.3-7.4,28.9-20.2c1.3-3.6,3.3-5.6,6.9-6.7c9.4-3,16.9-7.4,22.8-13.5c1.2-1.2,3-2.9,5.4-2.9s4.2,1.6,5.8,3.1
		c12,12.1,24.2,24.3,36,36.1c5.7,5.6,11.3,11.3,17,17c0.1,0.1,0.3,0.2,0.4,0.4c0.8,0.7,2.3,1.9,2.2,4.3v1.5l-1.3,0.7
		c-1.9,1-3.8,0.8-5.3,0.7c-0.4,0-0.8-0.1-1.2-0.1h-19.8c-30.6,0-62.2,0.1-93.2-0.1c-5.2-0.1-8.4,1.5-11.4,5.6
		c-24.9,33.5-45.5,61-64.9,86.4c-4,5.3-5.7,10.4-5.7,17.2c0.2,26.4,0.2,53.3,0.2,79.2c0,19.4,0,39.5,0.1,59.3c0,2.3-0.2,4.9-2.1,6.7
		c-1.8,1.7-4.4,1.8-6.5,1.7c-3.8-0.2-7.7-0.2-11.5-0.1c-3.1,0-6.3,0.1-9.5,0c-2-0.1-2.4,0.4-2.5,0.4c0,0-0.3,0.4-0.2,2
		c0.1,1.1,0.1,2.1,0.1,3.1v1.2c0,2.1,0,4.3,0.3,4.9c0.6,0.2,2.8,0.2,4.9,0.2h461.6c2,0,3.7,0.1,5.1,0.1c1.5,0.1,3.1,0.1,3.8,0
		c0.2-0.8,0.2-2.9,0.2-5v-4.8c0-1.4-0.3-1.7-0.3-1.7C487.6,473.2,487.3,472.9,485.7,473L485.7,473z M139.9,168.4
		c-1.3,9.9-8.2,16.1-18.3,16.5c-3.1,0.1-6.2,0.2-9.3,0.2H80.4c-7.1,0-14.4,0.1-21.6-0.1c-6.7-0.2-12.5-3.1-15.9-8
		c-3.2-4.6-3.9-10.4-2-15.9c2-5.7,6.1-9.6,11.8-11.2c3.1-0.9,5-2.5,6.5-5.5C65.5,131.7,76,125,89.8,125s24.4,6.7,30.6,19.4
		c1.4,2.8,3.2,4.4,6.1,5.4C135.6,152.5,141,160.3,139.9,168.4z M186.2,123.7c-0.4,1.4-1.1,4.1-3.5,4.7c-2.3,0.6-4.2-1.4-5.3-2.5
		c-3.9-4-7.9-7.9-11.7-11.8c-4-4-8.2-8.2-12.2-12.3c-1.4-1.4-1.9-1.5-1.9-1.5s-0.5,0-1.7,1.2l-0.4,0.4c-3,3-5.3,5.4-5.3,6.4
		c0,1.1,2.5,3.6,5.7,6.7l6.3,6.3c5.2,5.2,10.6,10.7,16,15.9c1.9,1.9,2.8,3.6,2.7,5.5c-0.1,1.8-1.1,3.3-3.1,4.8
		c-0.7,0.6-1.5,1.1-2.2,1.7c-1.8,1.4-3.6,2.8-5.6,4c-4.1,2.5-6.7,3.9-8.9,3.9c-2.8,0-4.9-2.3-8.4-7.4c-2-2.9-4.5-6.1-7.9-7.8
		c-5.8-2.8-9.4-7.1-12.5-11.2c-7.7-10.4-18.5-16.3-32.1-17.7c-2.2-0.2-6.3-0.6-5.9-6.4c2.2-25.8,24-46,49.8-46h0.2
		c15.6,0.1,30,7.3,39.5,19.8C187.3,93,190.4,108.8,186.2,123.7L186.2,123.7z M378,236.3c2.3,0,4,1.8,5.3,3.6
		c10,13.5,20.3,27.2,30.2,40.4c6.1,8.1,12.2,16.2,18.3,24.4l0.5,0.5c0.9,0.9,3.1,3.1,1.3,6c-1.4,2.2-3.9,1.9-5.1,1.8
		c-0.3,0-0.5-0.1-0.8-0.1h-99.4c-0.2,0-0.5,0-0.7,0.1c-0.4,0-0.8,0.1-1.3,0.1c-1.3,0-2.8-0.3-3.8-2c-1.7-2.9,0.5-5.1,1.4-6l0.5-0.5
		c6.1-8.2,12.2-16.3,18.3-24.4c9.9-13.2,20.1-26.9,30.2-40.3C374,238.1,375.7,236.3,378,236.3z M307.5,241.5
		c0.2-0.2,0.4-0.4,0.4-0.5c8.5-11.9,9.2-12.4,23.7-12.4h24.3c0.1,0,0.4,0,0.6-0.1c1.1-0.1,3.9-0.5,5.2,2.3c1.1,2.4-0.6,4.2-1.3,5
		c-0.1,0.2-0.3,0.3-0.4,0.5c-8.5,12.2-9.2,12.5-24,12.6h-23.9c-0.2,0-0.5,0-0.7,0.1c-0.3,0-0.8,0.1-1.3,0.1c-1.2,0-2.8-0.3-3.8-1.9
		C304.7,244.5,306.8,242.3,307.5,241.5L307.5,241.5z M307.9,260.7h25c1.2,0,4.1,0,5.1,2.2s-0.7,4.3-1.4,5.1
		c-0.2,0.2-0.3,0.4-0.5,0.7c-8.6,12-9.2,12.3-24.1,12.3h-25.9c-2.1,0-3.5-0.9-4-2.7c-0.5-1.6,0.4-2.9,0.9-3.8
		c0.1-0.2,0.3-0.4,0.3-0.6c0.2-0.4,0.4-0.6,0.5-0.8C292.4,261.1,293.1,260.7,307.9,260.7L307.9,260.7z M243.4,241.8l0.4-0.4
		c8.6-12.3,9.2-12.7,24-12.6h25.4c1,0,3.7,0,4.7,2.1c1.1,2.1-0.6,4.3-1.2,5.1c-2.4,3.1-5,6.5-7.4,9.9c-2,2.8-4.8,3.2-7.2,3.2h-35
		c-0.3,0-0.6,0.1-1.1,0.1c-1.2,0-2.9-0.3-3.8-2.3C241,244.4,242.7,242.6,243.4,241.8L243.4,241.8z M244.2,260.7
		c1.4,0.3,3.1,0.2,4.8,0.1c0.9,0,1.8-0.1,2.7-0.1h17.4c1,0,3.7,0,4.8,2.1c1.1,2.1-0.6,4.3-1.2,5.1c-2.3,3-5,6.4-7.4,9.9
		c-2.1,2.9-4.9,3.3-7.3,3.3h-34.9c-0.3,0-0.6,0.1-1.1,0.1c-1.2,0-2.9-0.3-3.8-2.2c-1.2-2.4,0.5-4.2,1.1-4.9c0.1-0.1,0.3-0.3,0.3-0.4
		c0.1-0.2,0.2-0.3,0.3-0.4C225.4,262.7,233.6,258.6,244.2,260.7L244.2,260.7z M183.9,281.2c-5.3-0.7-10.6-0.5-16.2-0.4
		c-2.6,0.1-5.3,0.2-7.9,0.2h-0.6c-1.1,0.1-3.5,0.4-4.8-1.8c-1.7-2.7,0.4-4.9,1.1-5.7c0.2-0.2,0.3-0.4,0.4-0.5
		c8.5-12,9.2-12.4,24.1-12.4h25c0.9-0.1,3.7-0.4,4.9,2.3c1,2.3-0.5,4.1-1.2,4.8c-0.1,0.2-0.3,0.4-0.4,0.4c-0.1,0.1-0.2,0.3-0.3,0.4
		c-4.5,8.6-11.1,12.8-20,12.8C186.8,281.5,185.4,281.4,183.9,281.2L183.9,281.2z M184.5,300.1l-0.2,0.2c-0.1,0.2-0.3,0.4-0.4,0.5
		c-4.2,8.4-10.7,12.6-19.9,12.6c-1.3,0-2.6-0.1-4-0.2c-5.4-0.6-11.1-0.5-16.6-0.3c-2.6,0.1-5.4,0.1-8.1,0.1h-0.2
		c-1.3,0-3.3,0-4.5-1.4c-0.9-1.1-1.6-3,0.5-5.4c0.1-0.1,0.2-0.2,0.3-0.4c0.2-0.3,0.3-0.5,0.5-0.6c8.6-12.1,9.2-12.4,24.1-12.4h24.9
		c1.1,0,4-0.1,5,2.2C187,297.1,185.2,299.3,184.5,300.1L184.5,300.1z M195.6,305.5c0.2-0.2,0.4-0.4,0.4-0.5
		c8.5-12,9.2-12.4,23.9-12.4h23.6c0.2,0,0.5,0,0.8-0.1c1.3-0.2,4.2-0.6,5.5,2.3c1.1,2.4-0.6,4.2-1.3,5c-0.2,0.2-0.4,0.4-0.5,0.6
		c-4.5,8.6-11,12.9-20,12.9c-1.3,0-2.8-0.1-4.2-0.3c-5.1-0.7-10.3-0.5-15.7-0.3c-2.6,0.1-5.2,0.1-7.8,0.1c-0.3,0-0.5,0-0.7,0.1
		c-1.2,0.1-3.7,0.4-5.1-1.9C192.8,308.5,194.8,306.3,195.6,305.5L195.6,305.5z M179.6,241.5c0.2-0.2,0.4-0.4,0.4-0.5
		c8.5-12,9.2-12.4,23.9-12.4h23.6c0.2,0,0.5,0,0.8-0.1c1.3-0.2,4.2-0.6,5.5,2.3c1.1,2.4-0.6,4.2-1.3,5c-0.2,0.2-0.4,0.4-0.5,0.6
		c-4.5,8.6-11,12.9-20,12.9c-1.3,0-2.8-0.1-4.2-0.3c-5.1-0.7-10.3-0.5-15.7-0.3c-2.6,0.1-5.2,0.1-7.8,0.1c-0.3,0-0.5,0-0.7,0.1
		c-1.2,0.1-3.7,0.4-5.1-1.9C176.8,244.5,178.8,242.3,179.6,241.5L179.6,241.5z M115.3,241.9c0.1-0.2,0.3-0.4,0.4-0.4
		c0.1-0.1,0.2-0.3,0.3-0.4c5.2-9.9,13.1-13.9,24.2-12.5c5.3,0.7,10.6,0.5,16.2,0.4c2.6-0.1,5.2-0.2,7.9-0.1h0.6
		c1.1-0.1,3.5-0.4,4.8,1.8c1.7,2.7-0.4,4.9-1.1,5.7c-0.2,0.2-0.3,0.4-0.4,0.5c-8.6,12.1-9.3,12.4-24.1,12.4h-25
		c-0.2,0-0.6,0.1-1,0.1c-1.2,0-3-0.3-3.9-2.4C113.1,244.3,114.7,242.6,115.3,241.9z M91.6,273.5c0.2-0.2,0.4-0.4,0.4-0.5
		c8.6-12,9.2-12.4,24.1-12.4h12.3c3.7,0,7.5,0,11.2,0.1c0.2,0,0.5,0,0.8-0.1c1.2-0.2,4.2-0.5,5.5,2.3c1.1,2.4-0.6,4.2-1.3,5
		c-0.2,0.2-0.4,0.4-0.5,0.6c-4.5,8.7-11,12.9-20.1,12.9c-1.4,0-2.8-0.1-4.2-0.3c-5.1-0.7-10.3-0.5-15.7-0.3
		c-2.6,0.1-5.2,0.2-7.8,0.1c-0.2,0-0.5,0-0.7,0.1c-1.2,0.1-3.7,0.4-5.1-1.8C88.7,276.5,90.8,274.3,91.6,273.5L91.6,273.5z
		 M67.4,305.8c0.1-0.1,0.3-0.4,0.4-0.5c5.1-10.5,13.5-14.8,24.8-12.7c1.3,0.2,2.7,0.2,4.2,0.1c0.8,0,1.6-0.1,2.3-0.1h16.5
		c0.2,0,0.5,0,0.8-0.1c1.2-0.2,4.2-0.6,5.5,2.3c1.1,2.4-0.6,4.2-1.3,5c-0.2,0.2-0.4,0.4-0.5,0.6c-4.5,8.7-11.1,12.9-20,12.9
		c-1.4,0-2.8-0.1-4.2-0.3c-5.1-0.7-10.3-0.5-15.8-0.4c-2.6,0.1-5.2,0.2-7.8,0.1c-0.3,0-0.5,0-0.7,0.1c-1.2,0.1-3.7,0.4-5.1-1.8
		C64.8,308.6,66.7,306.5,67.4,305.8z M300.3,465c0,2-0.2,4.5-1.9,6.2c-1.7,1.7-4.2,1.9-6.3,1.9c-29.3-0.1-59.2-0.1-88-0.1h-54
		c-28,0-57,0-85.4,0.1h-0.1c-2.3,0-4.9-0.3-6.6-2c-1.8-1.8-2-4.5-2-6.6c0.2-42.3,0.2-86.6,0-131.5c0-2.1,0.2-4.7,2-6.4
		c1.7-1.7,4.2-2,6.5-2h0.1c74.2,0.1,150.8,0.1,227.5,0h0.1c2.3,0,4.8,0.2,6.5,2c1.8,1.8,2,4.3,2,6.4
		C300.1,375.4,300.1,418.5,300.3,465L300.3,465z M292.1,313.5c-1.3,0-2.7-0.1-4.2-0.3c-5.3-0.7-10.6-0.5-16.2-0.4
		c-2.6,0.1-5.2,0.2-7.9,0.1h-0.6c-1.1,0.1-3.4,0.3-4.8-1.8c-1.7-2.8,0.4-5,1.1-5.7c0.2-0.2,0.3-0.4,0.4-0.5
		c8.6-12.1,9.3-12.4,24.1-12.4h24.9c1.1,0,3.9-0.1,5,2.2c1.1,2.3-0.8,4.5-1.5,5.3l-0.1,0.2l-0.2,0.2
		C307.6,309.2,301.1,313.5,292.1,313.5L292.1,313.5z M412.3,461c0,1.3-0.1,2.4-0.1,3.4c-0.1,7.5-1.3,8.6-8.7,8.5h-33.3
		c-5.9,0-12-0.1-18,0.1h-0.8c-2,0-4.2-0.3-5.8-1.9c-1.8-1.8-1.9-4.4-1.8-6.3c0-1.3,0.1-2.5,0.1-3.5c0.1-7.7,1.3-8.9,8.8-8.7h22.8
		c9.3,0,18.8,0,28.3-0.1c2.3,0,5,0.2,6.8,2C412.2,456.5,412.3,459.2,412.3,461z M351.8,379.8c0-1.5,0.2-3.8,1.7-5.4
		c1.6-1.6,3.9-1.8,5.5-1.7c14.7,0.2,26.8,0.2,37.9,0c1.6,0,3.9,0.1,5.5,1.8c1.6,1.6,1.8,3.9,1.8,5.9c-0.1,6.4-0.1,12.9-0.1,19.2V415
		c0,6.1-0.1,12.5,0.1,18.7c0,1.6-0.1,3.9-1.7,5.6c-1.5,1.6-3.7,1.8-5.5,1.8h-0.3c-12.4-0.2-25-0.2-37.4,0c-1.8,0-4.1-0.2-5.7-1.8
		c-1.6-1.6-1.8-4-1.8-5.6C352,416.8,352,399.1,351.8,379.8L351.8,379.8z M444.2,381.6v33.6c0,16.1-0.1,32.7,0.1,49.1
		c0,2.4-0.2,5.2-2.1,7c-1.6,1.6-3.9,1.9-5.8,1.9h-0.8c-1.3-0.1-2.4-0.1-3.4-0.1c-7.3-0.2-8.4-1.3-8.3-8.8v-5.4
		c0-2.7-0.1-5.4,0.1-8.2c0.3-5.9-0.9-8.3-4.7-9.7c-3.8-1.4-3.5-4.9-3.4-6.6c0-0.3,0.1-0.6,0.1-1V370c0-7.4-1.3-8.8-8.8-8.8h-59
		c-6.5,0-8,1.5-8,8v63.5c0,3.1,0,7.3-5.3,9.4c-1.8,0.7-2.7,2.6-2.7,5.5v18.9c0,2.2-0.5,3.8-1.6,5c-1.1,1.1-2.8,1.7-5,1.7h-3.9
		c-4.6,0-6.9,0-8.5-1.6c-1.5-1.6-1.4-3.6-1.3-6.9c0-1.2,0.1-2.7,0.1-4.4v-53c0-24.1,0-49-0.1-73.4c0-2.4,0.2-5.1,2.1-6.9
		c1.8-1.8,4.5-2.1,6.9-2c37.2,0.2,75.8,0.2,114.9,0c2.2,0,4.8,0.2,6.6,2c1.8,1.8,2,4.4,2,6.8C444.1,349.4,444.1,365.8,444.2,381.6
		L444.2,381.6z"/>
	<path class="st1" d="M178,473"/>
	<path class="st0" d="M392.7,172.9c16.2,0.4,32.5-6.2,44.6-18.2c12-11.9,18.8-27.7,18.6-43.5c-0.4-34.8-27.3-62.1-61.1-62.2h-0.1
		c-35,0-62.5,27-62.6,61.5C332.1,144,359.3,172,392.7,172.9z M401.1,89.2l1,0.5c1.9,1,3.6,1.9,5.5,2.6c3.2,1.1,6.2,0.1,7.7-2.7
		c1.5-2.9,0.5-6.1-2.5-8c-1.8-1.2-3.8-2.1-5.9-3.1c-0.6-0.3-1.2-0.6-1.9-0.9c-2.2-1.1-4.1-3.4-5-6.1c-0.8-2.5-0.7-4.9,0.3-6.9
		c2.1-4,5.9-2.4,7.1-1.9L408,63c17.3,5.6,28.7,17.1,33.9,34.4c0.9,3.1,1.4,6.3,1.7,8.9c0.1,1,0.2,1.8,0.4,2.6v0.4
		c-0.1,22.1-13.6,41.6-33.7,48.5c-0.3,0.1-0.8,0.3-1.2,0.6c-0.9,0.5-2.6,1.3-4.3,1.3c-1.5,0-3.1-0.6-4.4-2.8c-1.1-1.8-1.3-4-0.7-6.3
		c0.8-2.8,2.8-5.4,5.3-6.7c7.5-3.9,11-9.7,10.8-17.9c-0.2-7.4-3.6-12.7-10.3-16.3c-3.3-1.8-6.7-3.4-10-5.1l-6-3
		c-1.9-1-6.5-3.3-5.1-8.5c0.9-3.4,3.7-5.4,8.1-5.7C395.8,87.4,398.6,87.9,401.1,89.2z M379.4,63.2c2.9-0.9,5.2-1.5,7-0.2
		s1.8,3.7,1.8,6.5c0.6,3.6-1.1,6.4-5.1,8.2c-7.1,3.3-10.8,8.9-10.9,16.7c-0.2,8,3.3,13.7,10.6,17.5c3.3,1.8,6.7,3.5,10.1,5.1
		c1.8,0.9,3.7,1.8,5.5,2.7c2.1,1.1,6.5,3.3,5.3,8.3c-0.8,3.7-3.7,5.7-8.5,6c-3.1,0.2-5.9-0.4-8.5-1.8l-0.9-0.5
		c-1.9-1-3.7-1.9-5.5-2.6c-3.1-1-6.2,0.2-7.5,2.9c-1.4,2.9-0.4,5.9,2.4,7.7c2.2,1.4,4.6,2.5,7.1,3.7l1.5,0.7
		c1.4,0.6,3.9,1.9,4.4,5.4s0.8,6.7-1.4,8.5c-0.9,0.7-2,1-3.1,1c-1.7,0-3.6-0.6-5.5-1.2c-20.9-7.3-33.9-25.5-34.1-47.6
		C343.9,89.3,358.7,69.3,379.4,63.2L379.4,63.2z M191.9,47.4l0.2-0.2c1-1.4,2.1-2.8,3.1-4.2c0.7-1,1.5-2,2.2-3c2.9-4,5.2-7.1,5-8.2
		c-0.2-1.1-3.5-3.2-7.6-5.9l-0.2-0.1c-0.9-0.6-1.2-0.6-1.3-0.6c0,0-0.2,0.2-0.7,0.8c-2.1,3-4.2,5.9-6.3,8.8l-3.9,5.4l-0.3,0.4
		c-0.1,0.2-0.3,0.4-0.4,0.5c1.7,1.7,7.4,6,9.6,7.1C191.5,47.9,191.7,47.6,191.9,47.4L191.9,47.4z M237.2,127.6h0.1
		c0.3,0,0.8,0.1,1.2,0.1v-0.1c1.1-4.1,2.3-8.4,1.1-11.8c-0.2-0.6-1.3-0.7-3.6-0.6c-1.1,0-2.3,0-3.4-0.1c-0.4-0.1-0.9-0.1-1.3-0.2
		c-1-0.2-1.9-0.4-2.8-0.4c-2.4-0.1-4.4-0.3-5.8-0.4c-0.9-0.1-1.9-0.2-2.4-0.2c-0.3,0.9-0.6,3.4-0.8,6.1l-0.2,2.1
		c0.2,1,0,1.9-0.1,2.7c0,0.3-0.1,0.6-0.1,0.9c0.1,0,0.3,0.1,0.5,0.1C225.2,126.3,231,127,237.2,127.6z M95.5,29.7
		c1.1,2.6,2.3,5.2,3.5,7.8c0.1,0.1,0.2,0.4,0.3,0.7c3.4-1.4,6.9-3,10.2-4.5l0.6-0.3c0-0.2-0.1-0.4-0.1-0.6l-0.8-1.8
		c-0.8-1.8-1.8-4.1-2.8-6.4c-1-2.1-1.7-3.9-2.3-5.3c-0.7-1.7-1.5-3.5-1.9-4.1c-0.6,0.2-1.9,0.8-3.2,1.4c-1.6,0.8-3.8,1.8-6.6,2.9
		c-0.2,0.1-0.3,0.2-0.5,0.2c-0.3,0.1-0.5,0.2-0.6,0.3c0,0.1,0.1,0.3,0.2,0.6C92.8,23.6,94.2,26.6,95.5,29.7z M37.5,106.2
		c3.5,0.3,7,0.7,10.6,1.1l4,0.4c0.3,0,0.5-0.1,0.8-0.1c0.7,0,1.4,0.1,2,0.2c0.2,0,0.5,0.1,0.8,0.1l0.3-1.3c1-3.9,2-7.8,0.6-10.6
		c-0.3-0.7-2.8-0.7-4.5-0.8c-1.3,0-2.6,0-3.8-0.2h-1.8c-4.8-0.4-8.6-0.8-9.4-0.1c-0.8,0.7-0.9,4.5-1,8.9v0.3
		C36,106.1,36.2,106.1,37.5,106.2z M256.5,361h-52.9c-5.7,0-7.3,1.7-7.4,7.6v60c0,6.5,1.6,8.1,7.9,8.1H256c6.2,0,7.9-1.6,7.9-7.6
		v-60.4C263.9,362.8,262.2,361,256.5,361z M207.8,385.9V382c0-4.2,0-6.4,1.6-7.9c1.5-1.5,3.5-1.5,6.9-1.4h29.5
		c2.1,0,3.7,0.5,4.8,1.6s1.7,2.7,1.6,4.8v4.1c0,4.8,0,7-1.6,8.6c-1.2,1.1-2.6,1.4-4.7,1.4h-2c-1.3,0-2.9-0.1-4.9-0.1
		c-3.9,0.1-7.8,0-11.6,0H215c-1.6,0-3.9-0.1-5.5-1.7C207.9,389.7,207.8,387.5,207.8,385.9z M250.6,423.7c-1.2,1.1-2.7,1.4-4.7,1.4
		H244c-1.2,0-2.8-0.1-4.7,0c-4.1,0.1-8.3,0.1-12.3,0h-12.2c-1.5,0-3.7-0.1-5.3-1.7c-1.2-1.2-1.7-2.9-1.7-5.2v-4.1c0-4.3,0-6.4,1.6-8
		c1.5-1.5,3.5-1.4,6.7-1.4c1.3,0,2.9,0.1,4.8,0h24.4c2.3-0.1,3.9,0.5,5.1,1.6c1.2,1.1,1.7,2.8,1.7,5v4.1
		C252.2,420,252.2,422.1,250.6,423.7L250.6,423.7z M159.9,389.8v-20.9c0-6.2-1.6-7.9-7.6-7.9H99.9c-6,0-7.6,1.6-7.6,7.9v59.9
		c0,6.2,1.6,7.8,7.6,7.9h52.4c6,0,7.6-1.6,7.6-7.9V389.8z M103.9,382.6c0-4.8,0-7,1.6-8.6c1.5-1.5,3.6-1.4,6.7-1.3
		c1.3,0,2.9,0.1,4.9,0c3.9-0.1,7.8-0.1,11.6,0h12.4c1.6,0,3.9,0.1,5.5,1.7s1.8,3.9,1.7,5.5v3.8c0,4.3,0,6.4-1.6,7.9
		c-1.5,1.5-3.6,1.5-6.9,1.4h-29.6c-2,0-3.5-0.5-4.6-1.6s-1.6-2.7-1.6-4.8C103.9,385.1,103.9,383.8,103.9,382.6z M148.2,411.8v3.8
		c0,4.3,0,6.4-1.6,8c-1.5,1.5-3.5,1.5-6.9,1.4h-29.6c-2,0-3.5-0.5-4.6-1.6s-1.6-2.7-1.6-4.8v-4.1c0-4.8,0-7,1.6-8.5
		c1.5-1.5,3.5-1.4,6.6-1.3c1.3,0,2.9,0.1,4.9,0.1c3.8-0.1,7.7,0,11.4,0c4.1,0,8.4,0,12.5-0.1c1.6,0,3.9,0.1,5.5,1.7
		C148.1,408,148.3,410.2,148.2,411.8z"/>
</g>
</svg>
