<?xml version="1.0" encoding="utf-8"?>
<!-- Generator: Adobe Illustrator 27.5.0, SVG Export Plug-In . SVG Version: 6.00 Build 0)  -->
<svg version="1.1" id="Layer_1" xmlns="http://www.w3.org/2000/svg" xmlns:xlink="http://www.w3.org/1999/xlink" x="0px" y="0px"
	 viewBox="0 0 500 500" style="enable-background:new 0 0 500 500;" xml:space="preserve">
<style type="text/css">
	.st0{fill:#F68620;}
</style>
<path class="st0" d="M434.2,268.5c-0.5,1.1-1.1,2.2-1.6,3.3c-3.5,7-5.3,11.5,0.5,17.1c2.3,2.3,2.1,6,1.9,9.7
	c-0.1,0.9-0.1,1.8-0.1,2.5c-0.1,2.1-0.3,4.1-0.5,6.1c-0.2,1.9-0.4,3.8-0.4,5.6c-0.4,22.4-1.6,23.5-24.2,23.5
	c-15,0-22.4-0.2-26.9-4.5S378,320,377.6,305c-0.4-19,1.4-21.1,19.7-22.4c3.8-0.3,4-1.7,3.8-6.3v-2.7c0.1-4.1-0.1-5.2-3.7-5.4
	c-8.6-0.5-14-1-17-4.3c-2.9-3.3-2.9-8.4-2.4-16.4c0.2-2.8-0.2-4.8-1.3-5.8c-1.1-1.1-3.1-1.6-6.2-1.5c-3.4,0.1-5.3,0.6-6.2,1.7
	c-0.9,1-1.2,2.9-0.9,5.7c0.9,7.7-0.4,13.2-3.9,16.7c-3.6,3.6-9.4,5-17.8,4.2c-7.7-0.8-14.6-1-21-0.6c-3.8,0.2-6.6-0.5-8.6-2.3
	s-3-4.4-3.2-8.1c-0.5-7.9-0.9-15.9-1.2-23.7l-0.1-1.3c-0.5-9.1,4.7-15,13.8-15.7c8.7-0.7,19-1.4,29-0.4c6.8,0.7,11.2-0.2,14-2.6
	c2.6-2.3,3.9-6.2,4.3-12.2c-1.2-0.2-2.4-0.4-3.5-0.4c-22.1,0-44.2-0.1-66.3-0.1c-43.4-0.1-88.3-0.2-132.5-0.2
	c-11,0-13.5,2.5-13.5,13.6c-0.1,16.7,0,33.6,0,49.9c0,11.1,0.1,22.2,0.1,33.3c-0.1,34.9-0.2,71-0.2,106.6c0,10.4,2.7,13.5,12.7,14.3
	c2.1,0.2,4.6,0.1,7,0c1.3,0,2.6-0.1,4-0.1c4.8,0,9.3,0.5,11.8,3.4c3.5,4.2,3.4,10.8,3.3,17.2c0,2.3-0.1,4.5,0.1,6.6
	c0.7,11,1.3,11.5,12,12.2c2.3,0.1,4.7,0.1,7.1,0.1h179.1c1.7,0,3.4,0,5.2-0.1c1.8-0.1,3.6-0.1,5.5-0.1c3.2,0,5.6-0.7,7-2.1
	s2-3.7,1.9-6.8c-0.1-3.2,0-6.4,0-9.5s0.1-6.2,0-9.3c-0.1-3.8,0.8-6.6,2.8-8.6c1.9-1.9,4.6-2.9,8.2-2.9c4.6,0.1,9.4,0,15.1-0.2
	c12.2-0.5,13.1-1.4,13.2-13.5c0.2-54.1,0.3-109,0.4-162.1c0-1.6-0.2-3.3-0.5-5C443.8,247.9,438.9,258.2,434.2,268.5L434.2,268.5z
	 M333.7,283.2c12.6-0.7,20.6-0.9,25.1,3.4s4.8,12.4,4.7,25.1c-0.1,23.2-2,24.8-28.2,24.8c-25.9,0-26.9-1-26.9-26.8
	C308.5,285.6,309.5,284.6,333.7,283.2z M308.4,371.1c0-1.5,0.1-3.2,0-4.7c-0.2-4.8,0.9-8.6,3.4-11.2c2.6-2.6,6.4-3.9,11.6-3.9h8.2
	c4.9,0,10.1-0.1,15.1,0.2c11.6,0.7,15.4,4.4,16.2,15.9c0.3,4.2,0.3,8.4,0.3,12.4c0,3.6,0,7.2,0.2,10.8c0.2,4.7-0.7,8-3,10.3
	c-2.1,2.1-5,3.1-9,3.1h-1c-2.6-0.1-5.5,0-8.2,0H338c-14.2,0.1-21.4,0.1-25.6-4.1s-4.2-11.4-4.3-25.7
	C308.3,373.2,308.3,372.2,308.4,371.1L308.4,371.1z M237.8,225.1c0.2-3.6,5-8.1,8.5-8.8c4.2-0.8,8.4-0.6,12.5-0.5
	c1.6,0.1,3.2,0.1,4.8,0.1c16.5-0.1,23,0.5,26.5,4.1c3.1,3.1,3,7.6,2.9,14.4c0,3.3-0.1,7.4,0.2,12.3c0.5,8,0.1,13.6-3.3,17.1
	c-3,3-7.6,3.9-14.7,3.9c-1.2,0-2.5,0-3.8-0.1c-2.1-0.1-4.2-0.1-6.3-0.1c-5.3-0.1-10.8-0.1-16.1-1.2c-4.1-1-9.5-6.1-10.1-10.7
	C237.7,246.8,237.3,237.1,237.8,225.1L237.8,225.1z M241.3,286.2c4.1-3.9,11-3.6,24.9-3h0.7c0.7,0,1.7,0.1,2.6,0h0.1
	c20.7-0.3,23.4,2.2,23.8,22.7c0.3,14.7,0.4,22.1-3.8,26.3c-3.7,3.8-9.9,4.1-21.6,4.1h-4.3c-23.8,0-26.5-2.7-26.5-26.2
	C237.3,296.8,237.3,290.1,241.3,286.2L241.3,286.2z M292.2,387.4c-0.2,2.8-0.4,5.7-0.5,8.5c-0.2,3.8-6.3,6.5-8.8,7
	c-4.1,0.7-8.3,1-12.4,1.2l-4.8,0.3h-0.2c-13.3-0.2-19.9-0.5-23.9-4.5s-4.2-10.5-4.2-23.7c0-22.7,2.1-24.8,24.5-24.9h0.8
	c0.6,0,1.4-0.1,2.2,0c2.2,0.2,4.7,0.1,7.4-0.1c7-0.5,15.7-1.1,18.3,7.2C293.4,367.5,292.8,377.6,292.2,387.4z M168.2,239.2
	c0.1-11.2,0.1-16.8,3.5-20.1s9-3.3,20.2-3.2c28.4,0.3,30.4,2.3,31.3,30.4v2.3c0,1.6,0.1,3.3-0.1,5.1c-0.5,5.7-2.2,9.5-5,11.9
	c-2.1,1.7-4.8,2.5-8.1,2.5c-0.8,0-1.7-0.1-2.6-0.2c-2.1-0.3-4.2-0.2-6.5-0.1c-1,0-2,0.1-3,0.1c-13.7,0.3-21.1,0.3-25.4-3.9
	C168.3,259.8,168.1,252.6,168.2,239.2L168.2,239.2z M171.1,287.3c3.4-3.5,9.2-3.7,20.6-4c14.2-0.5,22.1-0.7,26.6,3.6
	c4.4,4.3,4.5,12.1,4.6,26.4c0.1,12,0,17.5-3.2,20.6c-2.3,2.3-5.7,2.8-11.1,2.8c-1.5,0-3.1,0-4.9-0.1c-2.1,0-4.4-0.1-7-0.1
	c-13.4,0-20.8,0.1-25-4.1c-4.1-4.1-4.1-11.4-4.1-24.5C167.7,296.5,167.7,290.8,171.1,287.3L171.1,287.3z M197.5,404.1h-3.1
	c-12.2,0-18.6-0.4-22.4-4.3c-4.2-4.2-4.3-11.2-4.3-25.5c0-1.4,0-2.7,0.1-4v-4c-0.1-4.8,1.2-8.5,3.7-11c2.6-2.6,6.4-4,11.5-4h7.4
	c4.9,0,10-0.1,15,0c13,0.4,16.9,4.4,17.4,17.5c0.1,2.3,0,4.5,0,6.6v3.2c0.1,12-0.1,17.9-3.7,21.5C215.5,403.9,209.6,404,197.5,404.1
	L197.5,404.1z M393.6,438.3c-1.6,2.2-4.9,4.8-12,4.8c-18.1,0.1-36.5,0-54.3,0H219.4c-5.6,0-9.4-1.3-11.7-3.9
	c-2.1-2.5-2.8-5.9-2.1-10.6c1.2-9,8.2-10,13.4-10h161.3c4.8,0,11.4-0.1,14,7.6C396.5,432.4,395.1,436.2,393.6,438.3L393.6,438.3z
	 M433.9,391.4c-0.6,7.5-5,11.9-12,12c-4.1,0-8,0.1-11.6,0.1c-7.4,0-13.8-0.1-19.9-0.3c-7-0.2-11.4-4.9-11.8-12.4
	c-0.5-9.1-1-18.5-0.9-27.9c0-3.7,1.1-6.7,3.3-8.8c2.3-2.2,5.5-3.3,9.7-3.2c2.9,0.1,5.9,0,8.8,0h4.5c14.5-0.1,21.8-0.1,26,4.1
	s4.2,11.6,4.2,26.3C434.2,384.7,434.2,388,433.9,391.4L433.9,391.4z"/>
<path class="st0" d="M192,109.2h-1.8c-38.3,0-69.5,27.5-74.6,66c-3.4,25.7,5,47.8,24.9,65.7v-20.7c0-27.7,4.6-32.2,32.6-32.2
	c11.3,0,22.7,0,34,0.1c16.7,0,34,0.1,51,0c4.2,0,6.6-0.6,7.8-1.9c1.1-1.3,1.5-3.8,1-8C263,139.1,231.4,110.1,192,109.2L192,109.2z
	 M378.4,228.8c4.9-0.1,9.9-0.2,14.8-0.4c1.7-0.1,3.2-0.2,4.7-0.2c5.5,0,9.6,0.8,12.4,3.5c3.5,3.4,4.1,9,4,16.5
	c-0.1,8.4-0.1,17.1,0,25.4v6.7c0.6-1.1,1.1-2.2,1.7-3.3c2.9-6,5.7-11.9,8.6-17.9c6.5-13.4,13.2-27.2,19.4-40.9
	c0.4-0.8,0.7-1.6,1.1-2.4c2.3-4.9,5.4-11.7,4-14.9c-1.8-4.2-6.1-3.7-12.8-2.5c-1.7,0.3-3.4,0.6-5,0.8c-7.9,0.7-13,0.6-16.3-2.4
	c-3.2-3-3.8-8-3.8-15.7c0.1-9,0-18.1,0-27v-9.5c-13.4,28-26.9,56-40.4,84.2c0.1,0,0.1,0,0.2,0.1
	C373.5,228.9,375.9,228.9,378.4,228.8L378.4,228.8z M83.5,240.5c-4.1,4.6-8.2,9.1-12.3,13.6c6.5-1.3,13-2.6,19.6-4
	c8.4-1.7,16.9-3.4,25.8-5.3c-4.6-7.6-9.5-15.8-14.8-24.7C95.6,227.1,89.5,233.8,83.5,240.5L83.5,240.5z M103,148.1
	c1.2-0.2,2.5-1.5,3.7-3.8c1.6-3,3.1-6.1,4.5-9.1c1-2,2-4.1,3-6.1c0.8-1.5,1.1-2.8,0.8-3.4c-0.3-0.6-1.3-1.1-2.9-1.4l-24.3-4.8
	c-5.3-1.1-10.7-2.1-16-3.2l2.7,3c7.7,8.5,15.7,17.3,23.7,25.9C100,147.3,101.7,148.3,103,148.1L103,148.1z M279.9,149.8l0.3,0.4
	c10.2-11.5,19.7-22.2,28.8-32.5c-12.1,1.4-23.8,3.7-37.2,6.7c-2.3,0.5-3.8,1.4-4.3,2.5c-0.6,1.3,0.2,3.1,1,4.3
	C271.8,137,275.4,142.6,279.9,149.8L279.9,149.8z M135.6,108.3c5.7-2.9,11.1-6.4,16.9-10.1c1.2-0.8,2.3-1.5,3.5-2.3
	C143.8,85,132.8,75.3,122.2,66c0.3,1.4,0.6,2.8,0.9,4.3c2.4,11.2,4.9,22.9,7.9,34.1C131.3,105.4,134.2,107.8,135.6,108.3
	L135.6,108.3z M226,96l3.1,1.8c7,4,13.8,7.9,21.6,12.4c3.4-16.4,6.3-30.7,9-44.2C248.6,75.8,237.5,85.7,226,96L226,96z M95.8,196.3
	c1.1-0.9,1.6-2.7,1.5-5c-0.3-4.9-0.8-9.9-1.3-15.2c-0.2-1.5-0.3-3.1-0.5-4.7c-14.8,4.8-29,9.4-42.7,13.9l7.8,2.4
	c10.1,3.1,20.5,6.3,30.9,9.1C92.8,197,94.6,197.2,95.8,196.3z M203.9,85.9c-4.1-11.9-8-23.3-13-38.3c-0.4,1.2-0.9,2.5-1.3,3.7
	c-2.5,7-4.6,13-6.4,19.4c-1.3,4.7-1.9,9.7-2.5,14.5c-0.2,1.2-0.3,2.5-0.5,3.8l4.5,0.3c5.6,0.3,11.4,0.7,17,0.7
	c1.2,0,2.1-0.2,2.4-0.6C204.5,88.9,204.6,87.8,203.9,85.9z M284.6,184.3c1.4,2.3,5.6,3.5,13.1,3.9c1,0,2,0.1,3,0.1
	c3.9,0.2,8,0.4,11.6-0.1c5.2-0.7,10.4-2,15.5-3.2c0.1,0,0.2-0.1,0.4-0.1l-19.8-6.6c-7.2-2.4-14.4-4.8-21.6-7.3
	C283.9,177.8,283.2,182.1,284.6,184.3L284.6,184.3z M131.9,261.5c-0.5,0.4-1.3,1.3-1.5,1.8c-2.4,11.3-4.7,22.8-6.8,33.9
	c-0.6,2.8-1.1,5.6-1.7,8.4c1.3-1.5,2.7-3,4-4.4c4.5-4.9,9.2-9.9,12.8-15.4c4.3-6.4,4-14.2-0.8-21.6
	C137.6,263.4,136.1,262.4,131.9,261.5L131.9,261.5z"/>
</svg>
