<?xml version="1.0" encoding="utf-8"?>
<!-- Generator: Adobe Illustrator 28.0.0, SVG Export Plug-In . SVG Version: 6.00 Build 0)  -->
<svg version="1.1" id="Layer_1" xmlns="http://www.w3.org/2000/svg" xmlns:xlink="http://www.w3.org/1999/xlink" x="0px" y="0px"
	 viewBox="0 0 500 500" style="enable-background:new 0 0 500 500;" xml:space="preserve">
<style type="text/css">
	.st0{fill:#F68620;}
	.st1{fill:#F68620;stroke:#F68620;stroke-width:5;stroke-miterlimit:10;}
</style>
<g>
	<path class="st0" d="M389.19,246.23c-1.28-1.62-3.36-2.4-6.37-2.4h-216.4c-5.18,0-6.73,2.09-7.92,6.27
		c-0.64,2.49-1.3,4.97-1.98,7.5c-0.41,1.56-0.83,3.13-1.25,4.72c-6.21-8.96-13.7-15.94-22.31-20.77
		c-11.86-6.76-25.4-9.36-40.19-7.72c-19.69,2-35.37,11.03-46.61,26.87c-7.68,11.13-12.56,24.13-14.92,39.77
		c-4.32,30.58-8.58,61.3-12.69,90.96c-0.42,2.66-0.74,5.33-1.02,7.82l-0.26,2.31l2.29,0.42c2.78,0.52,5.47,0.83,8.07,1.12l2.79,0.32
		v-2.8c0-0.64,0.06-1.14,0.23-1.79l0.05-0.26c0.87-6.21,1.71-12.37,2.56-18.52c1.01-7.33,2.01-14.63,3.04-21.97
		c1.07-7.57,2.13-15.14,3.18-22.7c1.2-8.62,2.4-17.22,3.63-25.85c1.21-10.09,3.16-18.7,5.96-26.33
		c4.56-12.31,11.26-21.41,20.49-27.82c7.22-5.05,15.88-7.91,26.47-8.76c14.69-1.2,27.02,2.51,37.69,11.32
		c7.57,6.38,13.56,14.65,17.81,24.57c11,25.67,21.53,50.47,31.31,73.72c1.44,3.28,3.9,5.08,7.54,5.48
		c11.85,1.2,23.89,2.47,35.54,3.7c11.65,1.23,23.71,2.5,35.54,3.7c5.44,0.6,9.74,4.18,10.94,9.09c0.69,2.94,0.94,6.24,0.74,9.75
		c-0.43,6.18-3.66,10.32-9.57,12.29c-2.96,0.95-6.13,1.48-8.93,1.48h-88.4c-4.79,0-9.31-1.67-13.43-4.94
		c-3.47-2.81-6.25-6.48-8.73-11.56c-5.1-10.4-10.26-21.02-15.25-31.29c-4.99-10.28-10.15-20.9-15.25-31.31l-0.16-0.29
		c-0.21-0.31-0.41-0.73-0.61-1.14l-1.32-2.65l-2.2,1.01c-1.22,0.56-2.42,1.15-3.62,1.73c-1.15,0.56-2.3,1.13-3.48,1.67l-1.74,0.8
		l0.31,1.89c0.13,0.75,0.4,1.35,0.6,1.79c0.05,0.11,0.1,0.22,0.14,0.32l0.07,0.16c2.35,4.85,4.73,9.73,7.1,14.61
		c2.37,4.87,4.75,9.75,7.1,14.6c1.69,3.47,3.37,6.95,5.05,10.42c4.09,8.47,8.31,17.22,12.68,25.74
		c7.42,14.3,19.12,21.55,34.79,21.55c0.22,0,0.44,0,0.66,0c20.97-0.3,42.28-0.26,62.89-0.23c7.01,0.01,14.04,0.03,21.07,0.03
		c2.93,0,6.15-0.29,9.38-0.85c10.93-2.14,18.28-7.87,21.87-17.09c2.34-6.33,2.7-13.03,1.11-20.47h39.82
		c-1.05,4.59-2.13,9.18-3.19,13.65c-1.17,4.94-2.38,10.05-3.52,15.1l-0.54,2.36l2.35,0.61c1.96,0.51,3.78,0.92,5.55,1.31
		c0.73,0.16,1.47,0.33,2.22,0.5l2.28,0.53l0.67-2.25c0.17-0.57,0.29-1.05,0.38-1.48c0.07-0.28,0.12-0.52,0.19-0.75l0.06-0.22
		c5.15-21.85,10.28-43.7,15.4-65.55c5.12-21.85,10.25-43.7,15.41-65.57c0.64-2.85,0.31-5.12-0.99-6.74c-1.28-1.6-3.34-2.4-6.15-2.4
		h-172.4c-4.46,0-6.63,1.71-7.71,6.05c-0.95,3.55-1.89,7.14-2.83,10.75c-0.84,3.21-1.69,6.5-2.57,9.8
		c-0.41-0.98-0.81-1.95-1.22-2.91c-1.4-3.36-2.77-6.62-4.1-9.86c0.01-0.11,0.04-0.27,0.1-0.44l1.01-3.84
		c1.54-5.91,3.13-12.01,4.65-18.15h205.36c-6.9,29.26-13.93,58.87-20.73,87.53c-4.8,20.24-9.61,40.47-14.39,60.69l-0.58,2.47
		l2.47,0.55c1.48,0.33,2.92,0.69,4.36,1.04c1.18,0.29,2.35,0.58,3.52,0.85l2.43,0.56l0.57-2.43c0.73-3.11,1.5-6.21,2.25-9.26
		c0.39-1.55,0.77-3.1,1.14-4.63l8.2-34.45c8.31-34.93,16.91-71.05,25.3-106.65C390.75,250.06,390.47,247.85,389.19,246.23z
		 M278.73,327.32c-2.46,9.98-4.9,20.2-7.41,31.06c-5.22-2.38-10.54-2.83-15.71-3.27c-2.56-0.22-4.97-0.42-7.42-0.87
		c-5.74-0.86-11.56-1.36-17.19-1.84l-2.39-0.21c1.31-5.45,2.58-10.95,3.81-16.3c0.66-2.86,1.32-5.72,1.98-8.57H278.73z
		 M220.97,327.36c-2.23,9.16-4.02,16.77-5.6,23.82c-6.96-0.8-13.55-1.47-20.22-2.05c-1.09-0.05-1.31-0.21-1.7-1.12
		c-2.04-5.2-4.26-10.34-6.41-15.3c-0.75-1.72-1.49-3.45-2.23-5.18C197.03,327.52,208.76,327.51,220.97,327.36z M230.18,287.35
		c-0.49,2.17-0.99,4.33-1.49,6.5c-0.79,3.35-1.58,6.72-2.36,10.09c-0.81,3.46-1.62,6.93-2.43,10.38h-44.67c-0.02,0-0.04,0-0.06,0
		c-0.02-0.04-0.05-0.1-0.08-0.17c-0.72-1.51-0.82-2.98-0.35-4.84c3.16-11.01,6.04-22.14,8.2-30.61c0.01-0.03,0.02-0.06,0.03-0.08
		l45.24,0C231.49,281.57,230.83,284.5,230.18,287.35z M347,282.86c-0.48,2-0.96,3.99-1.41,5.99c-0.6,2.56-1.22,5.14-1.83,7.71
		c-1.39,5.83-2.82,11.86-4.14,17.76h-44.44c0.76-3.06,1.48-6.01,2.08-9.03c1.05-4.5,2.1-8.97,3.15-13.45
		c1.04-4.43,2.08-8.86,3.12-13.32h44.51C347.69,279.98,347.35,281.42,347,282.86z M286.05,353.26c2.04-8.48,4.15-17.25,6.14-25.94
		h44.55c-0.18,0.77-0.36,1.53-0.54,2.29c-0.84,3.61-1.64,7.01-2.3,10.32c-1.83,7.62-3.73,15.49-5.53,23.38h-44.73
		C284.43,359.97,285.24,356.62,286.05,353.26z M289.05,283.4c-1.13,4.83-2.19,9.4-3.36,14.16c-0.56,2.47-1.15,4.96-1.73,7.46
		c-0.74,3.15-1.48,6.32-2.19,9.49H237.2c0.05-0.23,0.11-0.46,0.16-0.68c0.28-1.19,0.56-2.39,0.8-3.54
		c2.44-10.27,4.83-20.51,7.31-31.32l0.03-0.15c0.01-0.08,0.03-0.15,0.04-0.21c0.06,0,0.12,0,0.2,0h44.44
		C289.79,280.23,289.42,281.82,289.05,283.4z"/>
	<path class="st0" d="M88.63,143.3c0.59,0.2,1.14,0.39,1.7,0.59c0.05,0.02,0.09,0.03,0.14,0.05c-7.13,17.57-6.98,34.89,0.48,51.52
		c8.14,18.05,21.75,30.08,40.46,35.77c6.41,1.92,12.75,2.88,19,2.88c9.18,0,18.14-2.08,26.79-6.22
		c18.71-8.87,30.74-23.91,35.78-44.71l3.22,1.06c4.87,1.6,9.91,3.26,14.8,4.78c3.9,1.2,7.35-0.39,8.58-3.93
		c1.28-3.53-0.6-7.02-4.58-8.5l-0.21-0.07c-0.97-0.26-1.93-0.6-2.94-0.95c-1.15-0.4-2.35-0.81-3.62-1.15
		c-1.57-0.49-3.11-1-4.65-1.52c-0.85-0.28-1.7-0.57-2.56-0.85c4.11-18.12,1.56-36.51-7.25-52.04
		c-8.82-15.54-22.92-26.86-39.69-31.88c-15.43-4.73-30.79-3.79-45.63,2.8c-18.19,7.94-31.17,21.23-38.62,39.53
		c-4.62,0.36-6.02,2.97-6.35,5.22C83.11,137.37,83.01,141.22,88.63,143.3z M200.17,178.94c-0.19,0.68-0.36,1.36-0.54,2.03
		c-0.6,2.32-1.17,4.51-2.08,6.51l-0.07,0.16c-7.46,19.86-26.71,33.08-48.04,33.08c-0.23,0-0.46,0-0.68,0
		c-21.45-0.28-40.61-14.2-47.67-34.61c-4.46-13.01-3.82-25.55,1.95-38.32c16.21,5.22,32.37,10.39,48.52,15.56
		C167.75,168.53,183.93,173.71,200.17,178.94z M102.4,134.11c8.54-21.3,31.24-36.34,54.28-35.88c23.53,0.38,44.99,17.88,51.02,41.62
		c2.26,8.79,2.43,17.97,0.5,28.03C173.61,156.79,137.93,145.35,102.4,134.11z"/>
	<path class="st0" d="M482.61,208.43c-0.41-2.13-1.97-3.85-4.75-5.24c-4.42-2.25-8.86-4.54-13.31-6.84
		c-5.91-3.05-12.01-6.19-18.03-9.23c-0.48-0.28-0.6-0.42-0.62-0.41c0-0.02-0.01-0.11,0.01-0.28l0.02-0.2
		c0.25-5.95,0.52-11.92,0.8-17.89c0.28-5.98,0.55-11.96,0.8-17.9c0.14-3.05-0.58-5.19-2.2-6.54c-1.64-1.37-3.91-1.7-6.94-1.01
		l-8.26,1.85c-8.79,1.96-17.89,3.99-26.83,6.08c-0.12,0.03-0.2,0.05-0.26,0.06c-0.05-0.05-0.12-0.14-0.21-0.26
		c-3.65-4.75-7.27-9.5-10.89-14.24c-3.63-4.75-7.25-9.5-10.88-14.22c-1.78-2.39-3.75-3.61-5.87-3.63c-0.02,0-0.03,0-0.05,0
		c-2.12,0-4.12,1.21-5.97,3.61c-7.53,9.88-14.7,19.33-21.86,28.85c-0.05,0.06-0.08,0.1-0.12,0.14c-0.03-0.01-0.06-0.01-0.09-0.02
		c-5.9-1.3-11.82-2.62-17.74-3.95c-5.93-1.33-11.86-2.65-17.69-3.94c-2.8-0.7-5.05-0.39-6.67,0.94c-1.62,1.33-2.38,3.49-2.24,6.43
		c0.47,8.16,0.86,16.39,1.24,24.35c0.18,3.9,0.37,7.81,0.56,11.73l0.02,0.23c0.01,0.07,0.01,0.13,0.02,0.18
		c-0.04,0.03-0.1,0.06-0.19,0.1l-0.1,0.05c-5.3,2.75-10.62,5.5-15.95,8.25c-5.31,2.74-10.62,5.48-15.91,8.23
		c-2.7,1.26-4.29,2.96-4.71,5.03c-0.43,2.1,0.4,4.32,2.45,6.59c3.33,3.69,6.78,7.4,10.12,10.98c2.24,2.4,4.48,4.81,6.7,7.23
		l0.07,0.08c0.2,0.2,0.44,0.4,0.73,0.62c0.21,0.16,0.4,0.31,0.57,0.48l1.81,1.81l1.77-1.86c1.21-1.28,2.52-2.47,3.77-3.62
		c0.65-0.59,1.3-1.19,1.93-1.79l1.81-1.72l-1.72-1.81c-4.44-4.7-8.8-9.46-13.04-14.13c8.68-4.39,18.79-9.54,28.79-14.84
		c3.69-1.94,4.22-4.85,4.03-6.86c-0.25-4.23-0.45-8.49-0.64-12.6c-0.2-4.22-0.4-8.58-0.66-12.9c-0.1-1.73-0.18-3.47-0.25-5.22
		c-0.03-0.6-0.05-1.2-0.08-1.81c8.68,2.04,17.53,4.04,26.09,5.98l5,1.13l0.17,0.03c3.59,0.55,6.25-0.48,8.39-3.29
		c4.17-5.65,8.71-11.66,13.89-18.38c1.7-2.26,3.4-4.48,5.17-6.79l0.27-0.35c2.15,2.82,4.31,5.64,6.48,8.47
		c4.21,5.49,8.57,11.17,12.74,16.79c2.14,3.07,4.95,4.15,8.65,3.3c8.66-2.14,17.47-4.14,25.69-5.98c1.73-0.31,3.44-0.7,5.09-1.07
		c0.14-0.03,0.29-0.07,0.43-0.1c-0.47,10.54-0.95,21.43-1.51,32.02c-0.29,3.62,1.12,6.13,4.26,7.63c3.47,1.76,6.96,3.54,10.45,5.32
		c3.46,1.77,6.92,3.53,10.34,5.27c1.78,0.91,3.58,1.83,5.41,2.76c0.86,0.44,1.73,0.88,2.61,1.32c-1.84,1.99-3.67,3.98-5.5,5.96
		c-5.26,5.72-10.71,11.63-16.1,17.31l-0.09,0.1c-2.44,2.86-2.91,5.75-1.48,9.13c2.77,6.28,5.41,12.68,7.97,18.86
		c0.87,2.1,1.73,4.19,2.59,6.26c0.38,0.94,0.74,1.87,1.1,2.79c0.21,0.53,0.41,1.06,0.62,1.58c-10.32,1.42-20.88,2.78-31.44,4.02
		c-3.86,0.53-6.17,2.49-7.25,6.15c-1.31,4.28-2.64,8.58-3.98,12.88c-1.32,4.25-2.63,8.5-3.92,12.69c-0.48,1.49-0.96,3.01-1.45,4.58
		c-0.96-0.61-1.91-1.22-2.86-1.82c-2.94-1.87-5.81-3.7-8.75-5.6l-2.01-1.3l-1.38,1.95c-1.13,1.6-2.05,3.07-2.94,4.5
		c-0.49,0.78-0.98,1.57-1.51,2.38l-1.45,2.22l2.3,1.32c0.48,0.28,0.6,0.42,0.6,0.42l0.31,0.51l0.5,0.32
		c5.34,3.36,10.67,6.78,15.83,10.09l0.15,0.1c1.88,1.21,3.57,1.8,5.1,1.8c0.68,0,1.33-0.12,1.95-0.35c2.01-0.75,3.41-2.56,4.28-5.51
		c2.86-9.07,5.69-18.34,8.43-27.3l1.85-6.06c0.34-1.02,0.51-1.22,1.82-1.41c11.39-1.35,22.95-2.83,35.34-4.5
		c3.3-0.45,4.83-2.04,5.54-3.3c0.71-1.26,1.27-3.42-0.06-6.43c-4.07-9.92-8.52-20.57-14.04-33.6c-0.1-0.21-0.14-0.34-0.16-0.41
		c0.03-0.04,0.09-0.11,0.2-0.22c5.24-5.49,10.43-11.14,15.45-16.6c2.99-3.25,5.97-6.5,9.02-9.77
		C482.21,212.79,483.03,210.58,482.61,208.43z"/>
	<path class="st0" d="M397.04,263.24l-2.1,1.4l1.42,2.09c0.83,1.22,1.57,2.4,2.34,3.66c0.58,0.95,1.18,1.9,1.83,2.9l1.3,1.99
		l2.05-1.19c18.93-11,33.14-38.03,22.18-66.45c-9.9-26.15-39.07-40.62-66.39-32.93c-13.53,3.67-24.19,11.68-31.66,23.78
		c-5.5,8.71-8.29,18.45-8.29,28.93v2.5h12.87l0.03-2.47c0.28-23.56,18.64-38.94,35.75-41.45c17.95-2.55,35.52,6.44,43.74,22.4
		c4.27,7.99,5.67,16.64,4.14,25.71C414.23,246.29,407.76,256.09,397.04,263.24z"/>
</g>
</svg>
