<?xml version="1.0" encoding="utf-8"?>
<!-- Generator: Adobe Illustrator 28.0.0, SVG Export Plug-In . SVG Version: 6.00 Build 0)  -->
<svg version="1.1" id="Capa_1" xmlns="http://www.w3.org/2000/svg" xmlns:xlink="http://www.w3.org/1999/xlink" x="0px" y="0px"
	 viewBox="0 0 512 512" style="enable-background:new 0 0 512 512;" xml:space="preserve">
<style type="text/css">
	.st0{fill:#F68620;}
	.st1{fill:#F68620;stroke:#F68620;stroke-width:6;stroke-miterlimit:10;}
</style>
<g>
	<path class="st0" d="M469.5,132.6h-9l-1-3.6c-3-10.4-7.1-20.4-12.4-29.8l-1.8-3.3l6.4-6.4c3.3-3.3,5.1-7.6,5.1-12.3
		c0-4.7-1.8-9-5.1-12.3l-24.6-24.5c-3.3-3.3-7.7-5.1-12.3-5.1s-9,1.8-12.3,5.1l-6.4,6.4l-3.3-1.8c-9.4-5.3-19.5-9.4-29.8-12.4
		l-3.6-1v-9c0-4.6-1.8-9-5.1-12.3C351,7,346.6,5.2,342,5.2h-34.8c-9.6,0-17.4,7.8-17.4,17.4v9l-3.6,1c-10.4,3-20.4,7.1-29.8,12.4
		l-3.3,1.8l-6.3-6.3c-3.3-3.3-7.7-5.1-12.3-5.1c-4.7,0-9,1.8-12.3,5.1l-24.6,24.6c-3.3,3.3-5.1,7.6-5.1,12.3c0,4.7,1.8,9,5.1,12.3
		l6.4,6.4l-1.8,3.3c-5.3,9.4-9.4,19.5-12.4,29.8l-1,3.6h-9c-9.6,0-17.4,7.8-17.4,17.4V185c0,9.6,7.8,17.4,17.4,17.4h9l1,3.6
		c2.9,10.3,7.1,20.4,12.4,29.8l1.8,3.3l-6.4,6.4c-3.3,3.3-5.1,7.6-5.1,12.3c0,4.7,1.8,9,5.1,12.3l24.6,24.6
		c3.3,3.3,7.7,5.1,12.3,5.1c4.7,0,9-1.8,12.3-5.1l6.4-6.4l3.3,1.8c9.4,5.3,19.5,9.4,29.8,12.4l3.6,1v9c0,9.6,7.8,17.4,17.4,17.4
		h34.8c9.6,0,17.4-7.8,17.4-17.4v-9l3.6-1c10.4-2.9,20.4-7.1,29.8-12.4l3.3-1.8l6.3,6.3c3.3,3.3,7.7,5.1,12.3,5.1
		c4.7,0,9-1.8,12.3-5.1l24.6-24.6c3.3-3.3,5.1-7.6,5.1-12.3c0-4.7-1.8-9-5.1-12.3l-6.4-6.4l1.8-3.3c5.2-9.4,9.4-19.4,12.4-29.8
		l1-3.6h9c9.6,0,17.4-7.8,17.4-17.4V150c0-4.6-1.8-9-5.1-12.3C478.5,134.4,474.1,132.6,469.5,132.6L469.5,132.6z M352.6,231.7
		c-2,0.7-3.3,2.6-3.3,4.7v76c0,4.1-3.3,7.4-7.4,7.4h-34.8c-4.1,0-7.4-3.3-7.4-7.4v-76c0-2.1-1.3-4-3.3-4.7
		c-28.8-10.7-48.2-38.4-48.2-69c0-24.3,12.1-47,32.3-60.8c0.9-0.6,1.7-1.1,2.5-1.6l7.8-4.6l-0.3,9c0,1.5-0.1,2.8-0.2,3.4
		c-0.1,1-0.1,1.6-0.1,2.2v47.2c0,19,14.9,34.9,33.9,36.2h0.7c19-1.3,33.8-17.2,33.8-36.2v-47.2c0-0.6,0-1.3-0.1-2.2
		c-0.1-0.7-0.2-2-0.2-3.4l-0.2-9l7.8,4.6c0.8,0.5,1.6,1,2.5,1.6c20.2,13.8,32.3,36.6,32.3,60.8C400.7,193.2,381.4,221,352.6,231.7
		L352.6,231.7z M476.9,184.8c0,4-3.4,7.4-7.4,7.4h-13c-2.4,0-4.4,1.6-4.9,3.9c-3.3,14.6-9,28.3-17,40.9c-1.3,2-1,4.5,0.7,6.2
		l9.2,9.2c1.4,1.4,2.2,3.2,2.2,5.2c0,2-0.8,3.9-2.2,5.2l-24.6,24.6c-1.4,1.4-3.2,2.1-5.2,2.1s-3.8-0.8-5.2-2.2l-9.2-9.2
		c-1.7-1.7-4.2-1.9-6.2-0.7c-8.8,5.6-18.3,10.1-28.2,13.4l-6.6,2.2v-53.3l2.9-1.3c29.5-13.7,48.5-43.5,48.5-75.8
		c0-27.6-13.7-53.4-36.6-69.1c-3.1-2.1-12.5-8.5-19.6-4.4c-6.2,3.6-6.4,11.9-5.9,19.6v0.4c0,0.4,0,0.7,0.1,0.9v47.4
		c0,13.6-10.2,24.8-23.7,26.2h-1c-13.5-1.3-23.7-12.6-23.7-26.2v-47.3c0-0.3,0-0.7,0.1-1.1v-0.3c0.6-7.7,0.3-16.1-5.8-19.6
		c-7.2-4.1-16.6,2.3-19.7,4.4c-22.9,15.7-36.6,41.5-36.6,69.1c0,32.4,19.1,62.1,48.6,75.9l2.9,1.3v53.3l-6.6-2.2
		c-9.9-3.3-19.4-7.8-28.2-13.4c-0.8-0.5-1.7-0.8-2.7-0.8c-1.3,0-2.6,0.5-3.5,1.5l-9.2,9.2c-1.4,1.4-3.2,2.2-5.2,2.2
		s-3.8-0.8-5.2-2.2l-24.6-24.6c-1.4-1.4-2.2-3.2-2.2-5.2s0.8-3.9,2.2-5.2l9.2-9.2c1.7-1.7,1.9-4.2,0.7-6.2
		c-8-12.7-13.7-26.4-17-40.9c-0.5-2.3-2.5-3.9-4.9-3.9h-13c-4,0-7.4-3.4-7.4-7.4V150c0-4.1,3.3-7.4,7.4-7.4h13
		c2.4,0,4.4-1.6,4.9-3.9c3.3-14.5,9-28.2,17-40.9c1.3-2,1-4.5-0.7-6.2l-9.2-9.2c-1.4-1.4-2.1-3.2-2.1-5.2s0.8-3.9,2.2-5.2l24.6-24.6
		c1.4-1.4,3.2-2.1,5.2-2.1s3.8,0.8,5.2,2.2l9.2,9.2c1.7,1.7,4.2,1.9,6.2,0.7c12.6-8,26.4-13.7,40.9-17c2.3-0.5,3.9-2.5,3.9-4.9v-13
		c0-4.1,3.3-7.4,7.4-7.4h34.8c4.1,0,7.4,3.3,7.4,7.4v13c0,2.4,1.6,4.4,3.9,4.9c14.5,3.3,28.3,9,40.9,17c2,1.3,4.5,1,6.2-0.7l9.2-9.2
		c1.4-1.4,3.2-2.1,5.2-2.1s3.8,0.8,5.2,2.2l24.6,24.6c1.4,1.4,2.2,3.2,2.2,5.2s-0.8,3.9-2.2,5.2l-9.2,9.2c-1.7,1.7-1.9,4.2-0.7,6.2
		c8,12.6,13.7,26.3,17,40.9c0.5,2.3,2.5,3.9,4.9,3.9h13c4.1,0,7.4,3.3,7.4,7.4L476.9,184.8L476.9,184.8z M386.3,443.8
		c-1.9,2-1.9,5.1,0,7.1c0.9,0.9,2.2,1.5,3.5,1.5s2.6-0.5,3.5-1.5l0.1-0.1c1.9-1.9,1.9-5-0.1-7C391.4,441.9,388.3,441.9,386.3,443.8z
		"/>
	<path class="st0" d="M389.8,455.4c-2.06,0-4.11-0.87-5.62-2.38c-3.05-3.21-3.05-8.14-0.05-11.29l0.11-0.11
		c3.2-3.04,8.12-3.02,11.19,0.05c3.13,3.13,3.17,8.17,0.1,11.24l-0.05,0.05C394.05,454.52,391.98,455.4,389.8,455.4z M388.42,445.92
		c-0.75,0.85-0.73,2.08,0.05,2.91c0.32,0.32,0.87,0.57,1.32,0.57c0.51,0,0.98-0.19,1.27-0.51l0.21-0.22c0.75-0.75,0.7-1.96-0.1-2.76
		C390.44,445.19,389.25,445.19,388.42,445.92z M342.1,332.9h-34.8c-11.25,0-20.4-9.15-20.4-20.4v-6.72l-1.4-0.39
		c-10.97-3.2-21.21-7.46-30.47-12.68l-1.29-0.71l-4.81,4.81c-3.85,3.86-8.98,5.98-14.42,5.98s-10.57-2.12-14.42-5.98l-24.6-24.6
		c-3.86-3.85-5.98-8.98-5.98-14.42c0-5.44,2.12-10.57,5.98-14.42l4.81-4.81l-0.73-1.33c-5.41-9.6-9.68-19.84-12.65-30.42l-0.39-1.41
		h-6.72c-11.25,0-20.4-9.15-20.4-20.4v-34.8c0-11.25,9.15-20.4,20.4-20.4h6.72l0.39-1.4c3.2-10.97,7.46-21.21,12.68-30.47l0.7-1.29
		l-4.81-4.81c-3.86-3.86-5.98-8.98-5.98-14.42c0-5.44,2.12-10.57,5.98-14.42l24.6-24.6c3.86-3.86,8.98-5.98,14.42-5.98
		s10.57,2.12,14.42,5.98l4.71,4.71l1.33-0.73c9.33-5.26,19.57-9.52,30.41-12.65l1.43-0.4V22.6c0-11.25,9.15-20.4,20.4-20.4H342
		c5.44,0,10.57,2.12,14.42,5.98c3.86,3.86,5.98,8.98,5.98,14.42v6.72l1.4,0.39c10.97,3.2,21.21,7.46,30.47,12.68l1.29,0.7l4.81-4.81
		c3.86-3.85,8.98-5.98,14.42-5.98s10.57,2.12,14.42,5.98l24.6,24.5c3.86,3.86,5.98,8.98,5.98,14.43s-2.12,10.57-5.98,14.42
		l-4.81,4.81l0.73,1.33c5.26,9.33,9.52,19.57,12.65,30.4l0.4,1.43h6.72c5.44,0,10.57,2.12,14.42,5.98
		c3.86,3.86,5.98,8.98,5.98,14.42v34.9c0,11.25-9.15,20.4-20.4,20.4h-6.72l-0.39,1.4c-3.02,10.48-7.28,20.72-12.67,30.45l-0.72,1.31
		l4.81,4.81c3.86,3.86,5.98,8.98,5.98,14.42s-2.12,10.57-5.98,14.42l-24.6,24.6c-3.85,3.86-8.98,5.98-14.42,5.98
		s-10.57-2.12-14.42-5.98l-4.71-4.71l-1.33,0.72c-9.69,5.47-19.95,9.73-30.43,12.66l-1.41,0.39v6.72
		C362.5,323.75,353.35,332.9,342.1,332.9z M252.67,284.59l5.27,2.88c8.89,5.01,18.71,9.1,29.2,12.15l5.76,1.6v11.28
		c0,7.94,6.46,14.4,14.4,14.4h34.8c7.94,0,14.4-6.46,14.4-14.4v-11.28l5.8-1.61c10.02-2.79,19.82-6.87,29.13-12.12l5.31-2.9
		l7.89,7.89c2.72,2.72,6.34,4.22,10.18,4.22c3.9,0,7.42-1.46,10.18-4.22l24.6-24.6c2.76-2.76,4.22-6.28,4.22-10.18
		s-1.46-7.42-4.22-10.18l-7.99-7.99l2.88-5.27c5.17-9.35,9.26-19.17,12.15-29.2l1.6-5.77h11.28c7.94,0,14.4-6.46,14.4-14.4V150
		c0-3.84-1.5-7.46-4.22-10.18c-2.72-2.72-6.34-4.22-10.18-4.22h-11.28l-1.61-5.8c-2.99-10.36-7.07-20.17-12.12-29.13l-2.89-5.31
		l7.99-7.99c2.76-2.76,4.22-6.28,4.22-10.18s-1.46-7.42-4.22-10.18l-24.6-24.5c-2.73-2.73-6.34-4.23-10.18-4.23
		s-7.46,1.5-10.18,4.22l-7.99,7.99l-5.27-2.87c-8.89-5.01-18.71-9.1-29.2-12.15l-5.76-1.6V22.6c0-3.84-1.5-7.46-4.22-10.18
		C349.46,9.7,345.84,8.2,342,8.2h-34.8c-7.94,0-14.4,6.46-14.4,14.4v11.28l-5.8,1.61c-10.36,2.99-20.17,7.07-29.13,12.12l-5.31,2.9
		l-7.89-7.89c-2.72-2.72-6.34-4.22-10.18-4.22c-3.9,0-7.42,1.46-10.18,4.22l-24.6,24.6c-2.76,2.76-4.22,6.28-4.22,10.18
		s1.46,7.42,4.22,10.18l7.99,7.99l-2.87,5.27c-5.01,8.89-9.1,18.71-12.15,29.2l-1.6,5.76H179.8c-7.94,0-14.4,6.46-14.4,14.4V185
		c0,7.94,6.46,14.4,14.4,14.4h11.28l1.61,5.8c2.85,10.11,6.93,19.91,12.12,29.13l2.9,5.31l-7.99,7.99
		c-2.76,2.76-4.22,6.28-4.22,10.18s1.46,7.42,4.22,10.18l24.6,24.6c2.72,2.72,6.34,4.22,10.18,4.22c3.9,0,7.42-1.46,10.18-4.22
		L252.67,284.59z M341.9,322.8h-34.8c-5.73,0-10.4-4.67-10.4-10.4v-76c0-0.85-0.52-1.6-1.29-1.87
		c-30.05-11.17-50.21-40.02-50.21-71.83c0-25.25,12.56-48.9,33.61-63.28c0.96-0.64,1.78-1.15,2.6-1.67l10.91-6.44
		c-5.51-2.27-13.12,2.89-15.71,4.64c-22.12,15.17-35.32,40.07-35.32,66.64c0,31.14,18.4,59.86,46.87,73.18l4.63,2.07v59.4
		l-10.55-3.52c-10.19-3.4-19.9-8.01-28.86-13.71c-0.84-0.52-1.86-0.38-2.36,0.18l-0.11,0.11l-9.2,9.2
		c-1.99,1.99-4.59,3.08-7.32,3.08s-5.33-1.09-7.32-3.08l-24.6-24.6c-1.99-1.98-3.08-4.58-3.08-7.32c0-2.82,1.13-5.49,3.11-7.36
		l9.16-9.17c0.82-0.82,0.66-1.84,0.25-2.54c-8.14-12.92-13.99-26.99-17.35-41.78c-0.21-0.95-1-1.57-1.97-1.57h-13
		c-5.64,0-10.4-4.76-10.4-10.4V150c0-5.73,4.67-10.4,10.4-10.4h13c0.98,0,1.77-0.62,1.97-1.54c3.37-14.81,9.22-28.89,17.39-41.86
		c0.54-0.83,0.43-1.77-0.28-2.48l-9.2-9.2c-1.95-1.95-2.98-4.48-2.98-7.32c0-2.82,1.13-5.49,3.11-7.36l24.56-24.56
		c1.95-1.95,4.48-2.98,7.32-2.98c2.74,0,5.34,1.09,7.32,3.08l9.2,9.2c0.82,0.82,1.84,0.66,2.54,0.25
		c12.75-8.1,26.83-13.95,41.78-17.35c0.95-0.21,1.57-1,1.57-1.97v-13c0-5.73,4.67-10.4,10.4-10.4h34.8c5.73,0,10.4,4.67,10.4,10.4
		v13c0,0.98,0.62,1.77,1.54,1.97c14.97,3.41,29.05,9.26,41.87,17.4c0.82,0.54,1.76,0.42,2.47-0.29l9.2-9.2
		c1.95-1.95,4.48-2.98,7.32-2.98c2.74,0,5.34,1.09,7.32,3.08l24.6,24.6c1.99,1.99,3.08,4.59,3.08,7.32c0,2.82-1.13,5.49-3.11,7.36
		l-9.17,9.17c-0.82,0.82-0.66,1.84-0.25,2.54c8.14,12.81,13.99,26.89,17.35,41.78c0.21,0.94,1,1.56,1.97,1.56h13
		c5.73,0,10.4,4.67,10.4,10.4l-0.2,34.61c0,5.63-4.77,10.39-10.4,10.39h-13c-0.98,0-1.77,0.62-1.97,1.54
		c-3.37,14.91-9.22,28.99-17.4,41.87c-0.54,0.83-0.42,1.76,0.29,2.47l9.2,9.2c1.99,1.98,3.08,4.58,3.08,7.32
		c0,2.82-1.13,5.49-3.11,7.36l-24.57,24.57c-1.95,1.95-4.48,2.98-7.32,2.98c-2.74,0-5.34-1.09-7.32-3.08l-9.2-9.2
		c-0.82-0.82-1.85-0.66-2.54-0.25c-8.9,5.66-18.61,10.28-28.79,13.67l-10.55,3.52v-59.4l4.67-2.09
		c28.37-13.18,46.73-41.86,46.73-73.06c0-26.57-13.2-51.47-35.3-66.63c-2.62-1.77-10.32-6.99-15.75-4.61l10.77,6.35
		c0.89,0.55,1.71,1.07,2.64,1.69c21.07,14.4,33.64,38.05,33.64,63.3c0,31.83-20.12,60.69-50.06,71.81l-0.05,0.02
		c-0.77,0.27-1.29,1.02-1.29,1.87v76C352.3,318.13,347.63,322.8,341.9,322.8z M287.62,101.06l-3.1,1.83
		c-0.71,0.44-1.49,0.93-2.36,1.51c-19.38,13.24-30.96,35.04-30.96,58.3c0,29.31,18.58,55.91,46.25,66.19
		c3.12,1.09,5.25,4.12,5.25,7.51v76c0,2.43,1.97,4.4,4.4,4.4h34.8c2.43,0,4.4-1.97,4.4-4.4v-76c0-3.38,2.12-6.4,5.28-7.52
		c27.59-10.26,46.12-36.85,46.12-66.18c0-23.26-11.59-45.06-30.99-58.32c-0.85-0.56-1.62-1.05-2.4-1.53l-3.09-1.82l0.08,3.61
		c0,1.29,0.09,2.47,0.17,3.04c0.13,1.16,0.13,1.97,0.13,2.62v47.2c0,20.57-16.07,37.79-36.59,39.19L324,196.7l-0.1-0.01
		c-20.58-1.41-36.69-18.62-36.69-39.19v-47.2c0-0.63,0-1.35,0.11-2.5l0.03-0.2c0.06-0.37,0.16-1.48,0.16-2.9L287.62,101.06z
		 M252.3,273.7c1.51,0,2.96,0.42,4.29,1.26c8.57,5.46,17.84,9.86,27.56,13.1l2.65,0.88v-47.19l-1.13-0.51
		c-30.62-14.32-50.37-45.18-50.37-78.64c0-28.55,14.17-55.3,37.9-71.57c3.52-2.38,14.09-9.54,22.88-4.53
		c7.65,4.39,7.94,14.21,7.32,22.32v0.56l-0.09,0.36c-0.01,0.06-0.01,0.24-0.01,0.37v47.3c0,12.03,8.95,21.98,20.85,23.2h0.69
		c11.9-1.31,20.86-11.26,20.86-23.2v-46.98c-0.1-0.49-0.1-0.95-0.1-1.32v-0.3c-0.37-5.7-1.08-17.37,7.39-22.29
		c8.71-5.03,19.28,2.13,22.76,4.49c23.78,16.3,37.95,43.06,37.95,71.61c0,33.53-19.72,64.35-50.24,78.52l-1.16,0.52v47.2l2.65-0.88
		c9.72-3.24,18.98-7.64,27.54-13.08c3.32-1.99,7.29-1.53,9.93,1.11l9.2,9.2c0.88,0.88,1.91,1.32,3.08,1.32
		c1.23,0,2.27-0.41,3.08-1.22l24.68-24.68c0.79-0.73,1.24-1.83,1.24-3c0-1.17-0.44-2.2-1.32-3.08l-9.2-9.2
		c-2.7-2.7-3.15-6.79-1.09-9.96c7.79-12.27,13.38-25.71,16.59-39.93c0.8-3.66,4.02-6.24,7.83-6.24h13c2.34,0,4.4-2.06,4.4-4.4v-0.02
		l0.2-34.6c0-2.41-1.97-4.38-4.4-4.38h-13c-3.81,0-7.03-2.58-7.83-6.26c-3.21-14.19-8.79-27.63-16.6-39.93
		c-2-3.32-1.53-7.29,1.11-9.93l9.28-9.28c0.79-0.73,1.24-1.83,1.24-3c0-1.17-0.44-2.2-1.32-3.08l-24.6-24.6
		c-0.88-0.88-1.91-1.32-3.08-1.32c-1.23,0-2.27,0.41-3.08,1.22l-9.2,9.2c-2.7,2.7-6.8,3.15-9.96,1.09
		c-12.21-7.75-25.66-13.34-39.93-16.59c-3.66-0.8-6.23-4.02-6.23-7.83v-13c0-2.43-1.97-4.4-4.4-4.4h-34.8c-2.43,0-4.4,1.97-4.4,4.4
		v13c0,3.81-2.58,7.03-6.26,7.83c-14.25,3.24-27.69,8.83-39.93,16.6c-3.32,1.99-7.29,1.53-9.93-1.11l-9.2-9.2
		c-0.88-0.88-1.91-1.32-3.08-1.32c-1.23,0-2.27,0.41-3.08,1.22L206.74,74.2c-0.79,0.73-1.24,1.83-1.24,3c0,1.23,0.41,2.27,1.22,3.08
		l9.2,9.2c2.7,2.7,3.15,6.79,1.09,9.96c-7.79,12.36-13.38,25.81-16.59,39.93c-0.8,3.66-4.02,6.23-7.83,6.23h-13
		c-2.43,0-4.4,1.97-4.4,4.4v34.8c0,2.34,2.06,4.4,4.4,4.4h13c3.81,0,7.03,2.58,7.83,6.26c3.21,14.09,8.8,27.54,16.61,39.94
		c1.99,3.31,1.53,7.28-1.12,9.92l-9.28,9.28c-0.79,0.73-1.24,1.83-1.24,3c0,1.17,0.44,2.2,1.32,3.08l24.6,24.6
		c0.88,0.88,1.91,1.32,3.08,1.32s2.2-0.44,3.08-1.32l9.15-9.15C248.05,274.58,250.12,273.7,252.3,273.7z M324.2,190.7h0.49
		c17.34-1.24,30.9-15.8,30.9-33.2v-47.2c0-0.56,0-1.13-0.08-1.87c-0.1-0.69-0.22-2.1-0.22-3.73l-0.27-12.32
		c-3.71,3.07-3.86,9.53-3.43,16.13l0.01,0.58l0.1,0.2v48.11c0,15.08-11.35,27.62-26.39,29.18L325,186.6l-1.29-0.01
		c-15.06-1.45-26.41-14-26.41-29.19v-47.3c0-0.32,0-0.82,0.1-1.4l0.01-0.23c0.68-8.74-0.4-13.82-3.49-16.22l-0.42,12.56
		c0,1.33-0.08,2.79-0.22,3.68c-0.08,0.8-0.08,1.27-0.08,1.82v47.2C293.2,174.89,306.81,189.46,324.2,190.7z"/>
</g>
<g>
	<path class="st0" d="M431.4,347.9l-82.7,42.5l-2.6-2.7c-6.1-6.3-14.3-9.8-23-9.8h-54.4c-3.4,0-4.7-0.3-5.4-0.5l-0.4-0.1l-0.4-0.2
		c-1-0.5-1.9-1.3-4-3.4l-0.5-0.5c-42.2-39.8-76.5-37.6-118.2-21.1c-7.3,2.9-8,3-15.5,3.3h-16.1l-1.1-3.4
		c-2.9-8.8-11.2-14.8-20.5-14.8h-40c-11.9,0-21.5,9.7-21.5,21.6v105c0,11.9,9.7,21.5,21.5,21.5h40c9.3,0,17.5-5.9,20.5-14.8l1.1-3.4
		h26.1c2.5,0,3,0.1,5.7,0.8c0.9,0.2,1.9,0.5,3.1,0.9l103.5,27.7c4.6,1.2,8.7,2.4,12.7,3.6h0.2c13.3,3.8,23.7,6.9,34.6,6.9
		c13.2,0,26.2-4.7,42.1-15.3l0.1-0.1l19.8-14.1c1.1-0.8,1.8-1.9,2-3.2c0.2-1.3-0.1-2.6-0.9-3.7s-1.9-1.8-3.2-2
		c-1.3-0.2-2.6,0.1-3.7,0.9l-19.8,14.1c-28.1,18.7-41.6,14.8-68.3,7.1c-4.2-1.2-8.4-2.4-13.1-3.7l-103.5-27.7
		c-1.2-0.3-2.2-0.6-3-0.8c-3.5-1-4.4-1.2-8.4-1.2H108v-91.6h16.6c8-0.3,9.8-0.5,18.7-4c38-15,69.3-17,107.7,19.1l0.5,0.5
		c5.5,5.1,7.8,6.9,17.1,6.9H323c8,0,15.3,4.3,19.2,11.3l0.1,0.2c1.7,3.2,2.7,6.8,2.7,10.5c0,12.1-9.9,22-22,22h-88c-2.8,0-5,2.2-5,5
		s2.2,5,5,5h88.2c17.6,0,32-14.3,32-32c0-2.3-0.3-4.7-0.8-7l-0.8-3.8l82.5-42.3c9.5-4.9,22.7-4.2,29.3,6.6
		c5.9,9.5,2.8,22.1-7.1,29.1l-34.7,24.7c-1.1,0.8-1.8,1.9-2,3.2c-0.2,1.3,0.1,2.6,0.9,3.7c0.9,1.3,2.5,2.1,4.1,2.1
		c1,0,2-0.3,2.9-0.9l34.7-24.7c14.3-10.2,18.5-28.5,9.8-42.5C465.2,344.3,447,339.9,431.4,347.9L431.4,347.9z M98.2,463.8
		c0,6.2-5.3,11.5-11.6,11.5h-40c-6.2,0-11.5-5.3-11.5-11.5v-105c0-6.4,5.2-11.6,11.5-11.6h40c6.3,0,11.6,5.3,11.6,11.6V463.8z"/>
	<path class="st0" d="M294.1,510c-10.9,0-21.06-2.91-33.92-6.58l-1.1-0.32h-0.22l-0.42-0.13c-3.79-1.14-7.95-2.36-12.6-3.57
		l-103.69-27.76c-1.22-0.41-2.08-0.66-2.8-0.82l-0.1-0.02c-2.53-0.66-2.77-0.71-4.95-0.71h-23.92l-0.43,1.32
		c-3.41,10.11-12.79,16.88-23.35,16.88h-40c-13.51,0-24.5-10.99-24.5-24.5v-105c0-13.56,10.99-24.6,24.5-24.6h40
		c10.64,0,20.03,6.78,23.35,16.86l0.43,1.34h13.86c7.01-0.28,7.45-0.31,14.45-3.09c42.78-16.92,78-19.2,121.37,21.71l0.56,0.56
		c1.88,1.88,2.63,2.54,3.22,2.84l0.19,0.08c0.42,0.12,1.44,0.41,4.67,0.41h54.4c9.53,0,18.47,3.8,25.16,10.71l1.06,1.1l80.72-41.48
		c16.96-8.7,36.96-3.72,46.51,11.58c9.57,15.39,5.01,35.4-10.6,46.53l-34.7,24.7c-1.45,0.97-3.03,1.46-4.64,1.46
		c-2.6,0-5.12-1.3-6.57-3.39c-1.21-1.66-1.72-3.77-1.4-5.86c0.32-2.07,1.46-3.9,3.2-5.17l34.73-24.72
		c8.66-6.13,11.37-16.9,6.29-25.07c-5.68-9.29-17.06-9.81-25.38-5.52l-80.47,41.26l0.33,1.56c0.57,2.63,0.86,5.2,0.86,7.62
		c0,19.3-15.7,35-35,35H235c-4.49,0-8-3.51-8-8s3.51-8,8-8h88c10.48,0,19-8.52,19-19c0-3.06-0.81-6.2-2.35-9.09l-0.1-0.2
		c-3.36-5.99-9.7-9.71-16.55-9.71h-54.4c-10.4,0-13.38-2.36-19.14-7.7l-0.58-0.58c-37.22-34.98-67.58-33-104.48-18.43
		c-9.09,3.58-11.13,3.89-19.69,4.21l-0.11,0H111v85.6h23.2c4.22,0,5.43,0.23,9.22,1.32c0.28,0.07,0.7,0.18,1.16,0.31
		c0.52,0.14,1.1,0.3,1.74,0.46l103.55,27.71c4.72,1.3,8.91,2.5,13.11,3.7c26.74,7.71,38.92,11.22,65.85-6.7l19.72-14.05
		c1.7-1.23,3.8-1.74,5.89-1.42c2.07,0.32,3.9,1.46,5.17,3.2c1.25,1.72,1.76,3.82,1.44,5.92c-0.32,2.06-1.45,3.9-3.2,5.17l-20,14.27
		C321.47,505.13,307.97,510,294.1,510z M259.74,497.1h0.18l1.91,0.55c12.4,3.55,22.2,6.35,32.27,6.35
		c12.55,0,24.95-4.51,40.18-14.63l0.28-0.22l19.8-14.1c0.44-0.32,0.7-0.72,0.77-1.21c0.08-0.54-0.04-1.04-0.36-1.48
		c-0.34-0.46-0.74-0.72-1.23-0.8c-0.53-0.08-1.04,0.04-1.48,0.36l-19.82,14.12c-29.33,19.52-44.08,15.27-70.85,7.54
		c-4.23-1.21-8.41-2.4-13.09-3.7L144.82,462.2c-0.64-0.16-1.27-0.33-1.83-0.49c-0.41-0.11-0.79-0.22-1.12-0.3
		c-3.35-0.96-4-1.11-7.67-1.11H105v-97.6h19.54c7.6-0.29,9.12-0.44,17.66-3.79c39.08-15.43,71.26-17.51,110.85,19.71l0.52,0.52
		c5.02,4.66,6.56,6.06,15.02,6.06H323c9.05,0,17.41,4.92,21.82,12.84l0.16,0.32c1.96,3.69,3.01,7.8,3.01,11.84
		c0,13.79-11.21,25-25,25h-88c-1.14,0-2,0.86-2,2s0.86,2,2,2h88.2c15.99,0,29-13.01,29-29c0-1.96-0.25-4.16-0.73-6.36l-1.28-6.06
		l84.54-43.35c10.77-5.55,25.65-4.7,33.23,7.71c6.76,10.89,3.36,25.13-7.93,33.11l-34.69,24.7c-0.44,0.32-0.7,0.72-0.77,1.21
		c-0.08,0.54,0.04,1.04,0.36,1.48c0.37,0.53,1.04,0.86,1.67,0.86c0.43,0,0.84-0.13,1.24-0.4l34.63-24.65
		c12.99-9.27,16.86-25.81,8.99-38.47c-7.88-12.63-24.51-16.68-38.68-9.42l-84.68,43.52l-4.15-4.31c-5.54-5.72-12.95-8.88-20.84-8.88
		h-54.4c-3.58,0-5.15-0.31-6.22-0.61l-0.63-0.16l-0.69-0.35c-1.47-0.74-2.64-1.83-4.78-3.96l-0.5-0.5
		c-41-38.66-74.4-36.49-114.98-20.43c-7.71,3.06-8.81,3.2-16.48,3.51l-0.12,0h-18.28l-1.77-5.48c-2.51-7.6-9.6-12.72-17.65-12.72
		h-40c-10.2,0-18.5,8.34-18.5,18.6v105c0,10.2,8.3,18.5,18.5,18.5h40c7.99,0,15.08-5.13,17.66-12.76l1.76-5.44h28.28
		c2.76,0,3.51,0.13,6.4,0.88c0.89,0.2,1.91,0.49,3.26,0.94l103.41,27.68C251.93,494.79,256.01,495.98,259.74,497.1z M86.6,478.3h-40
		c-7.86,0-14.5-6.64-14.5-14.5v-105c0-8.05,6.5-14.6,14.5-14.6h40c7.91,0,14.6,6.69,14.6,14.6v105
		C101.2,471.66,94.51,478.3,86.6,478.3z M46.6,350.2c-4.69,0-8.5,3.86-8.5,8.6v105c0,4.53,3.97,8.5,8.5,8.5h40
		c4.58,0,8.6-3.97,8.6-8.5v-105c0-4.66-3.94-8.6-8.6-8.6H46.6z"/>
</g>
</svg>
