<?xml version="1.0" encoding="utf-8"?>
<!-- Generator: Adobe Illustrator 27.5.0, SVG Export Plug-In . SVG Version: 6.00 Build 0)  -->
<svg version="1.1" id="Layer_1" xmlns="http://www.w3.org/2000/svg" xmlns:xlink="http://www.w3.org/1999/xlink" x="0px" y="0px"
	 viewBox="0 0 500 500" style="enable-background:new 0 0 500 500;" xml:space="preserve">
<style type="text/css">
	.st0{fill:#F68620;}
</style>
<path class="st0" d="M463.1,402.7c-5.5-4.7-6.2-10-6.2-15c0.2-20.5,0.2-42.1,0-64.3c-0.1-8.8-2-10.8-10.4-10.8
	c-39.9-0.1-79.6-0.1-118,0c-8.6,0-10.2,1.7-10.3,10.9v1c-0.1,11.8-0.3,24,0.1,35.9c0.1,4-0.6,6.6-2.3,8.3c-1.7,1.6-4.1,2.3-7.7,2.1
	c-8.4-0.4-17.6-0.4-28.1,0c-3.6,0.1-6-0.6-7.6-2.2s-2.3-4-2.2-7.5c0.3-10.5,0.2-21.2,0.1-31.5v-5.4c-0.1-10.2-1.4-11.6-11.3-11.6
	c-38.8-0.1-77.9-0.1-116.3,0c-9.2,0-11.1,1.9-11.2,11c-0.2,13.8-0.2,26.2,0,37.8c0.1,3.4-0.7,5.7-2.2,7.3c-1.5,1.5-3.8,2.2-7.1,2.1
	c-4.1-0.1-8.2-0.1-12.2-0.1c-3.5,0-7.1,0.1-10.6,0c-0.6,0-1.2,0-1.9,0.1c-2.8,0.2-7.4,0.5-8.2-4.9l-0.2-1.1
	c-0.7-4.2-1.5-9.5,2.9-13.5c0.8-0.7,1.6-1.4,2.4-2c1.1-0.8,2.1-1.6,2.9-2.5c7.3-7.6,7.4-19.7,0.3-27.6c-7.2-8-19.6-8.9-28.2-1.9
	C65,321,62.1,327,61.9,333c-0.1,4.5,1.4,8.5,4.3,11.1c8.9,8.2,9.6,17.1,9.6,27.9c0,9.6,2.3,11.9,12.5,12.1
	c5.8,0.1,11.6,0.1,17.3,0.1h16.9c2.9-0.1,7.3-0.3,8.7,4.8c1.4,5.1,0,9.2-4.2,12.5c-6.2,4.8-9.3,11.8-9.3,21.3
	c-0.1,6.9,0.6,10.3,2.4,12.1c1.8,1.8,5.1,2.5,11.7,2.5h140.8c10.1,0,11.5-1.5,12-12.1c0.5-11.9-2.7-19.6-10.3-25
	c-4.4-3.1-4.1-7.8-3.5-11c1-5.1,5.3-5.1,8.2-5h1.1c9.6-0.1,19.1-0.1,28.2,0h1.3c2.8-0.1,7-0.2,8.2,4.7c1.2,5,0,9-3.7,11.8
	c-7.1,5.3-10.3,12.8-10,23.6c0.3,11.9,1.6,13.2,13.6,13.2h141.9c6.2,0,10-1,10.9-6C472.8,417.9,470.6,409.1,463.1,402.7L463.1,402.7
	z M145.1,336.3c-0.1-3.8,0.7-6.4,2.4-8.1c1.6-1.7,4.1-2.4,7.7-2.4c28.7,0.2,58.7,0.2,91.6,0c3.8,0,6.3,0.8,8,2.5
	c1.7,1.7,2.5,4.2,2.4,7.8c-0.2,18.8-0.2,34.4,0,49.3c0.1,3.6-0.7,6.2-2.4,7.9c-1.8,1.8-4.5,2.6-8.8,2.5c-10.9-0.2-21.9-0.1-32.6-0.1
	h-25.9c-10.6,0-21.5-0.1-32.2,0.1h-0.5c-3.5,0-5.8-0.8-7.4-2.4c-1.7-1.7-2.4-4.2-2.4-8C145.4,369.7,145.4,353.1,145.1,336.3
	L145.1,336.3z M270.5,418.7c-0.6,5.3-5.2,5.2-8,5.1h-1.2c-15.3,0.1-30.8,0.1-45.8,0h-28.4c-14.9,0-30.3,0-45.5-0.1
	c-0.5,0-1.1,0-1.7,0.1c-0.7,0-1.4,0.1-2.1,0.1c-1.6,0-3.2-0.2-4.4-1.3c-1-0.9-1.6-2.3-1.6-4.1c-0.1-2.7,0.9-5,2.8-6.7
	c1.7-1.5,4.1-2.3,6.8-2.4c7.1-0.2,14.3-0.2,21.3-0.2h93c2.2,0,4.4,0,6.6,0.3C268,410.5,271,413.8,270.5,418.7z M331.6,336.3
	c-0.1-3.8,0.7-6.3,2.4-8c1.7-1.7,4.1-2.5,7.7-2.5h0.1c30.9,0.2,61.7,0.2,91.5,0c3.7,0,6.3,0.8,7.9,2.4c1.7,1.7,2.4,4.2,2.4,7.9
	c-0.3,18.7-0.3,34.4,0,49.3c0.1,3.8-0.7,6.3-2.4,8c-1.7,1.7-4.2,2.5-8.1,2.5h-0.6c-10.6-0.2-21.4-0.2-31.9-0.1h-25.9
	c-10.8,0-21.9-0.1-32.9,0.1c-3.8,0.1-6.3-0.7-8-2.4c-1.7-1.7-2.5-4.2-2.4-7.9C331.8,369.9,331.8,353.3,331.6,336.3L331.6,336.3z
	 M455.4,422.4c-1.7,1.5-4.1,1.4-6.1,1.4H448c-15.3,0.1-30.8,0.1-45.9,0.1h-28.9c-14.7,0-30,0-45-0.1c-0.5,0-1.1,0-1.8,0.1
	c-0.7,0-1.4,0.1-2.1,0.1c-1.7,0-3.4-0.3-4.6-1.4c-1.1-1.1-1.6-2.7-1.6-4.8c0.1-5.1,3.7-8.1,10-8.4c2.1-0.1,4.2-0.1,6.3-0.1h107.1
	c2.5,0,5.1,0,7.5,0.5c4.9,1,7.9,4.4,7.7,8.8C456.9,420.2,456.4,421.5,455.4,422.4z M82.7,302L82.7,302c5.7,0,10.9-2.3,14.7-6.3
	c3.9-4.2,5.9-9.4,5.6-14.8c-0.4-5.8-3.4-11.3-8.5-15.5L94,265c-2.5-2-5.1-4.2-5.1-8.5c0.1-17.1,0.1-33.8,0-51.4V185l2.2,1.3
	c3,1.7,3.8,4.2,4.5,6.1c0.2,0.5,0.4,1.1,0.6,1.5c2.8,6.2,5.6,12.3,8.3,18.5c8.1,17.9,16.4,36.4,24.2,54.8
	c3.4,8.2,8.1,11.2,17.5,11.1c31.5-0.3,63.6-0.2,94.6-0.2h70.8c32.7,0,66.6,0,99.8-0.1c6.6,0,10.5-1.1,12-3.5
	c1.4-2.2,0.9-5.8-1.4-11.1c-11.4-25.6-22.8-51.2-34.1-76.8c-20.5-46.1-41.7-93.7-62.4-140.6c-2.8-6.2-6.5-8.7-13.5-8.7h-0.1
	c-50.3,0.1-101.4,0.1-150.8,0.1H74c-10,0-11.5,1.5-11.6,11.4V70c0,11.5,0.1,23.5-0.1,35.2c-0.1,8.3,1.4,15.6,4.9,23.1
	c0.8,1.7,1.6,3.3,2.5,5c3,5.7,6,11.6,6,18.6c0,16.6,0,33.3-0.1,49.9c0,16.9-0.1,34.3-0.1,51.4c0,5.4-1.7,9.1-5.7,12.5
	c-4.6,3.9-7.3,9.3-7.6,15c-0.3,5.5,1.7,10.7,5.6,14.8C71.8,299.7,77.1,302,82.7,302L82.7,302z M86.5,53.3c1.3-2,4.1-2.4,8.3-2.4
	c74.1,0.2,147.1,0.1,208.8,0h0.1c5.8,0,10.2,1.3,13,7.7c26.5,60.1,55.1,124.3,87.3,196.4c1.5,3.5,1.8,5.8,0.7,7.5
	c-1.5,2.3-4.9,2.3-8.2,2.3c-26.5-0.1-53.4,0-79.5,0h-53.3c-24.9,0-50.6-0.1-75.9,0.2h-0.3c-7,0-10.9-2.6-13.7-9.1
	c-31.4-71.3-59.5-134.8-86.1-194.1C86,58.2,85.2,55.3,86.5,53.3L86.5,53.3z M75.6,89.4c0.4-4.6,0.7-9.5,0.6-14.2L76,67.7l15.3,34.5
	c9.3,21,18.7,42.1,28,63.1l4.4,9.8c11.2,25.3,22.8,51.4,34,77.2c0.3,0.7,0.8,1.4,1.3,2.2c1.6,2.3,4.1,5.9,0.3,9.5
	c-1.3,1.2-3.2,1.6-5.1,1.6c-1.4,0-2.7-0.2-3.7-0.4c-4.3-0.8-9.2-3-10.6-5.9c-6-12.9-11.6-25.6-17.4-38.6
	c-4.7-10.5-9.3-21.1-13.9-31.7C99,167.2,89.1,144.5,79,122.5C73.9,111.5,74.8,100.2,75.6,89.4L75.6,89.4z M418.3,118h0.4
	c16.1,0,30.9-14.6,31.2-30.9c0.1-7.6-3.2-15.5-9.1-21.6c-6-6.2-14-9.8-21.8-9.9h-0.4c-7.5,0-15.3,3.3-21.3,9.2
	c-6.2,6-9.8,13.9-9.9,21.7C387.2,102.7,401.9,117.8,418.3,118L418.3,118z M405.9,74.1c3.4-3.4,8-5.2,13-5c10,0.2,17.4,7.9,17.3,18
	c-0.1,10-7.8,17.5-17.7,17.5c-10,0-17.6-7.5-17.7-17.5C400.8,82,402.6,77.5,405.9,74.1L405.9,74.1z M386.2,62.4c1.7,1,3.7,1,5.4,0.1
	c1.9-1,3.1-2.9,3.3-5c0.1-1.6-1.9-5.6-6.6-10.6c-4.4-4.7-9.3-8.1-11.6-8.1h-0.1c-2.4,0.1-4.6,1.3-5.6,3.3c-1,1.8-0.9,3.8,0.2,5.5
	C375.2,54,380.4,59.1,386.2,62.4L386.2,62.4z M457.6,134.5c1.8,1.6,4.1,1.8,6.5,0.4c2.4-1.4,3.5-3.3,3.5-5.8
	c-0.1-4.4-13.3-17.3-17.8-17.5h-0.3c-2.3,0-4,0.9-5,2.7c-1.6,2.6-1.4,5.3,0.3,7.3C448.5,125.8,452.7,130,457.6,134.5L457.6,134.5z
	 M449.5,63.1c1.6,0,5.9-2.8,10.8-7.8c4.8-4.9,7.3-9.1,7.3-10.6c0-2.3-1.3-4.3-3.2-5.4c-0.9-0.5-1.8-0.7-2.7-0.7
	c-1.1,0-2.2,0.3-3.2,1c-5.9,3.8-10.9,8.8-14.3,14.4c-1.1,1.8-1.1,4,0,5.9C445.3,61.9,447.3,63.2,449.5,63.1L449.5,63.1z
	 M385.1,112.9c-4.9,3.8-9.5,8.4-13.3,13.4c-1.3,1.7-1.6,3.9-0.8,5.8c0.9,2,2.8,3.4,5.1,3.6c1.5,0.2,5.6-2.1,10.4-6.6
	c5.5-5.1,8.5-9.8,8.4-11.6c-0.1-2.3-1.4-4.3-3.5-5.4c-0.8-0.4-1.7-0.6-2.6-0.6C387.5,111.6,386.2,112,385.1,112.9z M419.4,125.3
	h-0.6c-6.3,0.3-6.7,5-6.6,12.3v0.1c0,2.2,0.4,4.4,1.1,6.3c1,2.8,3,4.1,5.9,4c2.6-0.1,4.5-1.4,5.3-3.8c0.6-1.6,0.8-3.4,0.9-4.8
	c0-0.5,0.1-0.9,0.1-1.2v-1.8c-0.1-4.2-0.1-8.1-2.1-9.9C422.6,125.8,421.2,125.3,419.4,125.3L419.4,125.3z M412.2,38.8
	c0,2.2,0.4,4.4,1.1,6.3c1,2.8,3,4.1,5.9,4c2.6-0.1,4.5-1.4,5.3-3.8c0.6-1.6,0.8-3.4,0.9-4.8c0-0.5,0.1-0.9,0.1-1.2v-1.8
	c-0.1-4.2-0.1-8.1-2.1-9.9c-0.9-0.8-2.2-1.3-4.1-1.3h-0.6c-6.3,0.3-6.7,5-6.6,12.3L412.2,38.8L412.2,38.8z M372.3,93.7
	c7.5,0.1,8.6-3.2,8.8-6.1c0.1-2.1-0.4-3.7-1.4-4.8c-1.4-1.5-4-2.2-7.8-2.3h-0.1c-5.8,0-8.8,2.2-8.8,6.7c0,1.9,0.5,3.3,1.4,4.3
	C365.7,93,368.3,93.7,372.3,93.7z M464.8,80.5C464.8,80.5,464.7,80.5,464.8,80.5c-5.9,0-8.9,2.2-8.9,6.7c0,1.9,0.5,3.3,1.4,4.3
	c1.4,1.5,4,2.2,7.9,2.2c7.4,0.1,8.6-3.2,8.7-6.1c0.1-2.1-0.4-3.7-1.4-4.8C471.2,81.3,468.6,80.5,464.8,80.5z"/>
<path class="st0" d="M188.9,363.5c3.4,2.3,5.4,4.8,5.9,7.6c0.4,2.3-0.1,4.7-1.7,7.1c0,2.8,1.1,5.3,2.9,6.5c1.5,1.1,3.4,1.2,5.3,0.4
	c3.8-1.6,14-21.8,12.9-25.7c-0.5-1.7-1.1-2.6-1.4-2.7c-7.2-3.5-4.9-9.1-3.3-12.8c1.7-4.2-1.4-6.5-3.5-7.5c-3-1.5-5.7-0.7-7.2,2.1
	c-3.3,5.8-6.3,12-9.2,18l-1.1,2.3C187.7,360.4,187.7,362.7,188.9,363.5L188.9,363.5z M376.7,365.4c6.1,3.3,4.6,6.9,3.1,10.8
	c-0.9,2.4-0.8,4.8,0.4,6.6c1.2,1.7,3.2,2.7,5.6,2.8c5.5-1.6,7.3-6.3,9.4-11.7c1-2.6,2.1-5.3,3.6-7.7c1.6-2.4,2.2-4.8,1.8-6.7
	c-0.3-1.3-1-2.3-2.3-3.1c-5.9-3.8-4.4-7.9-3-11.7c0.9-2.5,0.7-5-0.6-6.7c-0.9-1.2-2.3-1.8-3.9-1.8h-0.7c-6.8,0.7-8.7,5.8-10.9,11.7
	c-1,2.7-2.1,5.6-3.7,8c-1.5,2.2-2.1,4.5-1.7,6.3C374.5,363.6,375.3,364.7,376.7,365.4L376.7,365.4z M125.4,93.7h1.2
	c3.3-0.1,7.3-0.1,9.3,4.5c1.9,4.3,3.7,8.5,5.6,12.8l3.9,9c0.6,1.4,1.3,3.5,0.3,5.2c-0.7,1.3-2.2,2-4.4,2.3c-4.8,0.6-6.9,2.9-6.5,7.1
	c0.6,6,6.1,6,7.8,5.9c9.1-0.8,14.4,3.1,17.4,12.6c1.4,4.3,3.4,8.4,5.1,11.9c1,1.9,2,4.3,0.9,6.3s-3.7,2.4-5.8,2.6
	c-2.2,0.2-7.3,1.2-6.9,6.8c0.1,2.1,0.9,3.8,2.3,4.9c1.5,1.2,3.6,1.7,5.9,1.3c13.1-1.9,17.3,6.9,19.3,13.8c0.7,2.5,1.9,4.9,3.1,7.3
	c0.4,0.7,0.7,1.5,1,2.2c1.2,2.5,2.6,5.6,1.3,8.1c-0.9,1.7-2.9,2.8-6.1,3.3c-2.5,0.4-4,2.7-3.7,5.7c0.2,2,1.1,3.8,2.2,4.7
	c0.6,0.5,1.3,0.7,2,0.6c1.1-0.1,2.2-0.2,3.2-0.2c10.5,0,14.9,7.3,17.8,14.6c0.4,1.1,1.2,1.9,2.3,2.3c1.4,0.6,3.2,0.5,4.9-0.2
	c2.5-1.1,4.8-3.3,3.9-5.7c-1.4-3.8-1.4-6.4-0.2-8.1c1.8-2.4,5.4-2.3,9.2-2.1h0.6c2.7,0.1,5.5,0.2,8.2,0c8.5-0.9,17.7-0.2,21.3,12.1
	c0.5,1.8,1.6,3.1,3,3.8c1.4,0.7,3.1,0.7,4.9,0c3.8-1.5,5.1-4.3,3.8-8.1c-1-2.7-0.9-4.7,0.1-6c1.3-1.8,3.9-2,6.5-1.9
	c2.7,0.1,5.3,0.1,7.8,0l1.2-0.1c9.8-0.5,20.9-1,24.6,13.4c0.3,1.1,0.9,1.9,1.9,2.4c1.4,0.7,3.2,0.8,4.9,0.1c3.9-1.4,5.2-4.1,4.1-8.7
	l-0.1-0.4l0.1-0.3c0-0.2-0.1-0.6-0.2-0.9c-0.3-1.1-0.8-2.7,0.1-3.9c0.6-0.8,1.6-1.3,3-1.4c8.2-0.5,17.9-0.8,27.5,0.1
	c4.7,0.4,6.1,4.4,7.2,7.6c0.5,1.5,1,2.9,1.7,3.9c2.4,3.4,4.4,5.2,7.7,4.1c2.7-0.9,5.7-3,4.4-7.8c-0.6-2.3-1.2-4.5-0.1-6.3
	c0.8-1.3,2.3-2,4.6-2.4c3.5-0.6,4.4-3.6,4.1-6.3c-0.4-3.4-2.5-5.2-6.5-5.5c-0.8-0.1-1.8,0-2.9,0.1c-2.7,0.2-5.7,0.5-7.5-2
	c-5.4-7.4-8.5-16-11.4-24.3c-0.4-1-0.7-2.1-1.1-3.1c-0.5-1.5,0.8-3,2-4.5l0.4-0.5c3.1-3.7,4.3-6.7,3.5-8.7s-3.6-3.4-8.2-4.1
	c-4.9-0.7-7.7-2.9-9.5-7.4c-2.1-5.2-4.4-10.5-6.7-15.6l-1-2.2c-0.9-2-2.7-6.1,2.4-8.5c5.5-2.6,5.2-5.8,4.5-8
	c-1.1-3.4-3.8-4.9-8.3-4.7c-5.3,0.3-8.9-2-10.9-7.1c-1.8-4.4-3.8-8.8-5.7-13c-0.8-1.8-1.6-3.7-2.5-5.5c-0.8-1.7-1.5-3.7-0.7-5.6
	c0.6-1.2,1.8-2.1,3.7-2.6c4.6-1.3,6.5-4,5.6-8c-0.8-3.6-3.5-5.2-8.9-5.2c-5.8,0-9.6-2.1-12.7-7.1c-1.7-2.8-4-4.3-6.3-4.1
	c-2.1,0.2-4,1.9-5.1,4.8c-2.1,5.4-5.4,6.4-10.1,6.2c-1.9-0.1-3.9-0.1-5.8,0h-6.8c-6.9,0.1-14.1,0.2-18.7-8.9
	c-0.8-1.6-2.3-2.4-4.1-2.3c-2,0.1-4.5,1.6-5.6,4.6c-2.2,6.3-6.3,6.7-10.7,6.6c-4.7-0.1-8.9-0.2-13.1,0c-7.1,0.4-12.7-0.8-16.8-7.9
	c-1.4-2.3-3.3-3.5-5.3-3.3c-2.3,0.2-4.3,2.1-5.4,5c-2.2,5.8-6,6.2-10.1,6.1c-5.4-0.1-9.9-0.1-14,0c-6.1,0.2-11.9-0.2-16.1-7.6
	c-1.3-2.3-3-3.5-4.8-3.6c-2.2,0-4.5,1.7-6.3,4.7c-0.3,0.5-0.5,1-0.8,1.5c-1,1.9-2.1,4.1-4.8,5.1c-4.8,1.9-6.5,4.5-5.5,8.2
	C117.3,92.3,119.8,93.7,125.4,93.7L125.4,93.7z M237.8,218.7c-1.2,1.9-4.2,2-9.1,2.1h-9c-1.3-0.3-3-0.1-4.9,0.1
	c-1.2,0.1-2.5,0.3-3.9,0.3c-2.6,0-5.3-0.6-7.3-3.2c-5.1-6.7-7.9-14.9-10.6-22.8l-0.8-2.3c-0.5-1.5-0.4-2.9,0.3-3.9
	c1.2-1.6,3.5-1.9,5.4-1.9h22c4.1-0.1,7,1.9,8.7,6c1.2,2.8,2.5,5.6,3.7,8.4c1.1,2.5,2.3,5.1,3.4,7.6C238,214.3,239,216.8,237.8,218.7
	L237.8,218.7z M287.7,217.9c-1.8,2.8-6.5,2.8-16.7,2.8h-0.3c-1.3-0.3-3-0.1-4.8,0.1c-1.2,0.1-2.5,0.3-3.8,0.3
	c-2.6,0-5.3-0.6-7.3-3.2c-5.3-7.1-8.2-15.8-11-24.1l-0.3-1c-0.5-1.5-0.4-2.8,0.3-3.8c1.1-1.6,3.3-1.8,5.5-1.9h21.9
	c3.9,0,6.7,1.8,8.3,5.3c0.6,1.2,1.1,2.5,1.7,3.7c0.9,1.9,1.9,3.9,2.7,5.9C287.8,211,289.6,215.2,287.7,217.9L287.7,217.9z
	 M323.6,187.2c4.4,0,6.3,3.1,7.7,6.2c0.6,1.5,1.3,2.9,1.9,4.4c2.1,4.9,4.3,10,6.6,14.8c0.9,1.8,1.9,4.4,0.7,6.3
	c-1.2,1.9-3.9,2-6.3,1.9c-2.3-0.1-4.7-0.1-7.3-0.1h-4.3c-1.4-0.3-3.1,0-5,0.2c-1.3,0.2-2.8,0.3-4.1,0.3c-2.6,0-5.1-0.6-7-2.9
	c-4.7-5.7-7.3-12.9-9.8-19.7c-0.6-1.7-1.3-3.5-1.9-5.2c-0.7-1.7-0.6-3.1,0.2-4.3c0.9-1.3,2.6-2,5-2h21.7L323.6,187.2L323.6,187.2z
	 M310.9,146.8c0.7,1.5,1.3,3.1,1.9,4.6c1.7,4,3.4,8.2,5.4,12.1c1.2,2.3,2.5,5.6,1,7.9c-1.6,2.3-5.2,2.3-7.8,2.1
	c-1.9-0.2-3.8-0.1-6-0.1h-3.8c-1.4-0.3-3.2-0.1-5,0.1c-1.3,0.1-2.6,0.3-4,0.3c-2.8,0-5.6-0.7-7.6-3.7c-4-6.1-6.7-13.1-9.2-19.9
	c-0.5-1.4-1.1-2.8-1.6-4.2c-0.6-1.7-0.3-2.8,0.2-3.4c0.8-1.2,2.5-1.8,5-1.8c8.6,0,17.2,0,23.7,0.1
	C306.6,141,309.2,142.9,310.9,146.8L310.9,146.8z M253.9,95.9c0.9-1.3,2.8-2.1,5.4-2.1h23c4.8,0,6.9,3.3,8.3,6.5
	c0.6,1.5,1.3,2.9,1.9,4.4c1.9,4.4,3.9,8.9,5.9,13.3c1,2.1,2.1,5.1,0.5,7.3c-1.1,1.7-3.4,2.4-6.9,2.1c-2.3-0.1-4.6-0.1-7.3-0.1h-4.3
	c-1.2-0.2-2.9,0-4.6,0.2c-1.2,0.1-2.5,0.3-3.8,0.3c-2.6,0-5.1-0.6-6.8-3.1c-4.2-6.4-7.1-13.7-9.9-20.8c-0.5-1.4-1.1-2.7-1.6-4.1
	C253,97.9,253.4,96.6,253.9,95.9L253.9,95.9z M257.7,144c3.9,5.9,6.6,12.8,9.1,19.4c0.6,1.6,1.2,3.2,1.8,4.7
	c0.7,1.7,0.3,2.9-0.1,3.5c-0.8,1.2-2.4,1.8-4.9,1.8H240c-3.7,0-6.3-1.9-8-5.7c-0.6-1.4-1.2-2.9-1.9-4.3c-1.9-4.4-3.8-8.9-5.9-13.2
	c-1-2.1-2.2-5.1-0.7-7.3c1.4-2.2,4.6-2.2,6.9-2.1c2.1,0.1,4.2,0.1,6.6,0.1h4.2c1.3,0.3,3,0.1,4.9-0.1
	C250,140.3,254.8,139.7,257.7,144L257.7,144z M203.7,96.3c1.7-2.6,6-2.6,15.2-2.6c0.9,0,1.8,0,2.8,0.1c2,0.1,4,0.1,5.9-0.1
	c6.4-0.7,10.7,2.2,12.7,8.6c0.1,0.4,0.3,0.8,0.5,1.3c0.3,0.6,0.6,1.3,0.8,2c0.5,2.1,1.9,4.6,3.3,6.9c2.7,4.8,5.9,10.2,1.2,13
	c-3.5,2.1-7.6,2.8-12,2.8c-3.9,0-8-0.6-12.1-1.1c-1.8-0.2-3.5-0.5-5.2-0.6c-2.9-0.3-4-2.9-4.8-4.8l-0.3-0.6c-0.4-1-0.9-2-1.3-3
	l-3.3-7.5C203.6,102.6,202,98.9,203.7,96.3L203.7,96.3z M208.9,147.6c0.4,1.1,0.9,2.1,1.3,3.2c1.8,4.5,3.8,9.2,6,13.5
	c1,2,2.3,5,0.9,7.1c-1.4,2.1-4.5,2.2-7,2.1c-2.1-0.1-4.2-0.1-6.6-0.1h-4c-1.3-0.2-3,0-4.8,0.2c-1.3,0.1-2.7,0.3-4,0.3
	c-2.6,0-5.2-0.6-7.2-2.8c-4.4-5-6.7-11.3-8.9-17.4c-0.8-2.2-1.6-4.4-2.5-6.6c-0.7-1.7-0.7-3.1,0.1-4.3c0.9-1.3,2.5-2,4.9-2
	c7.3,0,15,0,23.7,0.1C205.5,141,207.6,144.5,208.9,147.6z M151,95.4c1.1-1.7,3.6-1.7,5-1.7h23.8c4.4,0,6.3,2.2,7.2,4.1
	c3,6.7,6.2,14.1,9.8,22.6c0.8,2,0.9,3.6,0,4.8c-0.9,1.3-2.6,2-5.2,2h-12.7c-1.3-0.2-2.9,0-4.7,0.2c-1.3,0.2-2.7,0.3-4.2,0.3
	c-2.6,0-5.2-0.6-7-3.2c-4.2-6.2-7.1-13.4-9.9-20.4c-0.7-1.8-1.4-3.5-2.1-5.3C150.4,97.6,150.4,96.4,151,95.4L151,95.4z"/>
</svg>
