<?xml version="1.0" encoding="utf-8"?>
<!-- Generator: Adobe Illustrator 28.0.0, SVG Export Plug-In . SVG Version: 6.00 Build 0)  -->
<svg version="1.1" id="Layer_1" xmlns="http://www.w3.org/2000/svg" xmlns:xlink="http://www.w3.org/1999/xlink" x="0px" y="0px"
	 viewBox="0 0 500 500" style="enable-background:new 0 0 500 500;" xml:space="preserve">
<style type="text/css">
	.st0{fill-rule:evenodd;clip-rule:evenodd;fill:#175D89;}
	.st1{fill:#F68620;}
	.st2{fill-rule:evenodd;clip-rule:evenodd;fill:#FFFFFF;}
	.st3{fill:#FFFFFF;}
</style>
<g>
	<path class="st2" d="M154.12,298c-33.58-6.45-60.05-23.84-79.06-51.98c-18.25-26.82-26.5-60.91-20.42-95.93
		c6.08-35.02,25.34-64.34,51.56-83.44c5.15-3.75,10.56-7.1,16.19-10.03c-0.11-0.03-0.22-0.06-0.33-0.1
		c5.04-19.9,13.13-14.29,32.58-18.69c-0.5,7.63-15.86,21.57-29.79,19.36c-6.18,3.09-12.1,6.69-17.71,10.77
		c-25.88,18.85-44.9,47.81-50.9,82.4c-6.01,34.59,2.13,68.26,20.15,94.73c18.01,26.47,45.89,45.75,79.38,51.56
		C159.84,297.48,161.04,299.21,154.12,298L154.12,298z M109.2,57.93L109.2,57.93c14.5-6.3,9.23-11.75,10.17-27.07
		C113.24,32.27,103.76,47.44,109.2,57.93L109.2,57.93z M94.84,71.49L94.84,71.49c12.76-9.33,6.43-13.49,3.97-28.65
		C93.15,45.57,87.23,62.45,94.84,71.49L94.84,71.49z M106.34,74.1L106.34,74.1c10.02,5.68,25.14-3,26.75-8.91
		C118.12,65.54,113,60.22,106.34,74.1L106.34,74.1z M88.44,91.43L88.44,91.43c10.52,4.7,24.74-5.39,25.77-11.43
		C99.34,81.78,93.74,76.97,88.44,91.43L88.44,91.43z M79.16,86.63L79.16,86.63c13.3-9.72,6.7-14.07,4.14-29.87
		C77.4,59.61,71.22,77.21,79.16,86.63L79.16,86.63z M68.19,103.17L68.19,103.17c9.01-13.79,1.3-15.52-6.68-29.4
		C56.99,78.52,57.44,97.16,68.19,103.17L68.19,103.17z M72.16,114.15L72.16,114.15c12.5,2.64,25.57-11.62,25.28-18.41
		C81.74,101.14,74.53,97.23,72.16,114.15L72.16,114.15z M56.57,123.12L56.57,123.12c10.22-15.65,1.47-17.61-7.58-33.35
		C43.86,95.15,44.37,116.31,56.57,123.12L56.57,123.12z M62.33,135.92L62.33,135.92c12.72,1.24,24.13-14.37,23.09-21.09
		C70.41,121.93,62.82,118.84,62.33,135.92L62.33,135.92z M49.88,144.09c7.49-17.96-1.84-18.31-14.1-32.71
		C31.56,117.87,36.09,139.43,49.88,144.09L49.88,144.09L49.88,144.09z M46.89,166.02L46.89,166.02c4.75-19.79-4.94-18.6-19.99-31.44
		C23.61,141.98,31.87,163.49,46.89,166.02L46.89,166.02z M57.43,165.66L57.43,165.66c15.88-0.92,26.9-22.33,24.33-30.38
		C64.67,146.9,54.74,144.56,57.43,165.66L57.43,165.66z M48.84,191.3L48.84,191.3c1.46-21.6-8.49-18.62-26.55-29.4
		C20.16,170.24,32.65,191.32,48.84,191.3L48.84,191.3z M54.58,210.79L54.58,210.79c-7.68-20.24-15.48-13.39-36.39-15.66
		C19.74,203.6,39.88,217.56,54.58,210.79L54.58,210.79z M59.02,194.39L59.02,194.39c15.71-3.19,23.64-26.12,19.91-33.78
		C63.56,174.65,53.32,173.74,59.02,194.39L59.02,194.39z M64.5,230.82L64.5,230.82c-11.77-18.16-17.95-9.83-38.87-7.64
		C28.92,231.13,51.55,240.54,64.5,230.82L64.5,230.82z M69.97,224.46L69.97,224.46c13.18-7.77,13.19-30.94,7.44-36.7
		C67.9,205.22,58.38,207.59,69.97,224.46L69.97,224.46z M75.23,252.35L75.23,252.35c-11.77-18.17-17.95-9.83-38.87-7.64
		C39.65,252.67,62.28,262.07,75.23,252.35L75.23,252.35z M90.06,253.91L90.06,253.91c10.22-12.82,1.37-36.01-6.59-39.58
		C80.63,235.44,72.01,241.46,90.06,253.91L90.06,253.91z M93.08,268.88L93.08,268.88c-16.99-15.71-21.2-5.44-42.29,2.36
		C56.31,278.61,82.24,282.37,93.08,268.88L93.08,268.88z M111.87,283.2L111.87,283.2c-19.32-11.81-21.38-1.15-40.12,10.38
		C78.45,299.59,104.05,298.22,111.87,283.2L111.87,283.2z M118.39,278.24L118.39,278.24c6.61-16.78-10.16-38.31-19.68-39.5
		C102.53,261.86,95.4,270.96,118.39,278.24L118.39,278.24z M346.56,298c33.58-6.45,60.05-23.84,79.06-51.98
		c18.25-26.82,26.5-60.91,20.42-95.93c-6.08-35.02-25.34-64.34-51.56-83.44c-5.15-3.75-10.56-7.1-16.19-10.03
		c0.11-0.03,0.22-0.06,0.33-0.1c-5.04-19.9-13.13-14.29-32.58-18.69c0.5,7.63,15.86,21.57,29.79,19.36
		c6.18,3.09,12.1,6.69,17.71,10.77c25.89,18.85,44.9,47.81,50.9,82.4c6.01,34.59-2.13,68.26-20.15,94.73
		c-18.01,26.47-45.89,45.75-79.38,51.56C340.84,297.48,339.64,299.21,346.56,298L346.56,298z M391.48,57.93L391.48,57.93
		c-14.5-6.3-9.23-11.75-10.17-27.07C387.44,32.27,396.92,47.44,391.48,57.93L391.48,57.93z M405.84,71.49L405.84,71.49
		c-12.76-9.33-6.43-13.49-3.97-28.65C407.53,45.57,413.45,62.45,405.84,71.49L405.84,71.49z M394.34,74.1L394.34,74.1
		c-10.02,5.69-25.14-3-26.75-8.91C382.56,65.54,387.68,60.22,394.34,74.1L394.34,74.1z M412.24,91.43L412.24,91.43
		c-10.52,4.7-24.74-5.39-25.77-11.43C401.34,81.78,406.94,76.97,412.24,91.43L412.24,91.43z M421.52,86.63L421.52,86.63
		c-13.3-9.72-6.7-14.07-4.14-29.87C423.28,59.61,429.46,77.21,421.52,86.63L421.52,86.63z M432.49,103.17L432.49,103.17
		c-9.01-13.79-1.3-15.52,6.68-29.4C443.69,78.52,443.24,97.16,432.49,103.17L432.49,103.17z M428.52,114.15L428.52,114.15
		c-12.5,2.64-25.57-11.62-25.28-18.41C418.94,101.14,426.15,97.23,428.52,114.15L428.52,114.15z M444.11,123.12L444.11,123.12
		c-10.22-15.65-1.47-17.61,7.58-33.35C456.82,95.15,456.32,116.31,444.11,123.12L444.11,123.12z M438.35,135.92L438.35,135.92
		c-12.72,1.24-24.13-14.37-23.09-21.09C430.27,121.93,437.87,118.84,438.35,135.92L438.35,135.92z M450.8,144.09
		c-7.49-17.96,1.84-18.31,14.1-32.71C469.12,117.87,464.59,139.43,450.8,144.09L450.8,144.09L450.8,144.09z M453.8,166.02
		L453.8,166.02c-4.75-19.79,4.94-18.6,19.99-31.44C477.07,141.98,468.81,163.49,453.8,166.02L453.8,166.02z M443.25,165.66
		L443.25,165.66c-15.88-0.92-26.9-22.33-24.33-30.38C436.02,146.9,445.95,144.56,443.25,165.66L443.25,165.66z M451.84,191.3
		L451.84,191.3c-1.46-21.6,8.49-18.62,26.55-29.4C480.52,170.24,468.03,191.32,451.84,191.3L451.84,191.3z M446.1,210.79
		L446.1,210.79c7.68-20.24,15.48-13.4,36.39-15.66C480.95,203.6,460.8,217.56,446.1,210.79L446.1,210.79z M441.66,194.39
		L441.66,194.39c-15.71-3.19-23.64-26.12-19.91-33.78C437.12,174.65,447.36,173.74,441.66,194.39L441.66,194.39z M436.18,230.82
		L436.18,230.82c11.77-18.16,17.95-9.83,38.87-7.64C471.76,231.13,449.13,240.54,436.18,230.82L436.18,230.82z M430.71,224.46
		L430.71,224.46c-13.18-7.77-13.19-30.94-7.44-36.7C432.78,205.22,442.3,207.59,430.71,224.46L430.71,224.46z M425.45,252.35
		L425.45,252.35c11.77-18.17,17.95-9.83,38.87-7.64C461.03,252.67,438.41,262.07,425.45,252.35L425.45,252.35z M410.62,253.91
		L410.62,253.91c-10.22-12.82-1.37-36.01,6.59-39.58C420.05,235.44,428.67,241.46,410.62,253.91L410.62,253.91z M407.6,268.88
		L407.6,268.88c16.99-15.71,21.2-5.44,42.29,2.36C444.37,278.61,418.45,282.37,407.6,268.88L407.6,268.88z M388.81,283.2
		L388.81,283.2c19.32-11.81,21.38-1.15,40.12,10.38C422.23,299.59,396.63,298.22,388.81,283.2L388.81,283.2z M382.29,278.24
		L382.29,278.24c-6.61-16.78,10.16-38.31,19.68-39.5C398.15,261.86,405.28,270.96,382.29,278.24z"/>
	<g>
		<path class="st3" d="M208.49,88.53V210.1h-22.58V107.46h-25.7V88.53H208.49z"/>
		<path class="st3" d="M257.29,204.45c-7.64-4.92-13.66-12.1-18.06-21.54c-4.4-9.43-6.6-20.64-6.6-33.61
			c0-12.97,2.2-24.17,6.6-33.61c4.4-9.44,10.42-16.61,18.06-21.54c7.64-4.92,16.32-7.38,26.05-7.38c9.73,0,18.44,2.46,26.14,7.38
			c7.7,4.92,13.75,12.1,18.15,21.54c4.4,9.44,6.6,20.64,6.6,33.61c0,12.97-2.2,24.17-6.6,33.61c-4.4,9.44-10.45,16.62-18.15,21.54
			c-7.7,4.92-16.41,7.38-26.14,7.38C273.61,211.84,264.93,209.38,257.29,204.45z M303.92,181.44c5.04-7.18,7.55-17.89,7.55-32.13
			s-2.52-24.95-7.55-32.13c-5.04-7.18-11.9-10.77-20.58-10.77c-8.57,0-15.37,3.59-20.41,10.77c-5.04,7.18-7.56,17.89-7.56,32.13
			s2.52,24.95,7.56,32.13c5.04,7.18,11.84,10.77,20.41,10.77C292.02,192.21,298.88,188.62,303.92,181.44z"/>
		<path class="st3" d="M170.82,267.55v14.89h-7.84v-14.77l-16.58-27.43h8.38l12.36,20.56l12.48-20.56h7.72L170.82,267.55z"/>
		<path class="st3" d="M223.51,275.87v6.57h-31.65v-42.2h30.81v6.57H199.7v10.97h20.38v6.45H199.7v11.63H223.51z"/>
		<path class="st3" d="M259.62,272.67h-21.1l-4.16,9.77h-8.08l18.99-42.2h7.72l19.05,42.2h-8.2L259.62,272.67z M257.03,266.53
			l-7.96-18.45l-7.9,18.45H257.03z"/>
		<path class="st3" d="M305.02,282.44l-8.62-12.36c-0.36,0.04-0.9,0.06-1.63,0.06h-9.52v12.3h-7.84v-42.2h17.36
			c3.66,0,6.84,0.6,9.56,1.81s4.79,2.93,6.24,5.19c1.45,2.25,2.17,4.92,2.17,8.02c0,3.18-0.77,5.91-2.32,8.2
			c-1.55,2.29-3.77,4-6.66,5.12l9.71,13.86H305.02z M302.19,249.04c-1.77-1.45-4.36-2.17-7.78-2.17h-9.16v16.82h9.16
			c3.42,0,6.01-0.73,7.78-2.2c1.77-1.47,2.65-3.55,2.65-6.24C304.84,252.56,303.95,250.49,302.19,249.04z"/>
		<path class="st3" d="M325.12,281.66c-3.03-0.92-5.44-2.15-7.2-3.68l2.71-6.09c1.73,1.37,3.85,2.48,6.36,3.35
			c2.51,0.86,5.03,1.3,7.57,1.3c3.14,0,5.48-0.5,7.02-1.51c1.55-1,2.32-2.33,2.32-3.98c0-1.21-0.43-2.2-1.3-2.98
			c-0.86-0.78-1.96-1.4-3.29-1.84c-1.33-0.44-3.14-0.94-5.43-1.51c-3.21-0.76-5.82-1.53-7.81-2.29c-1.99-0.76-3.7-1.96-5.12-3.59
			c-1.43-1.63-2.14-3.83-2.14-6.6c0-2.33,0.63-4.45,1.9-6.36c1.27-1.91,3.17-3.43,5.73-4.55c2.55-1.12,5.68-1.69,9.38-1.69
			c2.57,0,5.1,0.32,7.6,0.97c2.49,0.64,4.64,1.57,6.45,2.77l-2.47,6.09c-1.85-1.09-3.78-1.91-5.79-2.47
			c-2.01-0.56-3.96-0.84-5.85-0.84c-3.1,0-5.4,0.52-6.9,1.57c-1.51,1.05-2.26,2.43-2.26,4.16c0,1.21,0.43,2.19,1.3,2.95
			c0.86,0.76,1.96,1.37,3.29,1.81c1.33,0.44,3.13,0.95,5.43,1.51c3.14,0.72,5.71,1.48,7.72,2.26c2.01,0.78,3.73,1.98,5.15,3.59
			c1.42,1.61,2.14,3.78,2.14,6.51c0,2.33-0.63,4.44-1.9,6.33c-1.27,1.89-3.19,3.4-5.76,4.52c-2.57,1.12-5.71,1.69-9.41,1.69
			C331.3,283.04,328.16,282.58,325.12,281.66z"/>
	</g>
	<g>
		<path class="st3" d="M79.62,325.99l-15.95,47.72h-7.16l-13.02-38.11l-13.02,38.11h-7.29L7.23,325.99h7.02l12.88,38.79l13.43-38.79
			h6.27l13.16,38.99l13.16-38.99H79.62z"/>
		<path class="st3" d="M90.05,371.73c-2.86-1.59-5.1-3.78-6.71-6.58c-1.61-2.79-2.42-5.96-2.42-9.51c0-3.55,0.81-6.71,2.42-9.51
			c1.61-2.79,3.85-4.98,6.71-6.54c2.86-1.57,6.09-2.35,9.68-2.35c3.59,0,6.81,0.78,9.65,2.35c2.84,1.57,5.07,3.75,6.68,6.54
			c1.61,2.79,2.42,5.96,2.42,9.51c0,3.54-0.81,6.71-2.42,9.51c-1.61,2.79-3.84,4.99-6.68,6.58c-2.84,1.59-6.06,2.39-9.65,2.39
			C96.14,374.12,92.91,373.33,90.05,371.73z M105.97,366.79c1.84-1.07,3.28-2.57,4.33-4.5c1.04-1.93,1.57-4.15,1.57-6.64
			c0-2.5-0.52-4.71-1.57-6.65c-1.05-1.93-2.49-3.42-4.33-4.47c-1.84-1.05-3.92-1.57-6.24-1.57c-2.32,0-4.4,0.52-6.24,1.57
			c-1.84,1.05-3.29,2.53-4.36,4.47c-1.07,1.93-1.6,4.15-1.6,6.65c0,2.5,0.53,4.71,1.6,6.64c1.07,1.93,2.52,3.43,4.36,4.5
			c1.84,1.07,3.92,1.6,6.24,1.6C102.05,368.39,104.13,367.86,105.97,366.79z"/>
		<path class="st3" d="M138.86,338.88c2.23-1.09,4.93-1.64,8.11-1.64v6.34c-0.36-0.04-0.86-0.07-1.5-0.07
			c-3.54,0-6.33,1.06-8.35,3.17c-2.02,2.11-3.03,5.12-3.03,9.03v18h-6.54v-36.13h6.27v6.07
			C134.95,341.56,136.63,339.97,138.86,338.88z"/>
		<path class="st3" d="M169.05,356.87l-7.5,6.95v9.88h-6.54v-50.58h6.54v32.45l19.7-18h7.91l-15.2,14.93l16.7,21.2h-8.04
			L169.05,356.87z"/>
		<path class="st3" d="M252.52,341.2c2.66,2.64,3.99,6.54,3.99,11.72v20.79h-6.54v-20.04c0-3.5-0.81-6.14-2.42-7.91
			c-1.61-1.77-3.92-2.66-6.92-2.66c-3.32,0-5.95,1.03-7.91,3.1c-1.95,2.07-2.93,5.03-2.93,8.9v18.61h-6.54v-20.04
			c0-3.5-0.81-6.14-2.42-7.91c-1.61-1.77-3.92-2.66-6.92-2.66c-3.32,0-5.95,1.03-7.91,3.1c-1.95,2.07-2.93,5.03-2.93,8.9v18.61
			h-6.54v-36.13h6.27v5.38c1.32-1.86,3.04-3.28,5.18-4.26c2.14-0.98,4.57-1.47,7.29-1.47c2.82,0,5.32,0.57,7.5,1.7
			c2.18,1.14,3.86,2.79,5.04,4.98c1.36-2.09,3.26-3.73,5.69-4.91c2.43-1.18,5.17-1.77,8.21-1.77
			C246.26,337.24,249.86,338.56,252.52,341.2z"/>
		<path class="st3" d="M293.22,340.92c2.66,2.45,3.99,6.11,3.99,10.97v21.81H291v-4.77c-1.09,1.68-2.65,2.97-4.67,3.85
			c-2.02,0.89-4.42,1.33-7.19,1.33c-4.04,0-7.28-0.98-9.71-2.93c-2.43-1.95-3.65-4.52-3.65-7.7c0-3.18,1.16-5.74,3.48-7.67
			s6-2.9,11.04-2.9h10.36v-1.29c0-2.82-0.82-4.98-2.45-6.48c-1.64-1.5-4.04-2.25-7.23-2.25c-2.14,0-4.23,0.35-6.27,1.06
			s-3.77,1.65-5.18,2.83l-2.73-4.91c1.86-1.5,4.09-2.65,6.68-3.44c2.59-0.79,5.34-1.19,8.25-1.19
			C286.73,337.24,290.56,338.47,293.22,340.92z M286.71,367.41c1.82-1.11,3.14-2.69,3.95-4.74v-5.04h-10.09
			c-5.54,0-8.32,1.86-8.32,5.59c0,1.82,0.71,3.25,2.11,4.3c1.41,1.05,3.36,1.57,5.86,1.57
			C282.73,369.08,284.89,368.52,286.71,367.41z"/>
		<path class="st3" d="M339.57,341.23c2.7,2.66,4.06,6.56,4.06,11.69v20.79h-6.54v-20.04c0-3.5-0.84-6.14-2.52-7.91
			s-4.09-2.66-7.23-2.66c-3.54,0-6.34,1.03-8.38,3.1c-2.04,2.07-3.07,5.03-3.07,8.9v18.61h-6.54v-36.13h6.27v5.45
			c1.32-1.86,3.1-3.29,5.35-4.29c2.25-1,4.8-1.5,7.67-1.5C333.22,337.24,336.86,338.57,339.57,341.23z"/>
		<path class="st3" d="M357.6,372.93c-2.73-0.79-4.86-1.81-6.41-3.03l2.73-5.18c1.59,1.14,3.52,2.04,5.8,2.73
			c2.27,0.68,4.57,1.02,6.88,1.02c5.73,0,8.59-1.64,8.59-4.91c0-1.09-0.39-1.95-1.16-2.59c-0.77-0.64-1.74-1.1-2.9-1.4
			c-1.16-0.29-2.81-0.62-4.94-0.99c-2.91-0.45-5.28-0.98-7.12-1.57c-1.84-0.59-3.42-1.59-4.74-3c-1.32-1.41-1.98-3.38-1.98-5.93
			c0-3.27,1.36-5.9,4.09-7.87c2.73-1.98,6.38-2.97,10.97-2.97c2.41,0,4.82,0.3,7.23,0.89c2.41,0.59,4.38,1.39,5.93,2.39l-2.79,5.18
			c-2.95-1.91-6.43-2.86-10.43-2.86c-2.77,0-4.88,0.45-6.34,1.36c-1.45,0.91-2.18,2.11-2.18,3.61c0,1.18,0.41,2.11,1.23,2.79
			c0.82,0.68,1.83,1.18,3.03,1.5c1.2,0.32,2.9,0.68,5.08,1.09c2.91,0.5,5.26,1.03,7.06,1.6c1.79,0.57,3.33,1.53,4.6,2.9
			c1.27,1.36,1.91,3.27,1.91,5.73c0,3.27-1.4,5.87-4.19,7.8s-6.6,2.9-11.42,2.9C363.17,374.12,360.33,373.72,357.6,372.93z"/>
		<path class="st3" d="M420.14,341.23c2.7,2.66,4.06,6.56,4.06,11.69v20.79h-6.54v-20.04c0-3.5-0.84-6.14-2.52-7.91
			s-4.09-2.66-7.23-2.66c-3.54,0-6.34,1.03-8.38,3.1c-2.04,2.07-3.07,5.03-3.07,8.9v18.61h-6.54v-50.58h6.54v19.56
			c1.36-1.73,3.15-3.07,5.35-4.02c2.2-0.95,4.67-1.43,7.4-1.43C413.79,337.24,417.44,338.57,420.14,341.23z"/>
		<path class="st3" d="M436.43,329.4c-0.84-0.82-1.26-1.82-1.26-3c0-1.18,0.42-2.19,1.26-3.03c0.84-0.84,1.9-1.26,3.17-1.26
			c1.27,0,2.33,0.4,3.17,1.19c0.84,0.79,1.26,1.78,1.26,2.97c0,1.23-0.42,2.26-1.26,3.1c-0.84,0.84-1.9,1.26-3.17,1.26
			C438.33,330.63,437.27,330.22,436.43,329.4z M436.33,337.58h6.54v36.13h-6.54V337.58z"/>
		<path class="st3" d="M483.91,339.56c2.77,1.55,4.94,3.7,6.51,6.48c1.57,2.77,2.35,5.98,2.35,9.61s-0.78,6.85-2.35,9.64
			c-1.57,2.79-3.74,4.97-6.51,6.51c-2.77,1.55-5.91,2.32-9.41,2.32c-2.59,0-4.97-0.5-7.12-1.5c-2.16-1-3.99-2.45-5.49-4.36v18.68
			h-6.54v-49.35h6.27v5.73c1.45-2,3.29-3.51,5.52-4.53c2.23-1.02,4.68-1.53,7.36-1.53C478,337.24,481.14,338.02,483.91,339.56z
			 M480.2,366.79c1.84-1.07,3.29-2.57,4.36-4.5c1.07-1.93,1.6-4.15,1.6-6.64c0-2.5-0.53-4.71-1.6-6.65
			c-1.07-1.93-2.52-3.42-4.36-4.47s-3.92-1.57-6.24-1.57c-2.27,0-4.33,0.53-6.17,1.6c-1.84,1.07-3.3,2.56-4.36,4.47
			c-1.07,1.91-1.6,4.11-1.6,6.61c0,2.5,0.52,4.71,1.57,6.64c1.04,1.93,2.5,3.43,4.36,4.5c1.86,1.07,3.93,1.6,6.2,1.6
			C476.28,368.39,478.36,367.86,480.2,366.79z"/>
		<path class="st3" d="M164.18,407.79l-15.95,47.72h-7.16l-13.02-38.11l-13.02,38.11h-7.29l-15.95-47.72h7.02l12.88,38.79
			l13.43-38.79h6.27l13.16,38.99l13.16-38.99H164.18z"/>
		<path class="st3" d="M193.46,422.72c2.66,2.45,3.99,6.11,3.99,10.97v21.81h-6.2v-4.77c-1.09,1.68-2.65,2.97-4.67,3.85
			c-2.02,0.89-4.42,1.33-7.19,1.33c-4.05,0-7.28-0.98-9.71-2.93c-2.43-1.95-3.65-4.52-3.65-7.7c0-3.18,1.16-5.74,3.48-7.67
			c2.32-1.93,6-2.9,11.04-2.9h10.36v-1.29c0-2.82-0.82-4.98-2.45-6.48c-1.64-1.5-4.04-2.25-7.23-2.25c-2.14,0-4.23,0.35-6.27,1.06
			s-3.77,1.65-5.18,2.83l-2.73-4.91c1.86-1.5,4.09-2.65,6.68-3.44c2.59-0.79,5.34-1.19,8.25-1.19
			C186.97,419.04,190.8,420.27,193.46,422.72z M186.95,449.2c1.82-1.11,3.14-2.69,3.95-4.74v-5.04h-10.09
			c-5.54,0-8.32,1.86-8.32,5.59c0,1.82,0.7,3.25,2.11,4.3c1.41,1.05,3.36,1.57,5.86,1.57C182.97,450.87,185.13,450.32,186.95,449.2z
			"/>
		<path class="st3" d="M220.89,420.68c2.23-1.09,4.93-1.64,8.11-1.64v6.34c-0.36-0.04-0.86-0.07-1.5-0.07
			c-3.54,0-6.33,1.06-8.35,3.17c-2.02,2.11-3.03,5.12-3.03,9.03v18h-6.54v-36.13h6.27v6.07
			C216.98,423.36,218.67,421.77,220.89,420.68z"/>
		<path class="st3" d="M248.36,420.68c2.23-1.09,4.93-1.64,8.11-1.64v6.34c-0.36-0.04-0.86-0.07-1.5-0.07
			c-3.54,0-6.33,1.06-8.35,3.17c-2.02,2.11-3.03,5.12-3.03,9.03v18h-6.54v-36.13h6.27v6.07
			C244.45,423.36,246.14,421.77,248.36,420.68z"/>
		<path class="st3" d="M289.09,422.72c2.66,2.45,3.99,6.11,3.99,10.97v21.81h-6.2v-4.77c-1.09,1.68-2.65,2.97-4.67,3.85
			c-2.02,0.89-4.42,1.33-7.19,1.33c-4.04,0-7.28-0.98-9.71-2.93c-2.43-1.95-3.65-4.52-3.65-7.7c0-3.18,1.16-5.74,3.48-7.67
			c2.32-1.93,6-2.9,11.04-2.9h10.36v-1.29c0-2.82-0.82-4.98-2.45-6.48c-1.64-1.5-4.04-2.25-7.23-2.25c-2.14,0-4.23,0.35-6.27,1.06
			c-2.05,0.71-3.77,1.65-5.18,2.83l-2.73-4.91c1.86-1.5,4.09-2.65,6.68-3.44c2.59-0.79,5.34-1.19,8.25-1.19
			C282.61,419.04,286.44,420.27,289.09,422.72z M282.58,449.2c1.82-1.11,3.14-2.69,3.95-4.74v-5.04h-10.09
			c-5.54,0-8.32,1.86-8.32,5.59c0,1.82,0.71,3.25,2.11,4.3c1.41,1.05,3.36,1.57,5.86,1.57C278.61,450.87,280.76,450.32,282.58,449.2
			z"/>
		<path class="st3" d="M335.45,423.03c2.7,2.66,4.06,6.56,4.06,11.69v20.79h-6.54v-20.04c0-3.5-0.84-6.14-2.52-7.91
			c-1.68-1.77-4.09-2.66-7.23-2.66c-3.54,0-6.34,1.03-8.38,3.1c-2.04,2.07-3.07,5.03-3.07,8.9v18.61h-6.54v-36.13h6.27v5.45
			c1.32-1.86,3.1-3.29,5.35-4.29c2.25-1,4.8-1.5,7.67-1.5C329.09,419.04,332.74,420.37,335.45,423.03z"/>
		<path class="st3" d="M371.95,453.4c-0.95,0.82-2.14,1.44-3.54,1.87c-1.41,0.43-2.86,0.65-4.36,0.65c-3.64,0-6.45-0.98-8.45-2.93
			c-2-1.95-3-4.75-3-8.38v-19.84h-6.13v-5.38h6.13v-7.91h6.54v7.91h10.36v5.38h-10.36v19.56c0,1.95,0.49,3.45,1.47,4.5
			s2.37,1.57,4.19,1.57c2,0,3.7-0.57,5.11-1.7L371.95,453.4z"/>
		<path class="st3" d="M411.14,419.38l-17.52,39.74c-1.55,3.68-3.35,6.27-5.42,7.77c-2.07,1.5-4.56,2.25-7.46,2.25
			c-1.77,0-3.49-0.28-5.15-0.85c-1.66-0.57-3.03-1.4-4.12-2.49l2.79-4.91c1.86,1.77,4.02,2.66,6.48,2.66c1.59,0,2.92-0.42,3.99-1.26
			c1.07-0.84,2.03-2.28,2.9-4.33l1.16-2.52l-15.95-36.06h6.82l12.61,28.9l12.47-28.9H411.14z"/>
	</g>
</g>
</svg>
