<?xml version="1.0" encoding="utf-8"?>
<!-- Generator: Adobe Illustrator 28.0.0, SVG Export Plug-In . SVG Version: 6.00 Build 0)  -->
<svg version="1.1" id="Layer_1" xmlns="http://www.w3.org/2000/svg" xmlns:xlink="http://www.w3.org/1999/xlink" x="0px" y="0px"
	 viewBox="0 0 500 500" style="enable-background:new 0 0 500 500;" xml:space="preserve">
<style type="text/css">
	.st0{fill-rule:evenodd;clip-rule:evenodd;fill:#175D89;}
	.st1{fill:#F68620;}
	.st2{fill-rule:evenodd;clip-rule:evenodd;fill:#FFFFFF;}
	.st3{fill:#FFFFFF;}
</style>
<g>
	<path class="st2" d="M153.78,298c-33.58-6.45-60.05-23.84-79.06-51.98c-18.25-26.82-26.5-60.91-20.42-95.93
		c6.08-35.02,25.34-64.34,51.56-83.44c5.15-3.75,10.56-7.1,16.19-10.03c-0.11-0.03-0.22-0.06-0.33-0.1
		c5.04-19.9,13.13-14.29,32.58-18.69c-0.5,7.63-15.86,21.57-29.79,19.36c-6.18,3.09-12.1,6.69-17.71,10.77
		c-25.88,18.85-44.9,47.81-50.9,82.4c-6.01,34.59,2.13,68.26,20.15,94.73c18.01,26.47,45.89,45.75,79.38,51.56
		C159.5,297.48,160.7,299.21,153.78,298L153.78,298z M108.86,57.93L108.86,57.93c14.5-6.3,9.23-11.75,10.17-27.07
		C112.9,32.27,103.42,47.44,108.86,57.93L108.86,57.93z M94.5,71.49L94.5,71.49c12.76-9.33,6.43-13.49,3.97-28.65
		C92.81,45.57,86.89,62.45,94.5,71.49L94.5,71.49z M106,74.1L106,74.1c10.02,5.68,25.14-3,26.75-8.91
		C117.78,65.54,112.66,60.22,106,74.1L106,74.1z M88.1,91.43L88.1,91.43c10.52,4.7,24.74-5.39,25.77-11.43
		C99,81.78,93.4,76.97,88.1,91.43L88.1,91.43z M78.82,86.63L78.82,86.63c13.3-9.72,6.7-14.07,4.14-29.87
		C77.06,59.61,70.88,77.21,78.82,86.63L78.82,86.63z M67.85,103.17L67.85,103.17c9.01-13.79,1.3-15.52-6.68-29.4
		C56.65,78.52,57.1,97.16,67.85,103.17L67.85,103.17z M71.82,114.15L71.82,114.15c12.5,2.64,25.57-11.62,25.28-18.41
		C81.4,101.14,74.19,97.23,71.82,114.15L71.82,114.15z M56.23,123.12L56.23,123.12c10.22-15.65,1.47-17.61-7.58-33.35
		C43.52,95.15,44.03,116.31,56.23,123.12L56.23,123.12z M61.99,135.92L61.99,135.92c12.72,1.24,24.13-14.37,23.09-21.09
		C70.07,121.93,62.48,118.84,61.99,135.92L61.99,135.92z M49.54,144.09c7.49-17.96-1.84-18.31-14.1-32.71
		C31.22,117.87,35.75,139.43,49.54,144.09L49.54,144.09L49.54,144.09z M46.54,166.02L46.54,166.02c4.75-19.79-4.94-18.6-19.99-31.44
		C23.27,141.98,31.53,163.49,46.54,166.02L46.54,166.02z M57.09,165.66L57.09,165.66c15.88-0.92,26.9-22.33,24.33-30.38
		C64.32,146.9,54.4,144.56,57.09,165.66L57.09,165.66z M48.5,191.3L48.5,191.3c1.46-21.6-8.49-18.62-26.55-29.4
		C19.82,170.24,32.31,191.32,48.5,191.3L48.5,191.3z M54.24,210.79L54.24,210.79c-7.68-20.24-15.48-13.39-36.39-15.66
		C19.39,203.6,39.54,217.56,54.24,210.79L54.24,210.79z M58.68,194.39L58.68,194.39c15.71-3.19,23.64-26.12,19.91-33.78
		C63.22,174.65,52.98,173.74,58.68,194.39L58.68,194.39z M64.16,230.82L64.16,230.82c-11.77-18.16-17.95-9.83-38.87-7.64
		C28.58,231.13,51.21,240.53,64.16,230.82L64.16,230.82z M69.63,224.45L69.63,224.45c13.18-7.77,13.19-30.94,7.44-36.7
		C67.56,205.22,58.04,207.59,69.63,224.45L69.63,224.45z M74.89,252.35L74.89,252.35c-11.77-18.17-17.95-9.83-38.87-7.64
		C39.31,252.67,61.93,262.07,74.89,252.35L74.89,252.35z M89.72,253.91L89.72,253.91c10.22-12.82,1.37-36.01-6.59-39.58
		C80.29,235.44,71.67,241.46,89.72,253.91L89.72,253.91z M92.74,268.88L92.74,268.88c-16.99-15.71-21.2-5.44-42.29,2.36
		C55.97,278.61,81.9,282.37,92.74,268.88L92.74,268.88z M111.53,283.2L111.53,283.2c-19.32-11.81-21.38-1.15-40.12,10.38
		C78.11,299.59,103.71,298.22,111.53,283.2L111.53,283.2z M118.05,278.24L118.05,278.24c6.61-16.78-10.16-38.31-19.68-39.5
		C102.19,261.86,95.06,270.96,118.05,278.24L118.05,278.24z M346.22,298c33.58-6.45,60.05-23.84,79.06-51.98
		c18.25-26.82,26.5-60.91,20.42-95.93c-6.08-35.02-25.34-64.34-51.56-83.44c-5.15-3.75-10.56-7.1-16.19-10.03
		c0.11-0.03,0.22-0.06,0.33-0.1c-5.04-19.9-13.13-14.29-32.58-18.69c0.5,7.63,15.86,21.57,29.79,19.36
		c6.18,3.09,12.1,6.69,17.71,10.77c25.89,18.85,44.9,47.81,50.9,82.4c6.01,34.59-2.13,68.26-20.15,94.73
		c-18.01,26.47-45.89,45.75-79.38,51.56C340.5,297.48,339.3,299.21,346.22,298L346.22,298z M391.14,57.93L391.14,57.93
		c-14.5-6.3-9.23-11.75-10.17-27.07C387.1,32.27,396.58,47.44,391.14,57.93L391.14,57.93z M405.5,71.49L405.5,71.49
		c-12.76-9.33-6.43-13.49-3.97-28.65C407.19,45.57,413.11,62.45,405.5,71.49L405.5,71.49z M394,74.1L394,74.1
		c-10.02,5.69-25.14-3-26.75-8.91C382.22,65.54,387.34,60.22,394,74.1L394,74.1z M411.9,91.43L411.9,91.43
		c-10.52,4.7-24.74-5.39-25.77-11.43C401,81.78,406.6,76.97,411.9,91.43L411.9,91.43z M421.18,86.63L421.18,86.63
		c-13.3-9.72-6.7-14.07-4.14-29.87C422.94,59.61,429.12,77.21,421.18,86.63L421.18,86.63z M432.15,103.17L432.15,103.17
		c-9.01-13.79-1.3-15.52,6.68-29.4C443.35,78.52,442.9,97.16,432.15,103.17L432.15,103.17z M428.18,114.15L428.18,114.15
		c-12.5,2.64-25.57-11.62-25.28-18.41C418.6,101.14,425.81,97.23,428.18,114.15L428.18,114.15z M443.77,123.12L443.77,123.12
		c-10.22-15.65-1.47-17.61,7.58-33.35C456.48,95.15,455.97,116.31,443.77,123.12L443.77,123.12z M438.01,135.92L438.01,135.92
		c-12.72,1.24-24.13-14.37-23.09-21.09C429.93,121.93,437.52,118.84,438.01,135.92L438.01,135.92z M450.46,144.09
		c-7.49-17.96,1.84-18.31,14.1-32.71C468.78,117.87,464.25,139.43,450.46,144.09L450.46,144.09L450.46,144.09z M453.45,166.02
		L453.45,166.02c-4.75-19.79,4.94-18.6,19.99-31.44C476.73,141.98,468.47,163.49,453.45,166.02L453.45,166.02z M442.91,165.66
		L442.91,165.66c-15.88-0.92-26.9-22.33-24.33-30.38C435.68,146.9,445.6,144.56,442.91,165.66L442.91,165.66z M451.5,191.3
		L451.5,191.3c-1.46-21.6,8.49-18.62,26.55-29.4C480.18,170.24,467.69,191.32,451.5,191.3L451.5,191.3z M445.76,210.79
		L445.76,210.79c7.68-20.24,15.48-13.4,36.39-15.66C480.61,203.6,460.46,217.56,445.76,210.79L445.76,210.79z M441.32,194.39
		L441.32,194.39c-15.71-3.19-23.64-26.12-19.91-33.78C436.78,174.65,447.02,173.74,441.32,194.39L441.32,194.39z M435.84,230.82
		L435.84,230.82c11.77-18.16,17.95-9.83,38.87-7.64C471.42,231.13,448.79,240.53,435.84,230.82L435.84,230.82z M430.37,224.45
		L430.37,224.45c-13.18-7.77-13.19-30.94-7.44-36.7C432.44,205.22,441.96,207.59,430.37,224.45L430.37,224.45z M425.11,252.35
		L425.11,252.35c11.77-18.17,17.95-9.83,38.87-7.64C460.69,252.67,438.07,262.07,425.11,252.35L425.11,252.35z M410.28,253.91
		L410.28,253.91c-10.22-12.82-1.37-36.01,6.59-39.58C419.71,235.44,428.33,241.46,410.28,253.91L410.28,253.91z M407.26,268.88
		L407.26,268.88c16.99-15.71,21.2-5.44,42.29,2.36C444.03,278.61,418.1,282.37,407.26,268.88L407.26,268.88z M388.47,283.2
		L388.47,283.2c19.32-11.81,21.38-1.15,40.12,10.38C421.89,299.59,396.29,298.22,388.47,283.2L388.47,283.2z M381.95,278.24
		L381.95,278.24c-6.61-16.78,10.16-38.31,19.68-39.5C397.81,261.86,404.94,270.96,381.95,278.24z"/>
	<g>
		<path class="st3" d="M244.44,190.99v19.1h-89.62v-15.11l48.28-45.85c5.44-5.21,9.12-9.75,11.03-13.63
			c1.91-3.88,2.87-7.73,2.87-11.55c0-5.67-1.91-10.01-5.73-13.03c-3.82-3.01-9.44-4.52-16.85-4.52c-12.39,0-21.88,4.23-28.48,12.68
			l-15.8-12.16c4.75-6.37,11.14-11.32,19.19-14.85c8.05-3.53,17.05-5.3,27.01-5.3c13.2,0,23.73,3.13,31.61,9.38
			c7.87,6.25,11.81,14.76,11.81,25.53c0,6.6-1.39,12.79-4.17,18.58c-2.78,5.79-8.11,12.39-15.98,19.8l-32.48,30.91H244.44z"/>
		<path class="st3" d="M333.53,145.58c8.22,6.66,12.33,15.72,12.33,27.18c0,7.3-1.8,13.89-5.38,19.8
			c-3.59,5.9-8.97,10.59-16.15,14.07c-7.18,3.47-16.04,5.21-26.57,5.21c-8.68,0-17.08-1.25-25.18-3.73
			c-8.11-2.49-14.94-5.93-20.49-10.33l9.55-17.54c4.51,3.71,9.93,6.63,16.24,8.77c6.31,2.14,12.82,3.21,19.54,3.21
			c7.99,0,14.27-1.65,18.84-4.95c4.57-3.3,6.86-7.84,6.86-13.63c0-6.25-2.46-10.97-7.38-14.15c-4.92-3.18-13.35-4.78-25.27-4.78
			h-29.35l6.25-66.17h71.38v18.93h-52.27l-2.61,28.13h11.64C312.63,135.59,325.31,138.92,333.53,145.58z"/>
		<path class="st3" d="M170.48,267.55v14.89h-7.84v-14.77l-16.58-27.43h8.38l12.36,20.56l12.48-20.56H187L170.48,267.55z"/>
		<path class="st3" d="M223.17,275.87v6.57h-31.65v-42.2h30.81v6.57h-22.97v10.97h20.38v6.45h-20.38v11.63H223.17z"/>
		<path class="st3" d="M259.28,272.67h-21.1l-4.16,9.77h-8.08l18.99-42.2h7.72l19.05,42.2h-8.2L259.28,272.67z M256.69,266.53
			l-7.96-18.45l-7.9,18.45H256.69z"/>
		<path class="st3" d="M304.68,282.44l-8.62-12.36c-0.36,0.04-0.9,0.06-1.63,0.06h-9.52v12.3h-7.84v-42.2h17.36
			c3.66,0,6.84,0.6,9.56,1.81s4.79,2.93,6.24,5.19c1.45,2.25,2.17,4.92,2.17,8.02c0,3.18-0.77,5.91-2.32,8.2
			c-1.55,2.29-3.77,4-6.66,5.12l9.71,13.86H304.68z M301.85,249.04c-1.77-1.45-4.36-2.17-7.78-2.17h-9.16v16.82h9.16
			c3.42,0,6.01-0.73,7.78-2.2c1.77-1.47,2.65-3.55,2.65-6.24C304.5,252.56,303.61,250.49,301.85,249.04z"/>
		<path class="st3" d="M324.78,281.66c-3.03-0.92-5.44-2.15-7.2-3.68l2.71-6.09c1.73,1.37,3.85,2.48,6.36,3.35
			c2.51,0.86,5.03,1.3,7.57,1.3c3.14,0,5.48-0.5,7.02-1.51c1.55-1,2.32-2.33,2.32-3.98c0-1.21-0.43-2.2-1.3-2.98
			c-0.86-0.78-1.96-1.4-3.29-1.84c-1.33-0.44-3.14-0.94-5.43-1.51c-3.21-0.76-5.82-1.53-7.81-2.29c-1.99-0.76-3.7-1.96-5.12-3.59
			c-1.43-1.63-2.14-3.83-2.14-6.6c0-2.33,0.63-4.45,1.9-6.36c1.27-1.91,3.17-3.43,5.73-4.55c2.55-1.12,5.68-1.69,9.38-1.69
			c2.57,0,5.1,0.32,7.6,0.97c2.49,0.64,4.64,1.57,6.45,2.77l-2.47,6.09c-1.85-1.09-3.78-1.91-5.79-2.47
			c-2.01-0.56-3.96-0.84-5.85-0.84c-3.1,0-5.4,0.52-6.9,1.57c-1.51,1.05-2.26,2.43-2.26,4.16c0,1.21,0.43,2.19,1.3,2.95
			c0.86,0.76,1.96,1.37,3.29,1.81c1.33,0.44,3.13,0.95,5.43,1.51c3.14,0.72,5.71,1.48,7.72,2.26c2.01,0.78,3.73,1.98,5.15,3.59
			c1.42,1.61,2.14,3.78,2.14,6.51c0,2.33-0.63,4.44-1.9,6.33c-1.27,1.89-3.19,3.4-5.76,4.52c-2.57,1.12-5.71,1.69-9.41,1.69
			C330.96,283.04,327.82,282.58,324.78,281.66z"/>
	</g>
	<g>
		<path class="st3" d="M64.42,330.43c3.54,2.95,5.32,7.02,5.32,12.2c0,5.18-1.77,9.25-5.32,12.2c-3.54,2.95-8.41,4.43-14.59,4.43
			H38.04v14.45h-6.82v-47.72h18.61C56.01,325.99,60.87,327.47,64.42,330.43z M59.51,350.57c2.27-1.84,3.41-4.49,3.41-7.94
			c0-3.45-1.14-6.1-3.41-7.94c-2.27-1.84-5.57-2.76-9.88-2.76H38.04v21.41h11.59C53.94,353.33,57.24,352.41,59.51,350.57z"/>
		<path class="st3" d="M111.18,357.83H81.87c0.41,3.18,1.81,5.74,4.19,7.67c2.39,1.93,5.35,2.9,8.9,2.9c4.32,0,7.79-1.45,10.43-4.36
			l3.61,4.23c-1.64,1.91-3.67,3.36-6.1,4.36c-2.43,1-5.15,1.5-8.15,1.5c-3.82,0-7.2-0.78-10.16-2.35c-2.95-1.57-5.24-3.76-6.85-6.58
			c-1.61-2.82-2.42-6-2.42-9.54c0-3.5,0.78-6.66,2.35-9.48c1.57-2.82,3.73-5.01,6.48-6.58c2.75-1.57,5.85-2.35,9.3-2.35
			c3.45,0,6.53,0.78,9.24,2.35c2.7,1.57,4.82,3.76,6.34,6.58c1.52,2.82,2.28,6.04,2.28,9.68
			C111.32,356.35,111.27,357.01,111.18,357.83z M85.58,345.63c-2.11,1.91-3.35,4.41-3.72,7.5h23.18c-0.36-3.04-1.6-5.53-3.71-7.46
			c-2.11-1.93-4.74-2.9-7.87-2.9C90.32,342.76,87.7,343.72,85.58,345.63z"/>
		<path class="st3" d="M131.7,338.88c2.23-1.09,4.93-1.64,8.11-1.64v6.34c-0.36-0.04-0.86-0.07-1.5-0.07
			c-3.54,0-6.33,1.06-8.35,3.17c-2.02,2.11-3.03,5.12-3.03,9.03v18h-6.54v-36.13h6.27v6.07
			C127.79,341.56,129.47,339.97,131.7,338.88z"/>
		<path class="st3" d="M155.69,334.45v3.14h10.5v5.38h-10.36v30.74h-6.54v-30.74h-6.13v-5.38h6.13v-3.2c0-3.59,1.04-6.43,3.14-8.52
			c2.09-2.09,5.02-3.14,8.79-3.14c1.45,0,2.82,0.18,4.09,0.54c1.27,0.36,2.36,0.89,3.27,1.57l-1.98,4.98
			c-1.5-1.14-3.18-1.7-5.04-1.7C157.65,328.11,155.69,330.22,155.69,334.45z"/>
		<path class="st3" d="M177.64,371.73c-2.86-1.59-5.1-3.78-6.71-6.58c-1.61-2.79-2.42-5.96-2.42-9.51c0-3.55,0.81-6.71,2.42-9.51
			c1.61-2.79,3.85-4.98,6.71-6.54c2.86-1.57,6.09-2.35,9.68-2.35c3.59,0,6.81,0.78,9.65,2.35c2.84,1.57,5.07,3.75,6.68,6.54
			c1.61,2.79,2.42,5.96,2.42,9.51c0,3.54-0.81,6.71-2.42,9.51c-1.61,2.79-3.84,4.99-6.68,6.58c-2.84,1.59-6.06,2.39-9.65,2.39
			C183.73,374.12,180.51,373.33,177.64,371.73z M193.56,366.79c1.84-1.07,3.28-2.57,4.33-4.5c1.04-1.93,1.57-4.15,1.57-6.64
			c0-2.5-0.52-4.71-1.57-6.65c-1.05-1.93-2.49-3.42-4.33-4.47s-3.92-1.57-6.24-1.57c-2.32,0-4.4,0.52-6.24,1.57
			c-1.84,1.05-3.29,2.53-4.36,4.47c-1.07,1.93-1.6,4.15-1.6,6.65c0,2.5,0.53,4.71,1.6,6.64c1.07,1.93,2.52,3.43,4.36,4.5
			c1.84,1.07,3.92,1.6,6.24,1.6C189.64,368.39,191.72,367.86,193.56,366.79z"/>
		<path class="st3" d="M226.45,338.88c2.23-1.09,4.93-1.64,8.11-1.64v6.34c-0.36-0.04-0.86-0.07-1.5-0.07
			c-3.54,0-6.33,1.06-8.35,3.17c-2.02,2.11-3.03,5.12-3.03,9.03v18h-6.54v-36.13h6.27v6.07
			C222.54,341.56,224.22,339.97,226.45,338.88z"/>
		<path class="st3" d="M298.6,341.2c2.66,2.64,3.99,6.54,3.99,11.72v20.79h-6.54v-20.04c0-3.5-0.81-6.14-2.42-7.91
			c-1.61-1.77-3.92-2.66-6.92-2.66c-3.32,0-5.95,1.03-7.91,3.1c-1.95,2.07-2.93,5.03-2.93,8.9v18.61h-6.54v-20.04
			c0-3.5-0.81-6.14-2.42-7.91c-1.61-1.77-3.92-2.66-6.92-2.66c-3.32,0-5.95,1.03-7.91,3.1c-1.95,2.07-2.93,5.03-2.93,8.9v18.61
			h-6.54v-36.13h6.27v5.38c1.32-1.86,3.04-3.28,5.18-4.26c2.14-0.98,4.57-1.47,7.29-1.47c2.82,0,5.32,0.57,7.5,1.7
			c2.18,1.14,3.86,2.79,5.04,4.98c1.36-2.09,3.26-3.73,5.69-4.91c2.43-1.18,5.17-1.77,8.21-1.77
			C292.34,337.24,295.94,338.56,298.6,341.2z"/>
		<path class="st3" d="M339.3,340.92c2.66,2.45,3.99,6.11,3.99,10.97v21.81h-6.2v-4.77c-1.09,1.68-2.65,2.97-4.67,3.85
			c-2.02,0.89-4.42,1.33-7.19,1.33c-4.04,0-7.28-0.98-9.71-2.93c-2.43-1.95-3.65-4.52-3.65-7.7c0-3.18,1.16-5.74,3.48-7.67
			c2.32-1.93,6-2.9,11.04-2.9h10.36v-1.29c0-2.82-0.82-4.98-2.45-6.48c-1.64-1.5-4.04-2.25-7.23-2.25c-2.14,0-4.23,0.35-6.27,1.06
			c-2.05,0.71-3.77,1.65-5.18,2.83l-2.73-4.91c1.86-1.5,4.09-2.65,6.68-3.44c2.59-0.79,5.34-1.19,8.25-1.19
			C332.81,337.24,336.64,338.47,339.3,340.92z M332.79,367.41c1.82-1.11,3.14-2.69,3.95-4.74v-5.04h-10.09
			c-5.54,0-8.32,1.86-8.32,5.59c0,1.82,0.71,3.25,2.11,4.29c1.41,1.05,3.36,1.57,5.86,1.57
			C328.81,369.08,330.97,368.52,332.79,367.41z"/>
		<path class="st3" d="M385.65,341.23c2.7,2.66,4.06,6.56,4.06,11.69v20.79h-6.54v-20.04c0-3.5-0.84-6.14-2.52-7.91
			s-4.09-2.66-7.23-2.66c-3.54,0-6.34,1.03-8.38,3.1c-2.04,2.07-3.07,5.03-3.07,8.9v18.61h-6.54v-36.13h6.27v5.45
			c1.32-1.86,3.1-3.29,5.35-4.29c2.25-1,4.8-1.5,7.67-1.5C379.3,337.24,382.94,338.57,385.65,341.23z"/>
		<path class="st3" d="M407.94,371.73c-2.89-1.59-5.15-3.78-6.78-6.58c-1.64-2.79-2.45-5.96-2.45-9.51c0-3.55,0.82-6.71,2.45-9.51
			c1.64-2.79,3.9-4.98,6.78-6.54c2.88-1.57,6.17-2.35,9.85-2.35c3.27,0,6.19,0.66,8.76,1.98c2.57,1.32,4.56,3.23,5.97,5.73
			l-4.98,3.2c-1.14-1.73-2.55-3.02-4.23-3.89c-1.68-0.86-3.54-1.29-5.59-1.29c-2.36,0-4.49,0.52-6.37,1.57
			c-1.89,1.05-3.36,2.53-4.43,4.47c-1.07,1.93-1.6,4.15-1.6,6.65c0,2.54,0.53,4.78,1.6,6.71c1.07,1.93,2.54,3.42,4.43,4.47
			c1.88,1.05,4.01,1.57,6.37,1.57c2.05,0,3.91-0.43,5.59-1.3c1.68-0.86,3.09-2.16,4.23-3.88l4.98,3.14c-1.41,2.5-3.4,4.42-5.97,5.76
			c-2.57,1.34-5.49,2.01-8.76,2.01C414.11,374.12,410.82,373.33,407.94,371.73z"/>
		<path class="st3" d="M472.93,357.83h-29.31c0.41,3.18,1.81,5.74,4.19,7.67c2.39,1.93,5.35,2.9,8.9,2.9
			c4.32,0,7.79-1.45,10.43-4.36l3.61,4.23c-1.64,1.91-3.67,3.36-6.1,4.36c-2.43,1-5.15,1.5-8.15,1.5c-3.82,0-7.2-0.78-10.16-2.35
			c-2.95-1.57-5.24-3.76-6.85-6.58c-1.61-2.82-2.42-6-2.42-9.54c0-3.5,0.78-6.66,2.35-9.48c1.57-2.82,3.73-5.01,6.48-6.58
			c2.75-1.57,5.85-2.35,9.3-2.35c3.45,0,6.53,0.78,9.24,2.35c2.7,1.57,4.82,3.76,6.34,6.58c1.52,2.82,2.28,6.04,2.28,9.68
			C473.07,356.35,473.03,357.01,472.93,357.83z M447.34,345.63c-2.11,1.91-3.35,4.41-3.72,7.5h23.18c-0.36-3.04-1.6-5.53-3.72-7.46
			c-2.11-1.93-4.74-2.9-7.87-2.9C452.08,342.76,449.45,343.72,447.34,345.63z"/>
		<path class="st3" d="M163.84,407.79l-15.95,47.72h-7.16l-13.02-38.11l-13.02,38.11h-7.29l-15.95-47.72h7.02l12.88,38.79
			l13.43-38.79h6.27l13.16,38.99l13.16-38.99H163.84z"/>
		<path class="st3" d="M193.12,422.72c2.66,2.45,3.99,6.11,3.99,10.97v21.81h-6.2v-4.77c-1.09,1.68-2.65,2.97-4.67,3.85
			c-2.02,0.89-4.42,1.33-7.19,1.33c-4.05,0-7.28-0.98-9.71-2.93c-2.43-1.95-3.65-4.52-3.65-7.7c0-3.18,1.16-5.74,3.48-7.67
			s6-2.9,11.04-2.9h10.36v-1.29c0-2.82-0.82-4.98-2.45-6.48c-1.64-1.5-4.04-2.25-7.23-2.25c-2.14,0-4.23,0.35-6.27,1.06
			c-2.04,0.71-3.77,1.65-5.18,2.83l-2.73-4.91c1.86-1.5,4.09-2.65,6.68-3.44c2.59-0.79,5.34-1.19,8.25-1.19
			C186.63,419.04,190.46,420.27,193.12,422.72z M186.61,449.2c1.82-1.11,3.14-2.69,3.95-4.74v-5.04h-10.09
			c-5.54,0-8.32,1.86-8.32,5.59c0,1.82,0.7,3.25,2.11,4.29c1.41,1.05,3.36,1.57,5.86,1.57C182.63,450.88,184.79,450.32,186.61,449.2
			z"/>
		<path class="st3" d="M220.55,420.68c2.23-1.09,4.93-1.64,8.11-1.64v6.34c-0.36-0.04-0.86-0.07-1.5-0.07
			c-3.54,0-6.33,1.06-8.35,3.17c-2.02,2.11-3.03,5.12-3.03,9.03v18h-6.54v-36.13h6.27v6.07
			C216.64,423.36,218.33,421.77,220.55,420.68z"/>
		<path class="st3" d="M248.02,420.68c2.23-1.09,4.93-1.64,8.11-1.64v6.34c-0.36-0.04-0.86-0.07-1.5-0.07
			c-3.54,0-6.33,1.06-8.35,3.17c-2.02,2.11-3.03,5.12-3.03,9.03v18h-6.54v-36.13h6.27v6.07
			C244.11,423.36,245.8,421.77,248.02,420.68z"/>
		<path class="st3" d="M288.75,422.72c2.66,2.45,3.99,6.11,3.99,10.97v21.81h-6.2v-4.77c-1.09,1.68-2.65,2.97-4.67,3.85
			c-2.02,0.89-4.42,1.33-7.19,1.33c-4.04,0-7.28-0.98-9.71-2.93c-2.43-1.95-3.65-4.52-3.65-7.7c0-3.18,1.16-5.74,3.48-7.67
			c2.32-1.93,6-2.9,11.04-2.9h10.36v-1.29c0-2.82-0.82-4.98-2.45-6.48c-1.64-1.5-4.04-2.25-7.23-2.25c-2.14,0-4.23,0.35-6.27,1.06
			c-2.05,0.71-3.77,1.65-5.18,2.83l-2.73-4.91c1.86-1.5,4.09-2.65,6.68-3.44c2.59-0.79,5.34-1.19,8.25-1.19
			C282.26,419.04,286.09,420.27,288.75,422.72z M282.24,449.2c1.82-1.11,3.14-2.69,3.95-4.74v-5.04h-10.09
			c-5.54,0-8.32,1.86-8.32,5.59c0,1.82,0.71,3.25,2.11,4.29c1.41,1.05,3.36,1.57,5.86,1.57
			C278.27,450.88,280.42,450.32,282.24,449.2z"/>
		<path class="st3" d="M335.1,423.03c2.7,2.66,4.06,6.56,4.06,11.69v20.79h-6.54v-20.04c0-3.5-0.84-6.14-2.52-7.91
			s-4.09-2.66-7.23-2.66c-3.54,0-6.34,1.03-8.38,3.1c-2.04,2.07-3.07,5.03-3.07,8.9v18.61h-6.54v-36.13h6.27v5.45
			c1.32-1.86,3.1-3.29,5.35-4.29c2.25-1,4.8-1.5,7.67-1.5C328.75,419.04,332.4,420.37,335.1,423.03z"/>
		<path class="st3" d="M371.61,453.4c-0.95,0.82-2.14,1.44-3.54,1.87c-1.41,0.43-2.86,0.65-4.36,0.65c-3.64,0-6.45-0.98-8.45-2.93
			c-2-1.95-3-4.75-3-8.38v-19.84h-6.13v-5.38h6.13v-7.91h6.54v7.91h10.36v5.38h-10.36v19.56c0,1.95,0.49,3.45,1.47,4.5
			c0.98,1.05,2.37,1.57,4.19,1.57c2,0,3.7-0.57,5.11-1.7L371.61,453.4z"/>
		<path class="st3" d="M410.8,419.38l-17.52,39.74c-1.55,3.68-3.35,6.27-5.42,7.77c-2.07,1.5-4.56,2.25-7.46,2.25
			c-1.77,0-3.49-0.28-5.15-0.85c-1.66-0.57-3.03-1.4-4.12-2.49l2.79-4.91c1.86,1.77,4.02,2.66,6.48,2.66c1.59,0,2.92-0.42,3.99-1.26
			c1.07-0.84,2.03-2.28,2.9-4.33l1.16-2.52l-15.95-36.06h6.82l12.61,28.9l12.47-28.9H410.8z"/>
	</g>
</g>
</svg>
