<?xml version="1.0" encoding="utf-8"?>
<!-- Generator: Adobe Illustrator 28.0.0, SVG Export Plug-In . SVG Version: 6.00 Build 0)  -->
<svg version="1.1" id="Layer_1" xmlns="http://www.w3.org/2000/svg" xmlns:xlink="http://www.w3.org/1999/xlink" x="0px" y="0px"
	 viewBox="0 0 500 500" style="enable-background:new 0 0 500 500;" xml:space="preserve">
<style type="text/css">
	.st0{fill-rule:evenodd;clip-rule:evenodd;fill:#175D89;}
	.st1{fill:#F68620;}
	.st2{fill-rule:evenodd;clip-rule:evenodd;fill:#FFFFFF;}
	.st3{fill:#FFFFFF;}
</style>
<g>
	<path class="st2" d="M153.78,304.54c-33.58-6.45-60.05-23.84-79.06-51.98c-18.25-26.82-26.5-60.91-20.42-95.93
		c6.08-35.02,25.34-64.34,51.56-83.44c5.15-3.75,10.56-7.1,16.19-10.03c-0.11-0.03-0.22-0.06-0.33-0.1
		c5.04-19.9,13.13-14.29,32.58-18.69c-0.5,7.63-15.86,21.57-29.79,19.36c-6.18,3.09-12.1,6.69-17.71,10.77
		c-25.88,18.85-44.9,47.81-50.9,82.4c-6.01,34.59,2.13,68.26,20.15,94.73c18.01,26.47,45.89,45.75,79.38,51.56
		C159.5,304.02,160.7,305.75,153.78,304.54L153.78,304.54z M108.86,64.47L108.86,64.47c14.5-6.3,9.23-11.75,10.17-27.07
		C112.9,38.81,103.42,53.98,108.86,64.47L108.86,64.47z M94.5,78.04L94.5,78.04c12.76-9.33,6.43-13.49,3.97-28.65
		C92.81,52.12,86.89,69,94.5,78.04L94.5,78.04z M106,80.65L106,80.65c10.02,5.68,25.14-3,26.75-8.91
		C117.78,72.09,112.66,66.76,106,80.65L106,80.65z M88.1,97.98L88.1,97.98c10.52,4.7,24.74-5.39,25.77-11.43
		C99,88.32,93.4,83.52,88.1,97.98L88.1,97.98z M78.82,93.17L78.82,93.17c13.3-9.72,6.7-14.07,4.14-29.87
		C77.06,66.15,70.88,83.75,78.82,93.17L78.82,93.17z M67.85,109.72L67.85,109.72c9.01-13.79,1.3-15.52-6.68-29.4
		C56.65,85.06,57.1,103.71,67.85,109.72L67.85,109.72z M71.82,120.7L71.82,120.7c12.5,2.64,25.57-11.62,25.28-18.41
		C81.4,107.68,74.19,103.77,71.82,120.7L71.82,120.7z M56.23,129.66L56.23,129.66c10.22-15.65,1.47-17.61-7.58-33.35
		C43.52,101.7,44.03,122.85,56.23,129.66L56.23,129.66z M61.99,142.46L61.99,142.46c12.72,1.24,24.13-14.37,23.09-21.09
		C70.07,128.47,62.48,125.38,61.99,142.46L61.99,142.46z M49.54,150.64c7.49-17.96-1.84-18.31-14.1-32.71
		C31.22,124.42,35.75,145.97,49.54,150.64L49.54,150.64L49.54,150.64z M46.54,172.56L46.54,172.56c4.75-19.79-4.94-18.6-19.99-31.44
		C23.27,148.52,31.53,170.04,46.54,172.56L46.54,172.56z M57.09,172.2L57.09,172.2c15.88-0.92,26.9-22.33,24.33-30.38
		C64.32,153.44,54.4,151.11,57.09,172.2L57.09,172.2z M48.5,197.84L48.5,197.84c1.46-21.6-8.49-18.62-26.55-29.4
		C19.82,176.79,32.31,197.87,48.5,197.84L48.5,197.84z M54.24,217.33L54.24,217.33c-7.68-20.24-15.48-13.39-36.39-15.66
		C19.39,210.14,39.54,224.1,54.24,217.33L54.24,217.33z M58.68,200.94L58.68,200.94c15.71-3.19,23.64-26.12,19.91-33.78
		C63.22,181.19,52.98,180.28,58.68,200.94L58.68,200.94z M64.16,237.36L64.16,237.36c-11.77-18.16-17.95-9.83-38.87-7.64
		C28.58,237.68,51.21,247.08,64.16,237.36L64.16,237.36z M69.63,231L69.63,231c13.18-7.77,13.19-30.94,7.44-36.7
		C67.56,211.76,58.04,214.13,69.63,231L69.63,231z M74.89,258.9L74.89,258.9c-11.77-18.17-17.95-9.83-38.87-7.64
		C39.31,259.21,61.93,268.61,74.89,258.9L74.89,258.9z M89.72,260.45L89.72,260.45c10.22-12.82,1.37-36.01-6.59-39.58
		C80.29,241.98,71.67,248,89.72,260.45L89.72,260.45z M92.74,275.42L92.74,275.42c-16.99-15.71-21.2-5.44-42.29,2.36
		C55.97,285.16,81.9,288.91,92.74,275.42L92.74,275.42z M111.53,289.75L111.53,289.75c-19.32-11.81-21.38-1.15-40.12,10.38
		C78.11,306.14,103.71,304.77,111.53,289.75L111.53,289.75z M118.05,284.78L118.05,284.78c6.61-16.78-10.16-38.31-19.68-39.5
		C102.19,268.4,95.06,277.51,118.05,284.78L118.05,284.78z M346.22,304.54c33.58-6.45,60.05-23.84,79.06-51.98
		c18.25-26.82,26.5-60.91,20.42-95.93c-6.08-35.02-25.34-64.34-51.56-83.44c-5.15-3.75-10.56-7.1-16.19-10.03
		c0.11-0.03,0.22-0.06,0.33-0.1c-5.04-19.9-13.13-14.29-32.58-18.69c0.5,7.63,15.86,21.57,29.79,19.36
		c6.18,3.09,12.1,6.69,17.71,10.77c25.89,18.85,44.9,47.81,50.9,82.4c6.01,34.59-2.13,68.26-20.15,94.73
		c-18.01,26.47-45.89,45.75-79.38,51.56C340.5,304.02,339.3,305.75,346.22,304.54L346.22,304.54z M391.14,64.47L391.14,64.47
		c-14.5-6.3-9.23-11.75-10.17-27.07C387.1,38.81,396.58,53.98,391.14,64.47L391.14,64.47z M405.5,78.04L405.5,78.04
		c-12.76-9.33-6.43-13.49-3.97-28.65C407.19,52.12,413.11,69,405.5,78.04L405.5,78.04z M394,80.65L394,80.65
		c-10.02,5.69-25.14-3-26.75-8.91C382.22,72.09,387.34,66.76,394,80.65L394,80.65z M411.9,97.98L411.9,97.98
		c-10.52,4.7-24.74-5.39-25.77-11.43C401,88.32,406.6,83.52,411.9,97.98L411.9,97.98z M421.18,93.17L421.18,93.17
		c-13.3-9.72-6.7-14.07-4.14-29.87C422.94,66.15,429.12,83.75,421.18,93.17L421.18,93.17z M432.15,109.72L432.15,109.72
		c-9.01-13.79-1.3-15.52,6.68-29.4C443.35,85.06,442.9,103.71,432.15,109.72L432.15,109.72z M428.18,120.7L428.18,120.7
		c-12.5,2.64-25.57-11.62-25.28-18.41C418.6,107.68,425.81,103.77,428.18,120.7L428.18,120.7z M443.77,129.66L443.77,129.66
		c-10.22-15.65-1.47-17.61,7.58-33.35C456.48,101.7,455.97,122.85,443.77,129.66L443.77,129.66z M438.01,142.46L438.01,142.46
		c-12.72,1.24-24.13-14.37-23.09-21.09C429.93,128.47,437.52,125.38,438.01,142.46L438.01,142.46z M450.46,150.64
		c-7.49-17.96,1.84-18.31,14.1-32.71C468.78,124.42,464.25,145.97,450.46,150.64L450.46,150.64L450.46,150.64z M453.45,172.56
		L453.45,172.56c-4.75-19.79,4.94-18.6,19.99-31.44C476.73,148.52,468.47,170.04,453.45,172.56L453.45,172.56z M442.91,172.2
		L442.91,172.2c-15.88-0.92-26.9-22.33-24.33-30.38C435.68,153.44,445.6,151.11,442.91,172.2L442.91,172.2z M451.5,197.84
		L451.5,197.84c-1.46-21.6,8.49-18.62,26.55-29.4C480.18,176.79,467.69,197.87,451.5,197.84L451.5,197.84z M445.76,217.33
		L445.76,217.33c7.68-20.24,15.48-13.4,36.39-15.66C480.61,210.14,460.46,224.1,445.76,217.33L445.76,217.33z M441.32,200.94
		L441.32,200.94c-15.71-3.19-23.64-26.12-19.91-33.78C436.78,181.19,447.02,180.28,441.32,200.94L441.32,200.94z M435.84,237.36
		L435.84,237.36c11.77-18.16,17.95-9.83,38.87-7.64C471.42,237.68,448.79,247.08,435.84,237.36L435.84,237.36z M430.37,231
		L430.37,231c-13.18-7.77-13.19-30.94-7.44-36.7C432.44,211.76,441.96,214.13,430.37,231L430.37,231z M425.11,258.9L425.11,258.9
		c11.77-18.17,17.95-9.83,38.87-7.64C460.69,259.21,438.07,268.61,425.11,258.9L425.11,258.9z M410.28,260.45L410.28,260.45
		c-10.22-12.82-1.37-36.01,6.59-39.58C419.71,241.98,428.33,248,410.28,260.45L410.28,260.45z M407.26,275.42L407.26,275.42
		c16.99-15.71,21.2-5.44,42.29,2.36C444.03,285.16,418.1,288.91,407.26,275.42L407.26,275.42z M388.47,289.75L388.47,289.75
		c19.32-11.81,21.38-1.15,40.12,10.38C421.89,306.14,396.29,304.77,388.47,289.75L388.47,289.75z M381.95,284.78L381.95,284.78
		c-6.61-16.78,10.16-38.31,19.68-39.5C397.81,268.4,404.94,277.51,381.95,284.78z"/>
	<g>
		<path class="st3" d="M226.12,156.73c5.9,6.25,8.86,14.07,8.86,23.45c0,7.06-1.8,13.49-5.38,19.28c-3.59,5.79-9,10.39-16.24,13.81
			c-7.24,3.41-16.06,5.12-26.49,5.12c-8.68,0-17.05-1.25-25.1-3.73c-8.05-2.49-14.91-5.93-20.58-10.33l9.73-17.54
			c4.4,3.71,9.75,6.63,16.06,8.77c6.31,2.14,12.82,3.21,19.54,3.21c7.99,0,14.27-1.65,18.84-4.95c4.57-3.3,6.86-7.79,6.86-13.46
			c0-5.67-2.17-10.1-6.51-13.29c-4.34-3.18-10.97-4.78-19.89-4.78h-11.11v-15.46L202.33,114H147.1V95.07h82.84v15.11l-29.52,35.08
			C211.65,146.65,220.22,150.47,226.12,156.73z"/>
		<path class="st3" d="M274.4,211c-7.64-4.92-13.66-12.1-18.06-21.54c-4.4-9.43-6.6-20.64-6.6-33.61c0-12.97,2.2-24.17,6.6-33.61
			c4.4-9.44,10.42-16.61,18.06-21.54c7.64-4.92,16.32-7.38,26.05-7.38c9.72,0,18.43,2.46,26.14,7.38
			c7.7,4.92,13.75,12.1,18.15,21.54c4.4,9.44,6.6,20.64,6.6,33.61c0,12.97-2.2,24.17-6.6,33.61c-4.4,9.44-10.45,16.62-18.15,21.54
			c-7.7,4.92-16.41,7.38-26.14,7.38C290.72,218.38,282.04,215.92,274.4,211z M321.03,187.99c5.04-7.18,7.56-17.89,7.56-32.13
			c0-14.24-2.52-24.95-7.56-32.13c-5.03-7.18-11.9-10.77-20.58-10.77c-8.57,0-15.37,3.59-20.41,10.77
			c-5.03,7.18-7.56,17.89-7.56,32.13c0,14.24,2.52,24.95,7.56,32.13c5.04,7.18,11.84,10.77,20.41,10.77
			C309.14,198.75,316,195.17,321.03,187.99z"/>
		<path class="st3" d="M171.33,246.78h18.45c4.5,0,8.5,0.87,12,2.62c3.5,1.75,6.21,4.22,8.14,7.42c1.93,3.19,2.89,6.88,2.89,11.06
			s-0.97,7.87-2.89,11.06c-1.93,3.2-4.64,5.67-8.14,7.42s-7.5,2.62-12,2.62h-18.45V246.78z M189.41,282.35
			c3.09,0,5.82-0.59,8.17-1.78c2.35-1.19,4.16-2.87,5.43-5.06s1.9-4.73,1.9-7.63s-0.63-5.44-1.9-7.63s-3.07-3.88-5.43-5.06
			c-2.35-1.19-5.07-1.78-8.17-1.78h-10.25v28.94H189.41z"/>
		<path class="st3" d="M247.89,279.22h-21.1l-4.16,9.77h-8.08l18.99-42.2h7.72l19.05,42.2h-8.2L247.89,279.22z M245.3,273.07
			l-7.96-18.45l-7.9,18.45H245.3z"/>
		<path class="st3" d="M281.35,274.09v14.89h-7.84v-14.77l-16.58-27.43h8.38l12.36,20.56l12.48-20.56h7.72L281.35,274.09z"/>
		<path class="st3" d="M305.73,288.2c-3.03-0.92-5.44-2.15-7.2-3.68l2.71-6.09c1.73,1.37,3.85,2.48,6.36,3.35
			c2.51,0.86,5.03,1.3,7.57,1.3c3.14,0,5.48-0.5,7.02-1.51c1.55-1,2.32-2.33,2.32-3.98c0-1.21-0.43-2.2-1.3-2.98
			c-0.86-0.78-1.96-1.4-3.29-1.84c-1.33-0.44-3.14-0.94-5.43-1.51c-3.21-0.76-5.82-1.53-7.81-2.29c-1.99-0.76-3.7-1.96-5.12-3.59
			c-1.43-1.63-2.14-3.83-2.14-6.6c0-2.33,0.63-4.45,1.9-6.36c1.27-1.91,3.17-3.43,5.73-4.55c2.55-1.12,5.68-1.69,9.38-1.69
			c2.57,0,5.1,0.32,7.6,0.97c2.49,0.64,4.64,1.57,6.45,2.77l-2.47,6.09c-1.85-1.09-3.78-1.91-5.79-2.47
			c-2.01-0.56-3.96-0.84-5.85-0.84c-3.1,0-5.4,0.52-6.9,1.57c-1.51,1.05-2.26,2.43-2.26,4.16c0,1.21,0.43,2.19,1.3,2.95
			c0.86,0.76,1.96,1.37,3.29,1.81c1.33,0.44,3.13,0.95,5.43,1.51c3.14,0.72,5.71,1.48,7.72,2.26c2.01,0.78,3.73,1.98,5.15,3.59
			c1.42,1.61,2.14,3.78,2.14,6.51c0,2.33-0.63,4.44-1.9,6.33c-1.27,1.89-3.19,3.4-5.76,4.52c-2.57,1.12-5.71,1.69-9.41,1.69
			C311.91,289.59,308.77,289.12,305.73,288.2z"/>
	</g>
	<g>
		<path class="st3" d="M121.54,359.7c1.59,2.02,2.39,4.58,2.39,7.67c0,4.14-1.56,7.32-4.67,9.54c-3.11,2.23-7.65,3.34-13.6,3.34
			H82.89v-47.72h21.4c5.45,0,9.67,1.09,12.65,3.27c2.98,2.18,4.46,5.2,4.46,9.07c0,2.5-0.58,4.66-1.74,6.47
			c-1.16,1.82-2.72,3.2-4.67,4.16C117.77,356.28,119.95,357.68,121.54,359.7z M89.71,338.06v15.27h13.97c3.5,0,6.19-0.65,8.08-1.94
			c1.89-1.29,2.83-3.19,2.83-5.69c0-2.5-0.94-4.4-2.83-5.69c-1.89-1.29-4.58-1.94-8.08-1.94H89.71z M114.11,372.82
			c1.95-1.27,2.93-3.27,2.93-6c0-5.32-3.89-7.98-11.66-7.98H89.71v15.88h15.68C109.25,374.73,112.16,374.1,114.11,372.82z"/>
		<path class="st3" d="M166.05,364.37h-29.31c0.41,3.18,1.81,5.74,4.19,7.67c2.39,1.93,5.35,2.9,8.9,2.9
			c4.32,0,7.79-1.46,10.43-4.36l3.61,4.23c-1.64,1.91-3.67,3.36-6.1,4.36c-2.43,1-5.15,1.5-8.15,1.5c-3.82,0-7.2-0.78-10.16-2.35
			c-2.95-1.57-5.24-3.76-6.85-6.58c-1.61-2.82-2.42-6-2.42-9.54c0-3.5,0.78-6.66,2.35-9.47c1.57-2.82,3.73-5.01,6.48-6.58
			c2.75-1.57,5.85-2.35,9.3-2.35c3.45,0,6.53,0.79,9.24,2.35c2.7,1.57,4.82,3.76,6.34,6.58c1.52,2.82,2.28,6.04,2.28,9.68
			C166.19,362.9,166.14,363.56,166.05,364.37z M140.46,352.17c-2.11,1.91-3.35,4.41-3.72,7.5h23.18c-0.36-3.04-1.6-5.53-3.71-7.46
			c-2.11-1.93-4.74-2.9-7.87-2.9C145.2,349.31,142.57,350.26,140.46,352.17z"/>
		<path class="st3" d="M177.1,379.47c-2.73-0.79-4.86-1.8-6.41-3.03l2.73-5.18c1.59,1.13,3.52,2.04,5.79,2.73
			c2.27,0.68,4.57,1.02,6.88,1.02c5.73,0,8.59-1.64,8.59-4.91c0-1.09-0.39-1.95-1.16-2.59c-0.77-0.64-1.74-1.1-2.9-1.4
			c-1.16-0.29-2.81-0.62-4.94-0.99c-2.91-0.45-5.28-0.98-7.12-1.57c-1.84-0.59-3.42-1.59-4.74-3c-1.32-1.41-1.98-3.39-1.98-5.93
			c0-3.27,1.36-5.9,4.09-7.87c2.73-1.98,6.38-2.97,10.97-2.97c2.41,0,4.82,0.3,7.23,0.89c2.41,0.59,4.39,1.39,5.93,2.39l-2.79,5.18
			c-2.96-1.91-6.43-2.86-10.43-2.86c-2.77,0-4.89,0.46-6.34,1.36c-1.46,0.91-2.18,2.11-2.18,3.61c0,1.18,0.41,2.11,1.23,2.8
			c0.82,0.68,1.83,1.18,3.03,1.5c1.2,0.32,2.9,0.68,5.08,1.09c2.91,0.5,5.26,1.03,7.06,1.6c1.79,0.57,3.33,1.53,4.6,2.9
			c1.27,1.36,1.91,3.27,1.91,5.73c0,3.27-1.4,5.87-4.19,7.8c-2.79,1.93-6.6,2.9-11.42,2.9C182.66,380.66,179.82,380.27,177.1,379.47
			z"/>
		<path class="st3" d="M229.72,378.14c-0.95,0.82-2.14,1.44-3.54,1.87c-1.41,0.43-2.86,0.65-4.36,0.65c-3.64,0-6.45-0.98-8.45-2.93
			c-2-1.95-3-4.75-3-8.38v-19.84h-6.13v-5.39h6.13v-7.91h6.54v7.91h10.36v5.39h-10.36v19.56c0,1.95,0.49,3.45,1.47,4.5
			c0.98,1.05,2.37,1.57,4.19,1.57c2,0,3.7-0.57,5.11-1.71L229.72,378.14z"/>
		<path class="st3" d="M290.12,336.97c3.54,2.95,5.32,7.02,5.32,12.2c0,5.18-1.77,9.25-5.32,12.2c-3.55,2.95-8.41,4.43-14.59,4.43
			h-11.79v14.45h-6.82v-47.72h18.61C281.71,332.54,286.57,334.02,290.12,336.97z M285.21,357.11c2.27-1.84,3.41-4.49,3.41-7.94
			s-1.14-6.1-3.41-7.94c-2.27-1.84-5.57-2.76-9.88-2.76h-11.59v21.41h11.59C279.64,359.87,282.93,358.95,285.21,357.11z"/>
		<path class="st3" d="M315.2,345.42c2.23-1.09,4.93-1.64,8.11-1.64v6.34c-0.36-0.05-0.86-0.07-1.5-0.07
			c-3.54,0-6.33,1.06-8.35,3.17c-2.02,2.11-3.03,5.12-3.03,9.03v18h-6.54v-36.13h6.27v6.07C311.29,348.1,312.97,346.51,315.2,345.42
			z"/>
		<path class="st3" d="M331.46,335.95c-0.84-0.82-1.26-1.82-1.26-3c0-1.18,0.42-2.19,1.26-3.03c0.84-0.84,1.9-1.26,3.17-1.26
			c1.27,0,2.33,0.4,3.17,1.19c0.84,0.79,1.26,1.78,1.26,2.97c0,1.23-0.42,2.26-1.26,3.1c-0.84,0.84-1.9,1.26-3.17,1.26
			C333.35,337.17,332.3,336.76,331.46,335.95z M331.35,344.13h6.54v36.13h-6.54V344.13z"/>
		<path class="st3" d="M356.27,378.28c-2.89-1.59-5.15-3.78-6.78-6.58c-1.64-2.8-2.45-5.97-2.45-9.51c0-3.54,0.82-6.71,2.45-9.51
			c1.64-2.79,3.9-4.98,6.78-6.54c2.88-1.57,6.17-2.35,9.85-2.35c3.27,0,6.19,0.66,8.76,1.98c2.57,1.32,4.56,3.23,5.97,5.73
			l-4.98,3.2c-1.14-1.73-2.55-3.02-4.23-3.88c-1.68-0.86-3.54-1.29-5.59-1.29c-2.36,0-4.49,0.52-6.37,1.57
			c-1.89,1.05-3.36,2.53-4.43,4.46c-1.07,1.93-1.6,4.15-1.6,6.65c0,2.54,0.53,4.78,1.6,6.71c1.07,1.93,2.54,3.42,4.43,4.47
			c1.88,1.05,4.01,1.57,6.37,1.57c2.05,0,3.91-0.43,5.59-1.3c1.68-0.86,3.09-2.16,4.23-3.88l4.98,3.14c-1.41,2.5-3.4,4.42-5.97,5.76
			c-2.57,1.34-5.49,2.01-8.76,2.01C362.44,380.66,359.15,379.87,356.27,378.28z"/>
		<path class="st3" d="M421.26,364.37h-29.31c0.41,3.18,1.81,5.74,4.19,7.67c2.39,1.93,5.35,2.9,8.9,2.9
			c4.32,0,7.79-1.46,10.43-4.36l3.61,4.23c-1.64,1.91-3.67,3.36-6.1,4.36c-2.43,1-5.15,1.5-8.15,1.5c-3.82,0-7.2-0.78-10.16-2.35
			c-2.95-1.57-5.24-3.76-6.85-6.58c-1.61-2.82-2.42-6-2.42-9.54c0-3.5,0.78-6.66,2.35-9.47c1.57-2.82,3.73-5.01,6.48-6.58
			c2.75-1.57,5.85-2.35,9.3-2.35c3.45,0,6.53,0.79,9.24,2.35c2.7,1.57,4.82,3.76,6.34,6.58s2.28,6.04,2.28,9.68
			C421.4,362.9,421.36,363.56,421.26,364.37z M395.67,352.17c-2.11,1.91-3.35,4.41-3.72,7.5h23.18c-0.36-3.04-1.6-5.53-3.72-7.46
			c-2.11-1.93-4.74-2.9-7.87-2.9C400.41,349.31,397.78,350.26,395.67,352.17z"/>
		<path class="st3" d="M107.94,437.92h6.54v18.61c-2.36,1.95-5.11,3.45-8.25,4.5c-3.14,1.05-6.41,1.57-9.82,1.57
			c-4.82,0-9.16-1.06-13.02-3.17c-3.86-2.11-6.9-5.02-9.1-8.72C72.1,447,71,442.83,71,438.19c0-4.64,1.1-8.82,3.31-12.54
			c2.2-3.73,5.25-6.64,9.13-8.72c3.89-2.09,8.26-3.14,13.12-3.14c3.82,0,7.28,0.62,10.39,1.87c3.11,1.25,5.76,3.08,7.94,5.49
			l-4.23,4.23c-3.82-3.68-8.43-5.52-13.84-5.52c-3.64,0-6.9,0.78-9.78,2.35c-2.89,1.57-5.15,3.75-6.78,6.54
			c-1.64,2.79-2.45,5.94-2.45,9.44c0,3.46,0.82,6.58,2.45,9.37c1.64,2.8,3.9,4.99,6.78,6.58c2.89,1.59,6.12,2.39,9.71,2.39
			c4.27,0,8-1.02,11.18-3.07V437.92z"/>
		<path class="st3" d="M151.19,429.27c2.66,2.45,3.99,6.11,3.99,10.97v21.81h-6.2v-4.77c-1.09,1.68-2.65,2.97-4.67,3.85
			c-2.02,0.89-4.42,1.33-7.19,1.33c-4.05,0-7.28-0.98-9.71-2.93c-2.43-1.95-3.65-4.52-3.65-7.71c0-3.18,1.16-5.73,3.48-7.67
			c2.32-1.93,6-2.9,11.04-2.9h10.36v-1.29c0-2.82-0.82-4.98-2.45-6.47s-4.04-2.25-7.23-2.25c-2.14,0-4.23,0.35-6.27,1.06
			c-2.04,0.71-3.77,1.65-5.18,2.83l-2.73-4.91c1.86-1.5,4.09-2.65,6.68-3.44c2.59-0.8,5.34-1.19,8.25-1.19
			C144.71,425.59,148.54,426.81,151.19,429.27z M144.68,455.75c1.82-1.11,3.14-2.69,3.95-4.74v-5.04h-10.09
			c-5.54,0-8.32,1.86-8.32,5.59c0,1.82,0.7,3.25,2.11,4.29c1.41,1.05,3.36,1.57,5.86,1.57
			C140.71,457.42,142.87,456.86,144.68,455.75z"/>
		<path class="st3" d="M200.99,425.93v36.13h-6.2v-5.45c-1.32,1.86-3.06,3.31-5.22,4.33c-2.16,1.02-4.51,1.53-7.06,1.53
			c-4.82,0-8.61-1.33-11.38-3.99c-2.77-2.66-4.16-6.58-4.16-11.76v-20.79h6.54v20.04c0,3.5,0.84,6.15,2.52,7.94
			c1.68,1.8,4.09,2.69,7.23,2.69c3.45,0,6.18-1.05,8.18-3.13c2-2.09,3-5.05,3-8.86v-18.68H200.99z"/>
		<path class="st3" d="M224.78,427.22c2.23-1.09,4.93-1.64,8.11-1.64v6.34c-0.36-0.04-0.86-0.07-1.5-0.07
			c-3.54,0-6.33,1.06-8.35,3.17c-2.02,2.11-3.03,5.12-3.03,9.03v17.99h-6.54v-36.13h6.27v6.07
			C220.87,429.9,222.55,428.31,224.78,427.22z"/>
		<path class="st3" d="M265.51,429.27c2.66,2.45,3.99,6.11,3.99,10.97v21.81h-6.2v-4.77c-1.09,1.68-2.65,2.97-4.67,3.85
			c-2.02,0.89-4.42,1.33-7.19,1.33c-4.05,0-7.28-0.98-9.71-2.93c-2.43-1.95-3.65-4.52-3.65-7.71c0-3.18,1.16-5.73,3.48-7.67
			c2.32-1.93,6-2.9,11.04-2.9h10.36v-1.29c0-2.82-0.82-4.98-2.45-6.47c-1.64-1.5-4.05-2.25-7.23-2.25c-2.14,0-4.23,0.35-6.27,1.06
			c-2.04,0.71-3.77,1.65-5.18,2.83l-2.73-4.91c1.86-1.5,4.09-2.65,6.68-3.44c2.59-0.8,5.34-1.19,8.25-1.19
			C259.02,425.59,262.85,426.81,265.51,429.27z M259,455.75c1.82-1.11,3.13-2.69,3.95-4.74v-5.04h-10.09
			c-5.54,0-8.32,1.86-8.32,5.59c0,1.82,0.7,3.25,2.11,4.29c1.41,1.05,3.36,1.57,5.86,1.57C255.02,457.42,257.18,456.86,259,455.75z"
			/>
		<path class="st3" d="M311.86,429.57c2.7,2.66,4.06,6.56,4.06,11.69v20.79h-6.54v-20.04c0-3.5-0.84-6.13-2.52-7.91
			s-4.09-2.66-7.23-2.66c-3.54,0-6.34,1.03-8.38,3.1c-2.04,2.07-3.07,5.03-3.07,8.9v18.61h-6.54v-36.13h6.27v5.45
			c1.32-1.86,3.1-3.29,5.35-4.3c2.25-1,4.8-1.5,7.67-1.5C305.51,425.59,309.15,426.91,311.86,429.57z"/>
		<path class="st3" d="M348.36,459.94c-0.95,0.82-2.14,1.44-3.54,1.87c-1.41,0.43-2.86,0.65-4.36,0.65c-3.64,0-6.45-0.98-8.45-2.93
			c-2-1.95-3-4.75-3-8.39v-19.84h-6.13v-5.38H329v-7.91h6.54v7.91h10.36v5.38h-10.36v19.56c0,1.95,0.49,3.46,1.47,4.5
			s2.37,1.57,4.19,1.57c2,0,3.7-0.57,5.11-1.7L348.36,459.94z"/>
		<path class="st3" d="M387.56,446.17h-29.31c0.41,3.18,1.81,5.74,4.19,7.67c2.39,1.93,5.35,2.9,8.9,2.9
			c4.32,0,7.79-1.45,10.43-4.36l3.61,4.23c-1.64,1.91-3.67,3.36-6.1,4.36c-2.43,1-5.15,1.5-8.15,1.5c-3.82,0-7.2-0.79-10.16-2.35
			c-2.95-1.57-5.24-3.76-6.85-6.58c-1.61-2.82-2.42-6-2.42-9.54c0-3.5,0.78-6.66,2.35-9.48c1.57-2.82,3.73-5.01,6.48-6.58
			c2.75-1.57,5.85-2.35,9.3-2.35c3.45,0,6.53,0.78,9.24,2.35s4.82,3.76,6.34,6.58c1.52,2.82,2.28,6.05,2.28,9.68
			C387.69,444.7,387.65,445.35,387.56,446.17z M361.96,433.97c-2.11,1.91-3.35,4.41-3.72,7.5h23.18c-0.36-3.05-1.6-5.53-3.72-7.46
			c-2.11-1.93-4.74-2.9-7.87-2.9C366.7,431.11,364.07,432.06,361.96,433.97z"/>
		<path class="st3" d="M429.27,446.17h-29.31c0.41,3.18,1.81,5.74,4.19,7.67c2.39,1.93,5.35,2.9,8.9,2.9
			c4.32,0,7.79-1.45,10.43-4.36l3.61,4.23c-1.64,1.91-3.67,3.36-6.1,4.36c-2.43,1-5.15,1.5-8.15,1.5c-3.82,0-7.2-0.79-10.16-2.35
			c-2.95-1.57-5.24-3.76-6.85-6.58c-1.61-2.82-2.42-6-2.42-9.54c0-3.5,0.78-6.66,2.35-9.48c1.57-2.82,3.73-5.01,6.48-6.58
			c2.75-1.57,5.85-2.35,9.3-2.35c3.45,0,6.53,0.78,9.24,2.35c2.7,1.57,4.82,3.76,6.34,6.58c1.52,2.82,2.28,6.05,2.28,9.68
			C429.41,444.7,429.37,445.35,429.27,446.17z M403.68,433.97c-2.11,1.91-3.35,4.41-3.72,7.5h23.18c-0.36-3.05-1.6-5.53-3.72-7.46
			c-2.11-1.93-4.74-2.9-7.87-2.9S405.79,432.06,403.68,433.97z"/>
	</g>
</g>
</svg>
