<svg version="1.2" xmlns="http://www.w3.org/2000/svg" viewBox="0 0 600 300" width="600" height="300">
	<title>amrut-logo-svg</title>
	<style>
		.s0 { fill: #f68620 } 
		.s1 { fill: #175d89 } 
	</style>
	<g id="S____LAR">
		<g id="Layer">
			<path id="Layer" fill-rule="evenodd" class="s0" d="m149 246.7q2.1 4.1 2.1 10.1 0 7.2-3.7 12.9-3.7 5.8-10.8 9-7.2 3.2-17 3.2-11.7 0-19.3-4.4-5.4-3.2-8.8-8.5-3.4-5.3-3.4-10.4 0-2.9 2-5 2.1-2.1 5.2-2 2.5 0 4.3 1.6 1.7 1.6 3 4.8 1.5 3.8 3.3 6.3 1.7 2.5 4.9 4.2 3.2 1.6 8.4 1.6 7.1 0.1 11.6-3.3 4.4-3.3 4.5-8.3-0.1-3.9-2.5-6.4-2.4-2.4-6.2-3.7-3.8-1.4-10.2-2.8-8.5-2-14.3-4.7-5.7-2.7-9.1-7.3-3.4-4.6-3.4-11.5 0-6.5 3.6-11.6 3.5-5.1 10.3-7.8 6.8-2.7 15.9-2.7 7.3-0.1 12.6 1.8 5.4 1.8 8.9 4.8 3.5 3 5.1 6.3 1.6 3.3 1.6 6.4 0 2.9-2 5.2-2 2.3-5 2.3-2.8 0-4.2-1.4-1.5-1.4-3.1-4.5-2.2-4.5-5.2-7-3.1-2.5-9.8-2.5-6.2 0-10 2.7-3.8 2.7-3.8 6.6 0 2.3 1.3 4.1 1.3 1.7 3.6 2.9 2.2 1.3 4.6 2 2.3 0.7 7.6 2 6.7 1.6 12.2 3.5 5.4 1.9 9.2 4.6 3.8 2.7 6 6.9zm180.8 22.6q2 1.9 2 4.7 0 3-2 4.8-2.1 1.8-6 1.8h-38.8q-5.2 0-7.5-2.4-2.3-2.3-2.3-7.5v-61q0-4.9 2.2-7.3 2.1-2.5 5.7-2.5 3.6 0 5.9 2.5 2.2 2.4 2.2 7.3v57.7h32.6q3.9 0 5.9 1.9zm76.7-3.2q2.4 5.8 2.4 8.5 0 2.7-2.3 5-2.3 2.3-5.5 2.3-1.9 0-3.3-0.7-1.3-0.6-2.3-1.8-0.9-1.2-1.9-3.6-1.1-2.4-1.8-4.2l-3.8-10h-32.3l-3.8 10.2q-2.2 6-3.7 8-1.6 2.1-5.2 2.1-3 0-5.3-2.2-2.4-2.2-2.4-5 0-1.7 0.6-3.4 0.5-1.7 1.8-4.8l20.2-51.5q0.9-2.2 2.1-5.3 1.2-3.1 2.6-5.2 1.4-2 3.6-3.3 2.3-1.3 5.6-1.3 3.3 0 5.6 1.3 2.2 1.3 3.6 3.3 1.4 2 2.3 4.3 1 2.3 2.4 6.1zm-22.8-16.5l-11.9-32.7-11.8 32.7zm102.9 25.9q0 1.6-1 3.2-1 1.5-2.7 2.4-1.7 0.9-4 0.9-2.7 0-4.6-1.3-1.8-1.3-3.1-3.2-1.3-2-3.6-5.8l-6.5-10.7q-3.4-5.9-6.1-8.9-2.8-3.1-5.6-4.3-2.8-1.1-7.1-1.1h-5.6v25.5q0 5-2.2 7.4-2.2 2.4-5.8 2.4-3.8 0-5.9-2.5-2.2-2.5-2.2-7.3v-61q0.1-5.2 2.4-7.5 2.3-2.4 7.5-2.4h26.1q5.4 0 9.3 0.5 3.8 0.4 6.9 1.9 3.7 1.5 6.6 4.4 2.9 3 4.3 6.8 1.5 3.9 1.5 8.2 0 8.9-5 14.2-5 5.3-15.1 7.5 4.2 2.3 8.1 6.7 3.9 4.5 7 9.5 3 5 4.7 9 1.7 4 1.7 5.5zm-19.7-44.7q2.1-2.4 2.1-6.6 0-3.3-1.7-5.8-1.7-2.6-4.7-3.8-2.8-1.2-11-1.2h-14.9v21.8h14.4q5.8 0 9.7-1 4-1 6.1-3.4z"/>
		</g>
	</g>
	<path id="Layer" class="s0" d="m183.3 253.2c-5.7-11.7-0.8-26.5 10.6-34.1 10.3-6.9 25.6-5.7 34.1 3.6-7.9 3.6-15.3 7.1-22.9 10.4-7.3 3.1-7.4 3.6-1.5 8.8 0.6 0.4 1 1 2.2 2.4-7.7 3.1-15 5.9-22.5 8.9z"/>
	<path id="Layer" class="s0" d="m187 261.5c15.8-4.5 30.9-8.8 45.9-13.1q0.6-0.7 1.1-1.4-4.8-3.1-9.6-6.1 0.7-1.2 1.3-2.3 5.5-1 10.9-2.1c3.6 12.9-2.2 26.5-13.3 32.3-12.4 6.4-27.1 3.9-36.3-7.3z"/>
	<path id="Layer" class="s0" d="m230.3 272.3c2.7-2.9 4.5-4.8 6.8-7.2 2.3 4.4 4.4 8.4 7 13.5-5-2.3-8.9-4.1-13.8-6.3z"/>
	<path id="Layer" class="s0" d="m180.3 221c-1.4-3.2-3.1-6.9-4.8-10.6q0.5-0.4 0.9-0.8 5.5 2.6 11.1 5.3c-2.4 2-4.6 3.9-7.2 6.1z"/>
	<path id="Layer" class="s0" d="m174.3 238.8c0 3.8 0 6.4 0 9.8-4.6-1.7-8.9-3.2-14.1-5 5.2-1.8 9.3-3.1 14.1-4.8z"/>
	<path id="Layer" class="s0" d="m175.6 276.6c1.7-3.5 3.4-7 5.6-11.4 2.4 2.6 4.1 4.4 6.5 7-3.9 1.9-7.3 3.7-10.8 5.5q-0.7-0.6-1.3-1.1z"/>
	<path id="Layer" class="s0" d="m204.2 279c3.6 0 6.2 0 9.7 0-1.5 4.4-2.8 8.4-4.6 13.8-1.9-5.2-3.3-9-5.1-13.8z"/>
	<path id="Layer" class="s0" d="m258.4 243.6c-5.3 1.9-9.4 3.4-14 5.1 0-3.3 0-6 0-9.6 4.4 1.5 8.5 2.8 14 4.5z"/>
	<path id="Layer" class="s0" d="m213.9 208.1c-3.3 0-6 0-9.6 0 1.6-4.3 3-8 5-13.2 1.8 5.2 3.1 8.9 4.6 13.2z"/>
	<path id="Layer" class="s0" d="m237.7 221.4c-2.6-2-4.6-3.5-7.4-5.7 4.8-2.6 8.7-4.7 13.9-7.5-2.4 4.9-4.2 8.5-6.5 13.2z"/>
	<g id="Ellipse_3">
		<g id="Layer">
		</g>
	</g>
	<path id="Layer" class="s1" d="m182.1 258c9.8-4.3 19.7-8.7 30.4-13.3-3.4-3-6-5.2-9.1-7.9 9.8-4 18.9-7.9 28.1-11.5 4.8-1.9 5.3 2.8 7.8 5.5-6.6 2.1-12.6 4.1-19.8 6.4 3.6 3.2 6.5 5.8 10.1 9-16.2 4.3-31.8 8.5-47.3 12.6q-0.1-0.4-0.2-0.8z"/>
	<path id="Layer" fill-rule="evenodd" class="s1" d="m132.2 157.8q3.6 8.7 3.6 12.7 0 4.2-3.4 7.6-3.3 3.5-8 3.5-2.8 0-4.8-1.1-1.9-1-3.3-2.7-1.3-1.8-2.9-5.4-1.5-3.6-2.6-6.3l-5.5-15h-46.9l-5.5 15.3q-3.3 8.9-5.5 12-2.3 3.2-7.5 3.2-4.4 0-7.8-3.4-3.4-3.3-3.4-7.5 0-2.5 0.8-5.1 0.8-2.5 2.6-7.2l29.5-77.3q1.3-3.3 3-8 1.8-4.6 3.8-7.7 2-3.1 5.3-5 3.3-1.9 8.1-1.9 4.8 0 8.1 1.9 3.3 1.9 5.3 4.9 2 3 3.4 6.5 1.3 3.4 3.5 9.2zm-33.2-24.8l-17.4-49.1-17.1 49.1zm164.2-59.2v94.1q0 6.9-2.9 10.3-3 3.4-8 3.4-4.6 0-7.6-3.4-3-3.4-3-10.3v-82.1l-18.5 75.8q-1.8 7.4-2.9 10.8-1.2 3.5-4.3 6.3-3 2.9-8.5 2.9-4 0-6.9-1.9-2.8-1.8-4.4-4.6-1.6-2.9-2.5-6.3-0.9-3.5-1.8-7.2l-18.5-75.8v82.1q0 6.9-3 10.3-2.9 3.4-7.8 3.4-4.7 0-7.7-3.4-3-3.4-3-10.3v-94.1q0-7.8 3.9-10.5 4-2.8 10.7-2.8h7.2q6.5 0 9.5 1.3 2.9 1.2 4.4 4.3 1.4 3.2 3.2 10.3l16.8 65.2 16.7-65.2q1.8-7.1 3.3-10.3 1.4-3.1 4.3-4.3 3-1.3 9.5-1.3h7.3q6.6 0 10.6 2.8 3.9 2.7 3.9 10.5zm117.5 89.8q2.4 6 2.5 8.3-0.1 2.3-1.5 4.7-1.5 2.3-4 3.6-2.5 1.3-5.8 1.3-4 0-6.6-1.9-2.7-1.9-4.6-4.8-2-2.9-5.3-8.6l-9.3-16.1q-5.1-8.8-9.1-13.4-3.9-4.7-8-6.4-4.1-1.7-10.4-1.7h-8.1v38.3q-0.1 7.5-3.3 11.1-3.2 3.6-8.4 3.6-5.6 0-8.7-3.8-3-3.7-3-10.9v-91.6q0-7.8 3.3-11.3 3.4-3.5 11-3.5h38q7.9 0 13.5 0.7 5.6 0.7 10.1 2.8 5.4 2.4 9.6 6.8 4.2 4.3 6.3 10.1 2.2 5.9 2.2 12.3 0 13.4-7.3 21.3-7.3 8-22.1 11.3 6.3 3.4 11.9 10.1 5.7 6.6 10.1 14.1 4.5 7.5 7 13.6zm-26.3-58.9q3-3.6 3-9.9 0-5-2.4-8.7-2.5-3.8-6.8-5.7-4.1-1.8-16.1-1.8h-21.6v32.7h20.9q8.4 0 14.2-1.5 5.7-1.4 8.8-5.1zm216.4-34.2q0 4.5-3 7.2-3 2.7-9 2.7h-25.5v86.5q0 7.5-3.2 11.1-3.2 3.6-8.4 3.6-5.2 0-8.4-3.7-3.3-3.6-3.3-11v-86.5h-25.5q-6 0-8.9-2.7-2.9-2.7-2.9-7.2 0-4.6 3-7.3 3.1-2.7 8.8-2.7h74.3q6.1 0 9.1 2.8 2.9 2.8 2.9 7.2z"/>
	<g id="Rounded_Rectangle_1">
		<g id="Layer">
			<path id="Layer" class="s0" d="m452.5 11.7c0-1.5-1.3-2.7-2.8-2.7l-46.7 0.8c-1.5 0.1-2.7 1.3-2.7 2.8l0.1 2.2c0 1.5 1.3 2.7 2.8 2.7l46.7-0.9c1.5 0 2.7-1.3 2.7-2.8z"/>
		</g>
	</g>
	<g id="Rounded_Rectangle_1_copy">
		<g id="Layer">
			<path id="Layer" class="s0" d="m452.8 24.1c0-1.6-1.3-2.8-2.8-2.7l-46.7 0.8c-1.5 0-2.7 1.3-2.7 2.8l0.1 2.1c0 1.5 1.3 2.8 2.8 2.7l46.6-0.8c1.6-0.1 2.8-1.3 2.7-2.8z"/>
		</g>
	</g>
	<g id="Rounded_Rectangle_1_copy_2">
		<g id="Layer">
			<path id="Layer" class="s0" d="m453.1 36.4c-0.1-1.5-1.3-2.7-2.8-2.7l-46.7 0.8c-1.5 0.1-2.7 1.3-2.7 2.8v2.2c0.1 1.5 1.3 2.7 2.8 2.7l46.7-0.9c1.5 0 2.7-1.2 2.7-2.8z"/>
		</g>
	</g>
	<path id="Layer" class="s0" d="m393.9 170.7c3.8-2.8 6.6-5.6 10-7.2 1.8-0.9 4.9-0.3 6.9 0.7 16.5 7.4 31.9 4.2 46.6-4.6 13.4-8.1 19.5-23 16.6-39.2-1.8-10.2-5.4-19.7-10.9-28.6-3.1-4.9-5.5-10.3-8-15.6-0.7-1.3-0.6-3-0.1-4.7 7 18.9 21 34.4 24.2 55.1 4.5 29-14.8 54.4-44 56.3-12.2 0.7-23.7-1-34.4-7.3-2.2-1.3-4.2-2.9-6.9-4.9z"/>
	<path id="Layer" class="s0" d="m406.2 50.8c0 17-5.7 32-13.8 46.4-6.8 12.2-10 25.7-6.3 39.6 1.6 6.3 5.3 12.1 8.5 19.2-1.8 1.4-4.4 3.7-7.5 6.3-4.7-6.7-7-14.2-7.7-22.2-1.1-13.6 2.2-26.5 8.6-38.5 7.2-13.6 13.5-27.3 15.3-42.8 0.3-2.8 1.9-5.3 2.9-8z"/>
	<path id="Layer" class="s0" d="m448.1 48.7c3.7 4.2 5.1 7.4 2.3 11.5-0.7-3.4-1.3-6.7-2.3-11.5z"/>
	<path id="Layer" class="s1" d="m430.1 120.8c-12.2-1.5-23-2.9-34.9-4.3 20.6-18.9 40.5-37.3 60.5-55.6q0.5 0.3 1 0.7c-7.7 14-15.5 28.1-23.6 43 12.5 3.5 24.2 6.7 37.2 10.4-28.2 19.1-55.4 37.5-82.7 55.9q-0.4-0.5-0.7-0.9c14.1-16.1 28.3-32.2 43.2-49.2z"/>
</svg>