<?xml version="1.0" encoding="utf-8"?>
<!-- Generator: Adobe Illustrator 24.0.1, SVG Export Plug-In . SVG Version: 6.00 Build 0)  -->
<svg version="1.1" id="Layer_1" xmlns="http://www.w3.org/2000/svg" xmlns:xlink="http://www.w3.org/1999/xlink" x="0px" y="0px"
	 viewBox="0 0 600 300" style="enable-background:new 0 0 600 300;" xml:space="preserve">
<style type="text/css">
	.st0{fill:#F68620;}
	.st1{fill:#FFFFFF;}
</style>
<g id="S____LAR">
	<g>
		<path class="st0" d="M143,239.8c-2.5-1.8-5.6-3.3-9.3-4.6c-3.6-1.3-7.7-2.4-12.1-3.5c-3.6-0.9-6.1-1.6-7.7-2.1
			c-1.6-0.5-3.1-1.1-4.6-1.9c-1.5-0.8-2.7-1.8-3.6-3s-1.3-2.5-1.3-4.1c0-2.6,1.3-4.8,3.8-6.6s5.9-2.7,10-2.7c4.5,0,7.7,0.8,9.7,2.5
			c2,1.7,3.8,4,5.2,7c1.1,2.1,2.1,3.6,3.1,4.5c0.9,0.9,2.4,1.4,4.2,1.4c2,0,3.7-0.8,5.1-2.3c1.4-1.5,2-3.3,2-5.2
			c0-2.1-0.5-4.2-1.6-6.4s-2.8-4.3-5.1-6.3c-2.3-2-5.3-3.6-8.8-4.8c-3.6-1.2-7.8-1.8-12.6-1.8c-6.1,0-11.4,0.9-15.9,2.7
			c-4.5,1.8-7.9,4.4-10.3,7.8c-2.4,3.4-3.6,7.3-3.6,11.6c0,4.6,1.1,8.4,3.4,11.5s5.3,5.5,9.1,7.3s8.6,3.3,14.3,4.7
			c4.3,1,7.7,1.9,10.2,2.8c2.5,0.9,4.6,2.1,6.2,3.8c1.6,1.6,2.4,3.8,2.4,6.4c0,3.3-1.5,6.1-4.5,8.3s-6.8,3.3-11.6,3.3
			c-3.5,0-6.3-0.5-8.4-1.6c-2.1-1.1-3.8-2.5-4.9-4.2s-2.3-3.8-3.3-6.3c-0.8-2.1-1.8-3.7-3-4.8s-2.6-1.6-4.3-1.6
			c-2.1,0-3.8,0.7-5.2,2.1s-2,3.1-2,5c0,3.4,1.1,6.8,3.4,10.4s5.2,6.4,8.8,8.5c5.1,3,11.5,4.4,19.4,4.4c6.5,0,12.2-1.1,16.9-3.2
			s8.4-5.2,10.8-9s3.7-8.1,3.7-12.9c0-4-0.7-7.4-2.1-10.1C147.6,243.9,145.6,241.6,143,239.8z M323.8,267.4h-32.5v-57.7
			c0-3.3-0.8-5.7-2.2-7.3c-1.5-1.6-3.5-2.4-5.9-2.4c-2.4,0-4.3,0.8-5.8,2.4c-1.5,1.6-2.2,4.1-2.2,7.3v61.1c0,3.5,0.8,6,2.3,7.5
			s4,2.3,7.5,2.3h38.8c2.6,0,4.6-0.6,6-1.8s2-2.8,2-4.7c0-1.9-0.7-3.5-2.1-4.8C328.4,268,326.4,267.4,323.8,267.4z M385.6,214.9
			c-1-2.6-1.8-4.6-2.4-6.1s-1.4-3-2.3-4.3c-0.9-1.3-2.1-2.4-3.6-3.3c-1.5-0.9-3.4-1.3-5.6-1.3c-2.2,0-4,0.4-5.5,1.3
			c-1.5,0.9-2.7,2-3.6,3.3c-0.9,1.4-1.8,3.1-2.6,5.2c-0.8,2.1-1.5,3.9-2.1,5.3l-20.3,51.5c-0.8,2-1.4,3.7-1.8,4.8s-0.5,2.3-0.5,3.4
			c0,1.9,0.8,3.5,2.3,5c1.5,1.5,3.3,2.2,5.4,2.2c2.4,0,4.1-0.7,5.1-2.1c1-1.4,2.3-4.1,3.8-8l3.8-10.2h32.2l3.8,10
			c0.5,1.2,1.1,2.6,1.8,4.2c0.7,1.6,1.4,2.8,2,3.6c0.6,0.8,1.4,1.4,2.3,1.8c0.9,0.5,2,0.7,3.2,0.7c2.2,0,4-0.8,5.5-2.3
			s2.3-3.2,2.3-5.1c0-1.8-0.8-4.6-2.4-8.5L385.6,214.9z M359.9,249.6l11.7-32.7l12,32.7H359.9z M484.7,269.9c-1.1-2.7-2.7-5.7-4.8-9
			s-4.4-6.5-7-9.4s-5.3-5.2-8.2-6.7c6.8-1.5,11.8-4,15.2-7.5c3.3-3.5,5-8.3,5-14.2c0-2.9-0.5-5.6-1.5-8.2s-2.4-4.8-4.4-6.8
			s-4.1-3.4-6.6-4.5c-2-0.9-4.4-1.6-6.9-1.9c-2.6-0.3-5.6-0.5-9.3-0.5h-26.1c-3.5,0-6,0.8-7.5,2.3s-2.3,4.1-2.3,7.5v61
			c0,3.2,0.7,5.6,2.1,7.3c1.4,1.7,3.4,2.5,6,2.5c2.4,0,4.3-0.8,5.8-2.4s2.2-4.1,2.2-7.4v-25.5h5.6c2.9,0,5.2,0.4,7.1,1.1
			s3.7,2.2,5.5,4.2c1.8,2.1,3.9,5.1,6.2,9l6.4,10.7c1.5,2.5,2.7,4.4,3.6,5.7c0.9,1.3,1.9,2.4,3.2,3.2c1.2,0.9,2.7,1.3,4.5,1.3
			c1.5,0,2.9-0.3,4-0.9c1.1-0.6,2.1-1.4,2.7-2.4c0.7-1,1-2.1,1-3.1C486.4,274.5,485.9,272.6,484.7,269.9z M460.6,234.1
			c-2.6,0.7-5.9,1-9.7,1h-14.4v-21.8h14.8c5.5,0,9.2,0.4,11.1,1.2c2,0.8,3.5,2.1,4.6,3.8s1.7,3.6,1.7,5.8c0,2.8-0.7,5-2.1,6.6
			C465.3,232.3,463.3,233.5,460.6,234.1z"/>
	</g>
</g>
<path class="st1" d="M183.3,253.2c7.6-3,14.8-5.8,22.6-8.9c-1.3-1.4-1.7-2-2.2-2.4c-5.9-5.2-5.8-5.7,1.5-8.8
	c7.6-3.3,15-6.8,22.9-10.4c-8.5-9.3-23.8-10.5-34.1-3.6C182.5,226.7,177.6,241.5,183.3,253.2z M187,261.5
	c9.2,11.2,23.9,13.8,36.3,7.3c11.1-5.8,16.9-19.4,13.3-32.2c-3.6,0.7-7.3,1.4-10.9,2.1c-0.4,0.8-0.8,1.5-1.3,2.3
	c3.2,2,6.4,4,9.6,6.1c-0.4,0.5-0.7,0.9-1.1,1.4C217.9,252.7,202.8,257,187,261.5z M230.3,272.3c4.9,2.3,8.8,4,13.8,6.3
	c-2.6-5.1-4.7-9.1-7-13.5C234.8,267.5,233,269.4,230.3,272.3z M180.4,221c2.6-2.2,4.8-4.1,7.1-6.1c-3.7-1.8-7.4-3.5-11.1-5.3
	c-0.3,0.3-0.6,0.6-0.9,0.8C177.2,214.1,178.9,217.8,180.4,221z M174.3,238.9c-4.9,1.6-9,3-14.1,4.7c5.2,1.8,9.4,3.3,14.1,5
	C174.3,245.2,174.3,242.6,174.3,238.9z M175.6,276.6c0.4,0.4,0.9,0.8,1.3,1.1c3.5-1.8,7-3.5,10.8-5.5c-2.3-2.6-4-4.4-6.4-7.1
	C179,269.5,177.3,273.1,175.6,276.6z M204.2,279c1.8,4.8,3.2,8.7,5.1,13.9c1.8-5.4,3.1-9.5,4.6-13.9C210.4,279,207.9,279,204.2,279z
	 M258.4,243.6c-5.5-1.8-9.6-3.1-14-4.5c0,3.6,0,6.3,0,9.5C249,247,253.1,245.5,258.4,243.6z M213.9,208.1c-1.5-4.3-2.8-7.9-4.7-13.2
	c-1.9,5.2-3.3,8.9-4.9,13.2C207.9,208.1,210.6,208.1,213.9,208.1z M237.7,221.4c2.4-4.8,4.1-8.3,6.5-13.2c-5.2,2.8-9.1,4.9-13.9,7.4
	C233.1,217.9,235.1,219.4,237.7,221.4z"/>
<path class="st0" d="M183.3,253.2c-5.6-11.7-0.7-26.5,10.6-34.1c10.3-6.9,25.6-5.7,34.1,3.6c-7.9,3.6-15.3,7.1-22.9,10.4
	c-7.3,3.1-7.4,3.6-1.5,8.8c0.5,0.4,0.9,1,2.2,2.4C198.1,247.4,190.8,250.2,183.3,253.2z"/>
<path class="st0" d="M187,261.5c15.8-4.5,30.9-8.8,45.9-13.1c0.4-0.5,0.7-0.9,1.1-1.4c-3.2-2-6.4-4-9.6-6.1c0.4-0.8,0.8-1.5,1.3-2.3
	c3.6-0.7,7.3-1.4,10.9-2.1c3.6,12.9-2.1,26.5-13.3,32.2C210.9,275.2,196.2,272.7,187,261.5z"/>
<path class="st0" d="M230.3,272.3c2.7-2.9,4.5-4.8,6.9-7.2c2.3,4.4,4.3,8.4,7,13.5C239.1,276.3,235.2,274.5,230.3,272.3z"/>
<path class="st0" d="M180.4,221c-1.4-3.1-3.1-6.9-4.8-10.6c0.3-0.3,0.6-0.6,0.9-0.8c3.7,1.8,7.4,3.5,11.1,5.3
	C185.1,216.9,182.9,218.8,180.4,221z"/>
<path class="st0" d="M174.3,238.9c0,3.7,0,6.3,0,9.7c-4.7-1.7-8.9-3.2-14.1-5C165.4,241.9,169.5,240.5,174.3,238.9z"/>
<path class="st0" d="M175.6,276.6c1.7-3.5,3.5-7,5.6-11.4c2.4,2.6,4.1,4.5,6.4,7.1c-3.8,1.9-7.3,3.7-10.8,5.5
	C176.4,277.3,176,276.9,175.6,276.6z"/>
<path class="st0" d="M204.2,279c3.6,0,6.2,0,9.6,0c-1.4,4.4-2.8,8.4-4.6,13.9C207.4,287.6,206,283.8,204.2,279z"/>
<path class="st0" d="M258.4,243.6c-5.3,1.9-9.4,3.4-14,5.1c0-3.3,0-6,0-9.5C248.8,240.6,252.9,241.9,258.4,243.6z"/>
<path class="st0" d="M213.9,208.1c-3.4,0-6.1,0-9.6,0c1.6-4.3,3-8,4.9-13.2C211.1,200.1,212.4,203.8,213.9,208.1z"/>
<path class="st0" d="M237.7,221.4c-2.6-2-4.6-3.6-7.4-5.8c4.8-2.6,8.7-4.6,13.9-7.4C241.8,213.1,240,216.7,237.7,221.4z"/>
<g id="Ellipse_3">
	<g>
		<ellipse class="st1" cx="209.8" cy="243.5" rx="27.2" ry="27.2"/>
	</g>
</g>
<path class="st0" d="M182.1,258c9.9-4.3,19.7-8.6,30.4-13.3c-3.4-2.9-6-5.2-9.1-7.8c9.7-4,18.9-7.9,28.1-11.5
	c4.8-1.9,5.2,2.8,7.7,5.5c-6.5,2.1-12.6,4.1-19.7,6.4c3.6,3.2,6.5,5.8,10.1,9c-16.3,4.3-31.8,8.5-47.4,12.6
	C182.2,258.6,182.1,258.3,182.1,258z"/>
<path class="st1" d="M102.1,81c-1.4-3.8-2.6-6.9-3.5-9.2c-0.9-2.3-2.1-4.4-3.4-6.4s-3.1-3.6-5.3-4.9s-4.9-1.9-8.2-1.9
	c-3.2,0-5.9,0.6-8.1,1.9s-3.9,2.9-5.3,5c-1.3,2.1-2.6,4.6-3.8,7.8s-2.2,5.8-3,8l-29.5,77.3c-1.2,3.1-2.1,5.5-2.6,7.2s-0.8,3.4-0.8,5
	c0,2.8,1.1,5.3,3.4,7.6c2.3,2.2,4.9,3.3,7.8,3.3c3.5,0,6-1,7.5-3.1c1.5-2.1,3.4-6.1,5.5-12.1l5.5-15.3h46.9l5.5,14.9
	c0.7,1.8,1.6,4,2.6,6.4c1,2.4,2,4.2,2.9,5.4c0.9,1.2,2,2.1,3.3,2.8c1.3,0.7,2.9,1,4.7,1c3.2,0,5.8-1.1,8.1-3.4s3.4-4.8,3.4-7.6
	c0-2.6-1.2-6.9-3.5-12.7L102.1,81z M64.5,133l17.1-49.1L99,133H64.5z M259.3,63.3c-2.6-1.8-6.2-2.7-10.6-2.7h-7.2
	c-4.4,0-7.5,0.4-9.5,1.2s-3.4,2.3-4.4,4.4s-2,5.6-3.2,10.3l-16.8,65.2l-16.8-65.2c-1.2-4.8-2.3-8.2-3.2-10.3
	c-0.9-2.1-2.4-3.6-4.4-4.4s-5.1-1.2-9.5-1.2h-7.2c-4.5,0-8,0.9-10.6,2.7c-2.6,1.8-3.9,5.3-3.9,10.5v94.2c0,4.6,1,8,3,10.3
	s4.6,3.4,7.7,3.4c3.3,0,5.9-1.1,7.8-3.4c2-2.3,2.9-5.7,2.9-10.2V85.8l18.5,75.8c0.6,2.5,1.3,4.9,1.9,7.2c0.6,2.3,1.4,4.4,2.5,6.3
	s2.5,3.4,4.4,4.7s4.2,1.8,6.9,1.8c3.6,0,6.5-0.9,8.5-2.8c2.1-1.9,3.4-4,4.2-6.3c0.8-2.3,1.7-5.9,2.9-10.8l18.5-75.8v82.2
	c0,4.6,1,8,3,10.2c2,2.3,4.5,3.4,7.6,3.4c3.3,0,6-1.1,7.9-3.4c2-2.3,3-5.7,3-10.2V73.8C263.3,68.6,262,65.1,259.3,63.3z M373.8,150
	c-3-5-6.3-9.7-10.1-14.2s-7.7-7.8-11.9-10.1c9.9-2.2,17.2-6,22.1-11.3c4.9-5.3,7.3-12.4,7.3-21.3c0-4.3-0.7-8.4-2.2-12.3
	c-1.4-3.9-3.6-7.3-6.3-10.2c-2.8-2.9-6-5.2-9.6-6.7c-3-1.4-6.4-2.3-10.1-2.8c-3.7-0.5-8.2-0.7-13.5-0.7h-38c-5,0-8.7,1.2-11,3.5
	c-2.3,2.3-3.4,6.1-3.4,11.3v91.6c0,4.8,1,8.5,3.1,11c2,2.5,4.9,3.7,8.7,3.7c3.5,0,6.3-1.2,8.4-3.6c2.1-2.4,3.2-6.1,3.2-11.1v-38.2
	h8.2c4.1,0,7.6,0.6,10.3,1.7c2.7,1.1,5.4,3.3,8.1,6.3s5.7,7.6,9,13.5l9.4,16.1c2.2,3.8,4,6.7,5.2,8.6c1.3,1.9,2.8,3.6,4.6,4.8
	c1.8,1.3,4,1.9,6.6,1.9c2.2,0,4.1-0.4,5.8-1.3s3-2.1,4-3.6c1-1.5,1.5-3.1,1.5-4.7c0-1.5-0.8-4.3-2.5-8.3
	C379.1,159.6,376.8,155,373.8,150z M345.6,109.8c-3.8,1-8.6,1.5-14.2,1.5h-21V78.6h21.6c8,0,13.4,0.6,16.1,1.8
	c2.9,1.3,5.1,3.1,6.8,5.6c1.6,2.5,2.4,5.4,2.4,8.7c0,4.2-1,7.5-3,9.9C352.4,107.1,349.5,108.8,345.6,109.8z M567.9,63.3
	c-2-1.8-5-2.8-9-2.8h-74.3c-3.8,0-6.8,0.9-8.8,2.7c-2,1.8-3,4.2-3,7.3c0,3,1,5.4,2.9,7.2s4.9,2.7,8.9,2.7H510v86.5
	c0,4.9,1.1,8.6,3.3,11c2.2,2.4,5,3.6,8.5,3.6c3.4,0,6.2-1.2,8.3-3.6c2.2-2.4,3.2-6.1,3.2-11.1V80.4h25.5c4,0,7-0.9,9-2.7
	c2-1.8,3-4.2,3-7.2C570.8,67.5,569.9,65.1,567.9,63.3z"/>
<g id="Rounded_Rectangle_1">
	<g>
		<path class="st0" d="M452.5,11.7c0-1.5-1.3-2.7-2.8-2.7l-46.7,0.8c-1.5,0-2.7,1.3-2.7,2.8l0,2.1c0,1.5,1.3,2.7,2.8,2.7l46.7-0.8
			c1.5,0,2.7-1.3,2.7-2.8L452.5,11.7z"/>
	</g>
</g>
<g id="Rounded_Rectangle_1_copy">
	<g>
		<path class="st0" d="M452.8,24.1c0-1.5-1.3-2.7-2.8-2.7l-46.7,0.8c-1.5,0-2.7,1.3-2.7,2.8l0,2.1c0,1.5,1.3,2.7,2.8,2.7l46.7-0.8
			c1.5,0,2.7-1.3,2.7-2.8L452.8,24.1z"/>
	</g>
</g>
<g id="Rounded_Rectangle_1_copy_2">
	<g>
		<path class="st0" d="M453.1,36.4c0-1.5-1.3-2.7-2.8-2.7l-46.7,0.8c-1.5,0-2.7,1.3-2.7,2.8l0,2.1c0,1.5,1.3,2.7,2.8,2.7l46.7-0.8
			c1.5,0,2.7-1.3,2.7-2.8L453.1,36.4z"/>
	</g>
</g>
<path class="st0" d="M393.9,170.7c3.8-2.8,6.6-5.6,10-7.2c1.8-0.9,4.8-0.2,6.9,0.7c16.5,7.4,31.9,4.3,46.6-4.6
	c13.4-8.1,19.4-23,16.6-39.2c-1.8-10.3-5.4-19.8-10.9-28.6c-3.1-4.9-5.5-10.3-8-15.6c-0.6-1.3-0.6-3-0.1-4.7
	c7,18.9,21,34.4,24.2,55.1c4.5,29-14.8,54.4-44,56.2c-12.2,0.8-23.7-1-34.3-7.3C398.6,174.3,396.6,172.6,393.9,170.7z"/>
<path class="st0" d="M406.2,50.8c0,17-5.6,32-13.7,46.4c-6.8,12.2-10,25.6-6.4,39.6c1.7,6.3,5.3,12.1,8.5,19.2
	c-1.7,1.5-4.4,3.7-7.5,6.3c-4.8-6.6-7-14.2-7.7-22.1c-1.1-13.7,2.2-26.6,8.5-38.5c7.2-13.6,13.5-27.3,15.3-42.8
	C403.6,56,405.2,53.5,406.2,50.8z"/>
<path class="st0" d="M448.1,48.7c3.8,4.2,5.1,7.4,2.3,11.5C449.7,56.8,449.1,53.5,448.1,48.7z"/>
<path class="st0" d="M430.1,120.8c-12.2-1.5-23-2.8-34.9-4.3c20.6-18.9,40.5-37.2,60.5-55.5c0.3,0.2,0.7,0.4,1,0.6
	c-7.7,14.1-15.5,28.1-23.6,43c12.5,3.5,24.2,6.8,37.3,10.5c-28.2,19.1-55.5,37.4-82.7,55.8c-0.3-0.3-0.5-0.6-0.8-0.8
	C401,153.9,415.2,137.8,430.1,120.8z"/>
</svg>
